<?xml version="1.0" encoding="UTF-8"?>
<svg id="Layer_2" data-name="Layer 2" xmlns="http://www.w3.org/2000/svg" viewBox="0 0 390.05 389.98">
  <defs>
    <style>
      .cls-1 {
        fill: none;
        stroke: #2e73a7;
        stroke-dasharray: 0 4.59;
        stroke-miterlimit: 10;
        stroke-width: .57px;
      }

      .cls-2 {
        fill: #f8a79f;
      }

      .cls-2, .cls-3, .cls-4, .cls-5, .cls-6, .cls-7, .cls-8, .cls-9, .cls-10, .cls-11, .cls-12, .cls-13, .cls-14, .cls-15, .cls-16, .cls-17, .cls-18, .cls-19 {
        stroke-width: 0px;
      }

      .cls-3 {
        fill: #f5877e;
      }

      .cls-4 {
        fill: #f58440;
      }

      .cls-5 {
        fill: #f9a160;
      }

      .cls-6 {
        fill: #5a98c0;
      }

      .cls-7 {
        fill: #731e1e;
      }

      .cls-8 {
        fill: #2e81b2;
      }

      .cls-9 {
        fill: #5794c9;
      }

      .cls-10 {
        fill: #362836;
      }

      .cls-11 {
        fill: #20131f;
      }

      .cls-12 {
        fill: #211821;
      }

      .cls-13 {
        fill: #221524;
      }

      .cls-14 {
        fill: #aa5450;
      }

      .cls-15 {
        fill: #b42525;
      }

      .cls-16 {
        fill: #874039;
      }

      .cls-17 {
        fill: #fff;
      }

      .cls-18 {
        fill: #f15a44;
      }

      .cls-19 {
        fill: #f26961;
      }
    </style>
  </defs>
  <g id="Layer_1-2" data-name="Layer 1">
    <circle class="cls-9" cx="194.99" cy="194.99" r="194.99" transform="translate(-80.77 194.99) rotate(-45)"/>
    <g>
      <g>
        <g>
          <g>
            <path class="cls-6" d="m273.3,95.93s-1.45,22.73-7.44,32.64c-5.99,9.92-29.34,40.08,3.93,56.19s76.65-4.34,76.44-26.24c-.21-21.9-14.25-28.3-14.05-51.03.21-22.73-14.46-36.77-26.86-26.44-12.4,10.33-32.02,14.87-32.02,14.87Z"/>
            <path class="cls-8" d="m332.17,107.5c.21-22.73-14.46-36.77-26.86-26.44-3.22,2.68-6.92,4.97-10.64,6.89,3.2,6.42,4.93,13.93,5.77,19.85,1.92,13.49,1.84,30.94-7.95,41.64-4.05,4.42-10.49,5.32-15.86,2.81-6.42-3-10.58-9.81-12.35-16.47-.31-1.15-.56-2.31-.8-3.46-7.89,12.34-23.48,38.02,6.3,52.45,33.26,16.11,76.65-4.34,76.44-26.24-.21-21.9-14.25-28.3-14.05-51.03Z"/>
          </g>
          <g>
            <path class="cls-3" d="m291.91,124.05s2,17.27-.37,22.07c-2.37,4.8,21.51,2.12,21.51,2.12l-.48-17.82-20.65-6.37Z"/>
            <g>
              <g>
                <path class="cls-2" d="m283.73,113.31s-5.64-24.8,18.92-25.73c28.4-1.07,30.37,50.99,10.45,50.87-23.85-.15-29.36-25.14-29.36-25.14Z"/>
                <path class="cls-2" d="m287.06,115.87s-6.65-8.38-8.92,1.87c-2.27,10.25,21.73,15.92,8.92-1.87Z"/>
              </g>
              <path class="cls-6" d="m307.53,79.43s8.08,22.55-17.87,44.3c0,0,.73-5.3-2.6-7.86-3.33-2.56-7.33-3.18-8.92,1.87,0,0-11.02-8.16-3.03-27.18,7.99-19.02,32.42-11.14,32.42-11.14Z"/>
            </g>
          </g>
        </g>
        <g>
          <path class="cls-18" d="m315.87,111.55c1.2,2.83,3.49,4.9,6.4,5.75-1.33,1.38-2.93,2.56-4.75,3.14,1.27-1.05,2.46-2.1,3.51-3.28l.2.8c-2.85-.77-5.24-3.43-5.36-6.4h0Z"/>
          <path class="cls-13" d="m316.36,106.76c-.28-2.4,1.69-5.16,4.3-4.94,2.54.22,4.21,2.09,5.16,4.21-1-.41-1.87-.93-2.8-1.38-3.09-1.65-4.64-.43-6.66,2.11h0Z"/>
          <path class="cls-13" d="m310.94,107.43c-3.44-2.01-7.05-3.25-10.5-.76-.83.47-1.52,1.1-2.36,1.62,2.04-6.37,9.98-6.8,12.86-.86h0Z"/>
          <g>
            <path class="cls-19" d="m305.34,125.54l16.9-1.96s-3.6,13.13-16.9,1.96Z"/>
            <path class="cls-15" d="m309.86,126.2c1.31.01,2.76-.17,4.03.23,1.97.62,3.19,1.34,4.55,2.56,2.82-1.83,3.79-5.4,3.79-5.4l-16.9,1.96c.6.51,1.19.96,1.75,1.37.81-.46,1.73-.73,2.78-.72Z"/>
          </g>
          <path class="cls-13" d="m303.9,112.44c0,1.6-.52,2.91-1.16,2.91s-1.16-1.3-1.16-2.91.52-2.91,1.16-2.91,1.16,1.3,1.16,2.91Z"/>
          <path class="cls-13" d="m320.22,111.2c0,1.6-.52,2.91-1.16,2.91s-1.16-1.3-1.16-2.91.52-2.91,1.16-2.91,1.16,1.3,1.16,2.91Z"/>
          <path class="cls-18" d="m287.59,125.84c-3.55-.6-2.36-3.41-.26-5.04,0,0-.14.51-.14.51-.92-1.76-2.05-4.65-4.26-4.85-.94.08-1.97,1.03-2.03,2.05-.07,1.11.48,2.29,1.16,3.3-1.42-1.23-2.62-3.64-1.07-5.25,3.07-3.26,6.13,1.72,7.04,4.43,0,0,.11.3.11.3l-.25.21c-1.91,1.38-3.25,3.17-.3,4.33h0Z"/>
        </g>
      </g>
      <g>
        <path class="cls-5" d="m327.2,205.2l2.04,12.24s19.18,7.75,24.48,41.21c5.3,33.46-3.67,80.14-3.67,80.14h-87.32s-6.94-72.39,13.87-129.92l-1.22-12.24,51.82,8.57Z"/>
        <path class="cls-4" d="m261.78,298.47l76.44-1.06-2.94-76.02c-3.49-2.93-6.04-3.96-6.04-3.96l-2.04-12.24-51.82-8.57,1.22,12.24c-10.83,29.94-14.14,63.91-14.83,89.6Z"/>
      </g>
      <g>
        <g>
          <path class="cls-2" d="m372.88,98.94l15.34,4.67c.79-24.86-.62-49.83-2.16-23.48,0,0-1.52-29.73-3.48-.73,0,0-2.6-26.09-4.17-.41,0,0-1.24-23.56-4.24,8.22-.42,4.42-.85,8.31-1.28,11.74Z"/>
          <path class="cls-2" d="m375.98,87.85s-15.78-16.54,1.6-3.33c17.38,13.22-1.6,3.33-1.6,3.33Z"/>
        </g>
        <g>
          <g>
            <path class="cls-10" d="m389.14,94.39l-17.43-1.54-3.08,40.51-30.25,13.33c-9.23-4.61-22.56-.51-22.56-.51l1.54-6.15-28.2-4.61c-.51,13.84-6.67,8.2-17.43,8.72-10.77.51-5.64,37.94-5.64,37.94,7.69,41.02,71.78,30.25,72.3,13.84.21-6.65-.6-13.47-1.62-19.22,18.54-8.78,50.92-24.97,52.39-31.54,2.05-9.23,0-50.76,0-50.76Z"/>
            <g>
              <path class="cls-11" d="m389.14,94.39l-17.43-1.54-3.08,40.51-25.92,11.42c-.42,10.64-2.32,21.12-4.95,31.43,18.68-8.88,49.94-24.6,51.38-31.06,2.05-9.23,0-50.76,0-50.76Z"/>
              <path class="cls-11" d="m273.61,157.49c-1.81-2.29-3.53-4.67-5.47-6.85-.47-.53-.95-1.07-1.45-1.58-3.73,10.27-.61,33.02-.61,33.02,7.69,41.02,71.78,30.25,72.3,13.84.04-1.39.03-2.8,0-4.19-14.19,5.72-57.54,1.35-64.77-34.24Z"/>
            </g>
          </g>
          <path class="cls-10" d="m296.03,153.1s-6.48-6.85-16.45-10.75c-19.95-7.81-57.3,18.38-57.3,18.38l-1.93,20.41,58.92-19.64,16.76-8.4Z"/>
        </g>
      </g>
    </g>
    <g>
      <g>
        <g>
          <path class="cls-6" d="m44.49,197.26l3.99,21.24s-24.18,20.73-24.18,56.24,4.26,64.37,4.26,64.37l37.6-.28,3.35-61.31,36.98-20.67s-5.42-25.28-15.05-37.92c-9.63-12.64-46.95-21.67-46.95-21.67Z"/>
          <g>
            <path class="cls-8" d="m38.91,229.53c4.48.75,9.84,1.67,14.07,2.46l-1.96,67.08c5.77.06,11.55.16,17.32.27l1.17-21.84,36.98-20.67s-5.42-25.28-15.05-37.92c-9.63-12.64-46.95-21.67-46.95-21.67l3.99,21.24s-4.47,3.84-9.57,11.04Z"/>
            <path class="cls-8" d="m63.75,249.62l-3.55,8.12s9.37,38.93,20.92,81.08h32.58s.87-85.44-19.86-115.08c-18.6-26.59-30.09,25.88-30.09,25.88Z"/>
          </g>
        </g>
        <path class="cls-1" d="m45.31,232.55s-13.29,16.75-15.6,36.97c-2.31,20.22,3.47,69.29,3.47,69.29"/>
      </g>
      <g>
        <g>
          <path class="cls-16" d="m46.55,151.71l-.57,2.28c-2.13-.15-4.05-.45-5.73-.79-.6-2.91-1.44-7.62-1.5-11.77,0,0,.04,5.72.62,11.58-3.85-.88-6.16-1.96-6.16-1.96,0,0-6.92-36,5.09-48.21,12.02-12.21,34.61-6.06,34.61-6.06l-10.06,55.08c-6,2.03-11.61,2.45-16.3,2.17v-2.32Z"/>
          <g>
            <g>
              <path class="cls-2" d="m58.36,135.86s4.19,25.01-1.59,24.72-24.42-1.8-19.51,7.44c4.91,9.24,49.68,12.13,53.44-7.22,0,0-11.89,2.57-14.2-.9-2.31-3.47.68-24.94.68-24.94l-18.82.91Z"/>
              <path class="cls-3" d="m58.63,159.38c5.76-1.49,11.43-3.3,17-5.45-.04-7.53,1.55-18.98,1.55-18.98l-18.82.91s3.11,18.58.27,23.52Z"/>
            </g>
            <path class="cls-2" d="m83.69,124.96s1.5-23.6-24.17-22c-28.77,1.8-22.2,54.97-1.62,51.62,24.63-4.02,25.79-29.62,25.79-29.62Z"/>
          </g>
        </g>
        <g>
          <path class="cls-18" d="m51.35,127.29c.33,3.1-1.74,6.21-4.57,7.45,0,0,.09-.85.09-.85,1.26,1.06,2.65,1.97,4.13,2.86-1.97-.32-3.81-1.3-5.4-2.53,2.89-1.32,4.94-3.81,5.75-6.92h0Z"/>
          <path class="cls-13" d="m50.63,124.36c-2.48-2.33-4.26-3.35-7.22-1.17-.9.61-1.72,1.28-2.69,1.86.66-2.34,2.1-4.53,4.7-5.15,2.67-.62,5.13,1.94,5.21,4.46h0Z"/>
          <path class="cls-13" d="m56.04,124.76c2.08-6.59,10.37-7.35,13.45-1.07-.95-.41-1.77-.96-2.69-1.32-3.82-2.06-7.64-.16-10.76,2.39h0Z"/>
          <path class="cls-13" d="m49.14,131.16c-.5-1.41-.72-4.02-2.37-4.24-1.63,0-1.92,2.77-2.43,4.09-.21-1.49-.2-3.17.8-4.45.8-1.03,2.57-.89,3.3.14.95,1.3.93,2.98.7,4.46h0Z"/>
          <path class="cls-13" d="m65.88,130.92c-.49-1.31-.81-3.8-2.42-3.82-.65-.02-1.15.57-1.49,1.37-.34.79-.56,1.68-.85,2.58-.16-.93-.18-1.88.05-2.85.29-1.82,2.43-2.99,3.87-1.53,1.03,1.18,1.06,2.82.84,4.25h0Z"/>
          <path class="cls-17" d="m65.22,139.95l-17.79.54s5.72,13.05,17.79-.54Z"/>
        </g>
        <g>
          <path class="cls-14" d="m59.56,104.26c.36-13.73,18.77-12.52,26.98-3.6,8.21,8.92,10.39,39.59,10.39,39.59-1.18,1.94-2.7,3.63-4.41,5.1-.13-3.09-.49-9.12-1.46-13.37,0,0,1.33,7.89.7,14.01-2.26,1.81-4.78,3.27-7.25,4.42l-.46-4.68c-.1-1.21-.2-2-.2-2l.2,2c.1,1.29.2,3.05.15,4.82-6.18,2.84-11.89,3.83-11.89,3.83,3.83-11.54,1.28-27.47,1.28-27.47-15.55-7.46-14.02-22.66-14.02-22.66Z"/>
          <g>
            <path class="cls-2" d="m79.61,134.8c.04-1.2.03-2.41.06-3.62.01-.33.02-.66.04-.98.06-.13.12-.25.19-.38,0,0,4.17-7.37,7.2.37,1.97,5.02-4.93,9.88-7.9,8.46.23-1.27.37-2.56.41-3.86Z"/>
            <path class="cls-18" d="m81.25,137.8c2.23-1.31.94-2.59-.79-3.46,0,0-.23-.14-.23-.14l.05-.26c.39-2.29,2.23-6.7,5.11-4.46,1.44,1.12.8,3.19-.2,4.37.42-.9.71-1.92.53-2.81-.16-.82-1.14-1.44-1.9-1.4-1.8.48-2.28,2.88-2.82,4.45,0,0-.18-.39-.18-.39,1.89,1.06,3.21,3.16.43,4.09h0Z"/>
          </g>
        </g>
      </g>
      <g>
        <g>
          <g>
            <g>
              <path class="cls-2" d="m120.95,89.72s-10.42-28.82-3.64.32c0,0-10.39-24.92-4.24.84,0,0-8.3-22.83-1.71,9.37,6.58,32.2,4.33,37.55,4.33,37.55,0,0-15.98,10.28-28.2,20.33,3.51,6.14,6.9,12.34,10.35,18.51,14.92-8.59,36.27-22.14,38.24-30.46,3.06-12.91-25.27-98.36-15.13-56.46Z"/>
              <path class="cls-2" d="m113.36,100.35s-20.51-11.55.58-3.75c21.09,7.8-.58,3.75-.58,3.75Z"/>
            </g>
            <path class="cls-3" d="m97.85,176.65c5.11-2.94,10.98-6.47,16.57-10.17-.31-.55-.62-1.09-.95-1.63-3.56-5.92-8.12-11.74-13.57-16.2-4.08,2.95-8.44,6.23-12.4,9.49,3.51,6.13,6.9,12.34,10.35,18.51Z"/>
          </g>
          <path class="cls-5" d="m83.9,159.33s1.85-4.29,10.52-9.78c0,0,12.42,9.15,15.02,26.19l-14.15,5.68-11.26-20.8"/>
        </g>
        <g>
          <path class="cls-5" d="m92.39,158.32c-2.69-.37-6.28.81-8.49,1.02-.97,3.13-2.61,5.95-5.21,7.9-3.98,2.98-8.88,4.11-13.78,3.06-7.61-1.63-14.45-6-18.58-12.28-5.9-1.07-13.39-1.42-14.23,5.62-1.23,10.24,7.63,56.02,8.94,60.3,30.33,10.4,51.38.87,54.64.08l3.64-37.39s2.51-27.02-6.93-28.31Z"/>
          <path class="cls-4" d="m68.99,190.25c-10.23-2.12-19.97-5.33-28.39-11.68-2.97-2.24-5.7-4.76-8.36-7.34,1.35,16.58,7.71,49.13,8.8,52.71,30.33,10.4,51.38.87,54.64.08l7.27-34.75c-10.88,3.3-22.92,3.27-33.97.98Z"/>
        </g>
        <g>
          <g>
            <path class="cls-2" d="m29.71,206.94s13.92-25.48,13.43-33.72c-.49-8.24-11.64-8.89-11.64-8.89,0,0-22.61,37.47-20.19,48.05.69,3.03,18.4-5.44,18.4-5.44Z"/>
            <path class="cls-3" d="m20.23,185.62c.18.15.96.69.96.7.11.07.21.14.32.21.87.52,1.76,1.02,2.68,1.46,1.72.81,3.48,1.53,5.3,2.11,1.03.33,2.06.64,3.11.91.23.06.39.1.5.13.07.02.15.03.24.05.42.09.84.18,1.26.26.86.17,1.73.32,2.59.46,3.21-7.08,6.19-14.81,5.95-18.69-.49-8.24-11.64-8.89-11.64-8.89,0,0-6.02,9.97-11.51,21.08.08.07.15.14.23.21Z"/>
          </g>
          <path class="cls-5" d="m34.25,157.67c5.99-1.72,13.46-1.84,13.67,4.16,2.62,8.82-3.51,29.56-3.51,29.56-13.3-.43-27.6-9.54-27.6-9.54,3.87-11.02,11.61-21.51,17.44-24.18Z"/>
        </g>
      </g>
    </g>
    <g>
      <g>
        <polygon class="cls-10" points="153.92 258.54 145.25 338.81 172.4 338.81 181.64 275.88 188 275.88 193.2 338.81 219.77 338.81 223.82 229.08 153.92 258.54"/>
        <polygon class="cls-12" points="178.67 296.1 181.64 275.88 188 275.88 189.67 296.1 221.35 296.1 223.82 229.08 153.92 258.54 149.86 296.1 178.67 296.1"/>
      </g>
      <g>
        <g>
          <g>
            <g>
              <path class="cls-14" d="m205.83,114.33s-3.2,28.84-1.28,30.44c1.92,1.6,25.47-3.59,31.23,14.67,5.77,18.27-79.62,11.6-86.35,2.31-6.73-9.29,33.01-16.34,33.01-16.34l1.92-20.19,21.47-10.9Z"/>
              <path class="cls-16" d="m194.31,139.79c3.69-2.52,7.42-5.86,10.08-9.78.56-7.77,1.44-15.69,1.44-15.69l-21.47,10.9-1.81,19.04c4.16-.71,8.16-2.02,11.76-4.47Z"/>
            </g>
            <g>
              <path class="cls-6" d="m140.17,184.19s1.25-27.88,12.46-32.05c11.22-4.17,21.15-6.41,21.15-6.41,0,0,3.2,9.61,14.74,9.93,11.54.32,19.55-12.5,19.55-12.5,0,0,22.11.56,28.83,11.78,6.73,11.22,6.75,29.62,6.75,29.62l-103.48-.37Z"/>
              <path class="cls-8" d="m141.67,172.26c-1.25,6.46-1.49,11.93-1.49,11.93l103.48.37s-.01-9.86-2.66-19.55c-6.68.86-88.22,7.32-99.33,7.24Z"/>
            </g>
          </g>
          <g>
            <path class="cls-14" d="m187.44,80.88s-18.1-6.48-18.77,23.02c-.59,25.94,9.39,33.3,17.88,32.41,14.27-1.5,20.34-18.33,21.23-26.59,1.72-15.93-6.48-28.61-20.34-28.83Z"/>
            <path class="cls-11" d="m170.09,121.06s1.54,5.78,2.89,6.16c1.35.39-1.54-7.7,1.35-8.28,2.89-.58,17.91-3.66,20.03-.39s-1.35,7.89,4.24,7.7c5.58-.19,7.89-8.86,6.55-28.69,0,0-7.51-1.54-7.12-11.55,0,0-29.08,10.4-35.82-3.47-6.74-13.86,8.47-17.72,13.86-8.67,0,0-6.74-7.51-2.12-10.59,4.62-3.08,7.51,8.67,7.51,8.67,0,0-3.27-9.05,2.89-10.59,6.16-1.54,6.93,10.01,6.93,10.01,0,0-1.54-7.7,1.73-8.09,3.27-.39,1.73,8.28,1.73,8.28,0,0,4.81-9.24,13.86-3.85,9.05,5.39.58,15.6.58,15.6,0,0,2.5-14.25,14.06-4.62,11.55,9.63-8.28,23.11-8.28,23.11,0,0-5.97-2.5-6.35,4.62-.39,7.12.77,36.01-13.29,35.24,0,0-.96,3.27-8.28,3.85-7.32.58-10.98-5.97-10.98-5.97,0,0,.58,2.31-5.78-.96-6.35-3.27-.19-17.52-.19-17.52Z"/>
          </g>
        </g>
        <g>
          <g>
            <path class="cls-7" d="m180.1,101.22c.24,5.54-.48,11.04-1.61,16.45,0,0-.55-.6-.55-.6,1.8-.03,3.61-.01,5.43.13-1.98.45-3.97.73-5.97.98.6-5.71,1.39-11.36,2.7-16.96h0Z"/>
            <path class="cls-11" d="m197.95,100.83c-3.28-2.34-7.09-4.18-10.99-2.38-.94.33-1.78.83-2.75,1.21,3.17-6.15,11.52-5.17,13.74,1.17h0Z"/>
            <path class="cls-11" d="m179.62,99.71c-3.1-2.43-5.44-4.37-9.21-2.02-.47.28-.94.59-1.52.85,2.05-6.32,9.7-4.95,10.73,1.17h0Z"/>
          </g>
          <g>
            <path class="cls-14" d="m206.89,112.84s.67-14.3,7.38-11.17c6.7,3.13-1.1,21.4-8.49,14.97-5.14-4.47,1.12-3.8,1.12-3.8Z"/>
            <path class="cls-7" d="m209.57,116.64c1.52-1.63,2.92-3.32-.32-3.7,0,0-.45-.08-.45-.08v-.47c-.03-2.17.09-4.37.94-6.42.32-.68.72-1.47,1.62-1.89,1.65-.73,3.7.73,3.78,2.44.11,1.52-.51,2.89-1.33,4.09.43-1.32.76-2.74.49-3.95-.19-.9-.93-1.42-1.75-1.57-2.27-.05-2.46,5.58-2.65,7.3,0,0-.46-.55-.46-.55,3.71.82,2.88,3.33.12,4.79h0Z"/>
          </g>
          <g>
            <path class="cls-11" d="m192.33,105.12c.03,1.62.51,2.93,1.06,2.92.56-.01.99-1.33.96-2.95-.03-1.62-.51-2.93-1.06-2.92-.56.01-.99,1.33-.96,2.95Z"/>
            <path class="cls-11" d="m174.71,104.55c.03,1.62.51,2.93,1.06,2.92.56-.01.99-1.33.96-2.95-.03-1.62-.51-2.93-1.06-2.92-.56.01-.99,1.33-.96,2.95Z"/>
          </g>
          <path class="cls-17" d="m176.06,122.4l16.75-1.73s-6.55,8.67-16.75,1.73Z"/>
        </g>
      </g>
      <path class="cls-2" d="m175.38,149.23s-.79-5.68-2.33-5.71c-1.55-.03-2.58,1.8-2.58,1.8,0,0-3.17-2.46-4.45-.59,0,0-4.08-1.61-4.59,2.08-.52,3.69,2.42,15.59,2.25,1.38,0,0,3.12,16.94,3.06-.18,0,0,6.03,19.43,4.79-.66,0,0,6.91,12.79,3.86,1.88Z"/>
    </g>
    <rect class="cls-17" x="60.6" y="178.18" width="265.29" height="112.93"/>
    <g>
      <path class="cls-10" d="m114.02,251.22l-11.31-34.65h4.83l5.4,17.07c1.49,4.68,2.78,8.89,3.7,12.95h.1c.98-4.01,2.42-8.38,3.96-12.9l5.86-17.12h4.78l-12.39,34.65h-4.93Z"/>
      <path class="cls-10" d="m147.02,251.22l-.36-3.14h-.15c-1.39,1.95-4.06,3.7-7.61,3.7-5.04,0-7.61-3.55-7.61-7.15,0-6.01,5.35-9.3,14.96-9.25v-.51c0-2.06-.57-5.76-5.66-5.76-2.31,0-4.73.72-6.48,1.85l-1.03-2.98c2.06-1.34,5.04-2.21,8.17-2.21,7.61,0,9.46,5.19,9.46,10.18v9.3c0,2.16.1,4.27.41,5.96h-4.11Zm-.67-12.7c-4.93-.1-10.54.77-10.54,5.6,0,2.93,1.95,4.32,4.27,4.32,3.24,0,5.29-2.06,6.01-4.16.15-.46.26-.98.26-1.44v-4.32Z"/>
      <path class="cls-10" d="m175.76,250.3c-1.18.62-3.8,1.44-7.15,1.44-7.51,0-12.39-5.09-12.39-12.7s5.24-13.21,13.37-13.21c2.67,0,5.04.67,6.27,1.29l-1.03,3.5c-1.08-.62-2.78-1.18-5.24-1.18-5.71,0-8.79,4.22-8.79,9.41,0,5.76,3.7,9.3,8.64,9.3,2.57,0,4.27-.67,5.55-1.23l.77,3.39Z"/>
      <path class="cls-10" d="m194.84,251.22l-.36-3.14h-.15c-1.39,1.95-4.06,3.7-7.61,3.7-5.04,0-7.61-3.55-7.61-7.15,0-6.01,5.35-9.3,14.96-9.25v-.51c0-2.06-.57-5.76-5.66-5.76-2.31,0-4.73.72-6.48,1.85l-1.03-2.98c2.06-1.34,5.04-2.21,8.17-2.21,7.61,0,9.46,5.19,9.46,10.18v9.3c0,2.16.1,4.27.41,5.96h-4.11Zm-.67-12.7c-4.93-.1-10.54.77-10.54,5.6,0,2.93,1.95,4.32,4.27,4.32,3.24,0,5.29-2.06,6.01-4.16.15-.46.26-.98.26-1.44v-4.32Z"/>
      <path class="cls-10" d="m205.84,233.08c0-2.57-.05-4.68-.21-6.73h4.01l.26,4.11h.1c1.23-2.36,4.11-4.68,8.22-4.68,3.44,0,8.79,2.06,8.79,10.59v14.86h-4.52v-14.34c0-4.01-1.49-7.35-5.76-7.35-2.98,0-5.29,2.11-6.07,4.63-.21.57-.31,1.34-.31,2.11v14.96h-4.52v-18.15Z"/>
      <path class="cls-10" d="m252.11,250.3c-1.18.62-3.8,1.44-7.15,1.44-7.51,0-12.39-5.09-12.39-12.7s5.24-13.21,13.37-13.21c2.67,0,5.04.67,6.27,1.29l-1.03,3.5c-1.08-.62-2.78-1.18-5.24-1.18-5.71,0-8.79,4.22-8.79,9.41,0,5.76,3.7,9.3,8.64,9.3,2.57,0,4.27-.67,5.55-1.23l.77,3.39Z"/>
      <path class="cls-10" d="m259.98,226.34l5.45,14.7c.57,1.65,1.18,3.6,1.59,5.09h.1c.46-1.49.98-3.39,1.59-5.19l4.94-14.6h4.78l-6.79,17.74c-3.24,8.53-5.45,12.9-8.53,15.58-2.21,1.95-4.42,2.72-5.55,2.93l-1.13-3.8c1.13-.36,2.62-1.08,3.96-2.21,1.23-.98,2.78-2.72,3.8-5.04.21-.46.36-.82.36-1.08s-.1-.62-.31-1.18l-9.2-22.93h4.93Z"/>
    </g>
    <g>
      <g>
        <path class="cls-14" d="m271.2,182.74s0-8.38-2.1-8.73-3.86,2.1-3.86,2.1c0,0-3.86-4.19-5.96-1.75,0,0-5.26-3.14-6.67,2.1-1.4,5.24.35,23.05,2.81,2.45,0,0,1.05,25.15,4.21.35,0,0,4.56,29.34,6.67,0,0,0,7.02,19.91,4.91,3.49Z"/>
        <path class="cls-14" d="m115.72,182.27s0-8.38,1.91-8.73c1.91-.35,3.5,2.1,3.5,2.1,0,0,3.5-4.19,5.41-1.75,0,0,4.78-3.14,6.05,2.1,1.27,5.24-.32,23.05-2.55,2.45,0,0-.96,25.15-3.82.35,0,0-4.14,29.34-6.05,0,0,0-6.37,19.91-4.46,3.49Z"/>
      </g>
      <path class="cls-2" d="m56.87,190.96s-45.83,5.2-45.83,19.06,26.77.77,44.87-10.01c0,0,26,18.29,6.35,1.16,0,0,21.18,14.44,1.93-3.08,0,0,20.22,12.52,1.54-2.5,0,0,19.26,9.24-.77-3.85,0,0-1.93-2.31-8.09-.77Z"/>
    </g>
  </g>
</svg>