<?xml version="1.0" encoding="UTF-8"?>
<svg id="Layer_2" data-name="Layer 2" xmlns="http://www.w3.org/2000/svg" xmlns:xlink="http://www.w3.org/1999/xlink" viewBox="0 0 183.19 202.01">
  <defs>
    <style>
      .cls-1 {
        stroke: #4a63ae;
        stroke-width: .2px;
      }

      .cls-1, .cls-2, .cls-3, .cls-4, .cls-5, .cls-6, .cls-7, .cls-8, .cls-9, .cls-10 {
        fill: none;
      }

      .cls-1, .cls-3, .cls-4, .cls-5, .cls-6, .cls-7, .cls-8, .cls-9, .cls-10 {
        stroke-miterlimit: 10;
      }

      .cls-11 {
        clip-path: url(#clippath);
      }

      .cls-2, .cls-12, .cls-13, .cls-14, .cls-15, .cls-16, .cls-17, .cls-18, .cls-19, .cls-20, .cls-21, .cls-22, .cls-23, .cls-24, .cls-25, .cls-26, .cls-27, .cls-28, .cls-29, .cls-30, .cls-31, .cls-32, .cls-33 {
        stroke-width: 0px;
      }

      .cls-12 {
        opacity: .7;
      }

      .cls-12, .cls-14 {
        fill: #a7c0e4;
      }

      .cls-13 {
        fill: url(#linear-gradient);
      }

      .cls-14, .cls-10 {
        opacity: .39;
      }

      .cls-3 {
        stroke: #2b2f59;
      }

      .cls-3, .cls-4, .cls-5 {
        stroke-width: .46px;
      }

      .cls-4 {
        stroke: #5f63ad;
      }

      .cls-5 {
        stroke: #e76658;
      }

      .cls-34 {
        clip-path: url(#clippath-1);
      }

      .cls-6 {
        stroke: #505f84;
        stroke-width: .36px;
      }

      .cls-7 {
        stroke: #a7cfee;
      }

      .cls-7, .cls-8 {
        stroke-width: .37px;
      }

      .cls-8 {
        stroke: #673237;
      }

      .cls-9 {
        stroke: #fff;
        stroke-width: .77px;
      }

      .cls-10 {
        stroke: #a7c0e4;
        stroke-width: .39px;
      }

      .cls-15 {
        fill: #f9fcfd;
      }

      .cls-16 {
        fill: #5f63ad;
      }

      .cls-17 {
        fill: #2c4064;
      }

      .cls-18 {
        fill: #4a63ae;
      }

      .cls-19 {
        fill: #2b3654;
      }

      .cls-20 {
        fill: #567cbe;
      }

      .cls-21 {
        fill: #5794c9;
      }

      .cls-22 {
        fill: #18152b;
      }

      .cls-23 {
        fill: #c2d8f0;
      }

      .cls-24 {
        fill: #9bc0e6;
      }

      .cls-25 {
        fill: #7f3737;
      }

      .cls-26 {
        fill: #7d7fbd;
      }

      .cls-27 {
        fill: #7e9fd3;
      }

      .cls-28 {
        fill: #f3775b;
      }

      .cls-29 {
        fill: #fff;
      }

      .cls-30 {
        fill: #eb7754;
      }

      .cls-31 {
        fill: #e8f4fc;
      }

      .cls-32 {
        fill: #f78d1e;
      }

      .cls-33 {
        fill: #f68c6a;
      }
    </style>
    <linearGradient id="linear-gradient" x1="36.68" y1="93.6" x2="169.16" y2="93.6" gradientUnits="userSpaceOnUse">
      <stop offset="0" stop-color="#fff" stop-opacity=".2"/>
      <stop offset="1" stop-color="#fff" stop-opacity=".7"/>
    </linearGradient>
    <clipPath id="clippath">
      <ellipse class="cls-2" cx="128.55" cy="100.94" rx="13.28" ry="8.89" transform="translate(-34.86 104.22) rotate(-39.29)"/>
    </clipPath>
    <clipPath id="clippath-1">
      <ellipse class="cls-2" cx="113.35" cy="137.14" rx="13.57" ry="9.08" transform="translate(-61.22 102.78) rotate(-39.29)"/>
    </clipPath>
  </defs>
  <g id="Layer_1-2" data-name="Layer 1">
    <circle class="cls-21" cx="91.59" cy="91.59" r="91.59" transform="translate(-37.94 91.59) rotate(-45)"/>
    <g>
      <path class="cls-13" d="m113.78,155.43H39c-1.68,0-2.8-1.73-2.12-3.26l53.06-119.02c.37-.84,1.2-1.37,2.12-1.37h74.78c1.68,0,2.8,1.73,2.12,3.26l-53.06,119.02c-.37.84-1.2,1.37-2.12,1.37Z"/>
      <path class="cls-29" d="m136.45,71.48l24.13-54.13c.59-1.31-.38-2.79-1.81-2.79h-67.71c-2.51,0-4.79,1.48-5.81,3.77l-24.5,54.95c-.59,1.31.38,2.79,1.81,2.79h66.81c3.06,0,5.83-1.8,7.08-4.6Z"/>
      <path class="cls-9" d="m127.69,108.57l24.13-54.13c.59-1.31-.38-2.79-1.81-2.79h-67.71c-2.51,0-4.79,1.48-5.81,3.77l-24.5,54.95c-.59,1.31.38,2.79,1.81,2.79h66.81c3.06,0,5.83-1.8,7.08-4.6Z"/>
      <polyline class="cls-10" points="97 89.45 100.09 89.45 91.78 105.68 41.55 105.68 43.57 101.72"/>
      <g>
        <g>
          <ellipse class="cls-31" cx="95.35" cy="35.84" rx="15.25" ry="11.46" transform="translate(-.17 71.21) rotate(-40.92)"/>
          <ellipse class="cls-24" cx="95.35" cy="35.84" rx="13.46" ry="10.11" transform="translate(-.17 71.21) rotate(-40.92)"/>
        </g>
        <g>
          <g>
            <path class="cls-18" d="m95.56,38.17s-6.13,1.01-8.75,2.04c-1.78,1.07-2.06,1.92-2.48,3.2,0,0,0,0,0,.01,1.42,2.49,4.14,4.07,7.68,4.07,4.57,0,9.28-2.64,12.29-6.47-1.64-2.41-8.73-2.86-8.73-2.86Z"/>
            <path class="cls-33" d="m93.41,35.56l-1.06,4.46c-.13.56.15,1.03.67,1.11.83.13,2.15.12,3.55-.78.43-.27.71-.73.74-1.16.15-2.08.57-6.36.57-6.36l-4.48,2.72Z"/>
            <path class="cls-33" d="m92.45,30.83s-2.88,5.83-2.32,7.39c.65,1.07,6.44-1.33,7.38-2.89.95-1.56,3.13-4.39,1.43-6.16-1.7-1.77-4.32-1.17-6.49,1.66Z"/>
          </g>
          <path class="cls-25" d="m92.45,30.83s-.51-2.06,1.24-3.27,3.98-.97,4.78.24c.8,1.21.87,1.39.87,1.39,0,0,.86.18,1.14,1.09.28.91-1.53,3.21-2.27,3.88s-.59.68-.59.68l-.25-.32s.14-1.76.5-2.79c.1-.55-.53-1.33-1.63-1.52-1.1-.18-1.5.84-3.81.6Z"/>
          <path class="cls-33" d="m98.07,33.48s.4-.74,1.11-.53c.71.24-.71,2.46-1.45,2.31-.72-.18.34-1.78.34-1.78Z"/>
          <path class="cls-29" d="m97.37,38.36s-1.54,1.7-3.05,2.18c-.27.08-.66.61-.66.61l-.28-.73s-1.04-.61-.74-1.66l-.21.16-.56,1.37s-.41,1.29-.39,1.78l1.39-.77s.85.28,1.52.04c0,0,.29.97.55,1.05.26.08,2.36-1.9,2.68-2.59.36-.69.27-1.37.27-1.37l-.54-.08Z"/>
        </g>
      </g>
      <g>
        <path class="cls-14" d="m141.78,40.92h-29.33c-.9,0-1.36-.73-1.04-1.63l4.15-11.41c.33-.9,1.32-1.63,2.22-1.63h29.33c.9,0,1.36.73,1.04,1.63l-4.15,11.41c-.33.9-1.32,1.63-2.22,1.63Z"/>
        <polygon class="cls-24" points="143.48 31.41 118.22 31.41 118.66 30.19 143.92 30.19 143.48 31.41"/>
        <polygon class="cls-24" points="132.39 34.27 117.18 34.27 117.62 33.04 132.83 33.04 132.39 34.27"/>
        <polygon class="cls-24" points="120.18 36.85 116.24 36.85 116.68 35.62 120.62 35.62 120.18 36.85"/>
      </g>
      <g>
        <path class="cls-24" d="m113.81,46.17c-.41,1.01-1.56,1.84-2.58,1.84s-1.5-.82-1.09-1.84c.41-1.01,1.56-1.84,2.58-1.84s1.5.82,1.09,1.84Z"/>
        <path class="cls-24" d="m120.18,46.17c-.41,1.01-1.56,1.84-2.58,1.84s-1.5-.82-1.09-1.84,1.56-1.84,2.58-1.84,1.5.82,1.09,1.84Z"/>
        <path class="cls-24" d="m126.56,46.17c-.41,1.01-1.56,1.84-2.58,1.84s-1.5-.82-1.09-1.84,1.56-1.84,2.58-1.84,1.5.82,1.09,1.84Z"/>
        <path class="cls-32" d="m132.93,46.17c-.41,1.01-1.56,1.84-2.58,1.84s-1.5-.82-1.09-1.84,1.56-1.84,2.58-1.84,1.5.82,1.09,1.84Z"/>
        <path class="cls-14" d="m139.31,46.17c-.41,1.01-1.56,1.84-2.58,1.84s-1.5-.82-1.09-1.84,1.56-1.84,2.58-1.84,1.5.82,1.09,1.84Z"/>
        <g>
          <g>
            <polygon class="cls-14" points="124.16 51.75 116.07 60.16 107.68 63.48 117.19 70.46 126.74 62.31 124.16 51.75"/>
            <polygon class="cls-12" points="122.24 56.63 116.07 60.16 110.84 63.46 117.93 68.55 124.63 62.43 122.24 56.63"/>
            <polygon class="cls-1" points="124.16 51.75 116.07 60.16 107.68 63.48 117.16 70.53 126.74 62.31 124.16 51.75"/>
            <path class="cls-18" d="m120.36,63.09c-.13.32-.5.59-.82.59s-.48-.26-.35-.59c.13-.32.5-.59.82-.59s.48.26.35.59Z"/>
            <polyline class="cls-1" points="112.4 57.29 119.56 62.96 106.78 63.62"/>
            <polyline class="cls-1" points="116.63 72.48 119.82 62.96 128.25 62.12"/>
            <line class="cls-1" x1="124.63" y1="50.57" x2="119.82" y2="62.96"/>
          </g>
          <path class="cls-24" d="m113.05,57.18c-.22.54-.84.98-1.38.98s-.81-.44-.59-.98c.22-.54.84-.99,1.38-.99s.81.44.59.99Z"/>
          <path class="cls-32" d="m107.26,63.62c-.22.54-.84.98-1.38.98s-.81-.44-.59-.98c.22-.54.84-.99,1.38-.99s.81.44.59.99Z"/>
          <path class="cls-24" d="m117.56,72.64c-.22.54-.84.98-1.38.98s-.81-.44-.59-.98c.22-.54.84-.99,1.38-.99s.81.44.59.99Z"/>
          <path class="cls-24" d="m129.4,62.13c-.22.54-.84.99-1.38.99s-.81-.44-.59-.99c.22-.54.84-.98,1.38-.98s.81.44.59.98Z"/>
          <path class="cls-32" d="m125.73,50.24c-.22.54-.84.98-1.38.98s-.81-.44-.59-.98c.22-.54.84-.99,1.38-.99s.81.44.59.99Z"/>
        </g>
      </g>
      <g>
        <polygon class="cls-18" points="103.36 58.46 78.81 58.46 80.68 53.82 105.24 53.82 103.36 58.46"/>
        <polygon class="cls-14" points="88.58 68.92 74.58 68.92 75.39 66.93 89.38 66.93 88.58 68.92"/>
        <polygon class="cls-14" points="86.48 64.93 76.19 64.93 78.07 60.29 88.36 60.29 86.48 64.93"/>
      </g>
      <g>
        <path class="cls-29" d="m141.02,114.5l12.02-26.95c.29-.65-.19-1.39-.9-1.39h-33.71c-1.25,0-2.39.74-2.89,1.88l-12.2,27.36c-.29.65.19,1.39.9,1.39h33.27c1.52,0,2.9-.9,3.53-2.29Z"/>
        <g>
          <ellipse class="cls-14" cx="128.55" cy="100.94" rx="13.28" ry="8.89" transform="translate(-34.86 104.22) rotate(-39.29)"/>
          <g class="cls-11">
            <g>
              <path class="cls-20" d="m129.45,102.07s5.47,2.72,6.05,5.21c.58,2.49-1.85,9.05-1.85,9.05h-21.73s3.56-7.7,6.33-9.51c2.77-1.81,8.11-3.19,8.11-3.19l3.09-1.56Z"/>
              <g>
                <g>
                  <path class="cls-24" d="m127.21,100.31l-1.71,3.68c-.21.46-.09.88.31,1,.62.19,1.66.3,2.94-.34.39-.19.7-.55.81-.92.53-1.75,1.7-5.33,1.7-5.33l-4.05,1.9Z"/>
                  <path class="cls-24" d="m127.39,96.22s-3.4,4.68-3.27,6.05c.3.96,5.31-.55,6.36-1.79,1.05-1.24,3.31-3.44,2.33-5.09s-3.16-1.37-5.42.82Z"/>
                </g>
                <path class="cls-18" d="m127.54,95.53s-.06.07-.12.18c-.2.33-.49,1,.33,1.05l1.09.06s1.75-1,2.44.06c.51,1.05-1.16,1.7-1.02,2.23.14.53.07.41-.17.7-.24.29-.43.76-1.21,1.11-.79.35-1.41.29-2.16.7-.75.41-2.2-.06-2.35-.41-.35-.29-.55.35-.78.76-.22.41-.92.53-.25,1.05.67.53,1.16.76,2.32.06,1.16-.7,1.2-.64,2.37-.94,1.17-.29,2.05-.89,2.49-1.61s.59-1.67.97-2.02.59,0,.42.41,1.43-.35,1.81-1.58c.38-1.23-.29-1.17-.36-1.88-.07-.7.73-1.52-.12-2.17-.85-.64-1.65.18-1.96-.23-.3-.41-1.63-.47-2.69.41-1.06.88-1.12,2.12-1.12,2.12"/>
                <path class="cls-24" d="m131.29,98.61s.46-.59.98-.35c.51.26-1.04,2.02-1.59,1.82-.53-.22.62-1.47.62-1.47Z"/>
                <path class="cls-18" d="m124,101.39s.5-1.82,1.77-2.05,1.84.53,1.75,1.17.48,1,.48,1c0,0-3.19,1.52-4-.12Z"/>
              </g>
            </g>
          </g>
        </g>
      </g>
      <path class="cls-29" d="m125.9,150.88l12.02-26.95c.29-.65-.19-1.39-.9-1.39h-33.71c-1.25,0-2.39.74-2.89,1.88l-12.2,27.36c-.29.65.19,1.39.9,1.39h33.27c1.52,0,2.9-.9,3.53-2.29Z"/>
      <g>
        <ellipse class="cls-14" cx="113.35" cy="137.14" rx="13.57" ry="9.08" transform="translate(-61.22 102.78) rotate(-39.29)"/>
        <g class="cls-34">
          <g>
            <path class="cls-18" d="m116.44,133.98s1.66-.79,1.88.17-.51,1.64-.51,1.64c0,0,1.49-.41,1.89.87.4,1.28-.8,1.88-.3,2.34s1.53,1.43.09,3.05c-1.44,1.62-3.55,3.47-6,2.28-2.45-1.19-1.67-7.01-1.67-7.01l.6-1.7,4.02-1.62Z"/>
            <path class="cls-18" d="m114.84,129.1s-3.69.31-4.85,2.89c-1.16,2.58,1.15,2.76,1.15,2.76l3.7-5.65Z"/>
            <path class="cls-24" d="m90.89,146.65l.24.43s2.84,3.39,5.37,5.56h5.26c2.75-2.5,6.49-6.86,6.51-7.04.02-.25,3.3-3.82,2.58-5.27-.72-1.45-1.66-1.22-1.66-1.22,0,0-1.07.15-2.27,1.39-1.2,1.24-7.11,10.41-7.11,10.41,0,0-.76-1.37-2.16-2.41-1.4-1.04-5.49-3.25-5.49-3.25,0,0,.25-1.77.23-2.11-.02-.34-1.04-1.88-1.35-1.55-.31.33.41,1.78.41,1.78,0,0-.8,2.86-.56,3.28Z"/>
            <path class="cls-20" d="m104.06,150.07s.16,1.13.46,2.57h10.45c.23-2.36.72-7.1,1.01-8.22.39-1.51.05-4.73.17-5.62s-2.4-.56-2.4-.56l-3.29.05-.53.23c-.73.31-1.39.86-1.82,1.52-.41.62-1.01,1.53-1.82,2.72-1.3.99-4.17,2.7-3.95,4.86.21,2.16,1.72,2.45,1.72,2.45Z"/>
            <path class="cls-24" d="m111.56,136.28s-2.92,3.61-3.73,8.16c.95-.29,3.85-2.95,5.56-4.57.72-.68.79-1.06.65-1.76-.07-.35.24-1.3.64-2.4.27-1.52-3.13.57-3.13.57Z"/>
            <path class="cls-24" d="m120.73,151.07s.45.63,1.2,1.57h4.67c-.9-1.19-1.62-2.16-1.84-2.5-.76-1.16-6.11-12.81-9.37-11.36-.6.27-2.78,2.09-1.89,4.14.89,2.05,7.22,8.15,7.22,8.15Z"/>
            <g>
              <path class="cls-24" d="m111.43,131.52c-.46.58-1.62,2.09-2.3,3.42-.6,1.17-.19,2.23.93,2.35,1.61.17,4.06-.23,4.86-1.15,1.2-1.37,3.76-3.79,2.72-5.67-1.01-1.83-3.31-1.64-5.8.59-.15.14-.29.29-.42.45Z"/>
              <path class="cls-18" d="m112.52,130.32s-1.61,2.64,2.97,4.32l.58.26s2-1.59,2.03-3.27c.03-1.68-.84-2.29-1.71-2.66-.87-.37-3.25.72-3.86,1.35Z"/>
            </g>
            <path class="cls-24" d="m115.36,135.02s1.16-.8,1.15-.06c-.01.74-1.64,1.53-1.81,1.22-.17-.31.67-1.16.67-1.16Z"/>
          </g>
        </g>
      </g>
      <g>
        <path class="cls-20" d="m89.27,128.55h-37.13c-1.14,0-1.69-.92-1.23-2.06l2.64-6.53c.46-1.14,1.76-2.06,2.9-2.06h37.13c1.14,0,1.69.92,1.23,2.06l-2.64,6.53c-.46,1.14-1.76,2.06-2.9,2.06Z"/>
        <polygon class="cls-29" points="88.98 123.73 57 123.73 57.62 122.18 89.6 122.18 88.98 123.73"/>
      </g>
      <g>
        <g>
          <path class="cls-15" d="m59.23,20.96h-1.26c-.22,0-.33-.18-.24-.4l.51-1.26c.09-.22.34-.4.57-.4h1.26c.22,0,.33.18.24.4l-.51,1.26c-.09.22-.34.4-.57.4Z"/>
          <path class="cls-23" d="m72.11,20.96h-1.26c-.22,0-.33-.18-.24-.4l.51-1.26c.09-.22.34-.4.57-.4h1.26c.22,0,.33.18.24.4l-.51,1.26c-.09.22-.34.4-.57.4Z"/>
        </g>
        <g>
          <path class="cls-23" d="m56.84,26.88h-1.26c-.22,0-.33-.18-.24-.4l.51-1.26c.09-.22.34-.4.57-.4h1.26c.22,0,.33.18.24.4l-.51,1.26c-.09.22-.34.4-.57.4Z"/>
          <path class="cls-15" d="m63.28,26.88h-1.26c-.22,0-.33-.18-.24-.4l.51-1.26c.09-.22.34-.4.57-.4h1.26c.22,0,.33.18.24.4l-.51,1.26c-.09.22-.34.4-.57.4Z"/>
          <path class="cls-15" d="m69.72,26.88h-1.26c-.22,0-.33-.18-.24-.4l.51-1.26c.09-.22.34-.4.57-.4h1.26c.22,0,.33.18.24.4l-.51,1.26c-.09.22-.34.4-.57.4Z"/>
          <path class="cls-15" d="m74.87,26.88h-1.26c-.22,0-.33-.18-.24-.4l.51-1.26c.09-.22.34-.4.57-.4h1.26c.22,0,.33.18.24.4l-.51,1.26c-.09.22-.34.4-.57.4Z"/>
        </g>
        <g>
          <path class="cls-15" d="m54.45,32.81h-1.26c-.22,0-.33-.18-.24-.4l.51-1.26c.09-.22.34-.4.57-.4h1.26c.22,0,.33.18.24.4l-.51,1.26c-.09.22-.34.4-.57.4Z"/>
          <path class="cls-15" d="m49.29,32.81h-1.26c-.22,0-.33-.18-.24-.4l.51-1.26c.09-.22.34-.4.57-.4h1.26c.22,0,.33.18.24.4l-.51,1.26c-.09.22-.34.4-.57.4Z"/>
          <path class="cls-15" d="m60.89,32.81h-1.26c-.22,0-.33-.18-.24-.4l.51-1.26c.09-.22.34-.4.57-.4h1.26c.22,0,.33.18.24.4l-.51,1.26c-.09.22-.34.4-.57.4Z"/>
          <path class="cls-23" d="m67.33,32.81h-1.26c-.22,0-.33-.18-.24-.4l.51-1.26c.09-.22.34-.4.57-.4h1.26c.22,0,.33.18.24.4l-.51,1.26c-.09.22-.34.4-.57.4Z"/>
        </g>
        <path class="cls-15" d="m52.05,38.73h-1.26c-.22,0-.33-.18-.24-.4l.51-1.26c.09-.22.34-.4.57-.4h1.26c.22,0,.33.18.24.4l-.51,1.26c-.09.22-.34.4-.57.4Z"/>
      </g>
      <g>
        <g>
          <path class="cls-20" d="m59.74,137.27h-1.77c-.31,0-.46-.25-.34-.57l.72-1.77c.13-.31.48-.57.8-.57h1.77c.31,0,.46.25.34.57l-.72,1.77c-.13.31-.48.57-.8.57Z"/>
          <path class="cls-20" d="m77.9,137.27h-1.77c-.31,0-.46-.25-.34-.57l.72-1.77c.13-.31.48-.57.8-.57h1.77c.31,0,.46.25.34.57l-.72,1.77c-.13.31-.48.57-.8.57Z"/>
        </g>
        <g>
          <path class="cls-23" d="m56.37,145.62h-1.77c-.31,0-.46-.25-.34-.57l.72-1.77c.13-.31.48-.57.8-.57h1.77c.31,0,.46.25.34.57l-.72,1.77c-.13.31-.48.57-.8.57Z"/>
          <path class="cls-32" d="m65.45,145.62h-1.77c-.31,0-.46-.25-.34-.57l.72-1.77c.13-.31.48-.57.8-.57h1.77c.31,0,.46.25.34.57l-.72,1.77c-.13.31-.48.57-.8.57Z"/>
          <path class="cls-23" d="m74.53,145.62h-1.77c-.31,0-.46-.25-.34-.57l.72-1.77c.13-.31.48-.57.8-.57h1.77c.31,0,.46.25.34.57l-.72,1.77c-.13.31-.48.57-.8.57Z"/>
          <path class="cls-23" d="m81.79,145.62h-1.77c-.31,0-.46-.25-.34-.57l.72-1.77c.13-.31.48-.57.8-.57h1.77c.31,0,.46.25.34.57l-.72,1.77c-.13.31-.48.57-.8.57Z"/>
        </g>
        <g>
          <path class="cls-23" d="m53,153.97h-1.77c-.31,0-.46-.25-.34-.57l.72-1.77c.13-.31.48-.57.8-.57h1.77c.31,0,.46.25.34.57l-.72,1.77c-.13.31-.48.57-.8.57Z"/>
          <path class="cls-23" d="m45.73,153.97h-1.77c-.31,0-.46-.25-.34-.57l.72-1.77c.13-.31.48-.57.8-.57h1.77c.31,0,.46.25.34.57l-.72,1.77c-.13.31-.48.57-.8.57Z"/>
          <path class="cls-23" d="m62.07,153.97h-1.77c-.31,0-.46-.25-.34-.57l.72-1.77c.13-.31.48-.57.8-.57h1.77c.31,0,.46.25.34.57l-.72,1.77c-.13.31-.48.57-.8.57Z"/>
          <path class="cls-32" d="m71.15,153.97h-1.77c-.31,0-.46-.25-.34-.57l.72-1.77c.13-.31.48-.57.8-.57h1.77c.31,0,.46.25.34.57l-.72,1.77c-.13.31-.48.57-.8.57Z"/>
        </g>
        <path class="cls-32" d="m49.62,162.32h-1.77c-.31,0-.46-.25-.34-.57l.72-1.77c.13-.31.48-.57.8-.57h1.77c.31,0,.46.25.34.57l-.72,1.77c-.13.31-.48.57-.8.57Z"/>
      </g>
      <g>
        <polygon class="cls-14" points="90.62 102.1 40.39 102.1 48.7 85.87 98.93 85.87 90.62 102.1"/>
        <g>
          <ellipse class="cls-27" cx="82.55" cy="93.92" rx="7.47" ry="5.83" transform="translate(-41.5 78.16) rotate(-41.45)"/>
          <path class="cls-29" d="m80.85,97.28c-.21,0-.4-.08-.51-.24l-1.71-2.27c-.24-.32-.11-.83.29-1.15.4-.32.91-.32,1.15,0l1.27,1.7,4.55-3.65c.4-.32.91-.32,1.15,0,.24.32.11.83-.29,1.15l-5.27,4.22c-.2.16-.43.24-.63.24Z"/>
        </g>
        <g>
          <path class="cls-6" d="m42.96,54.99c0,1.27-.93,2.31-2.08,2.31s-2.08-1.03-2.08-2.31.93-2.31,2.08-2.31,2.08,1.03,2.08,2.31Z"/>
          <path class="cls-29" d="m21.12,67.46s-3.32.22-5.81,3.58c-2.49,3.35,1.12,15.66,11.8,20.63,6.96,2.73,7.46-3.48,5.72-7.83-1.74-4.35-6.77-15.35-11.71-16.37Z"/>
          <path class="cls-23" d="m68.61,199.15c0,1.58-15.24,2.86-34.04,2.86s-34.04-1.28-34.04-2.86,15.24-2.86,34.04-2.86,34.04,1.28,34.04,2.86Z"/>
          <g>
            <path class="cls-22" d="m22.14,189.9s.72-1.55,3.4-1.13c2.68.41,2.99.93,3.3,2.27.31,1.34,1.24,2.79,1.86,3.09.62.31,2.89,1.86,4.75,2.17s2.06,1.44,1.65,1.96c-.41.52-7.43.93-8.98.72,0,0-5.26-.1-6.5-.52-1.24-.41.41-8.05.52-8.56Z"/>
            <path class="cls-22" d="m35.58,189.9s.72-1.55,3.4-1.13c2.68.41,2.99.93,3.3,2.27.31,1.34,1.24,2.79,1.86,3.09.62.31,2.89,1.86,4.75,2.17,1.86.31,2.06,1.44,1.65,1.96-.41.52-7.43.93-8.98.72,0,0-5.26-.1-6.5-.52-1.24-.41.41-8.05.52-8.56Z"/>
            <path class="cls-19" d="m19.66,151.49s-.78-4.27,3.73-5.71c4.51-1.43,5.37.65,6.73,4.55s-1.15,40.69-1.15,40.69c0,0-5.5.13-6.83-.66,0,0-3.67-24.42-3.4-30.36.28-5.95.93-8.51.93-8.51Z"/>
          </g>
          <path class="cls-28" d="m40.78,56.56s1.06,1.43,1.06,2.17-1.43.75-1.43.75l.37-2.92Z"/>
          <path class="cls-33" d="m35.7,42.01s3.05.78,4.78,5.47c1.73,4.69.58,14.65-.58,15.82-1.15,1.17-4.65.72-9.51-.88-5.13-1.69-6.86-7.03-7.78-10.54-1.76-6.74,4.1-13.67,13.09-9.86Z"/>
          <path class="cls-33" d="m24.75,67.88l2.48-8.87s4.95-1.44,8.05,1.86l1.03,1.44v5.78s-5.16,1.03-11.55-.21Z"/>
          <path class="cls-19" d="m17.84,115.64s-1.86,10.83,0,23.21,5.57,13.62,8.98,13.62,4.33-9.9,4.95-14.24c.62-4.33,3.09-19.19-1.55-22.59-4.64-3.4-9.9-3.71-12.38,0Z"/>
          <path class="cls-17" d="m30.84,130.19s-3.71-9.9,2.79-14.24c6.5-4.33,11.45-3.71,13,3.4,1.55,7.12,1.86,31.57-.31,36.52-2.17,4.95-9.9-2.79-15.47-25.69Z"/>
          <path class="cls-29" d="m23.44,67.83s.69-2.43,1.31-2.64c.62-.21,8.25-1.03,12.38,1.44,1.86,1.44,1.65,2.48,1.65,2.48,0,0-12.32-2.36-15.34-1.28Z"/>
          <path class="cls-16" d="m46.13,115.64s.62,1.49.25,1.99c-.5.5-14.54,5.47-29.32,1.86-.25,0,.37-2.49.37-2.49l28.7-1.37Z"/>
          <path class="cls-26" d="m16.91,93.26c-.41-2.89-1.65-17.12-1.24-19.19.39-1.93,2.03-5.48,5.45-6.61.24-.08.49-.15.74-.2,0,0,12.79-.83,21.87,3.09,0,0,3.11,2.58,3.68,15.73,0,0-.17,2.22-.67,6.94-.5,4.72.25,8.2.99,12.92.75,4.72,2.24,9.44-3.23,10.44-5.22.99-19.63,3.48-28.08.99-1.74-1.24.75-6.96.75-11.43s-.26-12.69-.26-12.69Z"/>
          <path class="cls-17" d="m36.72,152.16s-.31-4.33,4.33-5.26c4.64-.93,5.26,1.24,6.19,5.26.93,4.02-4.58,39.11-4.58,39.11,0,0-6.07.35-7.31-.58,0,0-1.42-24.3-.49-30.18.93-5.88,1.86-8.36,1.86-8.36Z"/>
          <path class="cls-3" d="m29.6,127.87s4.33,13.93,7.58,20.74"/>
          <path class="cls-3" d="m38.42,151.39s2.63-1.55,5.26,0"/>
          <path class="cls-3" d="m37.95,153.09s2.17-1.24,5.88,1.39"/>
          <path class="cls-3" d="m21.71,149.53s1.7-1.55,5.57.15"/>
          <path class="cls-3" d="m22.94,151.08s2.48-1.24,4.8.62"/>
          <line class="cls-3" x1="28.67" y1="153.55" x2="27.74" y2="185.12"/>
          <path class="cls-3" d="m41.46,127.09s3.51,2.06,4.95-1.24"/>
          <path class="cls-3" d="m44.97,127.51s1.65,12.79,1.24,21.25"/>
          <path class="cls-5" d="m34.32,61.25s1.08,2.79,4.72,2.32"/>
          <path class="cls-25" d="m38.99,44.06s1.76,2.42,1.87,3.86c.11,1.43-2.2,2.86-2.53,3.75-.33.88.43,1.99.1,2.54s-.43,1.68-.43,1.68l.11,1.25c.04.46-.27.87-.72.96l-.26.05c-.38.08-.76-.13-.9-.49-.4-1-1.21-2.85-1.86-3.02-.88-.22-1.76,1.32-2.09,2.09-.19.43-.65,1.61-1.03,2.55-.33.82-1.1,1.38-1.98,1.45-.95.07-2.1.12-2.52,0-.77-.22-4.72-7.52-4.83-11.05-.11-3.53,2.31-7.05,4.85-8.15,2.53-1.1,7.49-2.09,12.23,2.53Z"/>
          <path class="cls-4" d="m21.14,74.69c0,.99,4.15,15.95,3.49,18.59-.66,2.64-2.49,21.12-2.49,21.12"/>
          <path class="cls-25" d="m32.64,39.26s2.42.09,3.26-1.12c.84-1.21,3.54-1.49,5.5.47,1.96,1.96,1.86,5.59.19,6.9,0,0,1.96-.37,2.24,1.03.28,1.4-2.14,3.54-5.03,4.19,0,0-4.66-1.3-6.06-.47-1.4.84-10.81-.09-10.81-.09,0,0-2.05-1.86-1.49-3.54.56-1.68,1.12.09,1.12.09,0,0-.47-2.33,2.61-5.68,3.08-3.35,7.36-1.49,8.48-1.77Z"/>
          <path class="cls-30" d="m78.4,89.21l6.62.28s-.19.65-1.21.84c-1.03.19-4.85.65-4.85.65l-.56-1.77Z"/>
          <path class="cls-33" d="m79.24,90.61s2.24-.37,2.7-.28c.47.09.93,2.8.93,2.8l-1.77,1.86s-.65-.28,0-1.3l.37-.65-2.7-1.03.47-1.4Z"/>
          <g>
            <path class="cls-33" d="m72.81,92.19l2.8-.37s2.33-2.33,2.8-2.61c.47-.28,2.8,3.35,3.08,3.82,0,.37-1.4,1.58-2.8,1.77-1.4.19-1.86-.19-1.86-.19l-3.08,1.21-.93-3.63Z"/>
            <g>
              <path class="cls-29" d="m43.73,70.35s-6.24-.06-6.06,7.58c.19,7.64,13.23,20.13,16.77,21.62,3.54,1.49,18.64-2.61,19.94-3.35,1.3-.75.93-3.91-1.12-4.66l-15.47-.75s-9.69-19.81-14.07-20.44Z"/>
              <path class="cls-7" d="m58.05,92.03s1.86,1.99,1.37,4.6"/>
              <path class="cls-7" d="m59.05,91.66s3.11.99,3.35,4.35"/>
            </g>
          </g>
          <line class="cls-6" x1="42.96" y1="54.99" x2="36.5" y2="54.99"/>
          <path class="cls-28" d="m37.26,55.76s-.44-1.9-2.05-1.03c-1.61.88.29,5.42,1.61,5.13s.73-3.37.44-4.1Z"/>
          <path class="cls-8" d="m23.79,46.81s4.47-1.03,7.64,2.33"/>
          <path class="cls-8" d="m24.38,46.12s1.93-2.05,5.22-1.18"/>
          <path class="cls-8" d="m23.95,47.68s1.37.12,2.3,1.68"/>
          <path class="cls-8" d="m37.49,38.79s4.47,1.4,3.45,5.5"/>
        </g>
      </g>
    </g>
  </g>
</svg>