<?xml version="1.0" encoding="UTF-8"?>
<svg xmlns="http://www.w3.org/2000/svg" xmlns:xlink="http://www.w3.org/1999/xlink" viewBox="0 0 192.68 195.42">
  <defs>
    <style>
      .cls-1 {
        mix-blend-mode: multiply;
      }

      .cls-1, .cls-2, .cls-3, .cls-4, .cls-5, .cls-6, .cls-7, .cls-8, .cls-9, .cls-10, .cls-11, .cls-12, .cls-13, .cls-14, .cls-15, .cls-16, .cls-17, .cls-18, .cls-19, .cls-20, .cls-21, .cls-22, .cls-23 {
        stroke-width: 0px;
      }

      .cls-1, .cls-7 {
        fill: #ccc;
      }

      .cls-24 {
        clip-path: url(#clippath);
      }

      .cls-2, .cls-25, .cls-26, .cls-27, .cls-28 {
        fill: none;
      }

      .cls-25, .cls-26, .cls-27, .cls-28 {
        stroke-miterlimit: 10;
      }

      .cls-25, .cls-26, .cls-28 {
        stroke: #70301e;
      }

      .cls-25, .cls-28 {
        stroke-linecap: round;
      }

      .cls-26, .cls-28 {
        stroke-width: .75px;
      }

      .cls-27 {
        stroke: #1a1a1a;
      }

      .cls-29 {
        isolation: isolate;
      }

      .cls-3 {
        fill: #f2f2f2;
      }

      .cls-4 {
        fill: #4d4d4d;
      }

      .cls-5 {
        fill: #70301e;
      }

      .cls-6 {
        fill: #5694ca;
      }

      .cls-8 {
        fill: #b3b3b3;
      }

      .cls-9 {
        fill: #666;
      }

      .cls-10 {
        fill: #333;
      }

      .cls-11 {
        fill: #999;
      }

      .cls-12 {
        fill: #8c4c3a;
      }

      .cls-13 {
        fill: #a16250;
      }

      .cls-14 {
        fill: #ff8b6b;
      }

      .cls-15 {
        fill: #ff766b;
      }

      .cls-16 {
        fill: #fff;
      }

      .cls-17 {
        fill: #ffddd4;
      }

      .cls-18 {
        fill: #ffb5a1;
      }

      .cls-19 {
        fill: #ff9991;
      }

      .cls-20 {
        fill: #fcac95;
      }

      .cls-21 {
        fill: red;
      }

      .cls-22 {
        fill: #ffcabb;
      }

      .cls-23 {
        fill: #e6e6e6;
      }
    </style>
    <clipPath id="clippath">
      <rect class="cls-2" x="25" y="18.66" width="62.83" height="89.8"/>
    </clipPath>
  </defs>
  <g class="cls-29">
    <g id="Layer_2" data-name="Layer 2">
      <g id="OBJECTS">
        <circle class="cls-6" cx="100.26" cy="106.97" r="88.45" transform="translate(-46.27 102.23) rotate(-45)"/>
        <g>
          <g>
            <rect class="cls-3" y="9.37" width="112.59" height="159.84"/>
            <path class="cls-27" d="m12.02,9.33V3.8c0-1.82,1.48-3.3,3.3-3.3h0c1.82,0,3.3,1.48,3.3,3.3v14.51c0,1.09-.89,1.98-1.98,1.98h0c-1.09,0-1.98-.89-1.98-1.98V5.28"/>
            <g>
              <rect class="cls-9" x="27.11" y="114.51" width="58.36" height="4.86"/>
              <rect class="cls-7" x="18.6" y="123.41" width="75.39" height="2.88"/>
              <rect class="cls-7" x="18.6" y="130.32" width="75.39" height="2.88"/>
              <rect class="cls-7" x="18.6" y="137.23" width="75.39" height="2.88"/>
              <rect class="cls-7" x="18.6" y="144.15" width="75.39" height="2.88"/>
              <rect class="cls-7" x="18.6" y="151.06" width="33.8" height="2.88"/>
            </g>
            <polygon class="cls-1" points="112.59 169.21 112.59 37.91 91.5 34.24 69.28 169.21 112.59 169.21"/>
            <g class="cls-24">
              <g>
                <polygon class="cls-10" points="76.15 85.17 83.03 120.4 69.15 120.4 69.15 85.17 76.15 85.17"/>
                <polygon class="cls-10" points="36.68 85.17 29.81 120.4 44.88 120.4 44.22 85.17 36.68 85.17"/>
                <polygon class="cls-7" points="37.11 85.49 44.23 85.49 44.22 85.17 36.68 85.17 29.81 120.4 30.3 120.4 37.11 85.49"/>
                <rect class="cls-5" x="42.71" y="50.49" width="29.09" height="26.57"/>
                <g>
                  <g>
                    <polygon class="cls-22" points="62.05 77.26 76.22 85.17 69.88 120.4 43.03 120.4 36.68 85.17 50.63 77.26 62.05 77.26"/>
                    <polygon class="cls-18" points="62.05 77.26 55.11 77.26 55.11 120.4 69.88 120.4 76.22 85.17 62.05 77.26"/>
                    <polygon class="cls-18" points="62.05 77.26 55.11 77.26 55.11 120.4 69.88 120.4 76.22 85.17 62.05 77.26"/>
                    <g>
                      <path class="cls-22" d="m62.07,78.05v-11.38h-11.1v11.6c3.06,3.33,8.14,2.92,11.1-.22Z"/>
                      <polygon class="cls-17" points="52.1 70.8 52.1 77.36 48.54 79.5 48.31 78.57 50.8 76.93 50.92 70 52.1 70.8"/>
                      <path class="cls-18" d="m55.11,66.67v13.83c2.48.39,5.12-.51,6.96-2.45v-11.38h-6.96Z"/>
                      <path class="cls-14" d="m50.86,73.28l4.88,2.45c.74.37,1.66.37,2.4,0l3.93-1.97v-7.09h-11.2v6.61Z"/>
                    </g>
                    <path class="cls-16" d="m65.63,89c-1.15.65-2.19,2.14-3.58,2.45-4.47,1.02-9.83,1.05-13.61-1.59-.3-.21-.6-.43-.92-.67v31.21h18.21l-.1-31.4Z"/>
                  </g>
                  <g>
                    <polygon class="cls-4" points="64.36 78.54 56.34 111.04 48.31 78.57 36.68 85.17 38.58 109.06 43.03 120.4 69.88 120.4 74.19 110.75 76.22 85.17 64.36 78.54"/>
                    <polygon class="cls-9" points="37.48 86.24 46.96 81.18 51.46 97.62 38.89 101.04 37.48 86.24"/>
                    <polygon class="cls-7" points="37.55 96.41 37.05 85.45 40.51 83 36.68 85.17 37.55 96.41"/>
                    <polygon class="cls-9" points="39.22 102.99 51.64 99.96 55.27 108.71 39.54 108.71 39.22 102.99"/>
                    <polygon class="cls-9" points="75.14 86.24 65.65 81.18 61.16 97.62 73.72 101.04 75.14 86.24"/>
                    <polygon class="cls-9" points="73.39 102.99 60.97 99.96 57.34 108.71 73.07 108.71 73.39 102.99"/>
                    <polygon class="cls-10" points="61 112.4 41.09 112.2 44.42 120.4 60.22 120.4 63.63 120.4 68.49 120.4 71.82 112.2 61 112.4"/>
                  </g>
                  <g>
                    <polygon class="cls-10" points="48.31 78.57 43.45 84.51 48.54 86.69 44.51 89.64 56.34 111 48.31 78.57"/>
                    <polygon class="cls-23" points="48.31 78.57 43.74 82.95 48.33 86.57 44.88 88 56.21 110.8 48.31 78.57"/>
                    <polygon class="cls-11" points="48.31 78.57 43.94 83.1 48.54 86.72 45 88.24 56.34 111.04 48.31 78.57"/>
                    <polygon class="cls-8" points="47.55 80.45 44.9 83.09 49.04 86.06 47.55 80.45"/>
                    <polygon class="cls-8" points="49.36 87.23 45.97 88.71 54.32 105.15 49.36 87.23"/>
                  </g>
                  <g>
                    <polygon class="cls-10" points="64.36 78.54 69.22 84.51 64.14 86.69 68.16 89.64 56.34 111 64.36 78.54"/>
                    <polygon class="cls-11" points="64.36 78.54 68.73 83.07 64.14 86.69 67.67 88.2 56.34 111 64.36 78.54"/>
                    <polygon class="cls-8" points="64.97 80.45 67.62 83.09 63.48 86.06 64.97 80.45"/>
                    <polygon class="cls-8" points="63.15 87.23 66.55 88.71 58.2 105.15 63.15 87.23"/>
                  </g>
                </g>
                <g>
                  <g>
                    <path class="cls-18" d="m41.16,52.49c-.99.5-1.08,1.44-.92,2.22.41,2.05,1.75,4.03,3.87,5.61.33.24.77.49,1.25.38.62-.14.75-.72.75-1.16-.02-1.89,0-3.97-.73-5.61-.45-1.03-2.46-2.34-4.22-1.44Z"/>
                    <path class="cls-17" d="m40.76,55.02c-.15-.78-.07-1.71.92-2.22.95-.48,1.96-.33,2.77.08-.86-.61-2.12-.98-3.29-.39-.99.5-1.08,1.44-.92,2.22.41,2.05,1.75,4.03,3.87,5.61.14.11.31.21.49.28-2.1-1.58-3.43-3.55-3.84-5.58Z"/>
                  </g>
                  <g>
                    <path class="cls-18" d="m72.82,52.49c.99.5,1.08,1.44.92,2.22-.41,2.05-1.75,4.03-3.87,5.61-.33.24-.77.49-1.25.38-.62-.14-.75-.72-.75-1.16.02-1.89,0-3.97.73-5.61.45-1.03,2.46-2.34,4.22-1.44Z"/>
                    <path class="cls-14" d="m69.56,60.52l3.8-7.62s-.31-.29-.54-.41c-1.77-.9-3.77.41-4.22,1.44-.72,1.64-.71,3.72-.73,5.61,0,.44.13,1.02.75,1.16.35.08.94-.18.94-.18Z"/>
                  </g>
                </g>
                <g>
                  <path class="cls-22" d="m56.99,27.54h0c-2.19,0-4.23.44-6.06,1.22-1.1,1.24-2.18,2.49-3.23,3.76-2.08,2.5-4.05,5.09-5.82,7.82-.35,1.96-.34,4.02.09,6.08l4.34,20.96c.13.64.6,1.21,1.26,1.54l8.22,4.11c.74.37,1.66.37,2.4,0l8.22-4.11c.66-.33,1.12-.9,1.26-1.54l4.34-20.97c1.97-9.53-4.91-18.88-15.02-18.88Z"/>
                  <polygon class="cls-17" points="45.97 52.94 46.68 48.68 49.05 47.92 48.88 51.04 45.97 52.94"/>
                  <path class="cls-17" d="m48.41,61.39h-2.72l1.3,5.75c.12.53.47.99.96,1.23l2.16,1.11-1.69-8.09Z"/>
                  <path class="cls-18" d="m58.56,27.62v45.23l7.85-3.93c.66-.33,1.12-.9,1.26-1.54l4.34-20.97c1.87-9.02-4.21-17.89-13.45-18.8Z"/>
                  <path class="cls-14" d="m71.01,36.76c-.76-1.74-1.82-3.32-3.13-4.67l-6.73-3.99c-1.31-.36-2.7-.56-4.16-.56h0c-.71,0-1.41.05-2.08.14l-4.92,2.16c-.77.89-1.53,1.78-2.28,2.68-2.08,2.5-4.05,5.08-5.81,7.8-.35,1.96-.35,4.03.08,6.1l.18.87,6.19-9.18,9.31,12.55,11.25,4.53.86,2.06,1.76-8.51-.52-11.98Z"/>
                  <polygon class="cls-17" points="43.93 45.87 44.45 52.57 45.26 45.78 48.5 39.38 43.93 45.87"/>
                </g>
                <g>
                  <g>
                    <g>
                      <g>
                        <path class="cls-16" d="m46.77,54.12s1.04.68,3.08.8c1.54.09,2.93-.54,2.93-.54,0,0-.4-2.19-2.85-2.07-2.65.13-3.16,1.81-3.16,1.81Z"/>
                        <path class="cls-5" d="m46.77,54.12c.22-.59.45-1.29,1.13-1.69.65-.38,1.35-.44,2.02-.45.7,0,1.43.19,1.99.63.56.41.99,1.12.87,1.8-.18-.64-.69-1.03-1.18-1.3-.52-.26-1.09-.38-1.68-.37-.61,0-1.23.03-1.75.22-.52.18-.92.7-1.39,1.17Z"/>
                        <path class="cls-5" d="m48.57,54.2c.3.48.88.77,1.44.71.56-.06,1.08-.46,1.27-1,.14-.39.1-.88-.21-1.16-.19-.17-.45-.25-.7-.3-.45-.08-1.44-.21-1.8.15-.36.37-.24,1.21,0,1.59Z"/>
                      </g>
                      <path class="cls-5" d="m46.06,47.54c.98-.88,2.25-1.39,3.55-1.61,1.3-.2,2.67-.11,3.88.42-1.31.05-2.53.11-3.76.32-1.23.19-2.41.51-3.67.87Z"/>
                      <path class="cls-19" d="m54.21,57.43c0,1.1-1.85,2-4.13,2s-4.13-.9-4.13-2,1.85-2,4.13-2,4.13.9,4.13,2Z"/>
                    </g>
                    <g>
                      <g>
                        <path class="cls-16" d="m66.73,54.12s-1.04.68-3.08.8c-1.54.09-2.93-.54-2.93-.54,0,0,.4-2.19,2.85-2.07,2.65.13,3.16,1.81,3.16,1.81Z"/>
                        <path class="cls-5" d="m66.73,54.12c-.47-.47-.87-.99-1.39-1.17-.52-.19-1.14-.22-1.75-.22-.59,0-1.17.11-1.68.37-.49.27-1.01.67-1.18,1.3-.13-.68.31-1.38.87-1.8.57-.44,1.3-.62,1.99-.63.67.01,1.37.07,2.02.45.68.39.91,1.1,1.13,1.69Z"/>
                        <path class="cls-5" d="m64.93,54.2c-.3.48-.88.77-1.44.71-.56-.06-1.08-.46-1.27-1-.14-.39-.1-.88.21-1.16.19-.17.45-.25.7-.3.45-.08,1.44-.21,1.8.15.36.37.24,1.21,0,1.59Z"/>
                      </g>
                      <path class="cls-5" d="m67.44,47.54c-1.26-.36-2.44-.68-3.67-.87-1.22-.2-2.45-.26-3.76-.32,1.2-.54,2.57-.62,3.88-.42,1.3.22,2.57.73,3.55,1.61Z"/>
                      <path class="cls-19" d="m67.77,57.43c0,1.1-1.85,2-4.13,2s-4.13-.9-4.13-2,1.85-2,4.13-2,4.13.9,4.13,2Z"/>
                    </g>
                  </g>
                  <path class="cls-25" d="m55.62,52.59c.15,1.17.18,2.35.1,3.52-.05.61-.13,1.23-.4,1.78-.29.58-1.09.88-1.02,1.55.07.63.96,1.16,1.52,1.23"/>
                  <g>
                    <path class="cls-15" d="m58.43,65.37c-.07.94-1.08,1.63-2.27,1.54-1.18-.09-2.09-.92-2.02-1.86.07-.94,1.08-1.63,2.27-1.54,1.18.09,2.09.92,2.02,1.86Z"/>
                    <path class="cls-28" d="m52.9,64.51c2.2.7,4.59.8,6.84.28"/>
                  </g>
                  <g>
                    <path class="cls-26" d="m54.3,55.52c0,2.42-1.96,4.38-4.38,4.38s-4.38-1.96-4.38-4.38,1.96-4.38,4.38-4.38,4.38,1.96,4.38,4.38Z"/>
                    <path class="cls-26" d="m67.98,55.52c0,2.42-1.96,4.38-4.38,4.38s-4.38-1.96-4.38-4.38,1.96-4.38,4.38-4.38,4.38,1.96,4.38,4.38Z"/>
                    <line class="cls-26" x1="53.94" y1="53.85" x2="59.62" y2="53.85"/>
                    <line class="cls-26" x1="42.5" y1="53.85" x2="45.94" y2="53.85"/>
                    <line class="cls-26" x1="67.52" y1="53.85" x2="70.96" y2="53.85"/>
                  </g>
                </g>
                <g>
                  <polygon class="cls-20" points="44.52 58.86 43.17 45.6 49.67 35.97 58.98 48.52 70.23 53.05 68.97 59.4 72.49 52.3 73.12 52.64 72.13 31.82 59.24 24.15 47.41 29.03 39.79 39.83 40.98 50.99 44.52 58.86"/>
                  <polygon class="cls-5" points="44.73 59.62 43.47 45.9 49.97 36.26 59.28 48.81 70.53 53.34 69.27 59.69 72.79 52.6 73.42 52.94 72.52 32.03 59.71 24.45 47.81 29.66 40.33 40.27 41.32 51.74 44.73 59.62"/>
                  <polygon class="cls-12" points="72.52 32.03 59.71 24.45 47.81 29.66 43.27 36.09 50.05 30.79 61.04 45.77 73.25 49.14 72.52 32.03"/>
                  <polygon class="cls-13" points="51.18 30.21 59.49 25.62 66.68 30.16 56.31 36.74 51.18 30.21"/>
                  <polygon class="cls-13" points="57.19 38.14 67.7 30.97 71.28 32.93 72.06 47.32 62.13 44.77 57.19 38.14"/>
                  <polygon class="cls-12" points="41.29 40.5 43.05 44.68 49.79 35.27 48.48 33.89 43.97 36.9 41.29 40.5"/>
                  <polygon class="cls-12" points="41.49 43.99 42.83 47.11 43.6 54.45 42.43 52.1 41.49 43.99"/>
                </g>
              </g>
            </g>
          </g>
          <g>
            <rect class="cls-3" x="84.26" y="47" width="98.15" height="135.35" transform="translate(20.22 -19.98) rotate(9.27)"/>
            <g>
              <g>
                <rect class="cls-9" x="123.83" y="64.8" width="36.98" height="4.86" transform="translate(12.69 -22.05) rotate(9.27)"/>
                <rect class="cls-7" x="122.56" y="73.99" width="47.76" height="2.88" transform="translate(14.07 -22.61) rotate(9.27)"/>
                <rect class="cls-7" x="121.46" y="80.73" width="47.76" height="2.88" transform="translate(15.14 -22.34) rotate(9.27)"/>
                <rect class="cls-7" x="120.36" y="87.46" width="47.76" height="2.88" transform="translate(16.21 -22.08) rotate(9.27)"/>
              </g>
              <rect class="cls-7" x="105.71" y="59.73" width="10.71" height="10.71" transform="translate(11.94 -17.04) rotate(9.27)"/>
              <g>
                <rect class="cls-9" x="118.04" y="100.28" width="36.98" height="4.86" transform="translate(18.33 -20.65) rotate(9.27)"/>
                <rect class="cls-7" x="116.77" y="109.48" width="47.76" height="2.88" transform="translate(19.71 -21.21) rotate(9.27)"/>
                <rect class="cls-7" x="115.67" y="116.21" width="47.76" height="2.88" transform="translate(20.78 -20.94) rotate(9.27)"/>
                <rect class="cls-7" x="114.57" y="122.94" width="47.76" height="2.88" transform="translate(21.85 -20.68) rotate(9.27)"/>
              </g>
              <rect class="cls-7" x="99.92" y="95.22" width="10.71" height="10.71" transform="translate(17.58 -15.65) rotate(9.27)"/>
              <g>
                <rect class="cls-9" x="112.24" y="135.76" width="36.98" height="4.86" transform="translate(23.97 -19.26) rotate(9.27)"/>
                <rect class="cls-7" x="110.98" y="144.96" width="47.76" height="2.88" transform="translate(25.35 -19.81) rotate(9.27)"/>
                <rect class="cls-7" x="109.88" y="151.69" width="47.76" height="2.88" transform="translate(26.42 -19.55) rotate(9.27)"/>
                <rect class="cls-7" x="108.78" y="158.42" width="47.76" height="2.88" transform="translate(27.49 -19.28) rotate(9.27)"/>
              </g>
              <rect class="cls-7" x="94.13" y="130.7" width="10.71" height="10.71" transform="translate(23.22 -14.25) rotate(9.27)"/>
            </g>
            <path class="cls-21" d="m107.39,61.67c.21,1.27.75,2.51,1.21,3.71s.94,2.44,1.41,3.66c.26.67,1.12.68,1.37,0,1.14-3.09,2.97-5.98,4.9-8.63,1.01-1.4,2.1-2.76,3.24-4.06,1.05-1.19,2.24-2.28,3.23-3.51.37-.46-.09-1.2-.67-.87-1.41.8-2.57,2.1-3.65,3.29-1.23,1.35-2.36,2.78-3.42,4.26-2.03,2.82-3.87,5.84-4.99,9.15h1.37c-.52-1.26-1.04-2.52-1.56-3.78-.49-1.18-.95-2.46-1.68-3.52-.27-.4-.82-.14-.75.32h0Z"/>
            <path class="cls-21" d="m101.68,96.66c.21,1.27.75,2.51,1.21,3.71s.94,2.44,1.41,3.66c.26.67,1.12.68,1.37,0,1.14-3.09,2.97-5.98,4.9-8.63,1.01-1.4,2.1-2.76,3.24-4.06,1.05-1.19,2.24-2.28,3.23-3.51.37-.46-.09-1.2-.67-.87-1.41.8-2.57,2.1-3.65,3.29-1.23,1.35-2.36,2.78-3.42,4.26-2.03,2.82-3.87,5.84-4.99,9.15h1.37c-.52-1.26-1.04-2.52-1.56-3.78-.49-1.18-.95-2.46-1.68-3.52-.27-.4-.82-.14-.75.32h0Z"/>
            <path class="cls-21" d="m95.96,131.65c.21,1.27.75,2.51,1.21,3.71s.94,2.44,1.41,3.66c.26.67,1.12.68,1.37,0,1.14-3.09,2.97-5.98,4.9-8.63,1.01-1.4,2.1-2.76,3.24-4.06,1.05-1.19,2.24-2.28,3.23-3.51.37-.46-.09-1.2-.67-.87-1.41.8-2.57,2.1-3.65,3.29-1.23,1.35-2.36,2.78-3.42,4.26-2.03,2.82-3.87,5.84-4.99,9.15h1.37c-.52-1.26-1.04-2.52-1.56-3.78-.49-1.18-.95-2.46-1.68-3.52-.27-.4-.82-.14-.75.32h0Z"/>
          </g>
        </g>
      </g>
    </g>
  </g>
</svg>