<?xml version="1.0" encoding="UTF-8"?>
<svg id="Layer_2" data-name="Layer 2" xmlns="http://www.w3.org/2000/svg" viewBox="0 0 151.05 171.73">
  <defs>
    <style>
      .cls-1 {
        stroke-linecap: round;
      }

      .cls-1, .cls-2 {
        fill: none;
        stroke: #70301e;
        stroke-miterlimit: 10;
      }

      .cls-2 {
        stroke-width: .75px;
      }

      .cls-3 {
        fill: #fab798;
      }

      .cls-3, .cls-4, .cls-5, .cls-6, .cls-7, .cls-8, .cls-9, .cls-10, .cls-11, .cls-12, .cls-13, .cls-14, .cls-15, .cls-16, .cls-17, .cls-18, .cls-19, .cls-20, .cls-21, .cls-22, .cls-23, .cls-24, .cls-25, .cls-26 {
        stroke-width: 0px;
      }

      .cls-4 {
        fill: #4d4d4d;
      }

      .cls-5 {
        fill: gray;
      }

      .cls-6 {
        fill: #70301e;
      }

      .cls-7 {
        fill: #1a1a1a;
      }

      .cls-8 {
        fill: #ccc;
      }

      .cls-9 {
        fill: #b3b3b3;
      }

      .cls-10 {
        fill: #666;
      }

      .cls-11 {
        fill: #333;
      }

      .cls-12 {
        fill: #999;
      }

      .cls-13 {
        fill: #8c4c3a;
      }

      .cls-14 {
        fill: #a16250;
      }

      .cls-15 {
        fill: #ff8b6b;
      }

      .cls-16 {
        fill: #ff766b;
      }

      .cls-17 {
        fill: #fff;
      }

      .cls-18 {
        fill: #ffddd4;
      }

      .cls-19 {
        fill: #ffb5a1;
      }

      .cls-20 {
        fill: #ff9991;
      }

      .cls-21 {
        fill: #fcac95;
      }

      .cls-22 {
        fill: #ffcabb;
      }

      .cls-23 {
        fill: #e6e6e6;
      }

      .cls-24 {
        fill: #eb6363;
      }

      .cls-25 {
        fill: #eb988f;
      }

      .cls-26 {
        fill: #ffe0d1;
      }
    </style>
  </defs>
  <g id="OBJECTS">
    <g>
      <rect class="cls-5" x="36.62" y="80.54" width="77.81" height="42.36" rx="6.8" ry="6.8"/>
      <g>
        <path class="cls-11" d="m113.03,129.31c2.4-1,4.97-1.82,7.47-2.8l-14.3-37.04-10.09,1.79,7.43,41.86c3.18-1.22,6.34-2.5,9.49-3.81Z"/>
        <path class="cls-11" d="m43.51,135.47c1.57,1.12,3.13,2.24,4.7,3.36l10.89-46.8-10.7-2.7-17.85,37.89c4.4,2.62,8.77,5.27,12.96,8.25Z"/>
        <path class="cls-8" d="m31.16,127.58l17.73-37.65,10.11,2.55.11-.46-10.7-2.7-17.85,37.89c.2.12.4.24.61.36Z"/>
        <rect class="cls-6" x="57.19" y="38.58" width="42.6" height="38.92"/>
        <g>
          <g>
            <polygon class="cls-22" points="85.53 77.79 106.28 89.37 96.99 140.98 57.66 140.98 48.37 89.37 68.8 77.79 85.53 77.79"/>
            <polygon class="cls-19" points="85.53 77.79 75.36 77.79 75.36 140.98 96.99 140.98 106.28 89.37 85.53 77.79"/>
            <polygon class="cls-19" points="85.53 77.79 75.36 77.79 75.36 140.98 96.99 140.98 106.28 89.37 85.53 77.79"/>
            <g>
              <path class="cls-22" d="m85.55,78.96v-16.67h-16.25v17c4.48,4.88,11.92,4.27,16.25-.32Z"/>
              <polygon class="cls-18" points="70.95 68.34 70.95 77.94 65.74 81.07 65.4 79.71 69.05 77.31 69.23 67.16 70.95 68.34"/>
              <path class="cls-19" d="m75.36,62.28v20.26c3.63.57,7.5-.74,10.19-3.59v-16.67h-10.19Z"/>
              <path class="cls-15" d="m69.14,71.97l7.14,3.59c1.08.54,2.43.54,3.51,0l5.76-2.88v-10.39h-16.41v9.68Z"/>
            </g>
            <path class="cls-17" d="m90.77,94.98c-1.69.96-3.21,3.13-5.24,3.6-6.54,1.49-14.4,1.54-19.93-2.33-.43-.3-.89-.63-1.35-.98v45.71h26.67l-.15-45.99Z"/>
          </g>
          <g>
            <polygon class="cls-4" points="88.92 79.66 77.16 127.26 65.4 79.71 48.37 89.37 51.15 124.37 57.66 140.98 96.99 140.98 103.31 126.84 106.28 89.37 88.92 79.66"/>
            <polygon class="cls-10" points="49.53 90.95 63.42 83.53 70.01 107.61 51.6 112.62 49.53 90.95"/>
            <polygon class="cls-8" points="49.65 105.85 48.91 89.78 53.97 86.19 48.37 89.37 49.65 105.85"/>
            <polygon class="cls-10" points="52.09 115.47 70.28 111.05 75.6 123.85 52.55 123.85 52.09 115.47"/>
            <polygon class="cls-10" points="104.69 90.95 90.8 83.53 84.22 107.61 102.62 112.62 104.69 90.95"/>
            <polygon class="cls-10" points="102.13 115.47 83.94 111.05 78.62 123.85 101.67 123.85 102.13 115.47"/>
            <polygon class="cls-11" points="83.98 129.26 54.83 128.97 59.7 140.98 82.85 140.98 87.84 140.98 94.96 140.98 99.83 128.97 83.98 129.26"/>
          </g>
          <g>
            <polygon class="cls-11" points="65.4 79.71 58.29 88.41 65.73 91.6 59.84 95.93 77.16 127.22 65.4 79.71"/>
            <polygon class="cls-23" points="65.4 79.71 58.7 86.13 65.43 91.42 60.37 93.53 76.98 126.92 65.4 79.71"/>
            <polygon class="cls-12" points="65.4 79.71 59.01 86.35 65.73 91.65 60.56 93.87 77.16 127.26 65.4 79.71"/>
            <polygon class="cls-9" points="64.29 82.46 60.41 86.34 66.47 90.68 64.29 82.46"/>
            <polygon class="cls-9" points="66.95 92.4 61.97 94.56 74.2 118.64 66.95 92.4"/>
          </g>
          <g>
            <polygon class="cls-11" points="88.91 79.67 96.03 88.41 88.59 91.6 94.48 95.93 77.16 127.22 88.91 79.67"/>
            <polygon class="cls-12" points="88.91 79.67 95.31 86.3 88.59 91.6 93.76 93.82 77.16 127.22 88.91 79.67"/>
            <polygon class="cls-9" points="89.8 82.46 93.68 86.34 87.62 90.68 89.8 82.46"/>
            <polygon class="cls-9" points="87.14 92.4 92.12 94.56 79.89 118.64 87.14 92.4"/>
          </g>
        </g>
        <g>
          <g>
            <path class="cls-19" d="m54.93,41.51c-1.45.74-1.58,2.11-1.35,3.25.6,3,2.56,5.9,5.67,8.22.48.36,1.13.72,1.84.56.9-.21,1.1-1.05,1.09-1.7-.02-2.77-.01-5.82-1.07-8.22-.66-1.5-3.6-3.42-6.19-2.11Z"/>
            <path class="cls-18" d="m54.34,45.22c-.23-1.14-.1-2.51,1.35-3.25,1.39-.7,2.87-.48,4.05.11-1.26-.9-3.11-1.44-4.81-.57-1.45.74-1.58,2.11-1.35,3.25.6,3,2.56,5.9,5.67,8.22.21.15.45.3.71.42-3.08-2.31-5.03-5.19-5.62-8.18Z"/>
          </g>
          <g>
            <path class="cls-19" d="m101.31,41.51c1.45.74,1.58,2.11,1.35,3.25-.6,3-2.56,5.9-5.67,8.22-.48.36-1.13.72-1.84.56-.9-.21-1.1-1.05-1.09-1.7.02-2.77.01-5.82,1.07-8.22.66-1.5,3.6-3.42,6.19-2.11Z"/>
            <path class="cls-15" d="m96.53,53.27l5.57-11.16s-.46-.43-.79-.6c-2.59-1.31-5.53.6-6.19,2.11-1.06,2.41-1.04,5.46-1.07,8.22,0,.65.19,1.49,1.09,1.7.51.12,1.38-.27,1.38-.27Z"/>
          </g>
        </g>
        <g>
          <path class="cls-22" d="m78.12,4.97h0c-3.21,0-6.19.64-8.87,1.79-1.6,1.81-3.19,3.64-4.73,5.5-3.05,3.67-5.94,7.46-8.53,11.45-.51,2.87-.5,5.88.13,8.91l6.36,30.71c.19.94.88,1.77,1.84,2.25l12.04,6.02c1.08.54,2.43.54,3.51,0l12.04-6.02c.97-.48,1.65-1.31,1.84-2.25l6.36-30.71c2.89-13.96-7.19-27.66-22-27.66Z"/>
          <polygon class="cls-18" points="61.97 42.17 63.01 35.93 66.49 34.82 66.23 39.39 61.97 42.17"/>
          <path class="cls-18" d="m65.55,54.54h-3.98l1.9,8.42c.18.78.69,1.44,1.4,1.81l3.16,1.62-2.47-11.85Z"/>
          <path class="cls-19" d="m80.42,5.09v66.24l11.49-5.75c.97-.48,1.65-1.31,1.84-2.25l6.36-30.71c2.74-13.22-6.17-26.2-19.69-27.53Z"/>
          <path class="cls-15" d="m98.65,18.47c-1.11-2.54-2.66-4.87-4.59-6.84l-9.86-5.84c-1.92-.53-3.95-.82-6.09-.82h0c-1.04,0-2.06.07-3.05.21l-7.21,3.16c-1.13,1.3-2.24,2.61-3.34,3.93-3.04,3.66-5.93,7.44-8.51,11.42-.52,2.87-.51,5.9.12,8.93l.26,1.27,9.06-13.45,13.64,18.38,16.48,6.64,1.27,3.02,2.58-12.46-.76-17.55Z"/>
          <polygon class="cls-18" points="58.99 31.81 59.74 41.63 60.93 31.69 65.69 22.3 58.99 31.81"/>
        </g>
        <g>
          <g>
            <g>
              <g>
                <path class="cls-17" d="m63.14,43.91s1.52,1,4.51,1.17c2.26.13,4.29-.8,4.29-.8,0,0-.59-3.21-4.17-3.03-3.88.19-4.63,2.66-4.63,2.66Z"/>
                <path class="cls-6" d="m63.14,43.91c.17-.45.34-.89.59-1.33.24-.43.62-.84,1.08-1.11.94-.54,1.96-.62,2.94-.64,1.01,0,2.07.27,2.9.91.81.6,1.47,1.6,1.29,2.6-.26-.93-.98-1.53-1.71-1.94-.76-.4-1.61-.57-2.48-.56-.89,0-1.81.05-2.58.34-.78.27-1.33,1.06-2.02,1.74Z"/>
                <path class="cls-6" d="m65.79,44.02c.43.71,1.29,1.13,2.12,1.04.83-.09,1.57-.68,1.86-1.46.21-.58.14-1.29-.31-1.71-.28-.26-.65-.37-1.02-.44-.66-.12-2.11-.31-2.64.22-.53.54-.35,1.77,0,2.33Z"/>
              </g>
              <path class="cls-6" d="m62.1,34.26c1.45-1.26,3.31-1.99,5.21-2.31,1.9-.29,3.9-.17,5.67.57-1.91.04-3.71.12-5.51.41-1.8.27-3.54.76-5.37,1.32Z"/>
              <ellipse class="cls-20" cx="67.99" cy="48.75" rx="6.05" ry="2.93"/>
            </g>
            <g>
              <g>
                <path class="cls-17" d="m92.38,43.91s-1.52,1-4.51,1.17c-2.26.13-4.29-.8-4.29-.8,0,0,.59-3.21,4.17-3.03,3.88.19,4.63,2.66,4.63,2.66Z"/>
                <path class="cls-6" d="m92.38,43.91c-.69-.68-1.24-1.47-2.02-1.74-.77-.29-1.69-.34-2.58-.34-.87,0-1.72.17-2.48.56-.74.41-1.46,1.01-1.71,1.94-.18-1,.48-2,1.29-2.6.83-.64,1.89-.9,2.9-.91.98.02,2,.1,2.94.64.46.27.84.68,1.08,1.11.24.44.42.87.59,1.33Z"/>
                <path class="cls-6" d="m89.74,44.02c-.43.71-1.29,1.13-2.12,1.04-.83-.09-1.57-.68-1.86-1.46-.21-.58-.14-1.29.31-1.71.28-.26.65-.37,1.02-.44.66-.12,2.11-.31,2.64.22.53.54.35,1.77,0,2.33Z"/>
              </g>
              <path class="cls-6" d="m93.42,34.26c-1.83-.56-3.56-1.05-5.37-1.32-1.8-.3-3.6-.38-5.51-.41,1.77-.75,3.77-.87,5.67-.57,1.9.32,3.76,1.05,5.21,2.31Z"/>
              <ellipse class="cls-20" cx="87.85" cy="48.75" rx="6.05" ry="2.93"/>
            </g>
          </g>
          <path class="cls-1" d="m76.11,41.66c.22,1.71.27,3.44.14,5.15-.07.89-.19,1.8-.58,2.61-.42.85-1.59,1.29-1.49,2.26.1.93,1.41,1.7,2.22,1.8"/>
          <g>
            <path class="cls-16" d="m80.22,60.37c-.1,1.38-1.59,2.39-3.32,2.26s-3.06-1.34-2.96-2.72c.1-1.38,1.59-2.39,3.32-2.26s3.06,1.34,2.96,2.72Z"/>
            <path class="cls-1" d="m72.13,59.11c3.23,1.02,6.73,1.17,10.02.41"/>
          </g>
          <g>
            <circle class="cls-2" cx="67.76" cy="45.95" r="6.41"/>
            <circle class="cls-2" cx="87.8" cy="45.95" r="6.41"/>
            <line class="cls-2" x1="73.64" y1="43.51" x2="81.97" y2="43.51"/>
            <line class="cls-2" x1="56.89" y1="43.51" x2="61.93" y2="43.51"/>
            <line class="cls-2" x1="93.54" y1="43.51" x2="98.58" y2="43.51"/>
          </g>
        </g>
        <g>
          <polygon class="cls-21" points="59.85 50.85 57.88 31.43 67.39 17.31 81.03 35.69 97.51 42.33 95.66 51.63 100.82 41.23 101.74 41.74 100.29 11.24 81.41 0 64.09 7.16 52.93 22.98 54.67 39.31 59.85 50.85"/>
          <polygon class="cls-6" points="60.16 51.96 58.31 31.86 67.83 17.74 81.47 36.13 97.95 42.76 96.1 52.06 101.25 41.67 102.17 42.17 100.86 11.54 82.1 .44 64.67 8.07 53.71 23.62 55.16 40.42 60.16 51.96"/>
          <polygon class="cls-13" points="100.86 11.54 82.1 .44 64.67 8.07 58.02 17.5 67.95 9.73 84.05 31.67 101.93 36.61 100.86 11.54"/>
          <polygon class="cls-14" points="69.6 8.87 81.77 2.16 92.3 8.8 77.12 18.45 69.6 8.87"/>
          <polygon class="cls-14" points="78.41 20.49 93.8 9.99 99.04 12.86 100.19 33.94 85.65 30.21 78.41 20.49"/>
          <polygon class="cls-13" points="55.11 23.95 57.7 30.08 67.57 16.28 65.65 14.27 59.04 18.68 55.11 23.95"/>
          <polygon class="cls-13" points="55.41 29.07 57.37 33.63 58.5 44.38 56.78 40.95 55.41 29.07"/>
        </g>
      </g>
      <rect class="cls-9" y="138.24" width="151.05" height="33.49"/>
      <rect class="cls-8" y="138.24" width="151.05" height="10.29"/>
      <g>
        <g>
          <rect class="cls-17" x="50.37" y="101.24" width="50.19" height="54.99"/>
          <rect class="cls-23" x="51.51" y="102.15" width="49.13" height="54.16"/>
        </g>
        <g>
          <g>
            <circle class="cls-8" cx="39.25" cy="131.24" r="10.96" transform="translate(-20.52 7.98) rotate(-9.22)"/>
            <path class="cls-11" d="m28.64,131.53c0,6.05,4.91,10.96,10.96,10.96s10.96-4.91,10.96-10.96-4.91-10.96-10.96-10.96-10.96,4.91-10.96,10.96Z"/>
            <path class="cls-10" d="m49.38,132.71c0-6.05-4.91-10.96-10.96-10.96-2.73,0-5.21,1-7.13,2.65,2.01-2.34,4.99-3.83,8.31-3.83,6.05,0,10.96,4.91,10.96,10.96,0,3.33-1.49,6.3-3.83,8.31,1.65-1.92,2.65-4.41,2.65-7.13Z"/>
            <path class="cls-7" d="m31.49,132.04c0,5.1,4.13,9.23,9.23,9.23s9.23-4.13,9.23-9.23-4.13-9.23-9.23-9.23-9.23,4.13-9.23,9.23Z"/>
            <circle class="cls-23" cx="41.08" cy="132.74" r="8.53"/>
            <path class="cls-24" d="m34.45,133.33c0,3.84,3.11,6.95,6.95,6.95s6.95-3.11,6.95-6.95-3.11-6.95-6.95-6.95-6.95,3.11-6.95,6.95Z"/>
          </g>
          <g>
            <polygon class="cls-25" points="40.11 127.63 38.02 140.65 49.86 145.4 57.29 142.66 56.12 130.52 50.41 129.99 49.05 126.37 40.11 127.63"/>
            <polygon class="cls-3" points="38.02 140.65 40.11 127.63 50.41 126.22 50.41 129.99 51.61 130.12 51.39 133.03 46.23 132.47 44.83 143.38 38.02 140.65"/>
            <polygon class="cls-26" points="41.32 128.66 50.41 127.42 50.41 126.22 40.11 127.63 38.02 140.65 39.31 141.17 41.32 128.66"/>
          </g>
        </g>
        <g>
          <g>
            <circle class="cls-8" cx="111.81" cy="131.24" r="10.96" transform="translate(-35.65 220.58) rotate(-80.78)"/>
            <path class="cls-11" d="m122.41,131.53c0,6.05-4.91,10.96-10.96,10.96s-10.96-4.91-10.96-10.96,4.91-10.96,10.96-10.96,10.96,4.91,10.96,10.96Z"/>
            <path class="cls-10" d="m101.67,132.71c0-6.05,4.91-10.96,10.96-10.96,2.73,0,5.21,1,7.13,2.65-2.01-2.34-4.99-3.83-8.31-3.83-6.05,0-10.96,4.91-10.96,10.96,0,3.33,1.49,6.3,3.83,8.31-1.65-1.92-2.65-4.41-2.65-7.13Z"/>
            <path class="cls-7" d="m119.56,132.04c0,5.1-4.13,9.23-9.23,9.23s-9.23-4.13-9.23-9.23,4.13-9.23,9.23-9.23,9.23,4.13,9.23,9.23Z"/>
            <circle class="cls-23" cx="109.98" cy="132.74" r="8.53"/>
            <path class="cls-24" d="m116.6,133.33c0,3.84-3.11,6.95-6.95,6.95s-6.95-3.11-6.95-6.95,3.11-6.95,6.95-6.95,6.95,3.11,6.95,6.95Z"/>
          </g>
          <g>
            <polygon class="cls-25" points="110.95 127.63 113.04 140.65 101.19 145.4 93.76 142.66 94.93 130.52 100.64 129.99 102 126.37 110.95 127.63"/>
            <polygon class="cls-3" points="113.04 140.65 110.95 127.63 100.64 126.22 100.64 129.99 99.45 130.12 99.66 133.03 104.82 132.47 106.23 143.38 113.04 140.65"/>
            <polygon class="cls-26" points="109.73 128.66 100.64 127.42 100.64 126.22 110.95 127.63 113.04 140.65 111.74 141.17 109.73 128.66"/>
          </g>
        </g>
      </g>
    </g>
  </g>
</svg>