<?xml version="1.0" encoding="UTF-8"?>
<svg id="Layer_2" data-name="Layer 2" xmlns="http://www.w3.org/2000/svg" xmlns:xlink="http://www.w3.org/1999/xlink" viewBox="0 0 176.91 222.84">
  <defs>
    <style>
      .cls-1 {
        fill: url(#Degradado_sin_nombre_10);
      }

      .cls-1, .cls-2, .cls-3, .cls-4, .cls-5, .cls-6, .cls-7, .cls-8, .cls-9, .cls-10 {
        stroke-width: 0px;
      }

      .cls-11 {
        clip-path: url(#clippath);
      }

      .cls-2 {
        fill: none;
      }

      .cls-3 {
        fill: url(#Degradado_sin_nombre_10-2);
      }

      .cls-4 {
        fill: #f2f2f2;
      }

      .cls-5 {
        fill: #4d4d4d;
      }

      .cls-6 {
        fill: #ccc;
      }

      .cls-7 {
        fill: #b3b3b3;
      }

      .cls-8 {
        fill: #666;
      }

      .cls-9 {
        fill: #333;
      }

      .cls-10 {
        fill: #ff6176;
      }
    </style>
    <clipPath id="clippath">
      <path class="cls-2" d="m88.54,95.08c-21.54,12.25-48.94,4.72-61.2-16.82-12.25-21.54-4.72-48.94,16.82-61.2,21.54-12.25,48.94-4.72,61.2,16.82,12.25,21.54,4.72,48.94-16.82,61.2Z"/>
    </clipPath>
    <linearGradient id="Degradado_sin_nombre_10" data-name="Degradado sin nombre 10" x1="293.37" y1="-233.99" x2="434.3" y2="-87.96" gradientTransform="translate(-218.84 343.55) rotate(-29.63)" gradientUnits="userSpaceOnUse">
      <stop offset="0" stop-color="#fff"/>
      <stop offset="1" stop-color="#fff" stop-opacity="0"/>
    </linearGradient>
    <linearGradient id="Degradado_sin_nombre_10-2" data-name="Degradado sin nombre 10" x1="279.27" y1="-220.39" x2="420.2" y2="-74.35" xlink:href="#Degradado_sin_nombre_10"/>
  </defs>
  <g id="OBJECTS">
    <g>
      <circle class="cls-10" cx="88.45" cy="134.38" r="88.45"/>
      <g>
        <g>
          <g>
            <rect class="cls-4" x="11.41" y="41.88" width="76.54" height="77.08" rx="8.71" ry="8.71"/>
            <path class="cls-6" d="m73.33,118.96l-2.91-14.92.02-.28-12.43-6.95h0s-2.4-1.33-2.4-1.33v-6.47l4.55-2.28c.69-.35,1.18-.94,1.32-1.61l1-7.09c.49,0,.88-.33,1.15-.63,1.88-2.04,2.89-4.34,2.91-6.53,0-.83-.26-1.78-1.38-2.11-.47-.14-.93-.14-1.37-.06l.46-3.26c1.23-9.16-5.2-17.49-13.85-17.55h0s0,0,0,0c0,0,0,0,0,0h0c-8.65.07-15.07,8.4-13.85,17.55l.46,3.24c-.48-.13-1.01-.16-1.55-.01-1.12.31-1.41,1.25-1.42,2.08-.02,2.19.94,4.51,2.78,6.58.28.32.69.67,1.21.66.11,0,.2-.02.29-.05l.13.89h-.02l.05.21.86,6.08c.14.67.63,1.27,1.32,1.61l3.19,1.6v2.97h0s-.07,3.82-.07,3.82l-2.61,1.72-8.2,4.65.02-.02-4.01,2.28-2.97,15.2h47.31Z"/>
          </g>
          <g>
            <rect class="cls-4" x="96.15" y="41.88" width="76.54" height="77.08" rx="8.71" ry="8.71"/>
            <path class="cls-6" d="m158.08,118.96l-2.91-14.92.02-.28-12.43-6.95h0s-2.4-1.33-2.4-1.33v-6.47l4.55-2.28c.69-.35,1.18-.94,1.32-1.61l1-7.09c.49,0,.88-.33,1.15-.63,1.88-2.04,2.89-4.34,2.91-6.53,0-.83-.26-1.78-1.38-2.11-.47-.14-.93-.14-1.37-.06l.46-3.26c1.23-9.16-5.2-17.49-13.85-17.55h0s0,0,0,0c0,0,0,0,0,0h0c-8.65.07-15.07,8.4-13.85,17.55l.46,3.24c-.48-.13-1.01-.16-1.55-.01-1.12.31-1.41,1.25-1.42,2.08-.02,2.19.94,4.51,2.78,6.58.28.32.69.67,1.21.66.11,0,.2-.02.29-.05l.13.89h-.02l.05.21.86,6.08c.14.67.63,1.27,1.32,1.61l3.19,1.6v2.97h0s-.07,3.82-.07,3.82l-2.61,1.72-8.2,4.65.02-.02-4.01,2.28-2.97,15.2h47.31Z"/>
          </g>
          <g>
            <rect class="cls-4" x="11.41" y="127.95" width="76.54" height="77.08" rx="8.71" ry="8.71"/>
            <path class="cls-6" d="m73.33,205.02l-2.91-14.92.02-.28-12.43-6.95h0s-2.4-1.33-2.4-1.33v-6.47l4.55-2.28c.69-.35,1.18-.94,1.32-1.61l1-7.09c.49,0,.88-.33,1.15-.63,1.88-2.04,2.89-4.34,2.91-6.53,0-.83-.26-1.78-1.38-2.11-.47-.14-.93-.14-1.37-.06l.46-3.26c1.23-9.16-5.2-17.49-13.85-17.55h0s0,0,0,0c0,0,0,0,0,0h0c-8.65.07-15.07,8.4-13.85,17.55l.46,3.24c-.48-.13-1.01-.16-1.55-.01-1.12.31-1.41,1.25-1.42,2.08-.02,2.19.94,4.51,2.78,6.58.28.32.69.67,1.21.66.11,0,.2-.02.29-.05l.13.89h-.02l.05.21.86,6.08c.14.67.63,1.27,1.32,1.61l3.19,1.6v2.97h0s-.07,3.82-.07,3.82l-2.61,1.72-8.2,4.65.02-.02-4.01,2.28-2.97,15.2h47.31Z"/>
          </g>
          <g>
            <rect class="cls-4" x="96.15" y="127.95" width="76.54" height="77.08" rx="8.71" ry="8.71"/>
            <path class="cls-6" d="m158.08,205.02l-2.91-14.92.02-.28-12.43-6.95h0s-2.4-1.33-2.4-1.33v-6.47l4.55-2.28c.69-.35,1.18-.94,1.32-1.61l1-7.09c.49,0,.88-.33,1.15-.63,1.88-2.04,2.89-4.34,2.91-6.53,0-.83-.26-1.78-1.38-2.11-.47-.14-.93-.14-1.37-.06l.46-3.26c1.23-9.16-5.2-17.49-13.85-17.55h0s0,0,0,0c0,0,0,0,0,0h0c-8.65.07-15.07,8.4-13.85,17.55l.46,3.24c-.48-.13-1.01-.16-1.55-.01-1.12.31-1.41,1.25-1.42,2.08-.02,2.19.94,4.51,2.78,6.58.28.32.69.67,1.21.66.11,0,.2-.02.29-.05l.13.89h-.02l.05.21.86,6.08c.14.67.63,1.27,1.32,1.61l3.19,1.6v2.97h0s-.07,3.82-.07,3.82l-2.61,1.72-8.2,4.65.02-.02-4.01,2.28-2.97,15.2h47.31Z"/>
          </g>
        </g>
        <g>
          <g>
            <path class="cls-5" d="m84.48,104.21l24.74,43.49c2,3.52,6.48,4.75,10,2.75,3.52-2,4.75-6.48,2.75-10l-24.74-43.49-12.75,7.25Z"/>
            <path class="cls-8" d="m84.48,104.21l24.74,43.49c1.23,2.16,3.4,3.45,5.7,3.67l-27.71-48.71-2.73,1.55Z"/>
            <rect class="cls-9" x="86.22" y="99.87" width="14.67" height="10.94" transform="translate(-39.85 60.03) rotate(-29.63)"/>
            <path class="cls-9" d="m91.88,100l28.3,49.76c2.75-2.22,3.58-6.14,1.78-9.31l-24.74-43.49-5.35,3.04Z"/>
          </g>
          <g>
            <g class="cls-11">
              <g>
                <rect class="cls-4" x="-6.21" y="-3.07" width="130.06" height="130.97" rx="8.71" ry="8.71"/>
                <path class="cls-7" d="m99.02,127.9l-4.95-25.35.04-.48-21.12-11.81v.02s-4.09-2.28-4.09-2.28v-10.99l7.73-3.87c1.17-.59,2-1.6,2.24-2.74l1.71-12.05c.83-.02,1.49-.56,1.96-1.07,3.2-3.46,4.9-7.37,4.94-11.09.02-1.41-.44-3.02-2.34-3.58-.8-.24-1.58-.24-2.32-.1l.79-5.54c2.08-15.56-8.83-29.71-23.53-29.83h0s0,0,0,0c0,0,0,0,0,0h0c-14.7.12-25.61,14.27-23.53,29.83l.78,5.5c-.82-.23-1.71-.27-2.63-.02-1.91.52-2.4,2.12-2.41,3.54-.03,3.72,1.6,7.66,4.73,11.18.48.54,1.16,1.14,2.05,1.12.18,0,.34-.04.49-.09l.21,1.51h-.03l.08.36,1.46,10.33c.24,1.14,1.07,2.15,2.24,2.74l5.42,2.71v5.05h0s-.12,6.5-.12,6.5l-4.43,2.93-13.94,7.91.04-.03-6.81,3.87-5.04,25.83h80.39Z"/>
              </g>
            </g>
            <g>
              <path class="cls-1" d="m28.1,24.92c-1.16,1.43-2.24,2.91-3.22,4.45,30.26,8.32,60.51,16.63,90.77,24.95-.06-1.82-.23-3.65-.5-5.47-29.02-7.98-58.04-15.95-87.05-23.93Z"/>
              <path class="cls-3" d="m21.15,36.24c-2.54,5.8-3.96,12.06-4.15,18.42l92.5,25.42c3.09-5.56,5.06-11.67,5.84-17.95-31.4-8.63-62.79-17.26-94.19-25.89Z"/>
            </g>
            <path class="cls-8" d="m36.95,7.27C10.29,22.43.98,56.33,16.14,82.99c15.16,26.66,49.06,35.97,75.72,20.81,26.66-15.16,35.97-49.06,20.81-75.72C97.51,1.43,63.61-7.89,36.95,7.27Zm51.59,87.81c-21.54,12.25-48.94,4.72-61.2-16.82-12.25-21.54-4.72-48.94,16.82-61.2,21.54-12.25,48.94-4.72,61.2,16.82,12.25,21.54,4.72,48.94-16.82,61.2Z"/>
            <path class="cls-5" d="m38.9,7.81C12.24,22.97,2.93,56.87,18.09,83.53c15.16,26.66,49.06,35.97,75.72,20.81,26.66-15.16,35.97-49.06,20.81-75.72C99.46,1.96,65.56-7.36,38.9,7.81Zm49.64,87.27c-21.54,12.25-48.94,4.72-61.2-16.82-12.25-21.54-4.72-48.94,16.82-61.2,21.54-12.25,48.94-4.72,61.2,16.82,12.25,21.54,4.72,48.94-16.82,61.2Z"/>
            <path class="cls-8" d="m41.49,12.36C17.35,26.09,8.91,56.79,22.64,80.93c13.73,24.14,44.43,32.58,68.57,18.85,24.14-13.73,32.58-44.43,18.85-68.57C96.33,7.07,65.63-1.37,41.49,12.36Zm47.05,82.72c-21.54,12.25-48.94,4.72-61.2-16.82-12.25-21.54-4.72-48.94,16.82-61.2,21.54-12.25,48.94-4.72,61.2,16.82,12.25,21.54,4.72,48.94-16.82,61.2Z"/>
            <path class="cls-9" d="m41.94,13.16c-23.7,13.48-31.98,43.62-18.5,67.32,13.48,23.7,43.62,31.98,67.32,18.5,23.7-13.48,31.98-43.62,18.5-67.32C95.78,7.96,65.64-.32,41.94,13.16Zm46.6,81.92c-21.54,12.25-48.94,4.72-61.2-16.82-12.25-21.54-4.72-48.94,16.82-61.2,21.54-12.25,48.94-4.72,61.2,16.82,12.25,21.54,4.72,48.94-16.82,61.2Z"/>
            <g>
              <path class="cls-8" d="m39.61,9.06c-4.82,2.74-9.05,6.11-12.66,9.95l2.08,1.41c3.38-3.54,7.33-6.66,11.8-9.21,3.27-1.86,6.65-3.31,10.1-4.39l-.6-2.4c-3.66,1.14-7.25,2.67-10.72,4.64Z"/>
              <path class="cls-8" d="m12.27,55.68l2.47.83c-.09-11.33,3.56-22.47,10.44-31.58l-2.12-1.28c-6.93,9.27-10.69,20.53-10.78,32.03Z"/>
            </g>
            <g>
              <path class="cls-9" d="m93.79,102.74c4.82-2.74,9.05-6.11,12.66-9.95l-2.08-1.41c-3.38,3.54-7.33,6.66-11.8,9.21-3.27,1.86-6.65,3.31-10.1,4.39l.6,2.4c3.66-1.14,7.25-2.67,10.72-4.64Z"/>
              <path class="cls-9" d="m121.13,56.12l-2.47-.83c.09,11.33-3.56,22.47-10.44,31.58l2.12,1.28c6.93-9.27,10.69-20.54,10.78-32.03Z"/>
            </g>
          </g>
        </g>
      </g>
    </g>
  </g>
</svg>