<?xml version="1.0" encoding="UTF-8"?>
<svg xmlns="http://www.w3.org/2000/svg" viewBox="0 0 196.21 176.91">
  <defs>
    <style>
      .cls-1, .cls-2 {
        opacity: .5;
      }

      .cls-1, .cls-2, .cls-3, .cls-4, .cls-5, .cls-6, .cls-7, .cls-8, .cls-9, .cls-10, .cls-11, .cls-12, .cls-13, .cls-14, .cls-15 {
        stroke-width: 0px;
      }

      .cls-1, .cls-2, .cls-12 {
        fill: #ffb5a1;
      }

      .cls-2 {
        mix-blend-mode: multiply;
      }

      .cls-16 {
        isolation: isolate;
      }

      .cls-3 {
        fill: #f2f2f2;
      }

      .cls-4 {
        fill: #4d4d4d;
      }

      .cls-5 {
        fill: #2b2b2b;
      }

      .cls-6 {
        fill: #ccc;
      }

      .cls-7 {
        fill: #b3b3b3;
      }

      .cls-8 {
        fill: #333;
      }

      .cls-9 {
        fill: #ff8b6b;
      }

      .cls-10 {
        fill: #ff754f;
      }

      .cls-11 {
        fill: #ff6176;
      }

      .cls-13 {
        fill: #ffcabb;
      }

      .cls-14 {
        fill: #e6e6e6;
      }

      .cls-15 {
        fill: #6a6a6a;
      }
    </style>
  </defs>
  <g class="cls-16">
    <g id="Layer_2" data-name="Layer 2">
      <g id="OBJECTS">
        <g>
          <circle class="cls-11" cx="98.1" cy="88.45" r="88.45"/>
          <g>
            <g>
              <path class="cls-12" d="m71.44,68.09l21.2-9.86,13.31,1.49s-4.55,8.07.97,12.97l36.24,34.88-23.14,23.96-15.11,2.75s-25.97-11.06-34.26-15.49c-2.92-1.56-33.33-16.55-33.33-16.55l14.77-39.73,19.36,5.58Z"/>
              <path class="cls-13" d="m87.63,99.29c3.26,2.21,6.54,4.4,9.75,6.68l15.86-16.86-21.37-28.82-19.63,9.44-6.91,15.77c7.76,4.06,15.04,8.86,22.3,13.79Z"/>
              <path class="cls-9" d="m122.99,88.81l-35.83,37.73c8.98,4,17.75,7.74,17.75,7.74l15.11-2.75,23.14-23.96-20.17-18.76Z"/>
              <polygon class="cls-1" points="95.41 124.09 116.53 131.62 122.58 124.66 103.6 115.42 95.41 124.09"/>
              <polygon class="cls-9" points="63.05 65.67 52.09 62.51 37.31 102.24 48.29 107.66 63.05 65.67"/>
              <path class="cls-1" d="m117.14,101.1l15.33,12.01,5.92-6.34-13.34-14.05c-2.66,2.81-5.3,5.6-7.92,8.38Z"/>
              <path class="cls-1" d="m106.74,112.1l18.07,9.74,5.51-5.9-16.06-11.8c-2.52,2.67-5.03,5.32-7.52,7.95Z"/>
            </g>
            <g>
              <polygon class="cls-6" points="59.76 60.99 45.48 111.02 20.89 102.98 38.62 52.43 59.76 60.99"/>
              <path class="cls-14" d="m55.49,75.97l4.28-14.98-21.15-8.57-5.34,15.22c7.21,3.22,14.73,5.73,22.2,8.33Z"/>
              <path class="cls-7" d="m27.61,83.81l-6.72,19.17,24.59,8.03,4.94-17.29c-2.15-.8-17.26-7.63-22.8-9.91Z"/>
              <polygon class="cls-3" points="53.02 68.87 55.71 61.6 39.8 54.82 37.37 62.19 53.02 68.87"/>
              <polygon class="cls-3" points="49.15 82.25 52.77 71.87 36.86 65.09 33.49 75.57 49.15 82.25"/>
              <g>
                <path class="cls-5" d="m38.17,100.75c-.04,1.56-1.34,2.8-2.9,2.76s-2.8-1.34-2.75-2.9c.04-1.56,1.34-2.8,2.9-2.75,1.56.04,2.8,1.34,2.75,2.9Z"/>
                <path class="cls-15" d="m38.18,100.11c-.04,1.56-1.34,2.8-2.9,2.76-1.56-.04-2.8-1.34-2.75-2.9.04-1.56,1.34-2.8,2.9-2.75,1.56.04,2.8,1.34,2.75,2.9Z"/>
              </g>
            </g>
            <g>
              <path class="cls-2" d="m106.92,72.69c-3.81-3.38-2.83-8.26-1.85-10.97l-3.18-.25-16.84,9.75-6.49,14.38c-.69,1.53-.17,3.33,1.23,4.25,4.73,3.11,11.07,1.87,14.27-2.8l4.23-6.16,14.07-1.73-5.45-6.48Z"/>
              <path class="cls-12" d="m148.47,57.95l-19.44,3.51-29.9-2.32-16.84,9.75-6.49,14.38c-.69,1.53-.17,3.33,1.23,4.25h0c4.73,3.11,11.07,1.87,14.27-2.8l4.23-6.16,14.07-1.73,32.48,29.66,10.17-8.63,13.53-2.97-17.31-36.94Z"/>
              <path class="cls-13" d="m81.12,73.91l-3.9,8.64c-.07.11.51,3.42,4.35,2.7,1.83-.35,3.26-3.25,4.23-5.87-1.71-1.67-3.19-3.57-4.68-5.47Z"/>
              <path class="cls-9" d="m164.56,92.29l-13.94-29.75-37.6,9.14-19.15,4.16-10.57,13.36c3.11-.17,6.12-1.72,8.01-4.48l4.23-6.16,14.07-1.73,32.48,29.66,10.17-8.63,11.71-2.57.59-3.01Z"/>
              <polygon class="cls-10" points="149.09 100.55 152.26 97.86 165.78 94.9 148.47 57.95 139.52 59.57 149.09 100.55"/>
              <polygon class="cls-10" points="146.71 102.57 109.6 76.83 142.09 106.49 146.71 102.57"/>
            </g>
            <g>
              <g>
                <rect class="cls-13" x="92.68" y="125.04" width="12.75" height="15.88" rx="2.36" ry="2.36" transform="translate(89.15 -32.54) rotate(33.26)"/>
                <rect class="cls-12" x="93.11" y="127.13" width="12.75" height="15.88" rx="2.36" ry="2.36" transform="translate(90.37 -32.44) rotate(33.26)"/>
                <path class="cls-9" d="m92.26,139.78c2.99-4.34,6.1-8.63,9.27-12.87l-.28-.18c-1.51-.99-3.55-.57-4.54.94l-5.11,7.79c-.93,1.41-.61,3.27.67,4.32Z"/>
                <path class="cls-13" d="m98.56,129.28h5.09c.75,0,1.36.61,1.36,1.36v4.01c0,1.12-.91,2.03-2.03,2.03h-3.75c-1.12,0-2.03-.91-2.03-2.03v-4.01c0-.75.61-1.36,1.36-1.36Z" transform="translate(94.85 -33.95) rotate(35.1)"/>
              </g>
              <g>
                <rect class="cls-13" x="81.1" y="113.77" width="14.11" height="24.34" rx="2.36" ry="2.36" transform="translate(97.46 -27.51) rotate(38.46)"/>
                <rect class="cls-12" x="81.1" y="115.9" width="14.11" height="24.34" rx="2.36" ry="2.36" transform="translate(98.78 -27.05) rotate(38.46)"/>
                <path class="cls-13" d="m89.28,119.11h5.09c.75,0,1.36.61,1.36,1.36v4.01c0,1.12-.91,2.03-2.03,2.03h-3.75c-1.12,0-2.03-.91-2.03-2.03v-4.01c0-.75.61-1.36,1.36-1.36Z" transform="translate(92.07 -30.53) rotate(36.88)"/>
              </g>
              <g>
                <rect class="cls-13" x="67.84" y="110.2" width="14.11" height="20.51" rx="2.36" ry="2.36" transform="translate(91.17 -20.45) rotate(38.46)"/>
                <rect class="cls-12" x="67.45" y="112.13" width="14.11" height="20.51" rx="2.36" ry="2.36" transform="translate(92.29 -19.79) rotate(38.46)"/>
                <path class="cls-13" d="m74.26,114.92h5.09c.75,0,1.36.61,1.36,1.36v4.01c0,1.12-.91,2.03-2.03,2.03h-3.75c-1.12,0-2.03-.91-2.03-2.03v-4.01c0-.75.61-1.36,1.36-1.36Z" transform="translate(82.88 -22.57) rotate(35.38)"/>
              </g>
              <g>
                <rect class="cls-13" x="55.57" y="105.17" width="14.11" height="17.56" rx="2.36" ry="2.36" transform="translate(67.93 -15.97) rotate(31.13)"/>
                <rect class="cls-12" x="55.28" y="107.03" width="14.11" height="17.56" rx="2.36" ry="2.36" transform="translate(68.85 -15.55) rotate(31.13)"/>
                <path class="cls-13" d="m61.32,109.19h5.09c.75,0,1.36.61,1.36,1.36v4.01c0,1.12-.91,2.03-2.03,2.03h-3.75c-1.12,0-2.03-.91-2.03-2.03v-4.01c0-.75.61-1.36,1.36-1.36Z" transform="translate(67.56 -16.76) rotate(31.13)"/>
              </g>
            </g>
            <g>
              <polygon class="cls-14" points="141.57 56.35 155.86 106.37 180.45 98.34 162.72 47.78 141.57 56.35"/>
              <path class="cls-6" d="m162.7,62.34c-5.77,2.37-11.86,3.9-17.66,6.16l10.82,37.87,24.59-8.03-13.3-37.92c-1.47.66-2.95,1.31-4.44,1.92Z"/>
              <path class="cls-7" d="m151.13,89.8l4.73,16.57,24.59-8.03-6.2-17.67c-7.66,3.17-15.31,6.36-23.12,9.13Z"/>
              <path class="cls-15" d="m163.15,95.47c.04,1.56,1.34,2.8,2.9,2.76,1.56-.04,2.8-1.34,2.75-2.9-.04-1.56-1.34-2.8-2.9-2.75-1.56.04-2.8,1.34-2.75,2.9Z"/>
            </g>
            <polygon class="cls-3" points="144.75 57.34 161.26 50.7 165.92 62 148.34 69.36 144.75 57.34"/>
            <polygon class="cls-3" points="149.6 71.87 166.57 64.93 170.76 76.53 152.74 83.66 149.6 71.87"/>
            <polygon class="cls-8" points="23.21 38.69 0 109.82 17.52 116.15 40.55 45.58 23.21 38.69"/>
            <polygon class="cls-4" points="34.09 65.38 40.55 45.58 23.21 38.69 16.75 58.49 34.09 65.38"/>
            <polygon class="cls-8" points="173 38.69 196.21 109.82 178.69 116.15 155.66 45.58 173 38.69"/>
            <polygon class="cls-4" points="162.12 65.38 155.66 45.58 173 38.69 179.46 58.49 162.12 65.38"/>
          </g>
        </g>
      </g>
    </g>
  </g>
</svg>