<?xml version="1.0" encoding="UTF-8"?>
<svg id="Layer_2" data-name="Layer 2" xmlns="http://www.w3.org/2000/svg" viewBox="0 0 267.51 231.02">
  <defs>
    <style>
      .cls-1, .cls-2 {
        opacity: .2;
      }

      .cls-3 {
        opacity: .3;
      }

      .cls-4, .cls-5, .cls-6, .cls-7, .cls-8, .cls-9, .cls-10, .cls-11, .cls-12, .cls-13, .cls-14, .cls-15, .cls-16, .cls-2 {
        stroke-width: 0px;
      }

      .cls-5 {
        fill: #455b64;
      }

      .cls-6 {
        fill: #263238;
      }

      .cls-7 {
        fill: #5794c9;
      }

      .cls-8 {
        fill: #e0e0e0;
      }

      .cls-9 {
        fill: #aa6551;
      }

      .cls-10 {
        fill: #b78876;
      }

      .cls-11 {
        fill: #fbbd9d;
      }

      .cls-12 {
        fill: #fff;
      }

      .cls-13 {
        fill: #ec996f;
      }

      .cls-14 {
        fill: #e7515b;
      }

      .cls-15 {
        fill: #fafbfb;
      }

      .cls-16 {
        fill: #f5f5f5;
      }
    </style>
  </defs>
  <g id="Layer_1-2" data-name="Layer 1">
    <circle class="cls-7" cx="131.2" cy="115.51" r="115.51" transform="translate(-43.25 126.6) rotate(-45)"/>
    <g>
      <path class="cls-6" d="m267.51,208.13c0,.06-59.89.11-133.75.11s-133.76-.05-133.76-.11,59.88-.11,133.76-.11,133.75.05,133.75.11Z"/>
      <g>
        <g>
          <path class="cls-6" d="m223.06,45.74H39.21c-3.17,0-5.74,2.57-5.74,5.74v129.86c0,3.17,2.57,5.74,5.74,5.74h70.56s4.49,13.88-9.43,21.06h65.98s-15.71-5.39-11.67-21.06h68.41c3.17,0,5.74-2.57,5.74-5.74V51.48c0-3.17-2.57-5.74-5.74-5.74Z"/>
          <path class="cls-5" d="m133.59,173.41c2.5,3.57-1.41,7.49-4.99,4.99-.12-.08-.22-.19-.31-.31-2.49-3.57,1.42-7.48,4.99-4.99.12.08.23.19.31.31Z"/>
        </g>
        <g>
          <path class="cls-8" d="m40.89,53.52h180.1c1.81,0,3.27,1.47,3.27,3.27v104.17c0,1.81-1.47,3.27-3.27,3.27H40.89c-1.81,0-3.27-1.47-3.27-3.27V56.79c0-1.81,1.47-3.27,3.27-3.27Z"/>
          <rect class="cls-12" x="37.62" y="61.63" width="186.65" height="102.6"/>
          <path class="cls-5" d="m52.93,57.8c0,.82-.67,1.49-1.49,1.49s-1.49-.67-1.49-1.49.67-1.49,1.49-1.49,1.49.67,1.49,1.49Z"/>
          <path class="cls-5" d="m43.89,57.8c0,.82-.67,1.49-1.49,1.49s-1.49-.67-1.49-1.49.67-1.49,1.49-1.49,1.49.67,1.49,1.49Z"/>
          <path class="cls-5" d="m48.23,57.8c0,.82-.67,1.49-1.49,1.49s-1.49-.67-1.49-1.49.67-1.49,1.49-1.49,1.49.67,1.49,1.49Z"/>
        </g>
      </g>
      <g>
        <rect class="cls-16" x="169.31" y="67.82" width="49.15" height="82.12"/>
        <g>
          <polygon class="cls-14" points="182.35 116.17 182.88 117.24 184.06 117.41 183.2 118.24 183.41 119.42 182.35 118.86 181.3 119.42 181.5 118.24 180.65 117.41 181.83 117.24 182.35 116.17"/>
          <polygon class="cls-14" points="188.2 116.17 188.73 117.24 189.91 117.41 189.06 118.24 189.26 119.42 188.2 118.86 187.15 119.42 187.35 118.24 186.5 117.41 187.68 117.24 188.2 116.17"/>
          <polygon class="cls-14" points="194.06 116.17 194.58 117.24 195.76 117.41 194.91 118.24 195.11 119.42 194.06 118.86 193 119.42 193.2 118.24 192.35 117.41 193.53 117.24 194.06 116.17"/>
          <polygon class="cls-14" points="199.91 116.17 200.44 117.24 201.61 117.41 200.76 118.24 200.96 119.42 199.91 118.86 198.86 119.42 199.06 118.24 198.2 117.41 199.38 117.24 199.91 116.17"/>
          <polygon class="cls-14" points="205.76 116.17 206.29 117.24 207.47 117.41 206.61 118.24 206.82 119.42 205.76 118.86 204.71 119.42 204.91 118.24 204.06 117.41 205.23 117.24 205.76 116.17"/>
        </g>
        <g>
          <path class="cls-14" d="m191.88,125.8c0,.06-3.73.11-8.33.11s-8.33-.05-8.33-.11,3.73-.11,8.33-.11,8.33.05,8.33.11Z"/>
          <path class="cls-6" d="m212.83,129.42c0,.06-8.32.11-18.59.11s-18.59-.05-18.59-.11,8.32-.11,18.59-.11,18.59.05,18.59.11Z"/>
          <path class="cls-6" d="m212.83,132.53c0,.06-8.32.11-18.59.11s-18.59-.05-18.59-.11,8.32-.11,18.59-.11,18.59.05,18.59.11Z"/>
          <path class="cls-6" d="m212.83,135.64c0,.06-8.32.11-18.59.11s-18.59-.05-18.59-.11,8.32-.11,18.59-.11,18.59.05,18.59.11Z"/>
          <path class="cls-6" d="m212.83,138.75c0,.06-8.32.11-18.59.11s-18.59-.05-18.59-.11,8.32-.11,18.59-.11,18.59.05,18.59.11Z"/>
          <path class="cls-6" d="m212.83,141.86c0,.06-8.32.11-18.59.11s-18.59-.05-18.59-.11,8.32-.11,18.59-.11,18.59.05,18.59.11Z"/>
        </g>
        <g>
          <rect class="cls-8" x="172.55" y="71.99" width="42.34" height="40.65"/>
          <g>
            <polygon class="cls-11" points="208.59 105.55 211.35 112.63 204.68 112.63 203.18 108.77 208.59 105.55"/>
            <g>
              <path class="cls-14" d="m183.22,112.63h18.05c.28-2.66.46-5.19.46-5.19l.93,2.52,7.58-3.79s-2.76-7.35-5.06-9.84c-2.92-3.15-8.16-2.83-8.16-2.83l-6.81.11s-2.59.24-5.04,1.47l-.17.05v.04c-1.47,1.26-5.9,7.18-5.9,7.18l1.63,1.59,3.34,3.11s-.01.02,0,.06c.06.33-.85,5.52-.85,5.52Z"/>
              <path class="cls-6" d="m197.2,93.25s.02.04.04.12c.02.08.04.2.05.36.02.31,0,.78-.19,1.32-.18.54-.53,1.15-1.11,1.64-.57.5-1.39.82-2.27.85-.88.02-1.71-.25-2.31-.72-.61-.46-.98-1.06-1.2-1.58-.21-.53-.26-.99-.26-1.31,0-.16.01-.28.03-.36.01-.08.02-.12.03-.12.05,0-.09.72.34,1.73.22.5.6,1.05,1.17,1.48.57.43,1.36.68,2.19.66.83-.03,1.6-.32,2.14-.78.55-.46.9-1.03,1.09-1.54.38-1.04.19-1.75.25-1.75Z"/>
              <path class="cls-6" d="m203.65,94.86s-.18.02-.48.12c-.3.1-.71.35-1.05.8-.35.44-.58,1.1-.68,1.84-.1.75-.12,1.59-.15,2.47-.05,1.76.02,3.36.1,4.51.04.54.08,1,.1,1.37.03.32.04.5.02.5-.01,0-.05-.17-.1-.49-.05-.32-.12-.79-.17-1.36-.12-1.15-.21-2.76-.17-4.53.03-.89.06-1.73.17-2.5.11-.77.37-1.45.76-1.91.38-.46.83-.7,1.15-.78.16-.04.29-.05.38-.06.09,0,.13,0,.13.01Z"/>
              <path class="cls-6" d="m187.47,94.1s-.03.19-.13.51c-.11.37-.25.83-.41,1.37-.35,1.16-.81,2.77-1.28,4.55-.46,1.79-.84,3.42-1.1,4.6-.12.56-.23,1.03-.31,1.4-.08.33-.12.51-.14.51-.01,0,0-.19.06-.53.05-.34.13-.82.24-1.42.22-1.19.57-2.83,1.04-4.62.47-1.79.96-3.4,1.34-4.55.19-.58.36-1.04.48-1.35.12-.32.19-.49.21-.49Z"/>
              <path class="cls-2" d="m201.16,100.58l2.49,8.89-1,.5-.93-2.52s-.9-5.27-.56-6.87Z"/>
              <g class="cls-1">
                <path class="cls-4" d="m187.76,94.11c-1.45.74,2.11,2.64,3.74,2.63l-1.12-3.16s-2.13.29-2.62.54Z"/>
              </g>
            </g>
            <g>
              <g>
                <g>
                  <path class="cls-11" d="m193.89,97.34h0c-2.13.14-3.92-1.59-3.84-3.73.04-1.16.08-2.11.08-2.11,0,0-2.87-.25-3.1-3.09-.23-2.84-.18-9.4-.18-9.4h0c3.19-1.64,7.02-1.42,10.01.58l.44.3-.05,13.87c0,1.89-1.47,3.45-3.36,3.58Z"/>
                  <g>
                    <path class="cls-6" d="m188.39,84.03c.16-.16.15-.43-.01-.58s-.43-.15-.58.01-.15.43.01.58c.16.16.43.15.58-.01Z"/>
                    <path class="cls-6" d="m187.13,83.19s.31-.19.7-.22c.39-.03.69.15.73.1.02-.02-.03-.11-.16-.2-.13-.09-.34-.16-.59-.14-.24.02-.44.13-.56.23-.12.11-.15.2-.13.22Z"/>
                  </g>
                  <g>
                    <path class="cls-6" d="m191.96,83.41c-.19.13-.23.39-.1.58.13.19.39.23.58.1.19-.13.23-.39.1-.58-.13-.19-.39-.23-.58-.1Z"/>
                    <path class="cls-6" d="m191.28,83.2s.31-.19.7-.22c.39-.03.69.15.73.1.02-.02-.03-.11-.16-.2-.13-.09-.34-.16-.59-.14-.24.02-.44.13-.56.23-.12.11-.15.2-.13.22Z"/>
                  </g>
                  <path class="cls-6" d="m190.03,86.65s-.24-.06-.64-.09c-.1,0-.19-.02-.2-.08-.02-.06,0-.17.05-.3.08-.27.17-.53.26-.82.35-1.16.59-2.12.53-2.14-.06-.02-.39.91-.74,2.07-.08.28-.16.55-.24.82-.03.12-.09.26-.03.43.03.08.12.14.19.15.07.02.13.01.18.01.4-.01.64-.04.65-.07Z"/>
                  <path class="cls-13" d="m190.12,91.47s1.81.02,3.63-1.3c0,0-.74,2.1-3.59,2.04l-.04-.74Z"/>
                </g>
                <g>
                  <path class="cls-11" d="m197.18,82.92c.06-.02,2.33-.27,1.97,1.93-.31,1.9-2.35,1.32-2.35,1.25,0-.06.38-3.18.38-3.18Z"/>
                  <path class="cls-13" d="m197.59,85.26s.03.03.08.05c.05.03.14.05.24.02.2-.06.4-.36.43-.7.02-.17,0-.34-.06-.48-.05-.14-.13-.24-.23-.27-.1-.03-.17.02-.2.08-.03.05-.02.09-.03.09,0,0-.04-.03-.02-.11.01-.04.04-.08.08-.11.05-.03.12-.05.19-.03.14.02.27.16.32.32.06.15.09.34.07.53-.04.38-.26.72-.54.78-.14.02-.24-.02-.3-.07-.05-.05-.06-.09-.05-.1Z"/>
                </g>
              </g>
              <path class="cls-6" d="m196.7,84.89c-.44.27-1.04-.06-1.27-.52-.23-.46-.2-1-.22-1.51-.03-.7-.15-1.39-.36-2.06-.14-.43-.33-.87-.72-1.09-.45-.25-1.01-.13-1.49.04-.48.18-.97.41-1.48.36-.67-.06-1.23-.59-1.9-.68-.62-.09-1.22.22-1.82.39-.6.17-1.27.21-1.85-.04-.58-.25-1.03-.84-.98-1.47.04-.63.69-1.18,1.3-1.01-.47-.24-.51-.98-.15-1.37s.97-.46,1.48-.3c.51.16.93.51,1.32.87.05-.48.53-.82,1.01-.85.48-.03.94.19,1.34.46.4.27.76.59,1.18.82.84.46,1.83.51,2.78.69.94.17,1.95.55,2.4,1.39.4.74.13,1.63.1,2.48-.04.88-.04,1.07-.08,1.9,0,0,.06,1.15-.59,1.52Z"/>
              <path class="cls-12" d="m189.67,87.8s.11.07.3.07c.19,0,.46-.07.7-.25.24-.18.38-.42.43-.6.06-.18.04-.3.02-.31-.06-.02-.15.44-.57.75-.41.31-.87.28-.88.34Z"/>
              <path class="cls-5" d="m186.41,77.87s-.19.09-.17.39c.01.14.08.32.23.46.16.15.41.2.67.16.26-.04.52-.16.78-.31.26-.15.52-.33.84-.41.32-.08.67-.02.99.15.32.16.63.39.96.59.33.2.7.38,1.08.35.39-.02.7-.25.96-.45.26-.2.52-.4.8-.47.28-.07.56-.04.8.05.47.18.75.52.86.77.12.26.11.42.12.42,0,0,.02-.16-.09-.43-.11-.26-.38-.62-.87-.81-.24-.09-.53-.13-.83-.06-.3.08-.57.28-.83.48-.26.2-.56.42-.92.43-.36.03-.71-.14-1.03-.34-.33-.2-.63-.43-.97-.59-.33-.17-.71-.24-1.05-.15-.34.09-.6.28-.86.43-.25.15-.5.27-.75.31-.24.04-.48,0-.63-.14-.15-.13-.22-.3-.23-.43-.03-.29.16-.39.14-.39Z"/>
              <path class="cls-5" d="m187.67,76.37s-.02-.04-.08-.07c-.06-.04-.18-.06-.31,0-.13.04-.27.21-.24.42.02.2.17.42.42.5.24.09.53.06.8-.03.27-.09.55-.23.86-.26.32-.05.63.11.88.34.26.23.49.53.84.69.36.17.76.06,1.08-.06.33-.13.63-.26.95-.3.63-.09,1.21.09,1.61.36.4.27.64.59.77.83.13.24.17.38.18.38,0,0-.03-.15-.15-.39-.12-.24-.36-.58-.76-.86-.4-.28-1-.47-1.65-.39-.33.03-.65.18-.97.3-.32.12-.69.22-1.02.06-.33-.15-.56-.44-.82-.67-.25-.24-.6-.41-.94-.36-.33.04-.61.18-.88.27-.27.09-.54.12-.76.04-.22-.07-.37-.27-.39-.45-.03-.19.09-.34.21-.38.12-.05.23-.04.29-.01.06.03.09.06.09.06Z"/>
              <path class="cls-6" d="m196.06,78.6c.06.02.21-.32.58-.55.36-.24.74-.22.74-.28,0-.03-.09-.07-.25-.07-.16,0-.39.05-.6.18-.21.13-.35.32-.42.46-.07.15-.07.25-.05.26Z"/>
              <path class="cls-6" d="m196.4,76.49c-.06.02.03.44-.04.96-.06.52-.25.92-.2.94.04.03.33-.35.4-.92.07-.57-.11-1.01-.16-.99Z"/>
              <path class="cls-5" d="m197.06,84.11s.22-.29.12-.81c-.04-.27-.25-.52-.45-.78-.1-.13-.2-.28-.22-.45-.02-.17.02-.36.07-.54.11-.37.15-.77.06-1.1-.08-.34-.28-.61-.51-.74-.22-.14-.44-.17-.59-.16-.15.01-.22.05-.22.05,0,0,.08-.02.22-.02.14,0,.35.04.55.18.21.14.39.39.46.71.08.32.04.69-.07,1.06-.05.19-.09.38-.07.58.03.19.13.36.24.49.21.26.41.49.46.74.06.24.04.45,0,.59-.03.14-.08.2-.07.21Z"/>
            </g>
            <g>
              <path class="cls-6" d="m194.99,104.35s.01.1.02.27c0,.2.01.44.02.72.02.62.04,1.49.05,2.54l-.03-.07c.39.37.83.77,1.29,1.2l-.11-.02c.69-.28,1.44-.58,2.22-.9l-.07.08c.01-.07.02-.14.04-.21.24-1.32.47-2.56.67-3.64l.09.11c-1.23,0-2.27-.03-3.01-.05-.34-.01-.63-.02-.87-.03-.2,0-.32-.01-.32-.02,0,0,.09-.01.28-.02.23,0,.51-.02.84-.03.73-.02,1.8-.04,3.07-.05h.11s-.02.11-.02.11c-.19,1.08-.41,2.32-.65,3.64-.01.07-.03.14-.04.21v.06s-.07.02-.07.02c-.78.31-1.53.61-2.22.88l-.06.02-.05-.05c-.46-.44-.89-.85-1.27-1.22l-.03-.03v-.04c0-1.09.03-1.98.05-2.59,0-.28.02-.51.02-.7,0-.16.01-.24.02-.23Z"/>
              <path class="cls-6" d="m198.93,105.44c0,.06-.88.16-1.98.17-1.1,0-1.98-.09-1.98-.15,0-.06.89-.06,1.98-.07,1.09,0,1.97,0,1.98.05Z"/>
            </g>
            <path class="cls-11" d="m180.05,103.26c.09.09-6.7,9.37-6.7,9.37h6.65l4.07-5.59-4.02-3.79Z"/>
          </g>
        </g>
      </g>
      <g>
        <rect class="cls-16" x="96.53" y="52.54" width="70.06" height="117.05"/>
        <g>
          <polygon class="cls-14" points="115.12 121.47 115.87 122.99 117.55 123.23 116.33 124.42 116.62 126.09 115.12 125.3 113.62 126.09 113.9 124.42 112.69 123.23 114.37 122.99 115.12 121.47"/>
          <polygon class="cls-14" points="123.46 121.47 124.21 122.99 125.89 123.23 124.68 124.42 124.96 126.09 123.46 125.3 121.96 126.09 122.25 124.42 121.03 123.23 122.71 122.99 123.46 121.47"/>
          <polygon class="cls-14" points="131.8 121.47 132.55 122.99 134.23 123.23 133.02 124.42 133.3 126.09 131.8 125.3 130.3 126.09 130.59 124.42 129.37 123.23 131.05 122.99 131.8 121.47"/>
          <polygon class="cls-14" points="140.14 121.47 140.9 122.99 142.57 123.23 141.36 124.42 141.65 126.09 140.14 125.3 138.64 126.09 138.93 124.42 137.71 123.23 139.39 122.99 140.14 121.47"/>
          <polygon class="cls-14" points="148.49 121.47 149.24 122.99 150.92 123.23 149.7 124.42 149.99 126.09 148.49 125.3 146.98 126.09 147.27 124.42 146.06 123.23 147.74 122.99 148.49 121.47"/>
        </g>
        <g>
          <path class="cls-14" d="m128.7,135.19c0,.06-5.32.11-11.88.11s-11.88-.05-11.88-.11,5.32-.11,11.88-.11,11.88.05,11.88.11Z"/>
          <path class="cls-6" d="m158.56,140.35c0,.06-11.86.11-26.49.11s-26.49-.05-26.49-.11,11.86-.11,26.49-.11,26.49.05,26.49.11Z"/>
          <path class="cls-6" d="m158.56,144.78c0,.06-11.86.11-26.49.11s-26.49-.05-26.49-.11,11.86-.11,26.49-.11,26.49.05,26.49.11Z"/>
          <path class="cls-6" d="m158.56,149.21c0,.06-11.86.11-26.49.11s-26.49-.05-26.49-.11,11.86-.11,26.49-.11,26.49.05,26.49.11Z"/>
          <path class="cls-6" d="m158.56,153.64c0,.06-11.86.11-26.49.11s-26.49-.05-26.49-.11,11.86-.11,26.49-.11,26.49.05,26.49.11Z"/>
          <path class="cls-6" d="m158.56,158.08c0,.06-11.86.11-26.49.11s-26.49-.05-26.49-.11,11.86-.11,26.49-.11,26.49.05,26.49.11Z"/>
        </g>
        <g>
          <rect class="cls-8" x="101.14" y="58.49" width="60.35" height="57.94"/>
          <g>
            <path class="cls-6" d="m127.86,68.09c.63-2.12,2.57-3.7,4.72-4.22,2.15-.51,4.82-1.22,6.79-.21,1.23.63,2.41,1.54,2.89,2.83.57,1.53-.31,4.4-.75,5.97-.44,1.58-.77,3.38.1,4.76.85,1.35,2.57,1.87,3.64,3.06,1.48,1.64,1.27,4.51-.44,5.91,1.9-.11,3.51,1.83,3.44,3.73-.07,1.9-1.46,3.57-3.16,4.44-1.7.86-3.66,1.04-5.56,1.05-2.36,0-4.72-.24-7.03-.73-1.9-.4-3.89-1.04-5.13-2.54-1.14-1.38-1.45-3.26-1.46-5.05-.01-6.33,3.31-12.6,1.87-18.76"/>
            <path class="cls-6" d="m129.4,66.63c-1.97-1.36-4.75-1.44-6.8-.2-2.05,1.24-3.26,3.74-2.97,6.12.15,1.24.68,2.49.36,3.7-.6,2.27-3.8,3.15-4.22,5.46-.17.91.16,1.83.4,2.72.24.89.4,1.9-.06,2.7-.34.59-.96.97-1.44,1.45-1.56,1.56-1.53,4.29-.22,6.06,1.3,1.77,3.61,2.63,5.81,2.55,2.2-.07,4.31-.96,6.18-2.11"/>
            <g>
              <path class="cls-10" d="m124.78,69.17l.03,1.5.3,22.53c.04,2.62,2.31,4.67,5.11,4.61h0c2.83-.06,5.12-2.25,5.13-4.89,0-2.77.07-5.69.07-5.69,0,0,3.57-.59,4.31-5.25.37-2.32.25-6.12.06-9.23-.18-2.8-2.64-4.88-5.43-4.59l-9.58,1.01Z"/>
              <g>
                <path class="cls-6" d="m138,75.4c.01.32-.25.59-.58.6-.33.02-.61-.22-.62-.54-.01-.32.25-.59.58-.6.33-.02.61.22.62.54Z"/>
                <path class="cls-6" d="m138.97,74.73c-.07.08-.53-.26-1.17-.26-.64,0-1.11.32-1.18.24-.03-.03.04-.18.25-.33.2-.15.55-.29.95-.29.4,0,.74.15.93.3.2.15.26.29.23.33Z"/>
              </g>
              <g>
                <path class="cls-6" d="m131.8,75.4c.01.32-.25.59-.58.6-.33.02-.61-.22-.62-.54-.01-.32.25-.59.58-.6.33-.02.61.22.62.54Z"/>
                <path class="cls-6" d="m132.64,74.85c-.07.08-.53-.26-1.17-.26-.64,0-1.11.32-1.18.24-.03-.03.04-.18.25-.33.2-.15.55-.29.95-.29.4,0,.74.15.93.3.2.15.26.29.23.33Z"/>
              </g>
              <path class="cls-6" d="m134.98,79.62s.4-.11,1.04-.19c.16-.02.32-.05.35-.16.04-.12-.03-.3-.11-.49-.15-.4-.32-.81-.49-1.25-.67-1.78-1.16-3.25-1.09-3.27.07-.03.68,1.4,1.35,3.18.16.44.32.86.47,1.26.06.19.17.4.09.64-.04.12-.16.21-.27.24-.11.03-.2.03-.28.04-.65.04-1.06.04-1.06,0Z"/>
              <path class="cls-9" d="m135.42,87.23s-3.14.2-6.24-1.67c0,0,1.51,3.2,6.18,2.77l.06-1.1Z"/>
              <path class="cls-9" d="m134.71,81.17c-.23-.31-.64-.47-1.04-.43-.28.03-.56.16-.73.39-.17.23-.21.55-.05.77.17.24.54.3.84.21.31-.09.57-.29.82-.49.07-.06.14-.11.18-.19.04-.08.05-.18,0-.24"/>
              <path class="cls-6" d="m133.09,80.06c.1,0,.11.69.7,1.19.6.5,1.34.42,1.35.52,0,.04-.17.14-.48.14-.31.01-.76-.09-1.12-.39-.36-.3-.52-.71-.55-1-.03-.29.05-.46.1-.46Z"/>
            </g>
            <path class="cls-6" d="m128.57,66.99c.02-.06.08-.09.12-.07s.05.08.03.13c-.02.06-.08.09-.12.07-.04-.02-.05-.08-.03-.13Z"/>
            <path class="cls-6" d="m124.54,91.23c1.38-.48,2.46-1.65,2.98-3.01.52-1.36.5-2.89.1-4.3-.18-.65-.45-1.36-.16-1.97.21-.44.65-.71,1.02-1.04.82-.74,1.25-1.84,1.32-2.94.07-1.1-.19-2.2-.59-3.22-.22-.56-.49-1.18-.28-1.75.14-.4.5-.69.81-.98.66-.62,1.21-1.36,1.62-2.17.29-.58.5-1.27.22-1.85-.34-.7-1.22-.92-1.99-.98-1.85-.14-3.89.27-5.06,1.7-1.05,1.28-1.17,3.07-1.25,4.73-.23,5.22-.47,10.49.44,15.64"/>
            <path class="cls-6" d="m141.56,68.65c-.23.2-.55.27-.8.43-.25.16-.43.36-.67.59-.12.12-.25.24-.37.38-.03.03-.05.07-.09.1l-.13.13c-.11.1-.21.2-.32.31-.25.22-.56.5-1,.79-.43.28-1.02.6-1.73.76-1.4.31-2.63,0-3.54-.43-.93-.45-1.53-1.04-1.94-1.56-.79-1.06-.92-1.91-.55-2.38.38-.48,1.28-.4,2.31-.15.51.12,1.05.25,1.52.3.49.06.93.04,1.21-.03.13-.03.3-.08.56-.2.26-.12.59-.29.96-.47.19-.09.39-.18.6-.26.1-.04.22-.08.32-.12.12-.04.25-.08.37-.11.49-.12.96-.16,1.4-.11.87.07,1.62.51,1.91.99.3.48.18.86-.04,1.04Z"/>
            <path class="cls-5" d="m118,94.44s-.03-.02-.07-.07c-.04-.05-.11-.11-.18-.22-.15-.19-.34-.51-.47-.96-.13-.45-.21-1.03-.08-1.69.12-.66.49-1.37,1.13-1.92.62-.57,1.44-.99,2.19-1.59.37-.3.73-.65.98-1.08.26-.43.4-.94.31-1.46-.14-1.05-1.01-1.98-1.08-3.24-.08-1.22.62-2.54,1.8-3.11.56-.3,1.15-.52,1.59-.91.45-.38.65-.96.64-1.53-.01-.57-.19-1.13-.43-1.64-.24-.51-.54-.99-.79-1.48-.25-.49-.46-1-.53-1.53-.07-.53,0-1.06.19-1.52.36-.94,1.06-1.61,1.77-2.05.72-.44,1.47-.63,2.12-.74.65-.1,1.22-.11,1.69-.11.46,0,.82.03,1.06.05.11.01.2.02.28.03.06,0,.09.01.09.02,0,0-.13,0-.37,0-.24,0-.6-.02-1.06-.01-.46,0-1.02.03-1.67.14-.64.12-1.37.31-2.06.75-.68.43-1.35,1.09-1.68,1.98-.17.44-.24.94-.17,1.43.07.5.27.99.52,1.47.25.48.54.96.79,1.48.25.52.44,1.1.45,1.72.03.61-.2,1.28-.71,1.7-.49.43-1.09.64-1.63.94-1.11.54-1.75,1.76-1.69,2.91.05,1.16.91,2.09,1.07,3.22.09.57-.07,1.14-.35,1.59-.28.46-.65.82-1.03,1.13-.78.6-1.59,1.02-2.2,1.56-.62.53-.99,1.2-1.11,1.83-.13.63-.07,1.2.05,1.64.25.89.67,1.25.63,1.26Z"/>
            <path class="cls-5" d="m144.01,93.54s.28-.09.4-.51c.06-.2.06-.48-.05-.76-.12-.27-.37-.53-.69-.74-.32-.22-.72-.4-1.11-.67-.39-.26-.8-.68-.84-1.26-.05-.57.2-1.12.53-1.6.34-.48.77-.89,1.11-1.38.35-.48.51-1.04.43-1.59-.08-.54-.35-1.03-.64-1.44-.6-.84-1.35-1.45-1.82-2.1-.5-.63-.75-1.26-.8-1.71-.02-.22-.02-.4,0-.52.02-.12.03-.18.04-.18.02,0-.03.25.04.68.07.43.34,1.02.84,1.63.48.62,1.23,1.21,1.86,2.08.31.43.6.94.69,1.53.04.3.03.61-.05.91-.08.3-.23.58-.41.83-.35.51-.79.92-1.11,1.37-.32.45-.54.97-.5,1.46.03.5.38.88.75,1.13.37.27.77.45,1.1.69.33.23.6.51.72.83.12.31.09.61.02.83-.08.22-.21.36-.31.42-.1.07-.17.07-.17.07Z"/>
            <path class="cls-5" d="m141.87,66.75s.01.05.02.15c0,.1,0,.24-.04.42-.07.35-.26.88-.72,1.35-.45.48-1.24.85-2.12.77-.44-.04-.89-.18-1.29-.45-.4-.27-.72-.65-1.04-1.02-.31-.38-.64-.71-1.01-.97-.37-.26-.77-.44-1.16-.57-.79-.25-1.57-.23-2.18-.08-.62.14-1.08.39-1.38.58-.3.19-.45.32-.46.31,0,0,.12-.16.41-.38.29-.21.75-.49,1.39-.66.63-.17,1.44-.22,2.27.04.41.13.84.32,1.23.59.39.27.74.63,1.05,1,.32.37.63.73.99.98.36.25.79.39,1.19.43.82.09,1.56-.24,2-.68.45-.43.66-.93.75-1.26.09-.34.09-.54.11-.54Z"/>
            <path class="cls-6" d="m132.81,72.32c-.06.17-.71.09-1.46.18-.76.08-1.37.3-1.47.14-.04-.08.06-.24.31-.41.24-.17.63-.33,1.09-.38.45-.05.87.02,1.14.13.28.11.42.25.39.33Z"/>
            <path class="cls-6" d="m138.73,72.86c-.11.15-.56,0-1.09-.01-.53-.03-.98.1-1.09-.05-.05-.07.03-.22.22-.36.19-.14.52-.25.89-.24.37.01.68.14.87.29.19.15.25.3.2.37Z"/>
          </g>
          <g>
            <path class="cls-14" d="m120.52,116.61c.22.39-1.43-5.17-1.43-5.17l-1.38,5.08-10.27.08s5.8-18.96,8.56-21.61c3.6-3.45,10.34-3.64,10.34-3.64l4.03,3.44,6.37-3.27s.08,0,.23.03c4.25.51,7.94,3.15,9.86,6.97l6.91,17.91h-9.13l-1.95-5.29.65,5.29"/>
            <path class="cls-15" d="m123.05,91.76l9.25,21.04,4.67-21.26s-1.3-.08-3.15-.14c-1.02-.04-2.22,4.01-3.46,3.99-.79-.01-1.6-4.11-2.4-4.1-1.01,0-1.99.02-2.89.06-.76.04-1.44.36-2.03.41Z"/>
            <path class="cls-15" d="m124.81,91.95v-1.93s5.51.07,5.61,4.49c0,0,.78-4.35,5.23-4.49l.29,1.48-1.26,5.07-3.21,2.14h-4.33l-1.79-2.36-.54-4.4Z"/>
            <path class="cls-6" d="m132.24,113.36s.01-.08.06-.24c.05-.15.12-.37.27-.64.14-.27.36-.58.65-.89.29-.32.64-.65,1-1.05.71-.8,1.63-1.72,2.3-2.96.33-.62.56-1.33.59-2.09.04-.75-.15-1.56-.64-2.19l-.15-.19h.24c.09.02.19.02.28,0,.38-.06.72-.31.96-.61.25-.31.39-.67.44-1.06.11-.77-.05-1.52-.17-2.24-.24-1.44-.45-2.73-.64-3.83-.17-1.07-.31-1.95-.41-2.59-.04-.29-.07-.52-.1-.7-.02-.16-.03-.25-.02-.25,0,0,.03.08.06.24.04.18.08.41.14.7.12.64.28,1.51.48,2.57.2,1.1.43,2.39.68,3.82.12.72.3,1.49.18,2.31-.06.41-.21.82-.48,1.16-.26.34-.64.62-1.1.69-.11.02-.23.02-.33.01l.09-.18c.53.68.73,1.55.68,2.34-.04.8-.28,1.54-.63,2.18-.7,1.28-1.64,2.18-2.36,2.97-.37.4-.73.73-1.02,1.03-.3.3-.52.59-.67.85-.29.52-.37.85-.39.84Z"/>
            <path class="cls-6" d="m132.24,113.18s-.07-.06-.17-.19c-.12-.15-.28-.33-.47-.57-.41-.49-1.02-1.18-1.78-2.03-.76-.85-1.68-1.85-2.6-3.06-.45-.6-.95-1.24-1.29-2.01-.34-.76-.49-1.69-.16-2.55.05-.12.1-.23.16-.33l.06.16c-.82-.3-1.53-.81-2.06-1.43-.54-.61-.92-1.31-1.19-2.01-.53-1.4-.56-2.77-.51-3.87.06-1.11.21-2,.31-2.61.05-.29.1-.52.13-.7.03-.16.05-.24.06-.24,0,0,0,.09-.02.25-.02.18-.05.42-.09.71-.08.61-.2,1.5-.24,2.6-.03,1.09.02,2.44.55,3.79.26.67.64,1.35,1.16,1.94.51.6,1.19,1.09,1.97,1.37l.12.04-.07.11c-.05.09-.1.19-.15.29-.31.78-.17,1.66.15,2.39.33.74.81,1.37,1.26,1.97.9,1.2,1.81,2.21,2.56,3.08.75.86,1.34,1.57,1.73,2.08.19.25.34.45.44.59.1.14.14.21.14.22Z"/>
            <path class="cls-6" d="m132.14,116.56c-.06,0-.09-.85-.06-1.88.03-1.04.1-1.88.16-1.88s.09.84.06,1.88c-.03,1.04-.1,1.88-.16,1.88Z"/>
            <path class="cls-6" d="m118.83,112.69s.05-.26.18-.72c.12-.46.29-1.14.46-1.98.34-1.68.63-4.04.5-6.65-.07-1.3-.2-2.55-.49-3.63-.29-1.09-.76-2-1.3-2.66-.54-.66-1.11-1.06-1.53-1.29-.42-.22-.68-.3-.67-.31,0,0,.07,0,.19.04.12.03.3.1.52.2.44.21,1.04.6,1.61,1.26.57.66,1.07,1.59,1.37,2.7.31,1.11.45,2.36.52,3.67.13,2.63-.19,5.01-.57,6.69-.19.84-.39,1.51-.53,1.97-.07.23-.14.4-.18.52-.04.12-.07.18-.08.18Z"/>
            <path class="cls-6" d="m142.76,109.28s-.03-.25-.03-.7c0-.45-.02-1.1-.04-1.9-.05-1.6-.2-3.82-.55-6.24-.54-3.82-1.45-6.99-1.76-8.13l-.03-.11.09.07c.28.23.42.34.41.35,0,.01-.16-.09-.46-.29l.06-.04c.39,1.12,1.37,4.28,1.91,8.13.35,2.43.47,4.66.49,6.27,0,.8,0,1.46-.03,1.91-.02.45-.04.7-.05.7Z"/>
            <path class="cls-6" d="m129.39,92.01s-.1.01-.25.11c-.14.09-.3.3-.44.59-.3.57-.63,1.43-.73,2.44l-.03.27-.17-.22c-.1-.13-.2-.26-.3-.4-.7-.91-1.38-1.69-1.89-2.24-.51-.55-.83-.89-.81-.91.02-.02.38.28.92.8.54.53,1.25,1.3,1.95,2.21.1.14.21.27.3.4l-.19.05c.11-1.05.48-1.92.82-2.49.16-.29.35-.51.53-.59.18-.09.29-.05.29-.04Z"/>
            <path class="cls-6" d="m135.86,91.59s-.26.41-.74,1.03c-.48.62-1.15,1.46-1.9,2.38-.14.17-.27.33-.4.49l-.19.23v-.29c-.01-.52-.03-1.01-.11-1.43-.08-.43-.22-.79-.39-1.06-.34-.55-.74-.71-.72-.74,0-.01.1.01.27.11.16.09.38.27.57.55.2.28.37.66.46,1.1.1.44.12.94.13,1.47l-.19-.07c.13-.16.26-.32.4-.49.75-.92,1.44-1.75,1.95-2.34.51-.59.84-.95.86-.93Z"/>
            <path class="cls-6" d="m132.06,112.31s-.05-.25-.1-.7c-.05-.49-.12-1.13-.2-1.91-.16-1.61-.37-3.84-.59-6.3-.22-2.46-.4-4.69-.52-6.31-.05-.78-.1-1.43-.13-1.91-.03-.45-.03-.7-.02-.7.01,0,.05.25.1.7.05.49.12,1.13.2,1.91.16,1.61.37,3.84.59,6.3.22,2.46.4,4.69.52,6.31.05.78.1,1.43.13,1.91.03.45.03.7.02.7Z"/>
            <path class="cls-6" d="m132.07,98.3s.15-.12.38.03c.1.07.21.2.22.4,0,.2-.15.38-.35.44-.19.07-.43.01-.54-.15-.11-.16-.1-.33-.06-.45.09-.25.3-.27.29-.24.01.03-.11.1-.14.28-.01.09,0,.21.07.28.06.08.19.11.32.07.12-.04.21-.14.21-.24,0-.1-.05-.21-.11-.27-.14-.14-.28-.11-.28-.15Z"/>
            <path class="cls-6" d="m132.87,103.5s.18-.09.37.11c.09.09.17.25.12.44-.04.2-.25.34-.46.34-.21.01-.43-.11-.49-.3-.06-.19,0-.35.08-.45.17-.22.38-.17.36-.14,0,.03-.14.05-.23.23-.04.08-.07.2-.02.3.04.1.15.16.29.16.13,0,.25-.08.27-.18.03-.1,0-.22-.05-.29-.11-.17-.25-.17-.25-.2Z"/>
            <g class="cls-3">
              <path class="cls-4" d="m122.53,92.01c-.78,2.78-1.52,5.93-.07,8.43.44.75,1.05,1.39,1.47,2.16.71,1.32.75,2.88,1.19,4.31.88,2.89,4.04,5.7,7.02,6.14-1.54-1.88-3.93-4.32-5.35-6.45-.44-.66-.8-1.11-.98-1.88s-.31-1.6.21-2.2c-2-.31-3.13-2.38-3.5-4.37-.36-1.99-.21-4.05.25-6.02"/>
            </g>
            <g class="cls-3">
              <path class="cls-4" d="m142.84,106.8c-.5,2.99-.16,6.9,1.67,9.31.67-3.28.34-7.57-1.66-10.25"/>
            </g>
          </g>
        </g>
      </g>
      <g>
        <rect class="cls-16" x="44.82" y="70.18" width="49.15" height="82.12"/>
        <g>
          <polygon class="cls-14" points="57.86 118.54 58.38 119.61 59.56 119.78 58.71 120.61 58.91 121.78 57.86 121.23 56.8 121.78 57.01 120.61 56.15 119.78 57.33 119.61 57.86 118.54"/>
          <polygon class="cls-14" points="63.71 118.54 64.24 119.61 65.41 119.78 64.56 120.61 64.76 121.78 63.71 121.23 62.66 121.78 62.86 120.61 62.01 119.78 63.18 119.61 63.71 118.54"/>
          <polygon class="cls-14" points="69.56 118.54 70.09 119.61 71.27 119.78 70.42 120.61 70.62 121.78 69.56 121.23 68.51 121.78 68.71 120.61 67.86 119.78 69.04 119.61 69.56 118.54"/>
          <polygon class="cls-14" points="75.42 118.54 75.94 119.61 77.12 119.78 76.27 120.61 76.47 121.78 75.42 121.23 74.36 121.78 74.56 120.61 73.71 119.78 74.89 119.61 75.42 118.54"/>
          <polygon class="cls-14" points="81.27 118.54 81.79 119.61 82.97 119.78 82.12 120.61 82.32 121.78 81.27 121.23 80.21 121.78 80.42 120.61 79.56 119.78 80.74 119.61 81.27 118.54"/>
        </g>
        <g>
          <path class="cls-14" d="m67.39,128.17c0,.06-3.73.11-8.33.11s-8.33-.05-8.33-.11,3.73-.11,8.33-.11,8.33.05,8.33.11Z"/>
          <path class="cls-6" d="m88.33,131.79c0,.06-8.32.11-18.59.11s-18.59-.05-18.59-.11,8.32-.11,18.59-.11,18.59.05,18.59.11Z"/>
          <path class="cls-6" d="m88.33,134.9c0,.06-8.32.11-18.59.11s-18.59-.05-18.59-.11,8.32-.11,18.59-.11,18.59.05,18.59.11Z"/>
          <path class="cls-6" d="m88.33,138.01c0,.06-8.32.11-18.59.11s-18.59-.05-18.59-.11,8.32-.11,18.59-.11,18.59.05,18.59.11Z"/>
          <path class="cls-6" d="m88.33,141.12c0,.06-8.32.11-18.59.11s-18.59-.05-18.59-.11,8.32-.11,18.59-.11,18.59.05,18.59.11Z"/>
          <path class="cls-6" d="m88.33,144.22c0,.06-8.32.11-18.59.11s-18.59-.05-18.59-.11,8.32-.11,18.59-.11,18.59.05,18.59.11Z"/>
        </g>
        <g>
          <rect class="cls-8" x="47.97" y="74.35" width="42.34" height="40.65"/>
          <g>
            <g>
              <path class="cls-6" d="m71.74,94.5c0,1.06.1,1.68.11,2.74,0,.26.02.57.23.73.17.14.43.13.63.03s.35-.27.49-.44c1.17-1.43,1.89-3.23,2.03-5.07.01-.16.01-.34-.09-.46-.17-.19-.48-.12-.71-.02-1.14.51-2.1,1.39-2.69,2.49"/>
              <g>
                <path class="cls-11" d="m64.64,81.85l.02,1.06.21,15.8c.02,1.83,1.62,3.27,3.59,3.23h0c1.98-.04,3.6-1.58,3.6-3.43,0-1.95.05-3.99.05-3.99,0,0,2.51-.42,3.03-3.69.26-1.63.18-4.29.04-6.47-.12-1.96-1.85-3.43-3.81-3.22l-6.72.71Z"/>
                <g>
                  <path class="cls-6" d="m73.91,86.22c0,.22-.17.41-.4.42-.23.01-.42-.16-.43-.38,0-.22.17-.41.4-.42.23-.01.42.16.43.38Z"/>
                  <path class="cls-6" d="m74.59,85.75c-.05.05-.37-.18-.82-.18-.45,0-.78.23-.83.17-.02-.02.03-.12.17-.23.14-.1.38-.21.67-.21.28,0,.52.11.65.21.14.11.19.21.16.23Z"/>
                </g>
                <g>
                  <path class="cls-6" d="m69.56,86.22c0,.22-.17.41-.4.42-.23.01-.42-.16-.43-.38,0-.22.17-.41.4-.42.23-.01.42.16.43.38Z"/>
                  <path class="cls-6" d="m70.15,85.83c-.05.05-.37-.18-.82-.18-.45,0-.78.23-.83.17-.02-.02.03-.12.17-.23.14-.1.38-.21.67-.21.28,0,.52.11.65.21.14.11.19.21.16.23Z"/>
                </g>
                <path class="cls-6" d="m71.79,89.18s.28-.07.73-.13c.12-.01.22-.03.24-.11.03-.08-.02-.21-.08-.34-.11-.28-.22-.57-.34-.88-.47-1.25-.82-2.28-.77-2.3.05-.02.48.98.95,2.23.11.31.22.6.33.88.04.13.12.28.06.45-.03.09-.12.15-.19.17-.07.02-.14.02-.2.03-.46.02-.74.03-.74,0Z"/>
                <path class="cls-13" d="m72.1,94.52s-2.2.14-4.38-1.17c0,0,1.06,2.25,4.34,1.94l.04-.77Z"/>
                <path class="cls-13" d="m71.6,90.27c-.16-.21-.45-.33-.73-.3-.2.02-.39.12-.51.27-.12.16-.14.39-.04.54.12.17.38.21.59.15.22-.06.4-.2.58-.34.05-.04.1-.08.13-.13.03-.05.04-.12,0-.17"/>
                <path class="cls-6" d="m70.46,89.49c.07,0,.07.49.49.83.42.35.94.29.94.36,0,.03-.12.1-.34.1-.22,0-.53-.06-.79-.27-.26-.21-.37-.5-.38-.7-.02-.2.04-.33.07-.32Z"/>
              </g>
              <path class="cls-6" d="m69.53,81.58c.35.08.62.34.83.63s.38.61.62.86c.56.57,1.5.71,2.2.33.26.25.61.53.96.41.2-.07.34-.27.39-.48s0-.43-.09-.63c-.34-.8-1.22-1.22-2.07-1.39-1.03-.2-2.12-.12-3.11.24"/>
            </g>
            <path class="cls-6" d="m61.65,115.13c.16.27-1-3.63-1-3.63l-.97,3.57-7.2.05s4.07-13.3,6-15.16c2.52-2.42,7.25-2.56,7.25-2.56l7.3.12s.06,0,.16.02c2.98.36,5.57,2.21,6.92,4.89l4.85,12.57h-6.4l-1.37-3.71.46,3.71"/>
            <g>
              <path class="cls-14" d="m76.33,97.1c-.22-.52-1.02-.51-1.38-.95-.39-.49-.04-1.19.24-1.74,1.38-2.67,1.25-5.84.99-8.84-.11-1.28-.24-2.6-.79-3.76-1.11-2.32-3.79-4.15-7.13-4-2.71.11-4.78,2.55-6.25,4.84-1.47,2.28-2.25,5.87-1.77,8.55.24,1.34,1.68,2.37,1.42,3.7-.17.84-1.05,1.85-.87,2.69.24,1.15,1.9,1.55,2.87,2.19,1,.67,1.84,1.55,2.71,2.38.88.82,1.84,1.6,2.98,1.99,1.14.39,2.5.31,3.43-.45,1.52-1.25,1.37-3.73,2.75-5.13.42-.42,1.01-.92.78-1.46Zm-2.14-14.46c.56.84.6,1.92.73,2.92.22,1.69.34,3.41.06,5.09s-.99,3.33-2.22,4.5c-1.23,1.17-3.03,1.81-4.69,1.42-1.86-.44-2.46-2.07-2.99-3.91-.53-1.84.65-3.51,1.17-5.35.4-1.42.56-3.42,1.47-4.57.91-1.15,2.44-1.23,2.88-1.21,0,0,2.47-.57,3.58,1.11Z"/>
              <g class="cls-3">
                <path class="cls-4" d="m60.98,96.23c1.1.6,1.97,1.55,2.87,2.43.9.88,1.9,1.73,3.12,2.04,1.22.32,2.7-.06,3.3-1.16-3.45.59-7.16-1.59-8.34-4.88"/>
              </g>
              <g class="cls-3">
                <path class="cls-4" d="m74.77,95.45c-.22.87-.83,1.63-1.63,2.04-.18.09-.38.17-.53.31s-.24.36-.16.55c.09.21.37.28.59.22.22-.07.39-.23.56-.39.6-.58,1.23-1.21,1.4-2.03"/>
              </g>
            </g>
          </g>
        </g>
      </g>
      <g>
        <g>
          <circle class="cls-8" cx="221.86" cy="113.81" r="6.13" transform="translate(59.83 303.35) rotate(-76.63)"/>
          <path class="cls-6" d="m220.93,116.42s.31-.33.86-.8c.55-.47,1.32-1.11,2.18-1.81v.17s-.03-.02-.05-.04c-.85-.73-1.6-1.41-2.15-1.91-.54-.5-.87-.81-.85-.84.02-.02.38.25.95.72.57.47,1.34,1.12,2.19,1.86.01.01.03.03.04.04l.1.09-.1.08c-.86.7-1.65,1.32-2.22,1.76-.57.44-.94.7-.96.68Z"/>
        </g>
        <g>
          <circle class="cls-8" cx="41.84" cy="113.81" r="6.13" transform="translate(-78.54 128.39) rotate(-76.72)"/>
          <path class="cls-6" d="m42.77,111.2s-.31.33-.86.8c-.55.47-1.32,1.11-2.18,1.81v-.17s.03.02.05.04c.85.73,1.6,1.41,2.15,1.91.54.5.87.81.85.84-.02.02-.38-.25-.95-.72-.57-.47-1.34-1.12-2.19-1.86-.01-.01-.03-.03-.04-.04l-.1-.09.1-.08c.86-.7,1.65-1.32,2.22-1.76.57-.44.94-.7.96-.68Z"/>
        </g>
      </g>
      <path class="cls-5" d="m108.66,53.86c-11.09,5.89-19.22,15.75-22.9,27.75-7.59,24.78,6.4,51.12,31.18,58.71h0c15.21,4.66,31,1.18,42.68-7.92l39.62,49.56,6.06-4.84-39.95-49.97c4.6-5,8.18-11.08,10.3-18,.5-1.64.91-3.28,1.23-4.94,2.03-10.5.42-21.3-4.66-30.87-5.89-11.09-15.75-19.22-27.75-22.9-12.01-3.68-24.73-2.46-35.81,3.43Zm33.54,3.99c10.02,3.07,18.25,9.86,23.17,19.12,4.92,9.26,5.94,19.88,2.87,29.9-6.34,20.69-28.33,32.38-49.02,26.04-20.69-6.34-32.37-28.32-26.04-49.02,3.07-10.02,9.86-18.25,19.12-23.17,9.26-4.92,19.88-5.94,29.9-2.87Z"/>
    </g>
  </g>
</svg>