<?xml version="1.0" encoding="UTF-8"?>
<svg id="Layer_2" data-name="Layer 2" xmlns="http://www.w3.org/2000/svg" viewBox="0 0 272.06 231.02">
  <defs>
    <style>
      .cls-1 {
        opacity: .22;
      }

      .cls-2 {
        opacity: .33;
      }

      .cls-3 {
        fill: #626ba0;
      }

      .cls-3, .cls-4, .cls-5, .cls-6, .cls-7, .cls-8, .cls-9, .cls-10, .cls-11, .cls-12, .cls-13, .cls-14, .cls-15, .cls-16, .cls-17, .cls-18, .cls-19, .cls-20, .cls-21, .cls-22, .cls-23, .cls-24, .cls-25, .cls-26, .cls-27, .cls-28, .cls-29, .cls-30, .cls-31, .cls-32, .cls-33, .cls-34, .cls-35, .cls-36, .cls-37, .cls-38, .cls-39, .cls-40, .cls-41, .cls-42, .cls-43, .cls-44, .cls-45, .cls-46, .cls-47, .cls-48, .cls-49, .cls-50, .cls-51, .cls-52, .cls-53, .cls-54, .cls-55 {
        stroke-width: 0px;
      }

      .cls-4 {
        fill: #4a3434;
      }

      .cls-5 {
        fill: #77291c;
      }

      .cls-6 {
        fill: #616c6c;
      }

      .cls-7 {
        fill: #4a1513;
      }

      .cls-8 {
        fill: #817987;
      }

      .cls-9 {
        fill: #7595c0;
      }

      .cls-10 {
        fill: #4e4e4e;
      }

      .cls-11 {
        fill: #7b8383;
      }

      .cls-12 {
        fill: #2c3b81;
      }

      .cls-13 {
        fill: #4b3434;
      }

      .cls-14 {
        fill: #652a17;
      }

      .cls-15 {
        fill: #6f3115;
      }

      .cls-16 {
        fill: #963f2b;
      }

      .cls-17 {
        fill: #96332c;
      }

      .cls-18 {
        fill: #953e2b;
      }

      .cls-19 {
        fill: #3c6d87;
      }

      .cls-20 {
        fill: #596464;
      }

      .cls-21 {
        fill: #575757;
      }

      .cls-22 {
        fill: #5794c9;
      }

      .cls-23 {
        fill: #1a1a1a;
      }

      .cls-24 {
        fill: #1b1b1b;
      }

      .cls-25 {
        fill: #191919;
      }

      .cls-26 {
        fill: #1c1c1c;
      }

      .cls-27 {
        fill: #414141;
      }

      .cls-28 {
        fill: #414d8e;
      }

      .cls-29 {
        fill: #232323;
      }

      .cls-30 {
        fill: #d2685a;
      }

      .cls-31 {
        fill: #de8c6e;
      }

      .cls-32 {
        fill: #e2906e;
      }

      .cls-33 {
        fill: #e34954;
      }

      .cls-34 {
        fill: #e14954;
      }

      .cls-35 {
        fill: #d3d0da;
      }

      .cls-36 {
        fill: #bd6a4a;
      }

      .cls-37 {
        fill: #af5747;
      }

      .cls-38 {
        fill: #af5c41;
      }

      .cls-39 {
        fill: #b15430;
      }

      .cls-40 {
        fill: #b1bda4;
      }

      .cls-41 {
        fill: #ce9241;
      }

      .cls-42 {
        fill: #c36b51;
      }

      .cls-43 {
        fill: #c37461;
      }

      .cls-44 {
        fill: #b6282e;
      }

      .cls-45 {
        fill: #302f2f;
      }

      .cls-46 {
        fill: #333;
      }

      .cls-47 {
        fill: #853a1c;
      }

      .cls-48 {
        fill: #6b4f4f;
      }

      .cls-49 {
        fill: #7f7f7f;
      }

      .cls-50 {
        fill: #fff;
      }

      .cls-51 {
        fill: #efeff1;
      }

      .cls-52 {
        fill: #edae59;
      }

      .cls-53 {
        fill: #eeeff1;
      }

      .cls-54 {
        fill: #f0efe9;
      }

      .cls-55 {
        fill: #010101;
      }
    </style>
  </defs>
  <g id="Layer_1-2" data-name="Layer 1">
    <circle class="cls-22" cx="146.14" cy="115.51" r="115.51" transform="translate(-38.88 137.17) rotate(-45)"/>
    <g>
      <path class="cls-8" d="m73.3,214.93c0,1.07-15.54,1.55-36.38,1.33-34.17-.36-36.92-.94-36.92-2.01s4.15-.48,36.81-.48,36.48.08,36.48,1.15Z"/>
      <g>
        <g>
          <path class="cls-23" d="m25.79,196.46l2.93-1.57s1.21.83.96,1.9c-.25,1.07-3.89-.34-3.89-.34Z"/>
          <path class="cls-31" d="m28.73,194.89s-.73,3.79-.8,4.37c-.07.58.34,3.9.34,3.9,0,0-3.17,3.65-6.29,4.95-3.12,1.3-5.44-1.53-5.44-1.53l1.22-4.75s1.39-2.36,1.54-3.16c.15-.8.19-4.61.26-4.83.02-1.76,3.4-1.49,5.99-.64,1.86.6,3.18,1.68,3.18,1.68Z"/>
          <path class="cls-39" d="m18.24,200.98c1.82-.16,3.66-.16,5.49-.02,1.45.11,3.01.25,4.38.81.08.76.16,1.38.16,1.38,0,0-3.17,3.65-6.29,4.95-3.12,1.3-5.44-1.53-5.44-1.53l1.22-4.75s.22-.37.49-.86Z"/>
          <path class="cls-50" d="m18.24,200.98c1.82-.16,3.66-.16,5.49-.02,1.45.11,3.01.25,4.38.81.08.76.16,1.38.16,1.38,0,0-3.17,3.65-6.29,4.95-3.12,1.3-5.44-1.53-5.44-1.53l1.22-4.75s.22-.37.49-.86Z"/>
          <path class="cls-53" d="m18.24,200.98c1.82-.16,3.66-.16,5.49-.02,1.45.11,3.01.25,4.38.81.08.76.16,1.38.16,1.38,0,0-3.17,3.65-6.29,4.95-3.12,1.3-5.44-1.53-5.44-1.53l1.22-4.75s.22-.37.49-.86Z"/>
          <path class="cls-25" d="m28.27,203.16s.92,9.77.75,10.76-26.58.58-27.74.41-1.49-2.4-1.16-2.98,5.05-1.32,6.13-1.99c1.08-.66,9.78-7.62,10.52-7.7s2.65.74,2.73,1.41c.08.66-.84,1.44.23,3.01,1.08,1.57,8.53-2.93,8.53-2.93Z"/>
          <path class="cls-46" d="m.14,212.99c2.05.02,11.45.13,16.96.08,0,0,1.95-.1,2.98-.76.87-.56,6.9-1.15,8.84-1.32.1,1.46.15,2.62.1,2.93-.17.99-26.58.58-27.74.41-.58-.08-.96-.69-1.14-1.34Z"/>
        </g>
        <g>
          <path class="cls-53" d="m62.27,201.44c.2-.07.41-.13.62-.19,2.8-.71,5.79.18,7.76,2.22.1.93.22,2.11.22,2.11l-.9,2.87-8.71-2.74.84-1.55s.08-1.14.17-2.73Z"/>
          <path class="cls-25" d="m70.87,205.59s3.23,7.72,1.1,9.11c-2.13,1.39-15.32,1.02-15.97.74-.65-.28,0-2.5,0-2.87s2.22-1.22,2.87-2.13c.65-.92,2.1-5.16,2.13-5.45.07-.69.74-1.13.74-1.13,0,0,2.13-.25,4.25.02,2.13.28,2.96,2.41,3.42,3.15.46.74,1.46-1.43,1.46-1.43Z"/>
          <path class="cls-46" d="m71.1,213.52c-.24.31-3.8.83-6.62.94-2.62.1-8.76-.09-8.76-.09-.04.51,0,.95.28,1.07.65.28,13.84.65,15.97-.74.69-.45.81-1.55.67-2.85-.16.06-.31.12-.45.19-.45.21-.85,1.16-1.09,1.48Z"/>
        </g>
        <path class="cls-46" d="m64.38,107.18l4.52,47.91s4.95,44,3.56,55.61c0,0-3.99-3.46-7.55-4.14s-5.12,1.89-5.12,1.89c0,0,.24-3.3.46-5.61.1-1.09.2-1.96.26-2.15.02-.06-.58-.36-.73-1.09-.1-.49.29-1.23.13-1.97-.14-.63-.72-.53-.9-1.31-.07-.29.29-1.4.21-1.71-2.65-11.51-8.52-35.51-9.14-37.58-.82-2.7-6.95-32.91-6.95-32.91,0,0-8.01,36.76-8.36,38.99-.35,2.23-4.92,46.59-5.89,46.59s-9.17-3.49-12.34-4.19c-3.17-.7-4.95-.18-4.95-.18,0,0-.5.02.25-.91,1.42-1.76,4.55-5.17,4.7-6.32.04-.32-.4-.57-.23-1.48.15-.79.94-1.12,1.03-2.19.05-.55-.85-1.28-.8-1.89.95-11.48,3.24-34.3,3.37-37.7.12-3.17,2.06-50.44,2.06-50.44l17.44-11.03,24.98,13.8Z"/>
        <path class="cls-25" d="m64.75,111.15l-.37-3.97-24.98-13.8-17.44,11.03s-.16,3.9-.23,5.58c3.49.32,38.5.77,43.02,1.15Z"/>
        <path class="cls-54" d="m44.25,129.75c-.58-3.7-1.2-7.39-1.87-11.08-.08-.44-.74-.25-.67.18.66,3.68,1.29,7.38,1.87,11.08.07.44.73.25.67-.18Z"/>
        <path class="cls-29" d="m64.35,197.45c.63-2.28.09-4.7-.26-6.98-.39-2.57-.79-5.14-1.21-7.7-.84-5.19-1.72-10.37-2.65-15.54-1.86-10.34-3.91-20.65-6.14-30.92-1.26-5.8-2.58-11.58-3.95-17.35-.07-.29-.51-.17-.44.12,2.42,10.17,4.67,20.38,6.73,30.63,2.05,10.19,3.92,20.42,5.61,30.68.48,2.9.94,5.8,1.39,8.7.22,1.45.48,2.9.65,4.36.16,1.38.2,2.77-.22,4.11-.03.11.04.26.16.28.9.14,1.11,1.57.27,1.95-.12.06-.13.21-.08.31.68,1.56.77,3.31.29,4.94-.08.28.36.41.44.12.5-1.68.4-3.46-.25-5.08.91-.61.7-2.28-.33-2.64Z"/>
        <path class="cls-29" d="m18.98,193.53c-.19-.45.17-1,.33-1.41.16-.42.23-.89-.14-1.22-.22-.2-.55.13-.33.33.3.27.04.72-.09,1.02-.16.37-.33.76-.28,1.17.05.42.35.71.67.95.23.18.75.46.64.82-.11.34-.68.43-.96.57-.43.2-.67.52-.73.99-.08.59-.13,1.17-.29,1.75-.15.56-.36,1.1-.62,1.61-.59,1.18-1.44,2.22-2.5,3.01-.23.18,0,.58.23.4,1.94-1.46,3.25-3.68,3.56-6.09.04-.28.01-.61.12-.87.1-.24.35-.35.57-.45.37-.15.8-.27,1-.65.49-.96-.9-1.25-1.19-1.92Z"/>
        <path class="cls-29" d="m24.49,113.88c0-.3-.45-.3-.46,0-.32,9.97-.67,19.1-1.07,28.58-.4,9.44-1.06,18.86-1.99,28.26-.52,5.3-1.13,10.58-1.82,15.86-.04.29.42.29.46,0,1.23-9.41,2.19-18.86,2.89-28.32.69-9.42,1.08-19.13,1.48-28.66.22-5.32.41-9.99.51-15.71Z"/>
      </g>
      <g>
        <path class="cls-46" d="m37.41,34s1.79-.71,3.58-1.38c1.8-.67,8.02-1.63,10.16-1.5,2.14.13,6.48,1.19,6.48,1.19,0,0-3.19,3.08-6.57,3.75s-13.02-.64-13.02-.64l-.63-1.43Z"/>
        <path class="cls-47" d="m41.7,32.64c-.14.15-.78.51-1.52.89.92.47,1.93.72,2.98.78,1.33.09,2.69,0,4.01-.16,1.34-.16,2.68-.45,3.94-.92,1-.37,1.91-.88,2.75-1.49-.88-.32-1.72-.68-2.27-1.07-.87-.61-2.37-9.36-2.37-9.36l-8.56,1.83s1.68,8.79,1.03,9.49Z"/>
        <path class="cls-14" d="m44.7,31.5c1.81-.35,3.81-1.26,4.85-2.89.91-1.43.22-3.75.02-5.39-.21-1.11-.35-1.9-.35-1.9l-8.56,1.83s1,5.87,1.18,8.62c.81-.09,2.06-.11,2.86-.27Z"/>
        <path class="cls-50" d="m51.91,32.17c-1.78.76-3.67,1.18-5.59,1.35-1.1.1-2.23.17-3.33.13-.6-.02-1.21-.06-1.8-.2-.18-.04-.36-.1-.53-.18-1.08.58-2.63,1.33-2.95,1.54.83.64,1.83,37.72,2.75,38.21,2.37,1.28,16.38-38.86,17.25-40.01-.48-.26-2.7-.8-4.47-1.52-.42.25-.85.47-1.3.67Z"/>
        <path class="cls-33" d="m43.97,36.79s-.06,1.07.91,1.71c0,0-8.25,40.25-8.79,42.6-.54,2.35,4.88,11.2,4.88,11.2,0,0,4.61-3.53,4.92-10.62.62-14.36.47-43.09.54-43.13.11-.06,1.12-1.03,1.26-1.56l-2.05-2.64-1.67,2.44Z"/>
        <path class="cls-35" d="m54.61,34.3c-1.7,1.44-3.46,2.81-5.26,4.13-1.04-1.35-2.08-2.7-3.12-4.05.02-.03.05-.05.07-.08.29-.34-.2-.83-.49-.49-1.23,1.43-2.33,2.96-3.29,4.59-.03.04-.1.13-.09.17-.09-.06-.22-.21-.27-.25-.17-.15-.33-.3-.5-.44-.39-.35-.78-.69-1.17-1.04-.75-.67-1.49-1.35-2.23-2.03-.33-.3-.82.19-.49.49.82.76,1.64,1.51,2.48,2.25.42.37.83.74,1.25,1.11.31.27.73.79,1.2.58.21-.1.31-.3.42-.49.12-.21.25-.42.38-.63.28-.45.57-.88.87-1.32.45-.65.92-1.27,1.42-1.88,1.07,1.39,2.14,2.78,3.21,4.17.1.14.31.24.47.12,1.93-1.4,3.81-2.87,5.64-4.41.34-.29-.15-.77-.49-.49Z"/>
        <path class="cls-45" d="m39.01,20.53l-3.8-.18-.15-.98,4.6.48s-.45.44-.65.69Z"/>
        <path class="cls-7" d="m36.1,16.76s-.04-.06-.1-.17c-.3-.53-1.18-2.19-1.13-3.01.06-.99.15-1.4-.12-1.95s-.69-1.86,0-2.35c.69-.48.44-1.41.73-2.25.29-.84.54-1,1.07-1.03.53-.03,1.04-1.18,1.79-1.49.75-.31,1.57.4,2.18.17.61-.22,1.29-1.25,1.96-1.22.67.03.87.84,1.51.87.64.03,1.55-.32,2.12-.1s.41,1.09.94,1.32c.53.22,1.34.06,2.43.35,1.09.29.8,1.48,1.09,1.74.29.26.96.67,1.32,1.29s-.12,1.32,0,1.6c.12.28.93,1.35.87,2.12-.07.77-.8,1.11-.32,1.87.48.75.22,1.27-.1,2.27-.32,1-2.67,5.43-4.21,5.81l-12.04-5.84Z"/>
        <path class="cls-47" d="m37.61,10.86c3.5,0,5.42-.86,5.94-.63.34.15,4.27,3.17,4.31,4.13.05,1.14.19,2.3.49,3.41.07.24.33.39.57.32.22-.06.45-.08.64-.22.09-.07.16-.15.19-.25.41-.54,1.91-2.25,3.4-.47,2.61,3.13-1.77,5.28-1.77,5.28.02,3.63-2.42,6.38-6.79,7.06-1.42.22-4.29.89-5.48-.34-2.25-2.32-2.88-11.34-3-12.41-.2-1.75-.03-3.16-.03-3.16.25-.82.71-2.13,1.53-2.74Z"/>
        <path class="cls-7" d="m45.95,14.94c-1.14-.14-2.27-.49-3.3-.99-.22-.11-.5-.06-.63.17-.12.2-.06.52.17.63,1.19.59,2.45.96,3.77,1.12.25.03.46-.23.46-.46,0-.27-.21-.43-.46-.46Z"/>
        <path class="cls-7" d="m38.31,15.01c-.2-.18-.45-.16-.65,0-.64.52-1.29,1.04-1.93,1.56-.19.15-.17.49,0,.65.2.18.45.16.65,0,.64-.52,1.29-1.04,1.93-1.56.19-.15.17-.49,0-.65Z"/>
        <path class="cls-45" d="m49.75,17.63l-2.95.77-.28-1.1,3.88-.37s-.45.44-.65.69Z"/>
        <path class="cls-24" d="m43.4,18.08c.02-.18.07-.39.24-.47.3-.15.68.02.83.3.08.15.1.32.07.47,0,.03,0,.06,0,.09-.02.17-.1.35-.26.44-.31.19-.67-.08-.79-.37-.06-.15-.1-.3-.09-.46Z"/>
        <path class="cls-24" d="m36.87,19.04c.09-.13.22-.21.38-.21.14,0,.27.05.37.14.11.1.16.23.17.37,0,.02.02.05.03.07.02.11.02.22-.02.32,0,.08-.03.16-.06.23-.06.11-.17.2-.3.22-.15.02-.27-.06-.36-.17-.09-.11-.17-.23-.22-.37-.09-.19-.11-.43.02-.61Z"/>
        <g class="cls-2">
          <path class="cls-50" d="m46.45,17.07s.71,2.39.56,3.08c-.1.47-4.67.89-4.95.83-.4-.08-1.11-3.17-.96-3.38.15-.21,3.94-1.01,4.47-1.04.53-.03.85.36.88.51Z"/>
        </g>
        <g class="cls-2">
          <path class="cls-50" d="m35.05,19.32s.1.94.3,1.72c.03.13.23.85.38.99.34.3,3.77-.46,3.93-.6.37-.36-.05-3.24-.31-3.4-.21-.13-3.42.39-3.83.54-.42.15-.5.61-.47.76Z"/>
        </g>
        <path class="cls-45" d="m41.41,18.94s-.53-.28-1.03-.2c-.51.09-.79.44-.79.44,0,0-.14.26-.2-.17-.06-.42-.16-.66.26-.86s1.16-.22,1.33-.21c.17.01.3.1.39.29.08.19.12.34.15.56,0,.08-.01.19-.11.15Z"/>
        <path class="cls-5" d="m42.65,24.42l-1.75.17c-.12.01-.23.04-.33.13-.08.08-.14.21-.13.33.01.23.2.49.46.46l1.75-.17c.12-.01.23-.04.33-.13.08-.08.14-.21.13-.33-.01-.23-.2-.49-.46-.46Z"/>
        <path class="cls-14" d="m41.63,22.52c-.05-.08-.12-.13-.21-.16-.19-.06-.37-.13-.56-.19-.08-.03-.19,0-.27.03-.07.04-.14.12-.16.21-.02.09-.02.19.03.27.05.08.12.13.21.16l.56.19c.08.03.19,0,.27-.03.07-.04.14-.12.16-.21.02-.09.02-.19-.03-.27Z"/>
      </g>
      <g>
        <path class="cls-46" d="m17.6,94.81s-1.12-14.77-.66-17.93c1.92-13.29,8.11-36.53,9.64-37.88,1.53-1.35,11.43-5.96,12-4.99,0,0,1.61,33.4,2.66,36.91,0,0,13.55-38.69,14.35-38.84.8-.14,8.75,1.33,10.95,2.74,2.19,1.41-1.98,30.52-1.98,30.52,0,0-.21,17.12,1.98,42.64.16,1.92-23.15.98-24.68-.43-1.52-1.41-4.07-9.95-4.07-9.95,0,0-2.83,9.38-3.09,10.06-.45,1.2-1.23,1.46-5.58,1.74-4.35.28-7.51-.23-7.51-.23l.68-19.28-4.7,4.9Z"/>
        <path class="cls-29" d="m62.13,93.64c-3.42-.63-6.8-1.46-10.12-2.51-.42-.13-.61.53-.18.67,3.32,1.04,6.7,1.88,10.12,2.51.43.08.62-.59.18-.67Z"/>
        <path class="cls-29" d="m57.71,41.03c-.54-1.07-1.09-2.14-1.63-3.22.51-.38,1.03-.75,1.54-1.13.46-.35.88-.75.93-1.36.03-.33-.03-.67-.05-.99-.03-.36-.06-.72-.09-1.09-.02-.28-.05-.55-.07-.83-.24-.04-.48-.08-.7-.12.08.87.16,1.73.22,2.6.02.27.03.53-.14.76-.14.2-.36.36-.55.51-.46.34-.93.68-1.39,1.02-.08-.16-.16-.33-.25-.49-.2-.4-.8-.05-.6.35.64,1.27,1.29,2.54,1.93,3.82.31.61.7,1.22.92,1.87.24.7-.26,1.32-.57,1.91l-4.04,7.55c-1.31,2.44-2.58,4.89-4.16,7.17-.77,1.12-1.58,2.22-2.33,3.36-.76,1.15-1.48,2.32-2.19,3.5-.8,1.33-1.57,2.67-2.36,4.01l-1.16,1.99s0,.02-.01.03c-1.14-4.28-2.49-9.19-3.61-13.4-.59-2.2-1.18-4.41-1.76-6.61-.29-1.09-.58-2.19-.88-3.28-.28-1.03-.55-2.07-.25-3.13.3-1.05.99-1.95,1.61-2.83.74-1.05,1.49-2.11,2.23-3.16.26-.36-.34-.71-.6-.35-.02.02-.03.05-.05.07l-1.11-1.41c-.19-.24-.53-.52-.44-.85.1-.34.25-.67.38-.99.3-.77.61-1.54.92-2.31-.25.06-.53.14-.84.23-.3.73-.59,1.47-.87,2.21-.13.34-.33.7-.31,1.07.02.35.26.6.46.86.47.59.93,1.18,1.4,1.77-.51.73-1.03,1.46-1.54,2.18-.59.84-1.23,1.67-1.64,2.61-.42.95-.51,1.92-.33,2.94.2,1.12.56,2.23.85,3.33,1.2,4.48,2.39,8.96,3.59,13.45.68,2.54,1.59,5.85,2.27,8.39.01.04.03.08.05.11-.14.34-.21.7-.15,1.1.07.44.73.25.67-.18-.09-.64.45-1.31.75-1.82.36-.61.72-1.23,1.08-1.84.69-1.18,1.38-2.36,2.07-3.54.71-1.2,1.44-2.39,2.21-3.55.74-1.12,1.53-2.22,2.3-3.32,1.61-2.3,2.91-4.76,4.24-7.24,1.35-2.53,2.71-5.07,4.06-7.6.33-.61.86-1.32.83-2.05-.03-.73-.51-1.43-.83-2.07Z"/>
        <path class="cls-29" d="m30.77,46.58c.39,1.28.73,2.57,1.04,3.87.07.29.51.17.44-.12-1-4.22-2.42-8.33-4.21-12.28-.14.08-.27.16-.4.23,1.22,2.69,2.27,5.47,3.13,8.3Z"/>
        <path class="cls-29" d="m59.42,44.87c1.6-3.78,3.98-7.16,6.5-10.38-.14-.06-.28-.13-.43-.19-1.79,2.3-3.51,4.66-4.93,7.21-.57,1.03-1.1,2.08-1.55,3.17-.12.27.3.46.42.19Z"/>
      </g>
      <g>
        <path class="cls-29" d="m29.78,51.03c-.66,5.34-1.32,10.68-1.98,16.02-.19,1.51-1.33,12.78-1.52,14.3-.05.44.64.44.69,0,.66-5.34,2.28-20.43,2.94-25.77.19-1.51.37-3.03.56-4.54.05-.44-.64-.44-.69,0Z"/>
        <g>
          <path class="cls-49" d="m22.71,98.26s3.44-19.28,3.8-19.51,26.94-9.75,27.41-9.63c.47.12,1.76,3.99,1.88,4.7s-2.58,23.87-3.05,24.44-25.02,6.69-25.96,6.45c-.94-.24-4.58-1.96-4.58-1.96l.51-4.49Z"/>
          <path class="cls-21" d="m32.98,87.73c-.07,0-.11-.01-.16-.03-1.33-.38-8.44-4.88-8.75-5.07-.16-.1-.21-.32-.11-.48.1-.16.32-.21.48-.11,2.02,1.28,7.45,4.65,8.54,4.98,1.24-.15,10.98-8.79,16.85-14.22.14-.13.36-.12.49.02.13.14.12.36-.02.49-.04.04-4.02,3.71-8.1,7.3-7.35,6.45-8.76,7.11-9.23,7.11Z"/>
          <path class="cls-21" d="m34.06,86.11c0-.21-.21-.4-.44-.33-.24.07-.86.24-1.03.3-.17.06-.19.41-.18.56.05.71.1,1.43.15,2.14.01.17.02.35.04.52.02.2.07.4.28.47.1.03.21.02.31,0,0,0,0,0,0,0,.06,0,.13,0,.19-.03,0,0,.01,0,.02,0,.18-.02.36-.05.53-.07.14-.02.26-.2.25-.33-.04-1.07-.09-2.14-.14-3.2Z"/>
          <path class="cls-21" d="m53.24,70.27c-.78,3.79-1.56,7.58-2.35,11.36-.39,1.89-.78,3.79-1.17,5.68l-.58,2.81c-.19.92-.6,3.3-.55,3.54-3.2,1.29-6.43,2.49-9.7,3.58-1.63.54-3.27,1.06-4.92,1.56-1.63.49-8.42,2.92-10.14,3.5-.28.09-.03.38.25.31,1.44-.35,7.65-2.66,9.32-3.15,3.33-.98,6.64-2.07,9.9-3.26,1.82-.66,3.63-1.36,5.43-2.09.02.03.63.81.94,1.15l2.25,2.46c.2.22.52-.11.33-.33l-1.94-2.12c-.56-.61-1.27-1.55-1.26-1.65.03-.5.42-2.81.52-3.3.19-.9.37-1.8.56-2.7.76-3.68,1.52-7.35,2.28-11.03l1.28-6.19c.06-.29-.38-.41-.44-.12Z"/>
        </g>
        <path class="cls-46" d="m37.71,85.71c1.66-3.46,4.33-7.03,8.63-13.07,5.62-7.89,5.97-8.75,6.56-9.92.59-1.17,12.94-27.65,13.65-27.89s4.41,5.47,5.32,11.53c.38,2.55-6.04,19.35-8.74,22.76-3.02,3.8-15.73,19.88-15.73,19.88,0,0-10.02-2.59-9.68-3.28Z"/>
        <g>
          <path class="cls-55" d="m45.9,86.02s1.95,2.4,1.49,2.98c-1.01,1.27-4.14-.06-4.26-.73-.12-.67,2.76-2.25,2.76-2.25Z"/>
          <path class="cls-47" d="m38.12,84.95s.52-1.49,2.8-1.68c2.28-.19,4.98,2.75,4.98,2.75,0,0-.98,1.4-1.12,2.56-.14,1.16-1.58,5.54-2,6.17-.42.63-1.21,3.01-1.4,4.57-.19,1.56-.33,2.98-.79,3.43-.47.45-.93.43-1.44,0,0,0-.03,1.15-.62,1.52-.59.37-1.38-.42-1.38-.42,0,0-.3.46-.96.55-.46.06-.98-.43-1.26-.76s-1.12.03-1.99-1.51c-.87-1.54-1.24-3.78-1.24-3.78,0,0-.8.47-1.35.33-.56-.14-.7-1.07-.09-1.91.61-.84,1.3-2.7,1.93-3.63.63-.93,1.05-1.3,2.12-2.42,1.07-1.12,3.02-4.76,3.82-5.77Z"/>
          <path class="cls-50" d="m44.93,87.92c.32-.97.96-1.9.96-1.9,0,0-2.7-2.93-4.98-2.75-1.51.12-2.25.82-2.57,1.28-.16.23-.66,1.01-.94,1.46,2.51-2.19,6.22-.02,7.53,1.91Z"/>
          <path class="cls-15" d="m31.93,95.6c-.17-.05-.3.5-.33.68-.16.93.04,2.7.22,2.7.19,0,.15-1.87.35-2.96.03-.18-.05-.37-.24-.42Z"/>
          <path class="cls-15" d="m33.3,95.23c.28-.12.59.03.87.07.35.06.63-.03.97-.11.35-.09.63.14.92.31.29.16.59.24.93.25.57.01,1.27-.27,1.73.19.24.24.45.41.8.42.38.01.64.08.84.42.22.39.79-.01.57-.4-.18-.31-.47-.55-.82-.65-.19-.06-.36-.04-.56-.06-.2-.02-.28-.15-.42-.29-.54-.54-1.27-.36-1.95-.33-.38.02-.66-.09-.99-.28-.32-.19-.65-.34-1.03-.3-.19.02-.36.11-.54.14-.18.04-.34,0-.51-.03-.36-.08-.71-.16-1.06,0-.4.18-.17.83.24.65Z"/>
          <path class="cls-15" d="m39.23,100.56c.06-.66.17-1.3.16-1.97,0-.44-.7-.45-.69,0,0,.34-.01.68-.04,1.02-.03.32,0,.62-.05,1.02-.08.71.34,2.42.5,2.38.2-.05.05-1.78.11-2.46Z"/>
          <path class="cls-15" d="m37.29,103.67c-.52-1.49-.7-3.02-.42-4.57.08-.43-.59-.62-.67-.18-.3,1.68.09,3.15.65,4.76.15.42.58.42.44,0Z"/>
        </g>
        <path class="cls-54" d="m67.43,61.97c-2.55,4.58-5.48,8.95-8.75,13.05-.91,1.15-1.86,2.27-2.82,3.38-.29.33.2.81.5.48,3.47-3.97,6.61-8.21,9.39-12.69.79-1.28,1.55-2.57,2.28-3.88.22-.39-.39-.72-.6-.34Z"/>
        <path class="cls-29" d="m60.06,45.05c-2.03,3.46-3.4,7.25-4.93,10.94-1.53,3.69-3.32,7.26-5.4,10.66-1.17,1.91-2.43,3.77-3.76,5.57-.26.36.33.7.6.35,2.37-3.19,4.49-6.58,6.32-10.11,1.85-3.55,3.27-7.28,4.81-10.97.87-2.09,1.81-4.15,2.96-6.11.22-.38-.37-.73-.6-.35Z"/>
        <path class="cls-46" d="m26.57,78.75s-.24,10.74-1.1,12.26c-.87,1.52-3.46-2.33-3.51-6.46-.04-4.14,4.61-5.79,4.61-5.79Z"/>
        <g>
          <path class="cls-55" d="m19.74,91.01l-1.73.23s-1.04,3.59-.01,4.36c1.02.77,3.51-1.14,4.26-2.08l-2.52-2.51Z"/>
          <path class="cls-47" d="m18.02,91.24s.33-1.26,2.19-2.28c1.86-1.02,3.59-.88,4.28.28.7,1.16,1.77,3.68,3.35,4.56,1.58.88,1.72,2.93,1.79,4.05.07,1.12-.47,3.9-.47,3.9,0,0,1.06,1.27,1.94,2.18.24.24.28,1.15-.51,1.15-.55,0-.59-.13-1.35-.36,0,0,.18.68-.66.91-.84.23-1.18-.6-1.57-.18s-1,.42-1.79.28c-.79-.14-.95.9-2.3.1-.81-.48-3-2.8-3.22-3.69-.27-1.08-.52-5.53-.6-6.44-.11-1.23-.21-1.95-.3-2.33-.23-.98-.78-2.14-.78-2.14Z"/>
          <path class="cls-50" d="m18.98,93.17c1.16-1.25,2.77-2.35,4.47-2.66.59-.11,1.19-.12,1.76.04-.28-.51-.52-.97-.73-1.32-.7-1.16-2.42-1.3-4.28-.28-1.86,1.02-2.19,2.28-2.19,2.28,0,0,.56,1.16.78,2.14.06-.07.12-.14.19-.21Z"/>
          <path class="cls-15" d="m29.14,101.4c-.37.3-1.05.23-1.35-.08-.4-.41-.5-.61-.49-1.17,0-.65.12-1.3.18-1.95.06-.66.08-.44.1-1.11,0-.44-.68-.44-.69,0-.02.81-.06.74-.14,1.55-.08.8-.23,1.61-.05,2.41.14.61.47.91,1.08,1.1.39.12,1.05.04,1.51-.41.1-.1-.05-.43-.15-.35Z"/>
          <path class="cls-15" d="m25.63,99.14c-.34.03-.67.09-.99.19-.27.09-.59.19-.8.39-.09.09-.12.17-.25.18-.13.02-.28,0-.41,0-.29,0-.58.02-.87.08-.26.06-.51.17-.72.34-.2.16-.34.45-.59.54-.28.1-.55.08-.79.27-.24.19-.37.48-.27.78.14.42.81.24.67-.18-.04-.12.45-.16.54-.19.23-.06.42-.18.58-.36.15-.16.27-.33.48-.43.21-.1.45-.13.68-.14.44-.02.98.1,1.32-.26.34-.36,1.19-.61,1.68-.65.44-.04.19-.59-.25-.55Z"/>
        </g>
      </g>
    </g>
    <g>
      <g>
        <path class="cls-8" d="m123.96,215.61c0,.72-.85,1.3-17.37,1.3s-17.41-.58-17.41-1.3.58-1.3,17.41-1.3,17.37.58,17.37,1.3Z"/>
        <g>
          <path class="cls-50" d="m93.38,186.24s-4.5,1.88-5.44,2.89c-.94,1.02,1.01,6.52,1.96,9.79.94,3.27.59,14.18,1.17,15.56.58,1.38,8.06,1.31,10.74.8s1.28-3.12.93-3.92c-.35-.8-2.82-8.13-2.35-14.51l4.17-7.76-7.38-7.71-3.8,4.86Z"/>
          <path class="cls-52" d="m100.39,196.85l.55-1.03c-.66-.52-1.53-1.07-2.51-1.36-2.11-.63-3.05,1.1-3.37,0-.23-.8-.42-5.59-.96-9.14l-.73.93s-4.5,1.88-5.44,2.89c-.94,1.02,1.01,6.52,1.96,9.79.94,3.27.59,14.18,1.17,15.56s8.06,1.31,10.74.8,1.28-3.12.93-3.92c-.35-.8-2.82-8.13-2.35-14.51Z"/>
          <path class="cls-41" d="m101.35,206.62c-3.53,2.17-7.1,4.3-10.49,6.68.05.56.12.97.2,1.17.58,1.38,8.06,1.31,10.74.8s1.28-3.12.93-3.92c-.17-.38-.81-2.22-1.39-4.74Z"/>
          <path class="cls-50" d="m97.58,214.37c-4.42-.12-5.63-.47-5.84-.83-.21-.35-.05-9.14,0-11.02.05-1.88-.59-4.7-.59-4.7,0,0,1.17-4.93,1.19-5.48.01-.55-.55-5.4-.55-5.4-1.39.64-3.28,1.57-3.85,2.19-.94,1.02,1.01,6.52,1.96,9.79.94,3.27.59,14.18,1.17,15.56s8.06,1.31,10.74.8c1.03-.2,1.46-.7,1.57-1.3-1.16.21-3.14.46-5.8.39Z"/>
        </g>
        <path class="cls-48" d="m131.77,93.95l-.32-5.96-45.5-4.54h-.27s4.44,43.75,6.34,58.05c.82,6.19,2.21,15.42,4.92,28-5.36,11.1-5.97,12.66-5.97,12.66.21,3.99,8.48,16.21,9.75,15.04.19-.18.92-1.32,2.02-3.16,1.42,5.25,2.6,8.79,3.26,9.27,2.62,1.88,15.87,2.11,17.82,1.17,1.1-.53-2.6-19.95-6.05-36.84,5.48-9.92,10.27-18.94,10.73-20.72,1.09-4.23,3.26-52.97,3.26-52.97Z"/>
        <polygon class="cls-23" points="88.49 110.43 121.92 104.49 88.07 106.49 88.49 110.43"/>
        <path class="cls-4" d="m104.04,198.59l14.24-28.43c-.17-.84-.34-1.68-.51-2.52l-15.03,26.39c.46,1.72.9,3.25,1.3,4.55Z"/>
        <path class="cls-54" d="m95.83,171.07c-.05,0-.11-.01-.16-.04-.17-.09-.23-.3-.14-.47l13.15-24.68c.34-8.77,1.17-31.43,1.05-32.31-.19-.92,1.39-2.62,1.88-3.12.13-.14.35-.14.49,0,.14.13.14.35,0,.49-.88.9-1.78,2.13-1.7,2.51.17.84-.92,29.31-1.04,32.55,0,.05-.02.1-.04.15l-13.19,24.74c-.06.12-.18.18-.3.18Z"/>
        <g>
          <path class="cls-23" d="m116.23,205.77l1.61-3.91s5.94,1.15,6.28,2.44c.34,1.29-7.89,1.48-7.89,1.48Z"/>
          <path class="cls-32" d="m105.74,202.62s.78,2.03.64,2.39c-.13.36-11.54,7.58-12.99,7.87-1.45.29-1.09,2.18-.73,2.76.36.58,10.09.58,16.76.58s10.96-.51,11.32-1.09c.36-.58-2.18-11.18-2.9-13.28-11.76-2.1-12.11.77-12.11.77Z"/>
          <path class="cls-50" d="m113.56,203.25c-1.56-.17-3.14-.21-4.71-.06-.92.09-1.84.25-2.72.55.17.54.32,1.1.25,1.27-.13.36-11.54,7.58-12.99,7.87-1.45.29-1.09,2.18-.73,2.76.36.58,10.09.58,16.76.58s10.96-.51,11.32-1.09c.28-.45-1.2-7-2.21-10.86-1.63-.49-3.3-.84-4.98-1.02Z"/>
          <path class="cls-52" d="m113.08,208.33c-.63-.15-.24-1.81-.86-2.99-.46-.86-3.97-.64-5.83-.45,0,.05,0,.1-.01.13-.13.36-11.54,7.58-12.99,7.87-1.45.29-1.09,2.18-.73,2.76.36.58,10.09.58,16.76.58s10.96-.51,11.32-1.09c.27-.43-1.06-6.37-2.06-10.26-1.95,1.37-5.18,3.56-5.61,3.46Z"/>
          <path class="cls-50" d="m120.75,215.13c.17-.28-.31-2.82-.94-5.63-.66.21-1.37.44-2.02.64-2.04.62-3.4,2.2-4.08,2.76-.68.56-1.71,1.95-9.14,2.04-4.41.05-10.23-.27-12.22-.41.03.45.17.88.32,1.11.36.58,10.09.58,16.76.58s10.96-.51,11.32-1.09Z"/>
        </g>
        <path class="cls-4" d="m127.05,98.06c-.47-.97-.9-1.98-1.01-3.06-.05-.44-.74-.44-.69,0,.2,1.88,1.15,3.68,2.13,5.28.91,1.49,2.03,2.87,3.41,3.94.13.1.26.19.39.28,0-.28.03-.55.04-.83-1.86-1.43-3.25-3.52-4.26-5.61Z"/>
      </g>
      <g>
        <path class="cls-44" d="m104.2,41.38s-4-1.4-4.4-4.1c-.39-2.7,2.71-4.75,1.71-6.65s-2.74-4.15-1.08-6.23c1.66-2.08,2.45-2.8,1.82-5.09-.63-2.29,1.12-3.56,1.94-4.27.83-.71-.71-2.29,1.12-4.35,1.84-2.06,3.86-1.11,4.75-.87.89.24.34-2.29,3.34-1.74s5.54,4.59,5.7,4.99c.16.4,2.74.55,3.62,1.98.89,1.42-.33,3.96,0,4.59.33.63,3.24,3.01,3.73,5.06.48,2.06-2.37,4.6-1.57,5.94.79,1.34,2.36,2.13,1.57,4.19-.78,2.06-2.29,2.78-1.65,4.16s1.64,2.93-.37,5.2c-2.01,2.27-5.71.27-7.39.82-1.68.55-3.35,3.11-5.85,2.76-2.5-.35-1.75-2.31-3.25-2.76s-3.31.34-3.75-3.62Z"/>
        <path class="cls-44" d="m105.86,12.69c-.99,1.6-3.11,1.94-4.33,3.3-.77.86-.89,1.9-.78,3.02.06.63.18,1.3.04,1.93-.11.54-.42,1-.77,1.42-.76.89-1.63,1.67-1.91,2.86-.3,1.25-.01,2.56.49,3.71.51,1.18,1.36,2.28.96,3.63-.33,1.13-1.07,2.07-1.28,3.25-.38,2.16.47,4.68,2.56,5.64.4.18.75-.41.35-.6-1.76-.81-2.52-2.88-2.26-4.72.16-1.14.83-2.06,1.21-3.12.21-.57.28-1.17.18-1.77-.11-.63-.41-1.22-.7-1.79-.56-1.09-1.02-2.24-.93-3.5.04-.6.24-1.17.58-1.67.31-.45.71-.84,1.07-1.25.35-.39.69-.81.9-1.29.25-.56.31-1.16.28-1.77-.06-1.11-.38-2.29.31-3.27.55-.79,1.49-1.24,2.3-1.71.89-.51,1.78-1.08,2.33-1.97.23-.38-.36-.73-.6-.35Z"/>
        <path class="cls-3" d="m132.36,77.83s1.04,10.12,1.48,11.73c.44,1.61-2.07,4.39-2.07,4.39,0,0-5.49-2.36-12.59-1.76-7.1.59-24.45,1.76-24.45,1.76,0,0,14.37-14.93,14.82-15.08.44-.15,22.82-1.04,22.82-1.04Z"/>
        <path class="cls-28" d="m125.97,92.25c1.07-.95,3.61-3.43,4.56-4.5,1.19-1.33,1.66-1.72,2.6-2.95-.35-2.86-.68-6.03-.76-6.8-.35.81-.73,1.61-1.11,2.41-1.51,3.13-4.42,8.46-5.29,11.84Z"/>
        <path class="cls-11" d="m89.82,84.15s-5.06,19.91-4.95,20.57c.11.66.77,1.7,1.1,1.84s35.06-1.84,35.95-2.06c.89-.22,1.99-1.76,1.99-1.76,0,0,.8-20.68.95-22,.15-1.32-34.4.88-35.04,3.41Z"/>
        <path class="cls-6" d="m122.58,102.65c-4.76.35-9.52.67-14.28.97-4.74.3-9.49.58-14.23.83-2.69.14-5.37.28-8.06.41-.44.02-.44.71,0,.69,4.77-.23,9.53-.48,14.29-.76,4.74-.27,9.49-.57,14.23-.89,2.68-.18,5.37-.37,8.05-.56.44-.03.44-.72,0-.69Z"/>
        <path class="cls-6" d="m106.69,91.07c-.67-1.08-2.09-1.52-3.26-1.06-.67.26-1.22.73-1.6,1.34-.23.38.36.73.6.35.66-1.08,2.1-1.57,3.19-.8,1.21.86.74,2.48.02,3.49-.11.15-.03.38.12.47.17.1.36.03.47-.12.74-1.03,1.18-2.51.47-3.68Z"/>
        <polygon class="cls-50" points="99.8 56.64 101.77 41.13 103.24 39.27 120.34 38.28 120.34 49.59 117.77 62.28 99.8 56.64"/>
        <path class="cls-32" d="m103.24,39.27s3.08-1.69,4.02-2.63.29-9.85.29-9.85h8.11s.94,7.75,1.41,8.81c.47,1.06,3.27,2.67,3.27,2.67,0,0-.8,5.43-7.5,8.84s-9.6-7.85-9.6-7.85Z"/>
        <path class="cls-23" d="m107.63,35.48c.86.12,1.9.18,2.93-.05,3.38-.73,4.25-3,4.94-5.31.11-.36.31-.68.44-1.02-.17-1.31-.29-2.29-.29-2.29h-8.11s.39,5.54.08,8.68Z"/>
        <path class="cls-3" d="m82.94,93.6s-.6-4.73-1.15-10.78c-.55-6.05,5.77-31.63,8.7-35.59s9.81-6.16,12.75-7.97c0,0,.18,19.04,6.78,19.48,6.6.44,10.32-20.47,10.32-20.47,0,0,10.51,5.83,12.82,8.8,2.31,2.97,2.62,22.83,2.64,26.07.02,3.42-10.08,19.52-10.08,19.52l-10.79-5.52s2.53-4.54,2.84-4.98c.32-.44-24.87,1.65-24.87,1.65l.61,4.88-10.57,4.9Z"/>
        <path class="cls-12" d="m93.35,89.45s.53-1.31-.27-1.92c-.68-.51-4.2-.56-6.86,1.1-1.75,1.09-4.09,4.12-3.28,4.97s5.14,0,7.28-1.03c2.14-1.03,3.13-3.13,3.13-3.13Z"/>
        <path class="cls-12" d="m116.1,89.66s-2.07-1.46-1.18-2.51c.89-1.05,3.29-1.16,6.13,0,3.98,1.62,5.59,4.36,4.65,5.52-.94,1.16-7.34-.13-9.61-3.01Z"/>
        <path class="cls-32" d="m115.24,87.57s1.16-1.05,4.23-.03c2.39.79,2.79,2.49,2.21,3.78-.19.41-.39,1.32-.6,2.42-.44,2.35-1.54,5.49-1.7,6.21-.23,1.05-2.57,5.12-3.25,5.62-.67.5-1.26.34-1.43,0,0,0-.6.78-1.27.87-.67.09-1.31-.46-1.31-.46,0,0-.49.28-1.43.59-.94.3-1.24-.85-1.24-.85,0,0-.58.67-1.34.44-.76-.22-.64-.9-.42-1.61.22-.71.89-3.31.89-3.31,0,0-.98,1.16-1.7,1.43-.71.27-1.34-.89-.63-1.7.71-.8,1.61-3.66,2.41-5.05s3.8-3.31,4.24-3.89c.45-.58,1.75-3.99,2.33-4.47Z"/>
        <path class="cls-32" d="m93.31,87.97c.07.13,1.25,4.87,2.28,6.07,1.03,1.21,2.81,1.54,3.48,2.8.67,1.26,1.52,3.32,2.05,3.9s-.09,1.47-.8,1.47-2.19-1.56-2.19-1.56c0,0,.2,3.53.34,3.88.13.36.4,1.23.44,1.41.04.18-.13.66-.62.88-.49.22-1.35-.28-1.35-.28,0,0,.35.66-.23,1.01s-1.98,0-2.29-.26c-.31-.27-.47.56-1.32.5-.85-.06-1.69-.63-1.87-.54-.18.09-1.34-.32-1.7-.94-.36-.62-1.38-4.46-1.38-5.58s-.47-5.81-.52-6.52c-.04-.71-1.47-4.29-1.16-5.09.31-.8,6.21-2.37,6.83-1.16Z"/>
        <path class="cls-50" d="m114.81,90.59c1.89.08,3.65.98,5.12,2.12.4.31.78.65,1.15,1.01.21-1.09.42-2.01.6-2.42.59-1.29.19-2.99-2.21-3.78-3.07-1.02-4.23.03-4.23.03-.38.32-1.07,1.89-1.63,3.1.39-.07.79-.09,1.19-.07Z"/>
        <path class="cls-50" d="m87.76,92.34c1.41-1.06,3.23-1.53,4.98-1.54.48,0,.96.03,1.44.1-.48-1.47-.84-2.86-.87-2.93-.63-1.21-6.52.36-6.83,1.16-.21.54.36,2.3.77,3.63.17-.15.34-.3.52-.43Z"/>
        <path class="cls-28" d="m93.31,71.66c-.19-.75-.42-1.49-.7-2.21-.28-.72-.63-1.41-.92-2.12-.27-.66-.47-1.34-.5-2.05-.03-.64.04-1.27.17-1.89.27-1.29.76-2.53,1.16-3.78.45-1.41.76-2.87.55-4.35-.06-.44-.73-.25-.67.18.37,2.61-1.09,5.08-1.66,7.55-.29,1.27-.37,2.58.03,3.83.23.73.58,1.42.89,2.12.31.71.58,1.45.8,2.19.49,1.66.38,10.27.38,12,0,.44.69.44.69,0,0-1.54.16-9.97-.22-11.47Z"/>
        <path class="cls-28" d="m123.76,53.6c-1.02,4.64-1.21,7.81-1.41,12.56-.05,1.19-.04,2.38-.16,3.56-.11,1.17-.43,2.28-.85,3.37-.8,2.1-1.74,4.15-2.77,6.14-1.16,2.24-2.45,4.41-3.87,6.5-.25.37.35.71.6.35,2.53-3.73,4.67-7.73,6.36-11.91.43-1.06.85-2.13,1.07-3.26.22-1.16.24-2.34.28-3.51.07-2.4.24-4.79.51-7.17.31-2.69.33-3.79.91-6.44.09-.43-.57-.62-.67-.18Z"/>
        <path class="cls-28" d="m121.56,38.98c-.38,2.77-.97,5.52-1.76,8.21-.51,1.73-1.1,3.44-1.77,5.12-.65,1.62-1.35,3.25-2.36,4.69-.89,1.27-2.07,2.4-3.51,3.01-.81.34-1.7.52-2.56.32-.76-.18-1.47-.56-2.1-1-2.65-1.82-3.99-4.95-4.58-8.01-.34-1.78-.47-3.59-.57-5.39-.1-1.91-.16-3.82-.15-5.74,0-.11,0-.22,0-.33-.22.11-.45.23-.69.35,0,1.53.03,3.06.09,4.59.08,1.91.19,3.83.48,5.72.49,3.26,1.69,6.6,4.27,8.8,1.24,1.05,2.86,1.97,4.54,1.76,1.65-.21,3.15-1.18,4.28-2.37,1.22-1.27,2.07-2.83,2.78-4.43.76-1.71,1.43-3.47,2.01-5.26,1.03-3.15,1.78-6.38,2.24-9.66-.23-.14-.45-.26-.64-.37Z"/>
        <path class="cls-28" d="m90.71,46.97c1.11,1.97,2.12,4.01,3,6.09.54,1.26,1.03,2.54,1.48,3.84.1.28.54.16.44-.12-1.22-3.51-2.74-6.96-4.59-10.21-.12.13-.23.26-.33.4Z"/>
        <path class="cls-28" d="m130.18,44.46c-.13-.09-.25-.19-.38-.28-1.89,1.46-3.57,3.19-4.98,5.13-.78,1.08-1.47,2.22-2.07,3.41-.13.26.26.5.4.23,1.66-3.32,4.09-6.24,7.03-8.5Z"/>
        <rect class="cls-28" x="103.74" y="20.52" width=".23" height="2.01" transform="translate(63.62 119.65) rotate(-79.41)"/>
        <path class="cls-32" d="m120.43,24.52c-.55-2.45-3.75-.49-3.75-.49-.08-.04-2.68-4.25-3.06-6.26-.61-3.25-3.56-4.2-3.75-4.23-.25.12-2.67,1.97-3.38,2.2-.48.76-.99,1.66-1.43,2.64-1.84,4.13-2.61,8.62-1.69,11.22.69,1.96,1.92,3.06,4.34,3.57,4.44.94,7.63-1.33,9.25-4.39,0,0,4.29-.66,3.48-4.26Z"/>
        <path class="cls-23" d="m111.98,23.15c-.15-.33-.58-.43-.88-.22-.16.11-.39.53-.39.89,0,.11.03.2.09.29.05.08.12.16.2.21.17.11.39.1.57,0,.13-.07.26-.15.33-.28.07-.12.12-.31.15-.45.04-.18,0-.27-.07-.44Z"/>
        <path class="cls-23" d="m105.01,22.21s0-.02,0-.03c0-.02,0-.05,0-.07,0-.05,0-.1-.02-.15-.03-.09-.08-.19-.15-.25-.11-.1-.24-.15-.38-.13-.11.01-.21.06-.29.15-.05.05-.09.12-.12.18-.03.07-.06.14-.08.22-.03.16-.03.31,0,.46.02.1.07.2.14.27.08.09.21.15.33.14.21,0,.38-.15.46-.34.02-.03.03-.07.04-.1.04-.09.06-.18.07-.28,0-.02,0-.03,0-.05Z"/>
        <path class="cls-44" d="m114.07,20.75c-.76-.62-1.54-1.21-2.35-1.77-.15-.11-.38-.03-.47.12-.1.17-.03.37.12.47.76.53,1.49,1.08,2.21,1.66.14.12.35.14.49,0,.12-.12.14-.37,0-.49Z"/>
        <path class="cls-44" d="m106.24,18.57c-.06-.18-.24-.29-.42-.24-.39.1-.79.2-1.18.3-.17.04-.3.25-.24.42.06.18.24.29.42.24.39-.1.79-.2,1.18-.3.17-.04.3-.25.24-.42Z"/>
        <path class="cls-30" d="m107.02,27.41c-.02-.06-.05-.11-.09-.15l-.35-.35s-.07-.06-.11-.07c-.04-.02-.09-.03-.13-.03-.05,0-.09,0-.13.03-.04.01-.08.04-.11.07-.06.07-.11.15-.1.24,0,.03,0,.06.01.09.02.06.05.11.09.15.12.12.24.23.35.35.03.03.07.06.11.07.04.02.09.03.13.03.05,0,.09,0,.13-.03.04-.01.08-.04.11-.07.06-.07.11-.15.1-.24,0-.03,0-.06-.01-.09Z"/>
        <path class="cls-50" d="m105.77,29.47h2.52s-.06.65-.67,1.08c-.6.43-1.85-1.08-1.85-1.08Z"/>
        <g>
          <g class="cls-1">
            <path class="cls-50" d="m108.94,24.39s.24,1.4,2.29,1.94c2.06.55,2.64-2.38,2.69-3.35.04-.97-4.59-1.49-4.78-1.14-.46.86-.19,2.55-.19,2.55Z"/>
          </g>
          <g class="cls-1">
            <path class="cls-50" d="m106.53,24.11s-.89,1.15-2.54.92c-2.11-.29-1.31-3.17-.98-4.09.33-.91,4.28.34,4.32.74.1.97-.8,2.43-.8,2.43Z"/>
          </g>
          <path class="cls-28" d="m111.72,26.52c-.17,0-.34-.02-.52-.07-2.1-.56-2.37-1.97-2.38-2.03h0c-.01-.07-.27-1.74.21-2.62.19-.35,2.35-.11,3.56.22.97.27,1.46.6,1.44.97-.03.64-.32,2.46-1.34,3.21-.29.21-.62.32-.97.32Zm-2.67-2.14c.01.06.26,1.33,2.21,1.85.49.13.93.06,1.3-.21.84-.62,1.21-2.19,1.25-3.03,0-.17-.23-.33-.44-.44-1.21-.61-3.92-.81-4.14-.63-.43.8-.18,2.42-.17,2.46Z"/>
          <path class="cls-28" d="m104.42,25.17c-.14,0-.29,0-.45-.03-.56-.08-.98-.34-1.23-.79-.57-1.02-.14-2.77.16-3.45.16-.37.74-.47,1.74-.32,1.08.17,2.77.71,2.81,1.09.1,1-.78,2.44-.81,2.5h0c-.03.05-.79,1-2.2,1Zm-.55-4.43s-.03,0-.04,0c-.28,0-.63.05-.72.25-.28.65-.7,2.31-.17,3.25.21.38.57.61,1.06.68,1.51.21,2.37-.79,2.43-.87.06-.1.87-1.46.78-2.35-.1-.21-2.08-.95-3.34-.95Z"/>
          <path class="cls-28" d="m108.93,22.29c-.65-.58-1.55-.29-1.56-.28l-.07-.22s1.04-.34,1.79.33l-.15.17Z"/>
          <polygon class="cls-28" points="117.19 23.76 113.84 23.72 113.85 23.49 117.53 23.61 117.19 23.76"/>
        </g>
      </g>
    </g>
    <g>
      <path class="cls-8" d="m187.03,215.31c0,.6-2.68,1.09-20.24,1.09-19.75,0-21.12-.49-21.12-1.09s2.43-1.09,21.12-1.09,20.24.49,20.24,1.09Z"/>
      <g>
        <path class="cls-55" d="m173.53,206.88s-.07,3.06-.15,4.7c-.08,1.64-.32,3.46-.65,3.46s-1.31.23-1.4,0c-.09-.23-.86-6.75-.86-6.75,0,0,2.21-2.27,3.06-1.4Z"/>
        <path class="cls-36" d="m160.73,196.53s.24,5.71-.01,6.47c-.25.76-7.17,7.15-8.94,8.28-1.76,1.13-3.95,1.44-4.78,1.86s-1.18,1.86-.06,2.17,11.04.22,12.69,0c1.65-.22,4.89-3.38,6.66-4.85,1.77-1.48,6.66-3.01,7.25-3.25.59-.24-1.06-6.64-1.65-7.52-.59-.89-1.81-5.19-1.81-5.19l-9.34,2.04Z"/>
        <path class="cls-34" d="m162.47,207.56c-.18.1-.41.07-.56-.07-1.21-1.19-3.15-1.72-4.63-.92-2.1,1.96-4.55,4.1-5.5,4.71-1.76,1.13-3.95,1.44-4.78,1.86s-1.18,1.86-.06,2.17c1.12.31,11.04.22,12.69,0,1.65-.22,4.89-3.38,6.66-4.85,1.77-1.48,6.66-3.01,7.25-3.25.47-.19-.49-4.32-1.19-6.42-3.24,2.33-6.39,4.8-9.87,6.78Z"/>
        <path class="cls-55" d="m165.45,210.72c-1.54,1.39-4.6,3.8-5.59,4.04-.89.21-11.23.34-13.28.37.1.07.21.13.35.17,1.12.31,11.04.22,12.69,0,1.65-.22,4.89-3.38,6.66-4.85.92-.77,2.7-1.56,4.26-2.17h0s-3.55,1.06-5.1,2.44Z"/>
      </g>
      <g>
        <path class="cls-55" d="m185.02,206.88s-.07,3.06-.15,4.7c-.08,1.64-.32,3.46-.65,3.46-.33,0-1.31.23-1.4,0s-.78-6.55-.78-6.55c0,0,2.13-2.47,2.98-1.6Z"/>
        <path class="cls-36" d="m172.73,202.59s-1.75,4.69-3.57,7.21c-1.73,2.4-3.49,3.05-4.39,3.31-2.2.63-1.38,2.25-.65,2.58.72.32,11.74.27,13.69-.37s3.25-4.75,4.63-6.52c1.38-1.77,2.59-1.93,2.59-1.93,0,0-.71-4.68-.79-6.29-.08-1.61-9.99-.42-9.99-.42l-1.52,2.42Z"/>
        <path class="cls-34" d="m182.1,204.05c-1.21,1.27-2.31,2.65-3.32,4.08-.2.28-.6.31-.79,0-.32-.51-.78-.91-1.3-1.22-1.76-1.06-4.8-1.37-6.04.63-.06.1-.14.16-.23.19-.4.75-.83,1.47-1.26,2.07-1.73,2.4-3.49,3.05-4.39,3.31-2.2.63-1.38,2.25-.65,2.58.72.32,11.74.27,13.69-.37s3.25-4.75,4.63-6.52c1.38-1.77,2.58-1.93,2.58-1.93,0,0-.44-2.88-.66-4.9-.81.63-1.56,1.35-2.25,2.07Z"/>
        <path class="cls-55" d="m179.5,213.04c-.96,1.66-1.87,2.05-4.68,2.24-2.36.15-8.96.19-11.02.19.1.1.21.17.32.22.72.32,11.74.27,13.69-.37,1.8-.59,3.05-4.14,4.32-6.07,0,0-1.66,2.13-2.62,3.79Z"/>
      </g>
      <g>
        <path class="cls-9" d="m195.31,104.14c-.29-8.71-3.78-14.64-3.78-14.64l.38-4.84s-2.34-1.3-13.83-1.13c-11.49.17-19.45,3.08-19.45,3.08l-.38,5.62s-13.43,54.19-13.43,62.28c0,8.79,13.26,35.84,13.83,39.01.87,4.8.7,6.8.45,9.07-.13,1.17,4.46,1,7.68.78,3.21-.23,5.94-.78,5.94-.78.9-1.27,1.51-2.42,1.51-2.42,0,0,17.96,3.78,18.91,1.89.95-1.89,3.64-41.56,3.69-55.37.06-17.21-1.51-42.55-1.51-42.55Zm-16.99,72.39c-.25,4.54-2.4,14.37-2.4,14.37,0,0-10.36-31.11-10.71-33.25-.35-2.14,8.82-32.02,8.82-32.02,0,0,2.53,13.95,3.3,21.17.77,7.23,1.24,25.18.98,29.72Z"/>
        <path class="cls-40" d="m176.03,138.72c-.61-6.08-1.64-12.11-3.1-18.05-.42-1.7-.87-3.38-1.35-5.06-.13-.46-.85-.26-.71.2,1.69,5.84,2.96,11.79,3.81,17.81.24,1.7.44,3.4.61,5.11.05.47.79.47.74,0Z"/>
        <path class="cls-19" d="m191.04,89.06c-4.05-.51-8.13-.72-12.2-.61-4.07.1-8.13.51-12.14,1.21-2.28.4-4.54.9-6.77,1.49-.46.12-.27.84.2.71,3.93-1.04,7.93-1.78,11.97-2.22,4.01-.43,8.06-.57,12.09-.4,2.29.09,4.58.29,6.85.57.47.06.47-.68,0-.74Z"/>
        <path class="cls-19" d="m172.06,121.07c-2,4.5-3.89,9.04-5.67,13.63-1.77,4.59-3.44,9.22-4.98,13.89-.87,2.65-1.71,5.3-2.51,7.97-.09.31.39.44.48.13,1.41-4.69,2.93-9.35,4.56-13.97,1.64-4.62,3.39-9.2,5.25-13.73,1.06-2.57,2.16-5.13,3.29-7.68.13-.29-.3-.54-.43-.25Z"/>
        <path class="cls-19" d="m162.71,169.65c-.28-.98-.57-1.95-.87-2.92-.13-.42-.24-.87-.44-1.27-.19-.37-.47-.51-.78-.76-.42-.34.1-.83.34-1.11.29-.34.69-.72.73-1.2.02-.28-.11-.54-.33-.7-.34-.26-.8-.22-1.19-.34-.42-.12-.85-.39-.98-.83-.13-.4.04-.85.43-1.02.29-.13.04-.55-.25-.43-.63.28-.85,1.07-.62,1.68.3.77,1.08,1.05,1.82,1.17.26.04.67.12.62.47-.03.22-.22.43-.36.59-.31.37-.74.74-.85,1.23-.05.23-.01.46.12.65.22.32.63.41.83.76.24.42.34.95.49,1.41.15.49.3.99.45,1.49.61,2.04,1.16,4.1,1.66,6.18.56,2.33,1.05,4.67,1.48,7.02.06.31.53.18.48-.13-.73-4.02-1.65-8.01-2.77-11.94Z"/>
        <path class="cls-19" d="m193.76,197.78c-4.05-.41-8.08-.94-12.09-1.62-2.19-.37-4.37-.77-6.54-1.22-.31-.06-.44.41-.13.48,6.18,1.27,12.43,2.21,18.71,2.84.02-.16.03-.32.05-.49Z"/>
        <path class="cls-19" d="m174.23,197.78c.31-.06.18-.54-.13-.48-4.88.93-9.86,1.73-14.83,1.16,0,.17.01.33.02.5,5.01.57,10.03-.25,14.94-1.18Z"/>
        <path class="cls-54" d="m175.64,188.45c-.22,3.7-2.3,14.23-4.61,17.3-.29.38-.09.6.23.26,3.36-3.49,4.89-13.73,5.12-17.55.03-.48-.71-.47-.74,0Z"/>
      </g>
      <g>
        <path class="cls-55" d="m188.43,25.47c-.14-.11-.36-.23-.44-.4-.08-.17,0-.37.04-.53.1-.37.2-.77-.05-1.1-.14-.18-.34-.21-.5-.35-.1-.09-.1-.22-.09-.35.01-.34.11-.68.02-1.03-.1-.38-.41-.6-.78-.69-.13-.03-.38-.03-.47-.15-.11-.14-.02-.44,0-.6.04-.53-.21-.94-.64-1.24-.15-.1-.31-.18-.47-.25.06-.06.12-.11.18-.14.09-.04.21-.03.31-.05.1-.02.2-.06.29-.11.19-.1.35-.24.48-.41.26-.34.37-.77.27-1.19-.02-.09-.1-.21-.08-.3.02-.08.18-.18.24-.24.15-.17.26-.38.32-.61.12-.46.02-.94-.27-1.32-.13-.17-.3-.31-.5-.41-.18-.09-.51-.1-.64-.24-.07-.08-.09-.24-.11-.34-.04-.13-.08-.25-.13-.37-.1-.24-.24-.46-.44-.63-.3-.25-.68-.33-1.03-.24-.15-.2-.38-.33-.66-.35-.47-.03-.91.27-1.22.61,0-.06.02-.12.04-.17.1-.32.3-.48.6-.61.32-.14.55-.3.8-.54.17-.16.37-.19.58-.08.25.13.22.42.41.61.23.24.56.18.85.11.29-.06.63-.13.84.13.22.29.18.71.17,1.05-.02.44.67.44.69,0,.02-.45.02-.94-.23-1.34-.23-.38-.61-.59-1.05-.59-.23,0-.46.06-.69.1,0,0-.06.02-.09.02,0,0,0,0,0-.01-.01-.04-.03-.08-.04-.12-.13-.34-.43-.58-.78-.68-.35-.1-.73-.03-1.02.2-.14.12-.25.27-.41.37-.18.11-.39.16-.58.27-.64.36-.79,1.01-.78,1.67-.08-.1-.19-.18-.33-.24-.16-.07-.33-.09-.51-.09-.19,0-.42.07-.61.03-.16-.04-.17-.17-.22-.3-.06-.17-.14-.33-.29-.46-.25-.22-.63-.28-.98-.27-.18,0-.37.04-.55.07-.07.01-.14.04-.21.03-.13,0-.12-.03-.17-.14-.16-.32-.43-.56-.81-.68-.41-.13-.73-.03-1.13.07-.35.09-.67-.26-1.02-.3-.2-.02-.39.02-.58.09-.18.07-.35.21-.56.19-.41-.04-.71-.28-1.14-.2-.34.07-.59.29-.83.5-.11.1-.23.21-.38.27-.18.07-.4.06-.59.09-.4.06-.68.28-.86.59-.18.31-.33.53-.63.76-.25.19-.53.37-.7.64-.08.12-.13.26-.14.4-.02.18.09.37.04.54-.04.13-.21.25-.31.35-.13.13-.23.27-.29.44-.14.39.06.78,0,1.17-.03.18-.16.33-.25.49-.1.19-.17.37-.19.58-.02.2,0,.39.04.58,0,.02,0,.04,0,.07,0,.21-.35.32-.5.4-.28.15-.56.32-.7.62-.04.09-.06.17-.08.27-.01.11.03.27-.02.37-.04.09-.16.17-.23.26-.07.09-.12.18-.16.29-.13.32-.12.67-.07,1.01-.34.15-.58.56-.57.98,0,.29.22.72.06.99-.13.23-.47.3-.62.54-.18.28-.11.58.01.87.04.1.13.22.09.33-.03.11-.16.2-.24.27-.17.16-.35.31-.45.53-.16.34-.04.65.14.95.11.2.16.3.02.49-.15.2-.35.35-.51.55-.15.18-.28.39-.3.63-.02.31.15.5.31.75.08.12.06.08-.05.15-.12.07-.24.14-.34.23-.2.2-.28.47-.21.75.1.38.71.82.4,1.21-.3.38-.81.7-.61,1.26.05.13.13.23.23.33.03.03.18.13.18.18,0,.15-.32.37-.41.46-.16.17-.31.36-.36.59-.07.33.1.58.28.84.2.28.07.48-.05.77-.12.29-.21.59-.11.9.05.15.14.27.25.38.09.1.25.18.31.3.13.22-.16.59-.18.83-.03.29.1.54.32.72.11.09.26.15.36.25.13.13.1.29.14.46.16.61.82.88,1.4.87.71-.01,1.36-.34,2.03-.54.34-.1.7-.18,1.05-.11.32.06.6.26.86.45.55.39,1.09.76,1.79.64.68-.11,1.24-.62,1.96-.53.58.07,1.11.4,1.6.69.51.29,1.03.6,1.6.74.76.18,1.45-.04,2.16-.31.81-.31,1.62-.47,2.49-.4.75.06,1.51.43,2.28.27.3-.06.56-.22.77-.43.2-.2.37-.51.62-.65.23-.13.46.07.67.16.28.12.59.14.85-.04.22-.15.32-.4.39-.64.05-.2.06-.52.2-.68.15-.16.48-.14.68-.18.27-.05.51-.18.64-.44.14-.27.05-.55-.05-.82-.04-.11-.12-.24-.06-.35.06-.11.27-.2.36-.28.21-.17.35-.4.35-.68,0-.31-.19-.57-.35-.83-.17-.26.5-.5.7-.77.2-.29-.29-.46-.26-.83.01-.16-.01-.33-.1-.47-.04-.07-.1-.13-.16-.19-.04-.04-.16-.09-.18-.14-.04-.12.13-.3.2-.38.11-.14.22-.27.3-.43.28-.61-.16-1.04-.53-1.46-.16-.18-.24-.32-.14-.55.14-.34.34-.61.27-1-.04-.26-.18-.49-.33-.7-.17-.24-.37-.46-.27-.76.11-.3.24-.57.09-.88-.12-.25-.35-.37-.58-.5-.08-.04-.21-.1-.25-.19-.05-.11.05-.28.09-.39.11-.3.21-.6.12-.92-.07-.26-.26-.47-.46-.66-.16-.15-.41-.32-.46-.55-.05-.26.13-.57.16-.83.04-.34-.1-.66-.41-.84-.13-.08-.56-.13-.61-.29-.04-.12.06-.33.09-.44.05-.19.08-.39.04-.59-.08-.34-.34-.61-.54-.88-.18-.24-.36-.48-.54-.71.06,0,.11-.01.17-.02.1-.02.19-.05.28-.09.12.06.24.11.36.17.38.18.69.4.66.85-.03.42-.09.84.27,1.15.13.11.3.17.46.22.14.03.37.04.48.14.19.17.05.62.03.83-.03.33,0,.68.24.93.12.12.37.17.46.3.08.11,0,.29-.02.41-.1.38-.21.77-.02,1.15.21.4.67.54.89.91.24.4.16.94.1,1.38-.03.19.05.37.24.42.16.05.4-.06.42-.24.12-.87.16-1.78-.6-2.38Z"/>
        <path class="cls-36" d="m167.15,38.57s2.83-1.66,3.65-2.43c1.42-1.33.73-5.24.13-7.38h6.54s1.03,5.17,1.52,5.89c.49.71,2.39,2.16,2.39,2.16,0,0-4.41,29.21-5.14,32.23-.73,3.02-3.94,1.69-7.54-10.3-3.6-11.98-1.54-20.17-1.54-20.17Z"/>
        <path class="cls-50" d="m178.9,34.46s-.01.02-.02.03c-.93,1.35-2.31,2.17-3.87,2.62-.25.07-.49,9.45-.74,9.5-.36.06-.75-9.23-1.12-9.23-1.06.01-2.11-.22-3.06-.68-1.15.82-2.95,1.87-2.95,1.87,0,0-2.06,8.18,1.54,20.17,3.6,11.98,6.81,13.31,7.54,10.3.73-3.02,5.14-32.23,5.14-32.23,0,0-1.6-1.14-2.48-2.35Z"/>
        <path class="cls-50" d="m178.9,34.46s-.01.02-.02.03c-.93,1.35-2.31,2.17-3.87,2.62-.25.07-.49,9.45-.74,9.5-.36.06-.75-9.23-1.12-9.23-1.06.01-2.11-.22-3.06-.68-1.15.82-2.95,1.87-2.95,1.87,0,0-2.06,8.18,1.54,20.17,3.6,11.98,6.81,13.31,7.54,10.3.73-3.02,5.14-32.23,5.14-32.23,0,0-1.6-1.14-2.48-2.35Z"/>
        <path class="cls-35" d="m181.18,38.83c-1.03,1.1-2.11,2.15-3.24,3.16-.8-1.66-1.7-3.27-2.7-4.83-.13-.2-.41-.11-.43.12-.3,3.2-.6,6.41-.91,9.61-.03.29.43.29.46,0,.28-2.97.56-5.94.84-8.91.91,1.45,1.73,2.95,2.47,4.5.07.14.26.14.36.05,1.21-1.06,2.37-2.19,3.47-3.37.2-.22-.12-.54-.33-.33Z"/>
        <path class="cls-35" d="m172.81,37.84c-.55,1.5-.98,3.03-1.31,4.6-1.6-.79-3.07-1.81-4.36-3.05-.21-.21-.54.12-.33.33,1.39,1.34,2.99,2.44,4.73,3.26.12.06.31.02.34-.14.33-1.66.79-3.28,1.37-4.87.1-.28-.34-.4-.44-.12Z"/>
        <path class="cls-16" d="m171.45,34.94c1-.13,1.98-.38,2.9-.77,1.04-.45,2.08-1.1,2.76-2.02.3-.41.63-.9.7-1.6-.23-1.17-.34-1.78-.34-1.78h-6.54c.38,1.35.61,4.12.52,6.18Z"/>
        <path class="cls-36" d="m182.05,24.09c-.52-2.64-3.21.38-3.21.38-.1.1-.55-.23-.62-.4-.13-.32-.13-.68-.15-1.03-.01-.34-.09-.65-.15-.99-.05-.28-.03-.62-.14-.87-.16-.36-.28-.67-.32-1.07-.03-.28-.03-.56-.21-.79-.14-.18-.33-.32-.48-.5-.19-.23-.34-.5-.4-.8-.01-.06,0-.5-.28-.58-.25-.08-.47-.17-.65-.39-.18-.22-.18-.51-.36-.72-.13-.17-.36-.23-.54-.34-.24-.15-.45-.33-.66-.52-.12-.12-.18-.17-.34-.2-.28-.05-.59-.03-.88-.04-.26-.01-.49,0-.73.12-.28.14-.52.32-.81.43-.16.06-.31.12-.49.13-.11,0-.24-.03-.33-.01-.18.04-.34.25-.46.37-.21.21-.44.34-.69.39-.58.73-1.3,1.77-1.55,2.69-.33,1.23-4.78,9.43.9,13.47,3.02,2.15,9.27-.32,10.78-4.52,0,0,3.44-.62,2.74-4.21Z"/>
        <path class="cls-55" d="m174.94,25.06c-.18-.19-.23-.5-.18-.75.06-.33.32-.66.67-.66.19-.02.37.06.5.21.14.16.17.38.17.58,0,.12-.01.23-.08.33-.06.1-.14.17-.23.24-.16.13-.37.25-.58.2-.12-.02-.21-.07-.27-.16Z"/>
        <path class="cls-55" d="m166.83,23.13c0-.32.13-.65.44-.78.17-.07.38-.05.51.07.01,0,.02.02.03.03.22.19.3.51.21.78-.09.28-.34.53-.65.53-.17,0-.33-.06-.43-.2-.09-.12-.12-.28-.12-.43Z"/>
        <path class="cls-17" d="m169.2,27.25s.03-.08.06-.12c.06-.07.14-.12.23-.12.03,0,.06,0,.09,0,.06.01.11.04.16.07.16.12.31.23.47.35.04.03.06.06.08.1.03.04.04.08.04.13,0,.05,0,.09-.02.14,0,.04-.03.08-.06.12-.06.07-.14.12-.23.12-.03,0-.06,0-.09,0-.06-.01-.11-.04-.16-.07-.16-.12-.31-.23-.47-.35-.04-.03-.06-.06-.08-.1-.03-.04-.04-.08-.04-.13,0-.05,0-.09.02-.14Z"/>
        <path class="cls-18" d="m170.95,29.67c-.31.03-.62.02-.93-.02-.02,0-.06,0-.06,0-.04,0-.08-.01-.12-.02-.07-.01-.15-.03-.22-.05-.16-.04-.32-.09-.47-.14-.17-.06-.39.07-.42.24-.04.19.06.36.24.42.63.23,1.32.32,1.99.26.18-.02.35-.15.35-.35,0-.17-.15-.36-.35-.35Z"/>
        <path class="cls-55" d="m177.78,22.37c-.76-.75-1.63-1.39-2.56-1.91-.16-.09-.38-.04-.47.12-.09.16-.04.38.12.47.89.49,1.7,1.1,2.42,1.8.32.31.81-.18.49-.49Z"/>
        <path class="cls-55" d="m169.66,19.86c-.82.02-1.63.12-2.43.3-.18.04-.29.25-.24.42.05.19.24.28.42.24.74-.17,1.48-.26,2.24-.28.19,0,.35-.16.35-.35s-.16-.35-.35-.35Z"/>
        <path class="cls-55" d="m176.72,19.81c-.19-.14-.23-.14-.2-.39.02-.16.03-.31-.03-.47-.1-.28-.35-.46-.59-.61-.11-.07-.24-.13-.33-.21-.14-.13-.12-.28-.14-.45-.03-.38-.18-.73-.47-.99-.13-.12-.28-.2-.44-.26-.19-.08-.33-.12-.35-.34-.03-.35.08-.67-.01-1.01-.09-.31-.29-.56-.61-.63-.43-.1-.62.57-.18.67.21.05.15.44.13.6-.03.32-.04.66.14.94.19.29.49.32.76.5.33.22.31.54.36.89.04.29.19.51.42.69.18.14.46.22.6.4.16.19-.02.51.06.74.05.15.15.27.27.37.06.05.13.1.19.14.08.05.03.12.08.02-.2.4.4.75.6.35.18-.35.03-.69-.27-.92Z"/>
      </g>
      <g>
        <path class="cls-52" d="m193.1,41.97c-1.94-1.57-10.08-3.66-11.72-5.17,0,0-4.46,23.32-6.23,30.7s-8-28.93-8-28.93c0,0-4.72,2.46-7.76,4.54s-9.84,29.31-10.22,32.71.72,6.64,4.66,9.25c3.94,2.61,20.61,5.73,20.61,5.73l3.42-1.41-1.95,2.11s-.64.87-.39,1.52c.25.65,6.36,7.68,6.36,7.68,0,0,19.67-19.27,21.31-22.3,1.64-3.03-3.48-31.09-10.09-36.43Z"/>
        <path class="cls-41" d="m180.04,80.16c-4.84-2.26-14.56-6.96-14.64-7.04-.63-.56-1.27-1.11-1.92-1.66-.15-2.19-1.01-4.23-1.37-6.38-.18-1.11-.17-2.23.11-3.32.27-1.06.7-2.07,1.07-3.09.41-1.14.74-2.32.69-3.55-.02-.44-.71-.44-.69,0,.1,2.2-1.1,4.16-1.67,6.23-.3,1.08-.39,2.18-.26,3.29.13,1.14.44,2.24.74,3.35.26.94.51,1.89.64,2.86-1.32-1.09-2.66-2.15-4.02-3.18-.36-.27-.43.17-.08.44,1.52,1.14,4.85,4.27,4.98,4.38-.58-.27-1.16-.54-1.74-.81-1.7-.79-3.5-1.17-5.2-1.96-.4-.19-.64,0-.24.18,6.06,2.83,12.11,5.66,18.17,8.49,1.7.79,3.39,1.59,5.09,2.38.4.19.75-.41.35-.6Z"/>
        <path class="cls-41" d="m192.6,69.75c-.48.58-.96,1.16-1.44,1.73.19-3.55.35-7.09.5-10.64.04-1.1.09-2.21.13-3.31.02-.44-.67-.44-.69,0-.14,3.88-.31,7.77-.5,11.65-.05,1.06-.11,2.13-.16,3.19-2.75,3.28-5.57,6.49-8.46,9.64-1.04,1.13-2.08,2.25-3.14,3.36-.31.32.18.81.49.49,3.73-3.92,7.34-7.95,10.84-12.08.99-1.17,1.97-2.35,2.94-3.54.28-.34-.21-.83-.49-.49Z"/>
        <path class="cls-41" d="m190.17,55.55c.57-4.68,1.36-9.34,2.37-13.95-.13-.08-.27-.15-.42-.23-.71,3.26-1.32,6.55-1.82,9.85-.22,1.44-.41,2.88-.59,4.33-.04.29.42.29.46,0Z"/>
        <path class="cls-41" d="m163,50.81c.45.96.88,1.94,1.29,2.92.11.27.56.15.44-.12-1.44-3.46-3.12-6.83-5.05-10.05-.09-.16-.19-.31-.28-.46,0,0,0,0-.01,0-.11.07-.22.18-.33.31,1.44,2.39,2.76,4.86,3.94,7.4Z"/>
      </g>
      <g>
        <path class="cls-52" d="m161.7,101.44s30.35,1.14,31.49,1.71c1.14.57.57,19.95-.68,20.86-1.25.91-31.24-.34-31.69-2.05s.89-20.52.89-20.52Z"/>
        <path class="cls-41" d="m177.7,115.16c-.09,0-.17,0-.24-.02-2.6-.58-14.74-12.12-15.28-12.62-.15-.14-.16-.37-.03-.52.14-.15.37-.16.52-.03,3.68,3.34,12.95,12,14.95,12.45,1.7.38,10.02-6.46,14.86-10.86.15-.14.39-.13.52.02.14.15.13.39-.02.52-1.27,1.16-12.24,11.06-15.28,11.06Z"/>
        <path class="cls-41" d="m178.62,112.86c-.03-.15-.14-.28-.27-.35-.09-.1-.21-.17-.33-.21-.27-.09-.59,0-.72.27-.06.13-.08.28-.06.42,0,.08,0,.16.03.23.05.14.14.25.25.33.2.14.5.16.71.02.09-.06.15-.13.21-.22.14-.12.22-.29.19-.49Z"/>
        <path class="cls-41" d="m180.75,113.66s8.76,7.93,9.14,8.05c.38.13-8.57-8.75-8.57-8.75l-.57.69Z"/>
        <path class="cls-41" d="m171.6,110.49s-9.77,10.72-9.55,10.78,10.18-10.21,10.18-10.21l-.64-.57Z"/>
      </g>
      <g>
        <path class="cls-55" d="m180.47,98.07l1.81-.35s.18,2.23-.41,2.99-2.7-1.12-2.7-1.12l1.29-1.51Z"/>
        <path class="cls-36" d="m175.84,91.74s-6.45,4.28-7.21,4.92-3.16,4.34-3.34,5.1c-.18.76-.06,4.75.41,5.1.47.35,1.52.7,1.64,0s.29-1.93.29-1.93c0,0,.7,2.46,1.76,2.7,1.06.23,1.47-.7,1.76-.76s1.29.94,1.99.7c.7-.23,1.06-1.11,1.06-1.11,0,0,.94.59,1.52.12s.88-2.17,1.64-3.58c.76-1.41,5.06-4.89,4.92-5.27-2.93-8.03-6.44-5.98-6.44-5.98Z"/>
        <path class="cls-38" d="m168.77,100.61c-.09.3-.37.49-.57.72-.26.29-.41.63-.49,1.01-.19.88-.27,1.78-.27,2.68,0,.44.37.59.37.15,0-.86.39-1.88.58-2.72.08-.34.23-.57.47-.82.24-.25.47-.5.57-.84.13-.42-.53-.61-.67-.18Z"/>
        <path class="cls-38" d="m174.92,100.07c-.18-.07-.37-.11-.53-.21-.17-.11-.23-.27-.33-.44-.24-.41-.57-.49-1.03-.51-.42-.03-.53-.46-.74-.76-.21-.3-.48-.53-.81-.69-.68-.32-1.5-.3-2.13.13-.37.25-.28.65.09.4.51-.34,1.45-.14,1.96.22.53.37.6,1.16,1.29,1.35.17.05.34.03.51.05.21.03.24.14.34.31.17.31.4.51.72.64.3.13.63.19.88.42.27.24.42.57.44.92.02.44.71.44.69,0-.04-.85-.57-1.54-1.36-1.84Z"/>
      </g>
      <g>
        <path class="cls-55" d="m173.79,88.1s-.3,2.07.64,2.7c1.41.94,3.46-.88,3.63-1.82.18-.94-4.28-.88-4.28-.88Z"/>
        <path class="cls-36" d="m173.79,88.1s.64-1.93,1.93-4.28c1.29-2.34,3.69-2.92,4.87-2.91,1.48,0,3.74.69,5.15.8s3.05.7,4.04.88,1.29,1.35.64,1.85c-.64.5-1.76.79-1.76.79,0,0,1.7,2.99,1.64,3.81s-1.23,1-1.23,1.35-.41,1.29-1.58,1.41c0,0-1.23,1.52-2.05,1.52,0,0,1.29.76,1.17,1.35-.12.59-1.76.94-2.87.64-1.11-.29-4.92-3.87-5.92-4.45-1-.59-4.04-2.75-4.04-2.75Z"/>
        <path class="cls-38" d="m185.45,93.23c-.34,0-.76-.03-1.09-.12-.35-.09-.76-.42-1.05-.64-.63-.47-1.11-.95-1.74-1.41-.15-.11-.39-.02-.47.12-.1.18-.03.36.12.47.67.5,1.35,1,2.02,1.5.31.23.76.39,1.15.47.38.08.77.02,1.11-.07.43-.12.4-.34-.04-.33Z"/>
        <path class="cls-38" d="m188.68,85.23c-.69-.73-.83-.96-1.58-1.62-.14-.12-.36-.14-.49,0-.12.13-.14.36,0,.49.75.66,1.36.92,2.05,1.65.12.13.48.56.61.43.13-.14-.45-.81-.58-.95Z"/>
      </g>
    </g>
    <g>
      <path class="cls-48" d="m222.63,50.08s-6.36,22.62-7.82,28.02c-1.46,5.41-4.61,27.53-4.61,27.53,0,0,7.92.27,10.27-.86,2.35-1.13,2.16-54.7,2.16-54.7Z"/>
      <g>
        <path class="cls-11" d="m213.29,109.46s-3.8-3.13-3.82-3.52c-.07-1.64,6.92-27.1,7.41-27.34.49-.24,2.76-.57,3-.49s6.08,7.95,6.08,7.95l-5.56,30.11-7.11-6.7Z"/>
        <path class="cls-20" d="m220.28,111.63c-2.25-1.94-4.5-3.87-6.76-5.81-.02-.02-.05-.03-.07-.05.65-2.83.98-4.39,1.65-7.29.67-2.94,1.31-5.88,2.05-8.8.41-1.61,2.06-8.51,2.58-10.09.14-.42-.53-.6-.67-.18-.93,2.81-2.82,10.99-3.48,13.87-.68,2.98-1.37,5.96-2.05,8.94l-.76,3.41c-.77-.11-1.54-.16-2.31-.15-.19,0-.35.16-.35.35s.16.35.35.35c.75-.02,1.51.03,2.25.14.1.01.19,0,.27-.04.01.02.03.03.05.05,2.25,1.94,4.5,3.87,6.76,5.81.34.29.83-.2.49-.49Z"/>
        <path class="cls-32" d="m220.37,111.04c0-.17-.58-1.2-1.68-.96-1.1.23-3.89.04-3.89.04,0,0-.96-1.4-1.45-2.08-.49-.68-1.73-1.54-2.76-.98-1.03.56-.14,3.59.72,3.97s.24.87.55,1.73c.31.86,2.41,1.45,2.33,2-.04.3.43.66,1.18.9,0,0,0,0,0,0,0,0,.54,1.11,1.41,1.67.87.56,3.12-.22,3.29-.62.17-.39.32-.81-.85-.81-.72,0-.67.03-.72-.14,1.53-.22,2.36-.51,2.23-1.12-.15-.7.62-1.4.7-2.26.08-.86-1.04-1.19-1.04-1.36Z"/>
        <path class="cls-43" d="m214.41,109.42c-.74-.76-1.14-1.85-2.14-2.33-.54-.26-1.14-.32-1.67-.03-.39.21-.04.81.35.6.38-.21.82-.08,1.17.13.43.26.72.68,1,1.08.16.23.32.45.49.67.15.18.35.34.48.53.08.12-.03.22-.15.26-.22.07-.5-.06-.7-.15-.17-.07-.37-.05-.47.12-.09.15-.05.4.12.47.53.23,1.14.42,1.63,0,.19-.17.31-.41.3-.67-.01-.29-.2-.51-.39-.7Z"/>
      </g>
      <path class="cls-8" d="m258.58,215.97c0,.93-1.73,1.01-27.45,1.01s-28.35-.51-28.35-1.44,1.52-.88,27.8-.88,28,.37,28,1.3Z"/>
      <g>
        <path class="cls-47" d="m254.19,208.37c-.84.23-1.77.58-2.65.44-.73-.11-1.31-.63-1.82-1.12-1.95-1.87-5.24-4.1-7.81-2.19-.66.89-1.59,2.04-2.72,3.06-1.45,1.33-5.03,3.33-6.23,3.75-1.22.42-4.08.21-4.17,1.36-.09,1.14.79,2.19,2.44,2.27,1.65.09,24.56.22,25.69.05.84-.13-.05-4.97-.81-8.19-.64.2-1.27.4-1.92.57Z"/>
        <path class="cls-26" d="m231.23,215.94c1.65.09,24.56.22,25.69.05.37-.06.4-1.03.26-2.37-3.15.3-5.44.78-6.25,1.21-.86.46-2.62.81-7.89.76-4.61-.05-11.7-.22-13.53-.26.41.34.99.57,1.72.61Z"/>
      </g>
      <g>
        <path class="cls-47" d="m214.36,203.79s-3.75,5.84-5.68,7.35c-1.93,1.5-3.44,2.5-3.29,3.94.14,1.43,11.81.93,15.67.86,3.86-.07,5.15,0,5.65-.57s.86-4.15,0-7.23c-.86-3.08-8.61-8.82-12.36-4.34Z"/>
        <path class="cls-26" d="m221.06,215.93c3.86-.07,5.15,0,5.65-.57.21-.24.4-1.04.48-2.1-1.26.39-1.96,1.62-2.33,1.83-.43.24-4.07.49-11.25.43-4.74-.04-7.15-.4-8.23-.64,0,.07,0,.13,0,.2.14,1.43,11.81.93,15.67.86Z"/>
      </g>
      <g>
        <path class="cls-23" d="m258.63,109.23s3.38-.25,3.38-.53c0-.41-4.28-3.04-4.28-3.04l.89,3.57Z"/>
        <path class="cls-10" d="m234.41,90.84c-5.27,1.06-15.41,16.05-15.41,16.05,0,0,1.4,20.91,4.54,40.28.49,3.02,2.06,11.02,2.06,11.02,0,0-6.1,32.69-11.23,45.59,0,0,2.48-1.96,4.84-.24,1.53,1.12,3.5,3.53,5.44,5.56,1.65,1.73,3.3,3.05,3.51,2.74.44-.67,8.28-20.96,8.28-20.96,0,0,3.52,14.93,4.22,16.18,2.13-3.2,5.57,3.36,16.02,3.36.59,0-9.21-52.27-9.33-53.68-.12-1.41,12.8-37.36,13.39-49.34.59-11.98-21.06-17.62-26.33-16.56Z"/>
        <path class="cls-27" d="m225.96,132.28c-.54-4.24-1.08-8.48-1.61-12.72-.3-2.39-.61-4.79-.91-7.19-.04-.29-.49-.19-.45.1.54,4.24,1.08,8.48,1.61,12.72.54,4.24,1.08,8.48,1.61,12.72.3,2.4.61,4.79.91,7.19.04.29.49.19.45-.1-.54-4.24-1.08-8.48-1.61-12.72Z"/>
        <path class="cls-27" d="m236.88,192.76l11.48-30.06c-.56-3.55-.99-5.69-1.01-5.96l-10.91,34.15s.34,1.25.44,1.87Z"/>
        <path class="cls-27" d="m257.62,118.82c-2.42-1.99-4.16-4.75-4.93-7.79-.22-.86-.36-1.74-.41-2.63-.03-.44-.72-.44-.69,0,.2,3.27,1.47,6.41,3.55,8.93.6.72,1.26,1.38,1.99,1.98.34.28.83-.21.49-.49Z"/>
        <path class="cls-27" d="m241.19,110.19c-.86,5.77-1.89,11.51-3.04,17.23-1.15,5.69-2.43,11.35-3.8,16.99-1.38,5.67-2.86,11.32-4.41,16.95-1.54,5.61-3.15,11.2-4.79,16.77-1.65,5.6-3.33,11.2-5.02,16.79-.21.7-.42,1.4-.63,2.1-.09.28.36.41.44.12,1.69-5.59,3.37-11.19,5.03-16.79,1.65-5.58,3.27-11.16,4.82-16.76,1.56-5.63,3.06-11.27,4.47-16.94,1.4-5.63,2.71-11.29,3.89-16.98,1.19-5.71,2.25-11.45,3.15-17.21.11-.72.22-1.44.33-2.16.04-.29-.4-.41-.44-.12Z"/>
        <path class="cls-27" d="m241.1,204.65c-.95-3.83-1.84-7.67-2.65-11.53-.23-1.09-.46-2.18-.68-3.27-.06-.29-.5-.16-.44.13.78,3.87,1.63,7.72,2.54,11.56.26,1.08.52,2.17.79,3.25.07.29.51.16.44-.13Z"/>
        <path class="cls-54" d="m233.73,116.27c-1.83,6.95-3.36,13.98-4.77,21.03-1.4,7.04-2.68,14.11-3.98,21.17-.74,4.03-1.82,7.89-2.56,11.91-.08.43.58.62.67.18,1.32-7.16,2.97-14.16,4.3-21.32,1.3-7.03,2.65-14.06,4.19-21.05.87-3.93,1.8-7.85,2.83-11.75.11-.43-.55-.61-.67-.18Z"/>
      </g>
      <g>
        <path class="cls-32" d="m241.14,39.57c2.73.87,5.99-.15,8.03-2.19-.14-.1-.26-.2-.35-.3-.56-.6-.19-9.54-.19-9.54h-6.22s-.21,8.5-2.6,10.46c-.19.16-.39.31-.59.45.56.5,1.21.88,1.93,1.11Z"/>
        <path class="cls-23" d="m244.16,37.18c.85-.31,1.59-.96,2.1-1.7.6-.87.98-1.84,1.29-2.85.5-1.67.78-3.38,1.08-5.09h-6.22s-.17,6.83-1.93,9.66c1.22.3,2.5.41,3.68-.02Z"/>
        <path class="cls-13" d="m251.45,16.75c-.71-1.03-1.49-1.27-2.04-1.29.04-.05.08-.1.12-.14.08-.09.16-.17.25-.25.04-.04.09-.08.13-.11,0,0,.01,0,.01-.01,0,0,0,0,.02-.01.03-.02.05-.04.08-.06.1-.07.2-.13.3-.18.06-.03.11-.06.17-.08,0,0,.01,0,.02,0,0,0,0,0,.02,0,.03-.01.06-.02.09-.03.17-.06.3-.24.24-.42-.05-.17-.24-.31-.42-.24-.8.29-1.46.87-1.87,1.6-.37-.58-2.32-3.45-4.96-3.65-2.94-.22-2.75,1.08-2.75,1.08-3.32-.43-6.06.5-7.42,2.38-1.32,1.81-.57,3.34-.84,3.96-1,.71-1.67,1.83-1.8,3.06-.15,1.42.49,2.88,1.61,3.75.35.27.84-.21.49-.49-.97-.76-1.52-1.95-1.42-3.18,0-.11.03-.22.05-.32.03.32.11.68.24,1.08,1.01,3.17,3.57,3.85,3.57,3.85,3.55,6.76,13.1,4.88,13.89,3.87.79-1.01,1.77-2.64,2.36-4.19,1.26-3.29,1.17-8.07-.13-9.95Z"/>
        <path class="cls-31" d="m250.54,21.45c-1.21-.55-1.94.92-2.19,1.85-.05.17-.95.2-1.1.11-.32-.18-.95-1.69-1.52-2.4-1.52.51-3.24.3-4.76-.06-1.05-.25-2.07-.6-3.08-.99-1.1.49-2.26,1.27-3.09.67-.19.42-.34.85-.46,1.29.15,4.51,2.49,12.3,4.08,13.4,2.42,1.68,8.24-.51,9.25-1.65,1.28-1.43,1.5-3.96,1.33-6.58.63.63,1.44.64,2.09-1.04.7-1.81.72-4.01-.56-4.59Z"/>
        <path class="cls-42" d="m241.09,31.47s-.05-.04-.07-.06c-.06-.03-.12-.05-.18-.05l-.6-.04c-.09,0-.2.05-.26.11s-.11.17-.11.26c0,.09.04.19.11.26.02.02.05.04.07.06.06.03.12.05.18.05l.6.04c.09,0,.2-.05.26-.11s.11-.17.11-.26c0-.09-.04-.19-.11-.26Z"/>
        <path class="cls-23" d="m236.9,28.87c0-.06-.01-.11-.02-.17-.01-.06-.03-.11-.06-.16-.02-.05-.06-.09-.09-.13-.03-.03-.06-.05-.1-.07-.03-.01-.06-.03-.09-.04,0,0-.02,0-.03,0-.08-.02-.16-.02-.24,0-.08.02-.15.06-.21.12-.04.04-.08.08-.11.13-.05.09-.06.16-.07.26,0,.07,0,.14.02.21,0,0,0,0,0,0,0,0,0,.01,0,.02.01.09.02.15.06.23.02.03.04.06.07.09.03.03.06.06.1.08.23.15.58.03.7-.21.04-.09.06-.16.07-.26,0-.03,0-.07,0-.1Z"/>
        <path class="cls-23" d="m244.08,26.91c-.05-.14-.14-.26-.27-.33-.08-.04-.15-.06-.24-.07-.09,0-.18.02-.26.06-.08.04-.16.12-.21.2-.01,0-.02.02-.04.03-.02.02-.04.05-.05.07-.03.05-.05.11-.05.17,0,.1,0,.22.04.31.04.11.1.23.19.31.07.06.12.1.21.13.09.03.18.03.27,0,.14-.03.25-.13.32-.25.03-.05.05-.1.07-.15.01-.03.02-.07.03-.1.02-.13.03-.27-.01-.39Z"/>
        <path class="cls-37" d="m243.22,33.15c-.14-.13-.33-.12-.49,0-.26.2-.63.57-1.89.69-.3.03-.37.1-.36.28,0,.19.19.25.42.25.86,0,1.69-.15,2.32-.73.13-.12.13-.36,0-.49Z"/>
        <path class="cls-13" d="m244.83,24.27c-.82-.23-1.67-.36-2.52-.4-.19,0-.35.16-.35.35,0,.19.16.34.35.35.79.03,1.57.16,2.34.37.43.12.61-.55.18-.67Z"/>
        <path class="cls-13" d="m236.3,25.28c-.07-.06-.15-.11-.24-.1-.1,0-.17.04-.24.1,0,0,0,0,.02-.01-.01,0-.02.02-.04.03-.02.02-.05.04-.07.05-.05.04-.1.07-.14.11-.09.07-.19.14-.28.2-.19.14-.39.27-.59.39-.15.1-.23.31-.12.47.1.15.31.23.47.12.43-.28.84-.57,1.24-.88.06-.05.1-.17.1-.24,0-.08-.04-.19-.1-.24Z"/>
      </g>
      <g>
        <path class="cls-51" d="m245.34,39.12c-1.1.28-2.24.31-3.35.07-.86-.19-1.66-.55-2.4-1.01-.98.75-2.1,1.32-2.1,1.32,0,0-1.24,14.16-.81,20.09.43,5.93,1.68,24.9,2.15,24.32.47-.59,5.67-17.91,6.91-22.8,1.24-4.89,5.49-22.55,5.49-22.55,0,0-1.57-.76-2.25-1.35-1.07.88-2.3,1.56-3.64,1.91Z"/>
        <path class="cls-27" d="m241.59,42.7s.38.85,1.12,1.44c.2.16-7.34,39.74-7.73,43.76-.39,4.03,2.46,8.16,3.46,7.78,1-.38,6.2-7.66,6.2-7.66,0,0-.65-43.54-.73-43.78-.08-.23.89-1.05.89-1.46s-1.41-2.75-1.64-2.67-1.57,2.59-1.57,2.59Z"/>
        <path class="cls-35" d="m251.95,39.82c-1.23,1.26-2.87,2.12-4.35,3.05-.48.3-.96.6-1.44.9-.06.04-.13.08-.19.12,0,0-.01,0-.02,0-.05-.08-.11-.18-.12-.19-.16-.26-.32-.52-.48-.77-.59-.95-1.19-1.91-1.78-2.86.03-.05.06-.1.09-.14.23-.38-.36-.73-.6-.35l-1.25,2.03c-.2.32-.4.65-.59.97-.1.16-.2.32-.3.48-.07.12-.18.42-.3.48-.12.07-.61-.43-.73-.53-.29-.24-.58-.49-.86-.74-.57-.5-1.12-1.01-1.65-1.54-.32-.31-.81.18-.49.49.61.6,1.25,1.19,1.9,1.75.33.28.66.56.99.83.28.23.6.55,1,.44.36-.1.54-.5.72-.79.24-.39.47-.77.71-1.16.32-.52.64-1.05.96-1.57.44.7.88,1.41,1.32,2.11.26.42.52.84.78,1.26.22.34.45.7.91.46.41-.21.8-.5,1.2-.75.42-.26.83-.52,1.25-.78.74-.47,1.5-.92,2.22-1.42.39-.27.77-.56,1.12-.87,0-.31,0-.62-.01-.93Z"/>
      </g>
      <g>
        <path class="cls-48" d="m220.47,84.44s.46-29.67,2.16-34.37,14.86-10.57,14.86-10.57c0,0,.11,36.89,1.4,43.23,0,0,11.75-43.11,12.33-44.17,0,0,10.69,4.23,13.51,7.17,2.82,2.94,7.87,24.43,7.28,30.43-.59,5.99-5.4,6.93-9.75,5.17,0,0-.25,25.8-.25,27.38,0,0-1.72-1.31-8.7-2.65-5.27-1.01-9.49-1.09-11.9-1.21-.64-.03-1.19-.48-1.34-1.11l-1.72-6.94-2.57,7.07c-.26.7-.89,1.2-1.64,1.28-2.95.3-12.25.83-15.15,1.76l1.47-22.45Z"/>
        <path class="cls-4" d="m267.28,67.66c-2.03-1.46-4.1-2.87-6.19-4.24.11-.05.21-.14.23-.3.25-2.12.38-4.25.4-6.38,0-.44-.69-.44-.69,0-.02,2.13-.16,4.26-.4,6.37-2.54-1.64-5.12-3.22-7.74-4.72-.72-.41-1.44-.82-2.17-1.22.98-1.77,1.94-3.55,2.88-5.35.25-.48.5-.97.75-1.46.21-.42.55-.9.59-1.37.04-.49-.28-.9-.52-1.29-.29-.47-.58-.94-.87-1.41l-1.05-1.71c.43-.32.87-.64,1.3-.96.22-.17.44-.33.49-.62.06-.32-.1-.66-.2-.96-.31-.9-.62-1.8-.93-2.69-.32-.13-.6-.25-.85-.36.31.9.62,1.8.93,2.7.1.29.2.57.3.86.04.12.11.26.04.37-.06.1-.22.17-.31.24-.38.28-.76.56-1.13.84-.18-.29-.35-.58-.53-.86-.23-.38-.83-.03-.6.35.22.35,1.62,2.62,1.62,2.62.27.44.54.88.81,1.31.25.41.59.83.78,1.28.09.23,0,.41-.1.61-.12.24-.24.47-.36.71-.23.45-.46.91-.69,1.36-.47.9-.94,1.8-1.42,2.7-.5.93-1,1.85-1.52,2.77-.5-.27-1-.55-1.5-.81-.39-.21-.74.39-.35.6,5.04,2.69,9.93,5.64,14.67,8.83,1.35.91,2.68,1.84,4,2.79.36.26.71-.34.35-.6Z"/>
        <path class="cls-4" d="m238.43,83.76c-1.14-5.12-1.8-10.33-2.47-15.53-.66-5.15-1.33-10.31-2.46-15.38-.08-.36-.16-.72-.25-1.08-.08-.34-.19-.69-.2-1.04-.02-.65.49-1.27.82-1.79.76-1.19,1.6-2.34,2.5-3.43.28-.34-.2-.83-.49-.49-.13.15-.25.31-.38.47-.36-.37-.72-.74-1.08-1.11-.09-.1-.2-.19-.28-.29-.09-.11-.07-.18-.03-.31.09-.29.19-.57.29-.85.31-.85.68-1.68,1.09-2.48-.31.15-.65.32-1.01.51-.32.68-.6,1.38-.85,2.09-.1.28-.24.58-.25.88-.01.3.13.51.33.72.45.48.91.94,1.36,1.4-.52.67-1.02,1.36-1.49,2.07-.34.51-.69,1.03-.97,1.58-.28.56-.3,1.09-.17,1.7.29,1.31.6,2.61.86,3.92.26,1.3.49,2.61.7,3.92.85,5.26,1.41,10.57,2.18,15.85.43,2.97.93,5.94,1.58,8.87.1.43.76.25.67-.18Z"/>
        <path class="cls-4" d="m245.65,68.37c-.2-.06-.35.07-.42.24-1.82,4.33-3.56,8.7-5.22,13.1-.47,1.23-.93,2.47-1.38,3.71-.03.05-.05.1-.05.17-.06,3.49-.19,6.98-.38,10.47-.02.44.67.44.69,0,.19-3.46.32-6.93.38-10.39,0,0,0,0,0,0,1.62-4.41,3.31-8.8,5.08-13.15.51-1.24,1.02-2.48,1.54-3.72.07-.17-.08-.38-.24-.42Z"/>
        <path class="cls-4" d="m258.77,88.69c-3.15-.98-6.32-1.89-9.51-2.73-.43-.11-.61.55-.18.67,3.19.84,6.36,1.75,9.51,2.73.43.13.61-.53.18-.67Z"/>
        <path class="cls-4" d="m227.99,85.56c-2.34.89-4.75,1.59-7.2,2.11.04-.42.07-.85.11-1.27.59-6.66,1.26-13.32,2.02-19.97.42-3.73.87-7.46,1.34-11.18.06-.44-.64-.44-.69,0-.84,6.62-1.6,13.25-2.28,19.88-.68,6.65-1.28,13.32-1.81,19.99-.29,3.74-.56,7.49-.81,11.24-.03.44.66.44.69,0,.39-5.99.85-11.98,1.37-17.96,2.54-.52,5.03-1.24,7.45-2.16.41-.16.23-.82-.18-.67Z"/>
        <path class="cls-54" d="m264.85,82.31c-2.96-1.2-5.62-3.03-8.09-5.04-2.5-2.03-4.84-4.25-7.3-6.33-1.39-1.18-2.81-2.31-4.31-3.33-.37-.25-.71.35-.35.6,2.69,1.84,5.11,4.02,7.54,6.17,2.41,2.14,4.84,4.29,7.54,6.06,1.51,1,3.11,1.86,4.79,2.54.41.17.59-.5.18-.67Z"/>
        <g>
          <path class="cls-23" d="m244.8,62.29s-.82,4.33.12,4.7c.95.37,2.32-2.06,2.63-2.72.32-.67-2.76-1.98-2.76-1.98Z"/>
          <path class="cls-32" d="m245.39,55.68c-2.42-.33-5.4-.7-7.16-.37s-1.65.81-2.5.88c-.84.07-1.87.88-2.28,1.28-.4.4-1.14,1.58-1.36,2.46-.22.88-.46,1.02-.82,1.42-.36.4.64,3.39.64,3.39,0,0-.46,1.14-.84,1.54-.37.4.03,1.03.95,1.1.92.07,1.4-.29,1.4-.29,0,0,.55,1.03,1.32.81.77-.22.68-1.32.68-1.32,0,0,.64.07,1-.24s.66-.57.66-.57c0,0,.51.15.73-.04.22-.18,0-.77,0-.77,0,0,.56-.42.77-.65.22-.23,2.97-.19,4.22-.74,1.25-.55,4.74.69,4.74.69,0,0,1.48-2.72,1.24-5.25-.21-2.19-.99-3.01-3.41-3.34Zm-5.61,5.87c-.8.73-1.55.95-1.55.95v-1.65c.88-.62,2.35-.04,1.55.7Z"/>
          <path class="cls-50" d="m248.8,59.02c-.2-2.08-.91-2.92-3.05-3.28.7,1.19.85,2.63.74,4.01-.12,1.38-.55,2.67-1.15,3.9,1.16.25,2.22.62,2.22.62,0,0,1.48-2.72,1.24-5.25Z"/>
          <path class="cls-43" d="m239.24,58.69c-.28.33-.56.67-.83,1-.26.31-.46.62-.54,1.03-.16.81-.1,1.68.11,2.48.09.35.29.77.16,1.14-.11.32-.39.4-.59.12-.18-.25-.28-.56-.45-.82-.19-.29-.41-.54-.61-.82-.25-.36-.41-.72-.39-1.17.02-.48.21-.94.38-1.38.15-.39-.47-.56-.62-.17-.33.86-.6,1.76-.18,2.64.18.37.45.68.69,1,.22.31.36.64.55.97.16.27.39.51.7.58.06.12,0,.28-.14.3-.1.02-.17-.05-.25-.08-.12-.06-.25-.08-.38-.05-.24.06-.34.28-.43.48-.06.14-.15.23-.31.26-.45.07-.8-.39-1.05-.69-.39-.46-.78-.92-1.16-1.38-.27-.32-.72.14-.46.46.47.56.92,1.16,1.43,1.68.03.03.06.06.09.09.28.74.09,1.19-.33,1.28-.18.04-.28-.06-.39-.19-.16-.18-.31-.38-.46-.57-.58-.76-1.3-1.35-1.74-2.2-.41-.79-.63-.37-.09.58.28.51.6,1,.93,1.48.31.44.64.97,1.05,1.32.39.34.98.29,1.36-.06.35-.33.41-.79.32-1.24.25.09.53.11.8.02.26-.09.46-.27.57-.52,0-.02.04-.08.06-.13.11.07.26.1.38.1.6.02.96-.54.84-1.07.16-.1.29-.23.38-.4.22-.38.19-.82.09-1.22-.12-.49-.26-.97-.3-1.48-.03-.49-.06-1.12.18-1.57.13-.24.33-.45.5-.66.19-.23.38-.46.57-.69.26-.32-.19-.78-.46-.46Z"/>
          <path class="cls-11" d="m242.18,55.3s-.2-.8,1.09-.85c.93-.04,2.73.26,3,.47.69.54.59,1.08.59,1.08l-1.47-.32s.77,1.35.64,3.55c-.13,2.19-1.11,4.33-1.11,4.33l-1.46-.12s.66-.96,1.01-2.85c.61-3.27-.38-5.09-.38-5.09l-1.91-.2Z"/>
        </g>
      </g>
    </g>
  </g>
</svg>