<?xml version="1.0" encoding="UTF-8"?>
<svg id="Layer_2" data-name="Layer 2" xmlns="http://www.w3.org/2000/svg" viewBox="0 0 237.82 231.02">
  <defs>
    <style>
      .cls-1 {
        opacity: .3;
      }

      .cls-2, .cls-3, .cls-4, .cls-5, .cls-6, .cls-7, .cls-8, .cls-9, .cls-10, .cls-11, .cls-12, .cls-13, .cls-14, .cls-15, .cls-16 {
        stroke-width: 0px;
      }

      .cls-3 {
        fill: #455b64;
      }

      .cls-4 {
        fill: #263238;
      }

      .cls-5 {
        fill: #6f453a;
      }

      .cls-6 {
        fill: #5794c9;
      }

      .cls-7 {
        fill: #243873;
      }

      .cls-8 {
        fill: #e0e0e0;
      }

      .cls-9 {
        fill: #d53a81;
      }

      .cls-10 {
        fill: #af7462;
      }

      .cls-11 {
        fill: #fbbd9d;
      }

      .cls-12 {
        fill: #f3725f;
      }

      .cls-13 {
        fill: #fff;
      }

      .cls-14 {
        fill: #ec996f;
      }

      .cls-15 {
        fill: #ebebeb;
      }

      .cls-16 {
        fill: #04703c;
      }
    </style>
  </defs>
  <g id="Layer_1-2" data-name="Layer 1">
    <circle class="cls-6" cx="115.51" cy="115.51" r="115.51" transform="translate(-47.85 115.51) rotate(-45)"/>
    <g>
      <g>
        <g>
          <path class="cls-8" d="m220.66,130.35h-82.63c-2.59,0-4.7,2.1-4.7,4.7v30.46h-2.06c-.96,0-1.9-.24-2.76-.66-2.26-1.09-4.9-1.54-7.67-1.07-5.51.94-9.81,5.51-10.42,11.07-.84,7.65,5.13,14.12,12.61,14.12,1.82,0,3.54-.39,5.1-1.08.81-.36,1.67-.56,2.56-.56h2.65v29.71c0,2.59,2.1,4.7,4.7,4.7h82.63c2.11,0,3.83-1.71,3.83-3.83v-83.72c0-2.11-1.71-3.83-3.83-3.83Z"/>
          <path class="cls-4" d="m220.66,130.35s.09,0,.26,0c.09,0,.19.01.32.03.13.01.27.04.44.09.64.16,1.65.63,2.33,1.8.33.57.54,1.32.51,2.14,0,.82,0,1.71,0,2.67,0,1.93,0,4.16.01,6.67,0,10.05.02,24.58.04,42.53,0,8.98,0,18.81.01,29.37,0,.66,0,1.32,0,1.99,0,.33-.02.68-.08,1.02-.08.33-.17.67-.34.97-.6,1.24-1.92,2.13-3.32,2.17-2.73,0-5.5,0-8.32.01-5.62,0-11.41,0-17.35,0-11.87,0-24.33,0-37.25,0-6.46,0-13.03,0-19.7,0-.84.03-1.71-.16-2.47-.57-.75-.41-1.41-1.01-1.85-1.75-.46-.73-.69-1.6-.7-2.46,0-.84,0-1.69,0-2.53,0-3.38,0-6.79,0-10.21,0-5.73,0-11.41,0-17.01l.12.12c-.67,0-1.34,0-2.01,0-.33,0-.67,0-1,.01-.33.02-.65.07-.97.15-.32.07-.63.17-.94.3-.3.12-.61.27-.93.38-.63.24-1.28.42-1.93.55-.66.13-1.32.21-1.99.24-.33.02-.67.01-1-.01-.33-.02-.67-.03-1-.06-1.32-.17-2.61-.53-3.83-1.05-1.2-.57-2.31-1.3-3.3-2.16-.96-.9-1.79-1.92-2.47-3.04-.64-1.14-1.13-2.35-1.42-3.62-.08-.31-.11-.64-.17-.96l-.08-.48c-.01-.16-.02-.32-.03-.48l-.05-.97.05-.96c.17-2.57,1.18-5.04,2.76-7.01,1.59-1.97,3.74-3.44,6.11-4.19,2.37-.76,4.93-.79,7.28-.13.59.16,1.16.37,1.72.61.56.26,1.08.51,1.66.65.57.15,1.15.21,1.75.19.6,0,1.19,0,1.78,0l-.11.11c0-8.86,0-17.38,0-25.52,0-1.02,0-2.03,0-3.03,0-.5,0-1,0-1.5-.01-.49.02-1.02.13-1.51.23-.99.79-1.89,1.55-2.54.38-.32.81-.59,1.27-.79.46-.19.95-.3,1.44-.35,3.88-.04,7.64,0,11.3-.02,14.62,0,27.46.02,38.09.03,10.63.01,19.04.02,24.8.03,2.88,0,5.09.01,6.59.02.75,0,1.31,0,1.7,0,.38,0,.57,0,.57,0,0,0-.19,0-.57,0-.38,0-.95,0-1.7,0-1.5,0-3.71,0-6.59.02-5.76,0-14.18.02-24.8.03-10.63,0-23.48.02-38.09.03-3.65.01-7.43-.02-11.28.03-.47.05-.94.16-1.38.34-.44.19-.85.44-1.21.75-.73.62-1.26,1.48-1.48,2.43-.11.48-.14.96-.13,1.46,0,.5,0,1,0,1.5,0,1.01,0,2.02,0,3.03,0,8.14,0,16.66,0,25.52v.11s-.11,0-.11,0c-.59,0-1.19,0-1.78,0-.6.02-1.22-.04-1.8-.2-.59-.14-1.16-.41-1.69-.66-.55-.24-1.11-.44-1.69-.6-2.31-.64-4.83-.61-7.15.13-2.33.73-4.44,2.18-6,4.12-1.55,1.94-2.54,4.36-2.71,6.88l-.05.95.05.95c0,.16.01.32.03.47l.08.47c.06.31.09.63.16.94.29,1.24.78,2.43,1.4,3.55.67,1.09,1.48,2.1,2.43,2.98.97.85,2.06,1.57,3.23,2.12,1.19.51,2.46.87,3.75,1.03.32.03.65.04.98.06.33.02.65.03.98.01.66-.03,1.31-.11,1.95-.24.64-.13,1.28-.31,1.9-.54.31-.11.61-.25.92-.38.31-.13.64-.23.97-.31.33-.08.67-.13,1.01-.15.34-.02.68,0,1.01-.01.67,0,1.34,0,2.01,0h.12v.12c0,5.59,0,11.27,0,17.01,0,3.42,0,6.83,0,10.21,0,.85,0,1.69,0,2.53.02.82.23,1.64.67,2.33.42.7,1.04,1.27,1.76,1.66.72.38,1.53.56,2.36.54,6.67,0,13.24,0,19.7,0,12.92,0,25.38,0,37.25,0,5.94,0,11.72,0,17.35,0,2.81,0,5.58,0,8.31,0,1.34-.04,2.58-.88,3.15-2.06.15-.29.24-.61.32-.92.06-.32.08-.64.07-.98,0-.67,0-1.33,0-1.99,0-10.56.01-20.39.01-29.37.02-17.96.03-32.49.04-42.53,0-2.51,0-4.74.01-6.67,0-.97,0-1.86,0-2.67.03-.81-.17-1.55-.49-2.12-.67-1.16-1.66-1.63-2.29-1.8-.16-.05-.31-.08-.43-.09-.13-.02-.23-.04-.32-.04-.17-.01-.26-.02-.26-.02Z"/>
        </g>
        <g>
          <path class="cls-4" d="m200.51,181.21c-.2-5.62-.41-11.28-1.49-16.8-1.08-5.52-2.44-10.91-5.92-15.35l-32.55,1.73c-1.26,4.99-2.52,10.1-2,15.21.51,4.96,2.69,9.76,2.33,14.74-.25,3.52-1.74,6.8-2.85,10.15-1.1,3.35-1.81,7.07-.5,10.34.33.83.81,1.63,1.56,2.11.92.59,2.08.62,3.18.62,13.01.02,26.03-.28,39.03-.89-.26-7.29-.52-14.58-.79-21.87Z"/>
          <g>
            <path class="cls-4" d="m195.55,163.04c.2,6.93-2.76,13.88-7.89,18.56-1.18-3.39-2.35-6.77-3.53-10.16"/>
            <path class="cls-4" d="m168.95,142.83c3.03-1.65,6.69-1.88,10.07-1.21,3.38.67,6.54,2.2,9.53,3.92,1.68.96,3.35,2.02,4.55,3.53,2.2,2.75,4.37,7.27,4.59,10.78.17,2.84-.92,9.94-2.13,12.51-1.11,2.36-6.29,4.16-8.84,4.75l-23.46-27.12c.83-3.01,2.93-5.66,5.69-7.15Z"/>
            <path class="cls-4" d="m164.91,146.48l5.62-1c-3.07,7.28-3.91,23.92-5.67,31.61-2.07-2.99-6.89-12.1-6.63-15.72.26-3.62,0-15.51,6.67-14.9Z"/>
            <path class="cls-11" d="m191.57,158.57c-.25-4.17-3.1-7.72-7.17-8.75l-13.01-3.3c-5.6-.6-9.33,6.24-9.7,11.83-.41,6.2-.66,12.75.07,17.38,1.47,9.31,8.64,10.51,8.64,10.51,0-.01,0,2.15,0,4.87l.15.34c3.33,7.8,14.32,8.16,18.15.59h0l2.89-33.33c0-.16-.02.12-.03-.14Z"/>
            <path class="cls-4" d="m163.49,165.33c-.02.63.49,1.17,1.16,1.21.66.04,1.22-.44,1.24-1.07.02-.63-.49-1.17-1.15-1.21-.66-.04-1.22.44-1.24,1.07Z"/>
            <path class="cls-4" d="m163.1,161.99c.15.16,1.06-.51,2.35-.51,1.29-.01,2.24.65,2.38.49.07-.07-.08-.35-.49-.65-.41-.3-1.1-.59-1.9-.59-.81,0-1.48.3-1.87.6-.4.3-.53.58-.46.65Z"/>
            <path class="cls-4" d="m175.25,165.16c-.02.63.49,1.17,1.16,1.21.66.04,1.22-.44,1.24-1.07.02-.63-.49-1.17-1.15-1.21-.66-.04-1.22.44-1.24,1.07Z"/>
            <path class="cls-4" d="m175.37,161.99c.15.16,1.06-.51,2.35-.51,1.29-.01,2.24.65,2.38.49.07-.07-.08-.35-.49-.65-.41-.3-1.1-.59-1.9-.59-.8,0-1.48.3-1.87.6-.4.3-.53.58-.46.65Z"/>
            <path class="cls-4" d="m171.33,172.08c0-.07-.8-.21-2.1-.38-.33-.03-.64-.1-.7-.32-.08-.24.06-.59.22-.97.31-.79.64-1.62.98-2.5,1.36-3.55,2.35-6.48,2.21-6.53-.14-.05-1.37,2.78-2.73,6.34-.33.88-.64,1.71-.94,2.51-.13.37-.34.8-.17,1.29.09.25.33.42.54.48.21.06.4.07.56.08,1.31.07,2.12.08,2.13,0Z"/>
            <path class="cls-14" d="m182.83,182.93s-3.05,6.39-12.42,5.5v-2.19s6.17.4,12.42-3.31Z"/>
            <path class="cls-4" d="m175.78,157.35c.13.35,1.42.19,2.93.37,1.52.15,2.74.6,2.94.29.09-.15-.12-.48-.62-.82-.49-.34-1.27-.66-2.18-.76-.91-.1-1.74.04-2.3.26-.56.22-.84.5-.78.66Z"/>
            <path class="cls-4" d="m163.52,158.06c.23.29,1.12,0,2.19-.02,1.07-.05,1.98.2,2.19-.1.09-.15-.05-.44-.45-.72-.39-.28-1.04-.5-1.78-.48-.74.02-1.37.28-1.75.58-.38.3-.5.6-.4.74Z"/>
            <path class="cls-4" d="m164.24,149.84c.57-1.4,2.12-2.24,3.64-2.32,1.52-.08,3,.5,4.32,1.25,5.58,3.2,8.44,10.94,13.95,14.26,1.36.82,3.12.07,4.27,1.15,1.15,1.08,1.9,2.81,1.26,4.25.74-1.01,1.49-2.04,1.91-3.21.42-1.18.47-2.55-.15-3.63-.48-.82-1.32-1.45-1.55-2.37-.2-.81.12-1.66.08-2.49-.04-.85-.44-1.64-.86-2.37-2.16-3.79-5.13-7.23-8.95-9.36-2.5-1.39-5.36-2.21-8.22-2.11-2.86.1-5.72,1.14-7.82,3.09-1.23,1.14-2.53,2.32-1.89,3.87"/>
            <path class="cls-11" d="m190.29,165.34c.1-.27,4.98-2.02,5.05,3.14.06,5.01-5.03,4.03-5.04,3.88,0-.14-.01-7.02-.01-7.02Z"/>
            <path class="cls-14" d="m191.84,170.45s.09.06.24.13c.15.06.39.11.66,0,.53-.2.97-1.04.99-1.95,0-.46-.09-.89-.26-1.25-.16-.37-.4-.62-.67-.66-.27-.06-.46.1-.52.24-.07.14-.03.24-.06.25-.01.01-.11-.08-.07-.29.02-.1.08-.22.2-.32.12-.1.3-.15.48-.13.39.02.74.38.93.77.2.39.33.88.32,1.39-.02,1.01-.53,1.96-1.26,2.18-.35.1-.65,0-.8-.13-.16-.12-.18-.23-.17-.24Z"/>
            <path class="cls-3" d="m192.29,162.76s-.11-.05-.3-.17c-.19-.12-.49-.28-.85-.53-.71-.51-1.68-1.31-2.72-2.46-1.05-1.15-2.14-2.64-3.33-4.3-1.19-1.66-2.5-3.49-4.16-5.15-.85-.81-1.74-1.54-2.69-2.11-.94-.58-1.93-1-2.9-1.31-1.94-.62-3.81-.76-5.34-.65-1.54.1-2.76.42-3.58.7-.41.13-.72.26-.93.34-.21.08-.33.12-.33.12,0,0,.1-.06.31-.16.21-.09.51-.25.92-.39.81-.3,2.04-.66,3.6-.77,1.55-.13,3.44,0,5.42.61.99.31,1.99.73,2.95,1.32.96.58,1.87,1.32,2.73,2.14,1.69,1.68,2.99,3.53,4.17,5.19,1.18,1.67,2.25,3.16,3.28,4.31,1.02,1.16,1.97,1.97,2.65,2.5.34.26.63.43.82.57.19.13.28.2.28.21Z"/>
            <path class="cls-4" d="m191.02,164.18c.08,1.37.14,2.82-.49,4.03-.64,1.22-2.24,2.04-3.44,1.36-.98-.56-1.27-1.8-1.44-2.91-.48-3.19-.7-6.42-1.2-9.61l6.57,7.12Z"/>
            <path class="cls-3" d="m165.48,147.46s.45-.08,1.25-.11c.8-.02,1.99.08,3.34.61.67.26,1.38.6,2.09,1.07.71.46,1.43,1.02,2.16,1.64,1.45,1.24,2.95,2.74,4.22,4.53.64.89,1.21,1.81,1.82,2.67.61.85,1.29,1.63,2.02,2.26,1.47,1.27,2.98,2.15,4.26,2.83,1.29.68,2.37,1.15,3.11,1.48.35.15.64.27.86.37.2.08.3.12.31.11,0,0-.09-.06-.29-.16-.22-.11-.5-.24-.84-.41-.73-.36-1.79-.86-3.06-1.56-1.27-.7-2.75-1.6-4.19-2.85-.71-.63-1.37-1.38-1.97-2.23-.6-.84-1.17-1.76-1.82-2.67-1.3-1.81-2.82-3.32-4.29-4.56-.74-.62-1.47-1.17-2.2-1.64-.73-.47-1.46-.81-2.15-1.06-1.38-.51-2.6-.59-3.41-.53-.41.03-.72.08-.93.13-.21.05-.32.08-.32.09Z"/>
          </g>
          <g>
            <path class="cls-11" d="m205.75,207.62l14.97,15.95c2.47,2.63,4.26,5.04,7.76,5.95,2.45.64,6.3.31,7.57-1.31,1.74-2.22,2.57-6.76.66-9.69-1.91-2.93-15.31-15.97-15.31-15.97l-15.66,5.08"/>
            <g>
              <path class="cls-9" d="m226.49,206.23s-15.56-18.45-21.47-18.45c0,0-3.74,6.54-3.86,10.11-.12,3.57,11.97,20.27,11.97,20.27l13.37-11.93Z"/>
              <path class="cls-9" d="m209.92,212.23l-4.94-24.5-16-.17c-5.89,6.66-11.91,11.44-18.77,3.77l-16.85,6.62,4.38,23.79,50.81-.03c1.98-6.52,1.37-9.49,1.37-9.49Z"/>
              <path class="cls-9" d="m142.03,221.73c0-.98,5.64-21.42,11.33-23.76l4.4,6.75,1.24,17.03-16.97-.02Z"/>
            </g>
            <path class="cls-4" d="m213.12,218.16s-.16-.15-.42-.46c-.26-.31-.62-.76-1.05-1.32-.88-1.12-2.05-2.71-3.35-4.45-1.3-1.74-2.51-3.29-3.41-4.39-.45-.55-.82-.99-1.08-1.29-.26-.3-.39-.48-.38-.49.01-.01.17.14.45.43.28.28.67.71,1.14,1.25.94,1.07,2.17,2.61,3.48,4.35,1.3,1.74,2.45,3.34,3.29,4.49.4.55.73,1,.99,1.36.23.32.35.51.34.52Z"/>
            <path class="cls-4" d="m155.69,221.97s-.08-.21-.18-.59c-.1-.38-.23-.94-.37-1.64-.27-1.39-.53-3.34-.59-5.51-.05-2.17.11-4.13.32-5.53.1-.7.2-1.27.29-1.65.08-.39.14-.6.15-.6.02,0,0,.22-.06.61-.06.39-.13.96-.21,1.66-.16,1.4-.29,3.35-.24,5.5.06,2.15.29,4.09.51,5.48.11.7.21,1.26.29,1.65.07.39.11.61.09.61Z"/>
          </g>
          <path class="cls-4" d="m155.21,192.19c0,.06.18.11.5.1.32,0,.8-.1,1.37-.35.56-.26,1.21-.69,1.81-1.35.6-.65,1.15-1.54,1.51-2.58.37-1.04.56-2.24.64-3.48.07-1.25.05-2.55,0-3.93-.11-2.75-.43-5.74-.8-8.85-.36-3.11-.7-6.05-.83-8.72-.14-2.67-.1-5.08.09-7.08.35-4.02,1.2-6.42.92-6.53-.06-.02-.18.1-.34.37-.08.13-.17.3-.28.5-.1.2-.2.44-.32.71-.45,1.08-.97,2.7-1.33,4.77-.37,2.06-.55,4.56-.51,7.32.04,2.76.33,5.76.69,8.88.36,3.12.74,6.06.94,8.73.1,1.33.18,2.62.18,3.78,0,1.16-.1,2.22-.34,3.14-.46,1.85-1.54,3.06-2.4,3.68-.88.62-1.53.74-1.5.89Z"/>
          <g>
            <path class="cls-14" d="m172.09,174.54c.44-.62,1.23-.99,2.04-.93.56.04,1.13.28,1.49.72.36.44.45,1.08.16,1.52-.33.5-1.05.64-1.67.49-.62-.15-1.16-.53-1.68-.91-.14-.11-.29-.22-.38-.36-.09-.15-.12-.35-.02-.48"/>
            <path class="cls-4" d="m175.24,172.22c-.21,0-.16,1.38-1.31,2.41-1.15,1.03-2.65.93-2.65,1.13-.02.09.34.26.97.25.62,0,1.51-.23,2.21-.86.7-.63.99-1.45,1.01-2.02.03-.58-.14-.92-.23-.91Z"/>
          </g>
          <g>
            <path class="cls-4" d="m199.39,166.47c1.76,6.41.27,14.97,2.01,20.11,1.74,5.14,3.01,10.85,1.04,15.91-.91-1.99-1.81-3.99-2.72-5.98,1.1,2.35.87,5.26-.59,7.41-1.45,2.15-8.78,3.98-11.38,3.86-2.63-13.89-1.91-24.51,2.64-35.24l3.51,3.88,3.16-1.35,2.31-8.59Z"/>
            <g>
              <g>
                <path class="cls-3" d="m171.7,164.84s0-.54.22-1.46c.11-.46.33-1.01.67-1.58.35-.57.85-1.17,1.53-1.68.68-.5,1.53-.93,2.51-1.1.98-.17,2.08-.13,3.13.26.53.18,1.04.46,1.5.81.24.17.45.37.67.57.2.22.41.44.58.69.73.97,1.14,2.21,1.16,3.49-.01,1.28-.42,2.53-1.15,3.49-.17.25-.38.47-.58.69-.22.2-.43.41-.67.57-.47.35-.98.62-1.5.81-1.05.4-2.15.43-3.13.26-.98-.17-1.84-.6-2.51-1.1-.68-.51-1.18-1.11-1.53-1.68-.34-.58-.57-1.12-.67-1.58-.23-.92-.19-1.46-.22-1.46,0,0,0,.03,0,.1,0,.08,0,.17,0,.29,0,.13,0,.28.04.46.02.18.05.4.11.63.1.47.31,1.03.65,1.62.35.59.85,1.21,1.54,1.73.69.52,1.56.97,2.57,1.15,1,.18,2.13.15,3.22-.25.54-.19,1.07-.47,1.55-.83.25-.17.47-.38.7-.59.21-.23.42-.45.6-.71.76-1,1.18-2.28,1.2-3.6-.01-1.32-.44-2.61-1.2-3.6-.18-.26-.4-.48-.6-.71-.23-.2-.45-.42-.7-.59-.48-.36-1.01-.64-1.55-.83-1.08-.4-2.21-.43-3.22-.25-1.01.18-1.88.63-2.57,1.15-.69.53-1.19,1.14-1.54,1.73-.34.59-.56,1.15-.65,1.62-.07.23-.09.44-.11.63-.03.18-.04.34-.04.46,0,.12,0,.21,0,.29,0,.06,0,.1,0,.1Z"/>
                <path class="cls-3" d="m158.15,164.58s0-.54.22-1.46c.11-.46.33-1.01.67-1.58.35-.57.85-1.17,1.53-1.68.68-.5,1.53-.93,2.51-1.1.98-.17,2.08-.13,3.13.26.53.18,1.04.46,1.5.81.24.17.45.37.67.57.2.22.41.44.58.69.73.97,1.14,2.21,1.16,3.49-.01,1.28-.42,2.53-1.16,3.49-.17.25-.38.47-.58.69-.22.2-.43.41-.67.57-.47.35-.98.62-1.5.81-1.05.4-2.15.43-3.13.26-.98-.17-1.84-.6-2.51-1.1-.68-.51-1.18-1.11-1.53-1.68-.34-.58-.57-1.12-.67-1.58-.23-.92-.19-1.46-.22-1.46,0,0,0,.03,0,.1,0,.08,0,.17,0,.29,0,.13,0,.28.04.46.02.18.05.4.11.63.1.47.31,1.03.65,1.62.35.59.85,1.21,1.54,1.73.69.52,1.56.97,2.57,1.15,1,.18,2.13.15,3.22-.25.54-.19,1.07-.47,1.55-.83.25-.17.47-.38.7-.59.21-.23.42-.45.6-.71.76-1,1.18-2.28,1.2-3.6-.01-1.32-.44-2.61-1.2-3.6-.18-.26-.4-.48-.6-.71-.23-.2-.45-.42-.7-.59-.48-.36-1.01-.64-1.55-.83-1.08-.4-2.21-.43-3.22-.25-1.01.18-1.88.63-2.57,1.15-.69.53-1.19,1.14-1.54,1.73-.34.59-.56,1.15-.65,1.62-.07.23-.09.44-.11.63-.03.18-.04.34-.04.46,0,.12,0,.21,0,.29,0,.06,0,.1,0,.1Z"/>
                <path class="cls-3" d="m170.11,163.83s.1-.08.24-.18c.14-.11.36-.22.62-.25.26-.02.5.06.65.15.16.08.24.16.26.15.02-.01-.03-.13-.19-.26-.15-.13-.42-.25-.74-.22-.32.03-.57.19-.7.34-.13.15-.17.27-.14.28Z"/>
                <path class="cls-3" d="m183.57,163.31c-.01.05,1.63.44,3.66.86,2.03.43,3.69.73,3.7.68.01-.05-1.63-.44-3.66-.86-2.03-.43-3.69-.73-3.7-.68Z"/>
              </g>
              <path class="cls-13" d="m180.8,169.05s.14-.02.36-.15c.22-.13.51-.36.79-.72.29-.35.58-.81.8-1.36.21-.56.35-1.21.35-1.9,0-1.39-.51-2.59-1.03-3.32-.25-.37-.51-.63-.69-.81-.19-.16-.3-.25-.31-.24-.03.03.42.37.89,1.12.48.73.95,1.9.95,3.24,0,.67-.13,1.3-.32,1.84-.21.54-.47,1-.74,1.34-.26.35-.53.59-.73.74-.2.14-.33.2-.32.21Z"/>
              <path class="cls-13" d="m178.14,169.99c0,.05.5.03,1.09-.16.58-.19,1-.46.97-.5-.03-.05-.47.14-1.03.32-.56.18-1.03.28-1.03.34Z"/>
              <path class="cls-13" d="m164.04,159.34s.41.03,1.05.17c.63.14,1.5.44,2.3,1.03.8.59,1.35,1.32,1.66,1.88.32.56.44.95.47.94.01,0,0-.1-.06-.28-.05-.18-.15-.43-.3-.72-.29-.59-.84-1.36-1.67-1.97-.83-.61-1.73-.9-2.38-1.01-.33-.05-.6-.07-.78-.07-.19,0-.29.01-.29.03Z"/>
              <path class="cls-13" d="m169.21,166.21s.3-.37.4-.94c.1-.57,0-1.03-.05-1.02-.06,0-.04.45-.14.99-.09.53-.26.95-.21.97Z"/>
            </g>
            <path class="cls-4" d="m182.79,209.38c.1.07.49-.3,1.04-1.09.55-.78,1.2-2.02,1.78-3.63.59-1.61,1.05-3.59,1.35-5.81.3-2.22.44-4.66.52-7.2.08-2.53.15-4.92.33-7.07.18-2.15.47-4.06.84-5.64.72-3.16,1.7-4.98,1.44-5.13-.11-.06-.49.31-1.02,1.11-.53.79-1.16,2.03-1.72,3.65-.57,1.61-1.01,3.6-1.29,5.82-.29,2.22-.41,4.66-.49,7.19-.08,2.53-.16,4.91-.36,7.06-.2,2.15-.5,4.05-.9,5.62-.76,3.15-1.78,4.95-1.52,5.1Z"/>
            <path class="cls-8" d="m194.07,172.11s.11.1.28.31c.16.21.36.55.41,1.02.06.46-.09,1.04-.54,1.47-.43.43-1.14.7-1.83.51-.69-.17-1.24-.69-1.45-1.26-.22-.58-.16-1.17,0-1.6.16-.44.44-.73.68-.84.24-.12.4-.08.39-.1,0,0-.04-.02-.11-.02-.07,0-.19,0-.32.06-.26.1-.58.4-.77.86-.19.46-.27,1.08-.04,1.71.22.63.81,1.2,1.57,1.38.38.09.77.08,1.12-.03.35-.11.65-.31.89-.54.24-.24.4-.52.49-.8.08-.28.1-.57.06-.81-.07-.5-.3-.85-.49-1.05-.19-.2-.33-.27-.34-.26Z"/>
          </g>
          <g>
            <g>
              <path class="cls-11" d="m225.99,185.92l-.48-6.07-1.24-7.67-1.93-6.28s-.39-.6-1.16-.03c-.76.56.32,3.99.32,3.99l.41,2.62s-.26,2.08-.43,1.93c-.17-.15-1.07-3.65-1.07-3.65l-2.31-7.47s-.44-.78-1.35-.39c-.51.22-.77,1.01-.58,2.14.19,1.12.89,2.98,1.01,3.62.12.64.95,4.3.95,4.3l-3.52-8.26s-.78-2.73-1.9-2.2c-1.12.52-.13,2.43.02,3.29.15.86,2.46,6.49,2.5,8.12.03,1.64-.31.85-.31.85,0,0-.96-2.6-1.72-4.65-.76-2.05-1.7-3.19-2.63-3.24-.94-.06.83,4.7.83,4.7l2.3,6.66-.15,2.21-1.74-1.79s-.32-2.56-2.05-3.45c-1.75-.91-2.01.35-2.01.35l4.08,9.6c.89,1.54,5.83,4.2,5.83,4.2l1.9,9.86,10.33-1.72-3.89-11.54Z"/>
              <path class="cls-14" d="m222.01,182.72c-.05.05-.58-.38-1.49-.99-.89-.58-2.29-1.38-3.91-1.14-.71.1-1.36.42-1.78.87l-.15.17-.17-.18c-.75-.79-1.53-1.46-2.01-1.96-.5-.49-.75-.83-.71-.86.03-.02.34.24.88.67.54.46,1.31,1.02,2.17,1.89h-.32c.48-.56,1.22-.93,2.02-1.04.89-.14,1.75.03,2.45.32.7.29,1.27.67,1.71,1.01.88.69,1.34,1.21,1.3,1.25Z"/>
            </g>
            <polygon class="cls-11" points="223.5 221.21 217.98 190.5 226.34 186.87 237.63 220.72 223.5 221.21"/>
            <path class="cls-14" d="m224.28,221.49s-.16-.44-.37-1.24c-.21-.8-.5-1.97-.84-3.42-.68-2.89-1.56-6.91-2.46-11.35-.9-4.45-1.66-8.48-2.2-11.41-.25-1.41-.45-2.58-.61-3.47-.13-.82-.2-1.28-.17-1.28.03,0,.14.44.32,1.25.19.88.43,2.04.73,3.44.6,2.98,1.41,6.97,2.31,11.38.91,4.41,1.73,8.4,2.34,11.37.29,1.4.53,2.57.72,3.45.17.81.25,1.27.22,1.27Z"/>
          </g>
        </g>
      </g>
      <g>
        <g>
          <path class="cls-15" d="m207.84,64.41c-1.79,0-3.48.36-5.02,1-.8.33-1.65.53-2.52.53l-3.3-.2-.16-27.68c0-2.41-2.07-4.37-4.62-4.37h-3.66s-28.43.01-28.43.01h-50.25c-2.47,0-4.47,1.96-4.47,4.37v27.51h-1.96c-.91,0-1.81-.22-2.63-.62-2.08-1.01-5.95-2.3-8.6-1.86-5.25.87-10.58,6.15-10.58,11.36,0,8.72,6.83,14.19,13.95,14.19,1.73,0,3.37-.36,4.86-1,.77-.33,1.31-.52,2.16-.52h2.8s0,27.23,0,27.23c0,2.41,2,4.37,4.47,4.37h82.19c2.55,0,4.62-1.96,4.62-4.37l.15-28.33,2.89.2c.94,0,1.87.23,2.72.62,2.23,1.02,4.82,1.44,7.55,1,5.42-.87,9.65-5.13,10.25-10.3.82-7.12-5.05-13.14-12.4-13.14Z"/>
          <path class="cls-4" d="m207.84,64.41s.29,0,.85.03c.14,0,.3.01.47.02.17.02.36.05.57.08.21.03.43.06.67.1.24.03.49.12.75.18,1.07.25,2.37.74,3.73,1.62,1.35.88,2.81,2.16,3.88,4,.26.47.53.94.73,1.47.24.51.38,1.07.55,1.64.08.28.11.58.17.88.03.15.05.3.08.45.02.15.02.31.03.46.01.31.04.62.05.94-.02.32-.04.64-.06.96-.1,1.3-.46,2.63-1.07,3.91-.61,1.28-1.51,2.48-2.63,3.52-2.22,2.11-5.47,3.45-8.98,3.4-1.75-.02-3.55-.4-5.23-1.18-.83-.38-1.74-.6-2.69-.6-.95-.07-1.9-.13-2.88-.2l.08-.08c-.02,4.51-.04,9.3-.07,14.35-.01,2.53-.02,5.12-.04,7.78,0,1.33-.01,2.67-.02,4.03,0,.68,0,1.36,0,2.05.01.7-.14,1.41-.47,2.04-.63,1.28-1.93,2.19-3.35,2.45-.72.13-1.44.07-2.15.08-.72,0-1.44,0-2.16,0-2.9,0-5.86,0-8.87,0-6.02,0-12.27,0-18.71,0-12.88,0-26.56,0-40.85,0-1.79,0-3.58,0-5.39,0-.9,0-1.81,0-2.71,0h-1.36c-.46,0-.91.01-1.38-.03-.93-.1-1.83-.48-2.54-1.1-.72-.61-1.23-1.46-1.44-2.38-.1-.46-.12-.95-.11-1.4v-1.39c0-.92,0-1.85,0-2.78,0-7.43,0-14.99,0-22.66l.12.12c-.94,0-1.91,0-2.88,0-.48,0-.95.09-1.4.26-.45.16-.91.39-1.39.55-.95.34-1.95.56-2.97.66-.51.04-1.02.08-1.54.04-.51-.03-1.03-.03-1.54-.13-4.39-.55-8.4-3.3-10.45-7.14-1.03-1.92-1.58-4.06-1.68-6.2-.11-1.07.03-2.17.32-3.19.13-.52.35-1.01.56-1.51.25-.47.48-.96.78-1.4.27-.46.61-.87.93-1.29.36-.39.69-.81,1.08-1.16.75-.75,1.59-1.4,2.48-1.96.88-.57,1.84-1.02,2.83-1.36.99-.34,2.04-.55,3.08-.51,2.09.08,4.09.67,5.99,1.41.47.19.94.4,1.4.62.45.21.93.36,1.41.45.49.1.98.1,1.48.09.5,0,1,0,1.5,0l-.12.12c0-9.04,0-17.85,0-26.39,0-.54-.02-1.06.03-1.61.06-.54.23-1.07.48-1.55.51-.96,1.37-1.72,2.37-2.11.5-.2,1.03-.31,1.57-.32.53-.01,1.05,0,1.57,0,1.04,0,2.08,0,3.11,0,4.13,0,8.18,0,12.16,0,15.91,0,30.56.01,43.63.02,6.53,0,12.67,0,18.37.01.71,0,1.42,0,2.12,0,.35,0,.7,0,1.04,0,.34,0,.69,0,1.04.03,1.38.16,2.67.91,3.4,2.03.37.55.61,1.19.69,1.84.07.65.03,1.28.05,1.91,0,1.26.01,2.48.02,3.68.04,9.57.08,17.22.11,22.64l-.03-.04c.94.06,1.81.11,2.62.16.81.09,1.57.02,2.24-.16.67-.17,1.24-.46,1.79-.63.55-.18,1.05-.31,1.49-.4.9-.18,1.57-.23,2.02-.25.45-.02.67,0,.67,0-.06,0-.24,0-.67.03-.45.03-1.12.08-2.02.27-.44.1-.94.23-1.49.41-.55.17-1.11.47-1.79.64-.67.18-1.44.26-2.25.17-.81-.05-1.69-.1-2.63-.15h-.03s0-.04,0-.04c-.04-5.41-.09-13.07-.16-22.64,0-1.2-.02-2.42-.02-3.68-.02-.62.02-1.27-.05-1.89-.08-.63-.31-1.24-.67-1.77-.71-1.08-1.96-1.81-3.3-1.96-.33-.03-.68-.04-1.02-.03-.35,0-.69,0-1.04,0-.7,0-1.4,0-2.12,0-5.7,0-11.84,0-18.37.01-13.07,0-27.72.01-43.63.02-3.98,0-8.03,0-12.16,0-1.03,0-2.07,0-3.11,0-1.04.02-2.1-.1-3.06.31-.95.38-1.77,1.1-2.25,2.01-.24.46-.4.96-.45,1.47-.05.51-.02,1.05-.03,1.58,0,8.54,0,17.35,0,26.39v.12s-.12,0-.12,0c-.5,0-1,0-1.5,0-.5,0-1.02,0-1.53-.1-.51-.09-1-.25-1.47-.46-.46-.22-.91-.43-1.39-.61-1.88-.73-3.87-1.31-5.91-1.39-1.02-.04-2.03.16-3,.5-.97.33-1.91.77-2.78,1.33-.87.55-1.7,1.19-2.44,1.93-.39.35-.71.76-1.06,1.14-.31.42-.65.82-.91,1.27-.3.43-.52.91-.77,1.37-.2.48-.41.96-.54,1.47-.28,1.01-.42,2.06-.31,3.12.1,2.11.65,4.22,1.65,6.1,2.02,3.77,5.96,6.47,10.27,7.02.5.09,1.01.1,1.51.12.5.04,1.01,0,1.51-.04,1-.09,1.98-.31,2.91-.64.47-.16.91-.38,1.39-.55.47-.17.98-.27,1.48-.27.98,0,1.94,0,2.89,0h.12s0,.12,0,.12c0,7.67,0,15.23,0,22.66,0,.93,0,1.86,0,2.78v1.39c0,.47,0,.91.11,1.35.2.87.68,1.68,1.36,2.25.67.59,1.53.95,2.41,1.05.44.04.9.02,1.35.03h1.36c.91,0,1.81,0,2.71,0,1.8,0,3.6,0,5.39,0,14.29,0,27.96,0,40.85,0,6.44,0,12.69,0,18.71,0,3.01,0,5.97,0,8.87,0,.72,0,1.45,0,2.16,0,.72-.01,1.44.04,2.12-.08,1.37-.25,2.61-1.12,3.22-2.35.31-.61.46-1.28.45-1.96,0-.69,0-1.37.01-2.05,0-1.36.02-2.7.02-4.03.02-2.66.03-5.25.04-7.78.03-5.06.06-9.85.08-14.35v-.08s.08,0,.08,0c.97.07,1.93.14,2.87.2.96,0,1.9.23,2.74.62,1.67.77,3.45,1.14,5.18,1.17,3.47.06,6.69-1.27,8.89-3.35,1.11-1.03,2-2.22,2.61-3.49.61-1.26.97-2.59,1.07-3.87.02-.32.04-.64.06-.95,0-.31-.03-.63-.04-.93-.01-.15-.01-.31-.03-.46-.03-.15-.05-.3-.08-.45-.06-.29-.09-.59-.16-.87-.16-.56-.3-1.12-.54-1.63-.19-.53-.46-.99-.72-1.46-1.06-1.83-2.5-3.1-3.84-3.99-1.35-.88-2.65-1.38-3.71-1.64-.27-.06-.51-.15-.75-.18-.24-.04-.46-.07-.67-.11-.21-.03-.39-.07-.57-.09-.17,0-.33-.02-.47-.03-.56-.03-.84-.05-.84-.05Z"/>
        </g>
        <g>
          <g>
            <path class="cls-12" d="m190.3,110.96c-.33-.76-1.15-3.08-1.77-3.64-2.77-2.52-5.49-3.16-8.53-5.34l.62,24.61c.91,1.32,2.84,1.16,4.35.61,1.5-.55,2.63-1.83,3.41-3.23,1.69-3.04,2.34-5.47,2.57-8.94.07-.98-.25-3.17-.64-4.07Z"/>
            <path class="cls-12" d="m166.54,85.96c-2.92-1.79-12.5-3.5-14.66-3.69l-2.68-2.2-18.9-1.14-2.77,3.83-9.69,2.58c-2.55.68-4.83,2.11-6.54,4.11l-5.77,4.54v19.65c0,3.02,1.55,5.04,4.58,5.04l58.08-.14c3.55,6.25,8.06,9.56,15.67,9.03l-1.13-25.34s-12.06-13.72-16.17-16.25Z"/>
            <path class="cls-4" d="m168.33,95.4s.02.08.04.23c.02.18.04.4.07.67.05.58.11,1.43.18,2.47.12,2.09.21,4.99.16,8.18-.05,3.2-.2,6.09-.33,8.18-.07,1.02-.13,1.85-.17,2.47-.02.27-.04.49-.06.67-.02.15-.03.23-.04.23,0,0-.01-.08-.01-.24,0-.18,0-.4.01-.67.02-.62.05-1.46.09-2.48.08-2.09.21-4.98.26-8.17.05-3.19-.01-6.08-.09-8.17-.04-1.02-.07-1.85-.1-2.48,0-.27-.02-.49-.02-.67,0-.15,0-.24,0-.24Z"/>
            <path class="cls-4" d="m120.3,113.06c-.06.02-1.34-4.31-2.85-9.67-1.51-5.36-2.68-9.72-2.61-9.74.06-.02,1.34,4.31,2.85,9.67,1.51,5.36,2.68,9.72,2.61,9.73Z"/>
            <path class="cls-4" d="m145.33,93.85s-.05-.01-.13-.05c-.1-.05-.22-.11-.36-.18-.31-.16-.77-.41-1.33-.74-1.13-.68-2.7-1.73-4.4-3.23l.17-.1c.3,1.66.44,3.58.29,5.63l-.02.21-.17-.12c-.29-.2-.59-.41-.9-.62-.3-.22-.6-.44-.91-.67-3.39-2.58-5.98-5.48-7.62-7.72-.83-1.12-1.43-2.07-1.84-2.73-.2-.33-.35-.6-.45-.78-.1-.18-.15-.28-.14-.28,0,0,.07.08.18.25.12.19.29.44.48.75.43.65,1.05,1.58,1.89,2.68,1.68,2.2,4.26,5.07,7.63,7.63.3.22.6.45.9.67.3.21.6.42.89.62l-.19.09c.15-2.02.02-3.93-.26-5.57l-.05-.3.22.2c1.67,1.51,3.21,2.58,4.32,3.28.55.35,1,.61,1.3.79.3.18.47.27.46.28Z"/>
            <path class="cls-4" d="m151.65,82.28s.02.08.03.23c.01.15.03.37.04.65.02.57.04,1.39-.01,2.4-.05,1.01-.15,2.22-.37,3.55-.11.66-.24,1.35-.41,2.07-.18.71-.4,1.45-.83,2.13-.28.43-.64.8-1.07,1.06l-.19.11v-.22c.05-1.88.08-3.61.12-5.07l.19.04c-.59,1.29-1.17,2.31-1.63,2.98-.23.34-.43.58-.57.75-.15.16-.24.23-.24.23,0,0,.06-.1.2-.26.13-.17.32-.42.53-.77.43-.68.97-1.71,1.54-3l.19-.44v.48c-.03,1.47-.05,3.19-.07,5.07l-.18-.11c.39-.24.73-.58.99-.98.4-.63.63-1.35.8-2.05.17-.7.3-1.39.42-2.05.23-1.31.35-2.51.42-3.52.07-1.01.08-1.83.09-2.39,0-.57,0-.88.02-.88Z"/>
            <path class="cls-4" d="m183.61,122.38s-.24.09-.68.21c-.44.11-1.09.24-1.91.29-.82.06-1.8.03-2.87-.2-.53-.11-1.08-.28-1.62-.52-.54-.24-1.09-.54-1.57-.95-.49-.42-.84-.95-1.11-1.47-.27-.53-.47-1.07-.6-1.6-.27-1.06-.33-2.04-.33-2.85,0-.82.05-1.47.08-1.93.04-.45.07-.7.08-.7.02,0,.02.25.01.71,0,.45-.03,1.11,0,1.92.03.81.1,1.77.38,2.8.14.51.33,1.04.6,1.55.27.51.6,1.01,1.06,1.4.93.78,2.06,1.2,3.09,1.44,1.04.24,2,.29,2.81.25,1.62-.07,2.58-.39,2.6-.33Z"/>
            <path class="cls-4" d="m175.55,104.18s-.6.45-1.48,1.27c-.44.41-.92.94-1.41,1.56-.48.63-.96,1.36-1.38,2.18-.41.82-.72,1.64-.95,2.4-.21.76-.36,1.47-.43,2.06-.15,1.19-.11,1.94-.16,1.94-.02,0-.04-.19-.05-.53-.01-.17-.02-.38,0-.62,0-.24,0-.52.05-.82.05-.61.18-1.32.39-2.1.22-.78.53-1.61.95-2.44.43-.83.92-1.57,1.42-2.2.51-.63,1.01-1.15,1.47-1.55.22-.21.45-.37.63-.52.19-.15.36-.27.5-.36.29-.18.45-.28.46-.27Z"/>
          </g>
          <g>
            <path class="cls-10" d="m175.77,104.31l4.2-28.2,7.6,1.16s1.8,23.7,1.46,30.92c-.1,2.25.05,6.03-1.47,8.5-2.61,4.21-10.25,4.21-12.62-.13h0c-1.23-1.85-.7-4.47-.44-5.8l1.26-6.43Z"/>
            <g>
              <path class="cls-10" d="m188.21,78.93l1.28-5.61,1.04-7.26.04-6.2s-.18-.65-1.03-.35c-.84.29-.83,3.68-.83,3.68l-.37,2.47s-.82,1.8-.93,1.62c-.11-.19.07-3.59.07-3.59l.03-7.38s-.17-.83-1.1-.73c-.52.06-.97.7-1.12,1.77-.15,1.07-.04,2.93-.11,3.54-.07.61-.36,4.14-.36,4.14l-.83-8.42s.07-2.67-1.09-2.51c-1.15.16-.8,2.16-.91,2.97-.11.81.38,6.53-.05,8.01s-.52.68-.52.68c0,0-.13-2.61-.24-4.67-.1-2.06-.62-3.34-1.45-3.66-.82-.31-.58,4.46-.58,4.46l.19,6.64-.76,1.95-1.06-2.1s.43-2.39-.87-3.68c-1.32-1.31-1.9-.25-1.9-.25l.96,9.78c.36,1.64,4.04,5.42,4.04,5.42l-1.07,9.41,9.73,1.34-.24-11.48Z"/>
              <path class="cls-5" d="m185.5,75.16c-.06.04-.41-.51-1.05-1.31-.63-.77-1.66-1.88-3.18-2.11-.67-.11-1.33,0-1.83.28l-.19.11-.1-.21c-.45-.92-.96-1.75-1.25-2.33-.31-.58-.44-.96-.39-.98.04-.01.24.31.6.85.36.56.88,1.29,1.41,2.31l-.29-.1c.58-.36,1.35-.48,2.1-.36.83.13,1.56.51,2.1.97.55.45.95.96,1.25,1.39.59.87.86,1.46.81,1.49Z"/>
            </g>
          </g>
          <g>
            <g>
              <path class="cls-10" d="m130.25,112.46c-1.33-1.18-3.49,1.65-3.49,1.65-.42-.88-3.2-.78-3.63.48-.28-.65-.23-1.04-.81-1.44-.58-.4-1.35-.56-2.01-.32-.66.25-1.16.95-1.06,1.65-.65-.87-1.88-1.26-2.91-.92-.62.2-1.15.66-1.47,1.22-.16.28-.27.59-.32.91-.02.12-.06.25-.03.37.01.06.04.11.07.15.14.22.32.41.46.65.05.09.1.18.14.27.19.42.32.86.39,1.31.03.21.02.44.09.64.04.14.15.24.21.36.42.79.42,1.77.47,2.64.06.98.16,2.02.75,2.81.59.79,1.82,1.18,2.57.55-.07.62.47,1.21,1.08,1.31.62.1,1.25-.21,1.66-.68.41-.48.61-1.09.71-1.71.02.73.8,1.3,1.53,1.24.73-.06,1.36-.6,1.69-1.26.33-.66.41-1.41.43-2.14.02-.73.34-2.85.47-3.57,0,0,1.21,0,1.63,0l.32-.79c.48-1.26.86-2.06,1.21-3.19.26-.85.41-1.69-.15-2.18Z"/>
              <path class="cls-10" d="m111.96,115.34c-.61.03-1.25.22-1.61.7-.43.58-.4,1.92-.28,2.63,0,.02,2.09,0,2.09,0h.52c.41.24.4,1.11.6,1.54.34.75,1.37,1.04,2.11.69.74-.35,1.17-1.22,1.13-2.04s-.47-1.59-1.05-2.17c-.91-.91-2.22-1.41-3.5-1.34Z"/>
              <path class="cls-5" d="m119.24,114.22c.16,0,.38,2.5.5,5.59.12,3.1.08,5.61-.07,5.61-.16,0-.38-2.5-.5-5.59-.12-3.09-.08-5.61.07-5.61Z"/>
              <path class="cls-5" d="m123.14,114.41c.15-.02.56,2.24.56,5.07.01,2.83-.38,5.09-.53,5.07-.16-.02-.03-2.28-.04-5.07,0-2.79-.15-5.05,0-5.07Z"/>
            </g>
            <path class="cls-5" d="m126.94,114.59c.16-.01.4,1.88.31,4.2-.09,2.32-.28,4.18-.43,4.18-.17,0-.23-1.89-.14-4.2.09-2.3.11-4.17.26-4.18Z"/>
            <path class="cls-5" d="m113.2,115.62c-.01-.07.39-.19.99.02.59.2,1.31.81,1.7,1.66.39.86.55,1.62.59,2.27,0,.7-.49.95-.51.86-.05-.06.2-.32.11-.83-.11-.49-.36-1.3-.7-2.04-.35-.76-.89-1.28-1.35-1.54-.46-.27-.82-.3-.82-.39Z"/>
          </g>
          <g>
            <path class="cls-4" d="m143.05,25.31c-.17-1.99-2.28-3.57-4.23-3.19-1.11-2.18-4.15-3.1-6.28-1.92-1.02.56-1.78,1.5-2.78,2.1-.95.58-2.07.83-3.08,1.32-1.01.48-1.97,1.32-2.1,2.43-.14,1.23.84,2.37,1.99,2.83,1.15.46,2.44.4,3.68.33-.54.31-.66,1.1-.38,1.66.28.56.85.92,1.43,1.15,1.93.77,4.28.34,5.8-1.07l2.32-1.78c1.99.05,3.8-1.88,3.63-3.86Z"/>
            <path class="cls-12" d="m137.26,33.06c-.43.42-1.19.38-1.64-.03-.44-.41-.57-1.09-.39-1.67.17-.58.6-1.05,1.11-1.38.5-.33,1.08-.53,1.66-.7.89-.26,1.81-.47,2.73-.52.33-.02.67,0,.97.12.3.13.57.4.59.73.04.46-.37.83-.74,1.1-1.39,1.03-2.87,1.93-4.43,2.69"/>
            <path class="cls-4" d="m135.9,32.82c-2.2-2.45-7.67-2.13-8.98-.53-1.89-1-4.53-.14-5.48,1.78-1.94.41-3.89.82-5.83,1.23-.99.21-2.03.44-2.8,1.11-.77.67-1.13,1.91-.51,2.71-2.05.52-2.88,3.57-1.37,5.05-.84.87-.69,2.5.3,3.19-1.62,1.91-2.91,4.11-3.8,6.45-.37.98-.67,2.08-.31,3.06.36.99,1.65,1.67,2.5,1.07-.59.79-.64,1.94-.14,2.79-.98.02-1.29,1.54-.62,2.26.67.72,1.77.8,2.75.79.98-.02,2.05-.06,2.86.51-.04.29-.16.49-.33.62-1.7,1.36-2.2,3.73-.94,5.51.12.17.22.32.32.45.57.81,1.97,1.56,2.85,2.03,2.22,1.18,3.55.97,6.03,1.34-.69,1.6,3.32,5.18,7.97,1.72,9.2,2.54,15.84,3.53,25.38,3.62,1.36.01,3-.16,3.61-1.38,1.1.3,2.3-.2,3.12-1,.82-.79,1.34-1.84,1.85-2.87,2.36-.62,4.19-2.88,4.31-5.32,1.61-1.24,2.65-3.17,2.8-5.2,2.3-.68,3.58-3.65,2.51-5.79-.47-2.81-1.42-5.55-2.78-8.05,1.56-.33,2.17-2.43,1.53-3.89s-2.05-2.42-3.39-3.28c1.16.32,2.19-1.14,1.92-2.32-.27-1.18-1.32-2-2.35-2.62-1.51-.92-3.13-1.66-4.82-2.19-.54-2.06-3.15-4.42-5.07-5.34-7.73-3.73-13.17-4.69-23.11,2.48"/>
            <path class="cls-10" d="m129.93,45.27c-.11-1.63-.38-3.25,1.24-3.49l16.49-4.97c5.32-.81,9.17,5.61,9.75,10.96.64,5.94,1.2,13.22.69,17.7-1.01,9-8.95,11.42-8.95,11.42,0-.01.21,5.46.21,5.46-.69,4.2-1.75,8.93-3.45,10.61-5.84-1.09-15.39-13.92-15.39-13.92l-.59-33.76Z"/>
            <path class="cls-4" d="m148.77,61.35c0-.07.75-.24,1.99-.45.31-.05.61-.12.65-.34.06-.23-.08-.56-.25-.92-.33-.75-.68-1.53-1.04-2.36-1.45-3.36-2.51-6.12-2.38-6.18.14-.06,1.42,2.62,2.87,5.97.35.83.68,1.62,1,2.37.14.35.36.75.22,1.23-.07.24-.3.42-.5.48-.2.07-.38.08-.53.1-1.25.12-2.02.16-2.03.09Z"/>
            <path class="cls-5" d="m149.15,76.88s-4.86-.31-10.98-3.62c0,0,2.07,5.64,11.06,6.33l-.08-2.71Z"/>
            <path class="cls-4" d="m143.51,47.61c-.11.34-1.35.24-2.78.48-1.44.21-2.59.69-2.8.4-.09-.14.1-.46.55-.81.45-.35,1.19-.69,2.05-.82.86-.13,1.67-.03,2.2.16.54.19.82.44.78.6Z"/>
            <path class="cls-4" d="m155.37,47.4c-.2.29-1.07.04-2.09.07-1.02,0-1.88.27-2.09-.01-.09-.14.03-.43.4-.71.36-.28.97-.53,1.68-.54.7,0,1.32.22,1.69.49.37.27.51.55.42.7Z"/>
            <path class="cls-4" d="m161.43,52.06c-.09-1.4-.53-2.83-1.49-3.85-.53-.56-1.19-.99-1.66-1.6-1.01-1.32-.87-3.16-1.29-4.76-.55-2.07-2.17-3.82-4.19-4.54-1.68-.6-3.58-.52-5.15-1.35-1.16-.62-2.05-1.69-3.25-2.23-2.33-1.06-5.04.13-7.24,1.45-.44,1.75.67,3.26,1.74,4.72,1.07,1.45,2.8,2.4,4.6,2.5,1.4.08,3.03-.23,4.01.76,1.03,1.05.63,2.89,1.48,4.1,1.21,1.72,3.98,1.06,5.79,2.12,1.4.82,1.99,2.5,2.7,3.96.71,1.46,1.93,2.99,3.55,2.91.24-1.38.47-2.78.39-4.18Z"/>
            <path class="cls-4" d="m140.65,38.36c-4.08-.06-8.17.68-11.97,2.17-1.13.44-2.3,1.01-2.95,2.04-.57.91-.63,2.03-.62,3.1.04,3.35,1.39,7.45,2.67,10.54l4.18,2.5c3.22-.76,1.74-6.32,1.58-9.11,2.25-.99,3.81-3.36,3.84-5.81,1.84-1.18,3.08-3.25,3.27-5.43Z"/>
            <path class="cls-10" d="m131.9,57.5c-.13-1.92-2.48-2.29-4.13-1.3-.9.54-1.58,1.61-1.46,3.65.32,5.42,5.69,3.99,5.69,3.83,0-.1.05-3.94-.1-6.18Z"/>
            <path class="cls-5" d="m130.23,61.73s-.09.07-.25.15c-.15.08-.42.15-.71.06-.59-.18-1.12-1.06-1.2-2.03-.04-.49.03-.97.19-1.37.14-.41.38-.7.67-.77.28-.08.5.08.57.23.08.15.05.26.08.27.02.01.11-.1.05-.32-.03-.11-.1-.23-.23-.33-.14-.1-.33-.14-.53-.11-.42.05-.77.46-.94.9-.19.44-.29.98-.24,1.53.1,1.09.72,2.08,1.51,2.26.39.08.7-.06.86-.19.16-.14.18-.27.16-.28Z"/>
            <path class="cls-3" d="m129.63,64.01s0,.02-.02.07c-.02.04-.02.12-.07.21-.07.18-.29.4-.63.56-.34.17-.8.27-1.34.28-.27.01-.56,0-.87-.06-.31-.05-.63-.13-.95-.29l.07-.03c-.12.74-.6,1.54-1.43,1.97-.82.43-1.98.4-2.86-.25l.09-.02c-.16.24-.42.42-.71.47-.29.07-.6.03-.88-.07-.28-.11-.54-.31-.71-.57-.17-.26-.26-.58-.28-.89-.04-.64.19-1.29.59-1.81.39-.53.91-.97,1.43-1.39v.13c-.45-.27-.75-.76-.85-1.28-.11-.52-.06-1.09.15-1.6.21-.51.56-.96.95-1.35.39-.4.84-.74,1.28-1.09v.12c-.41-.4-.58-1-.54-1.57.04-.58.25-1.15.61-1.61.7-.89,1.71-1.38,2.64-1.85l-.04.09c-.29-1.19.06-2.47.85-3.32.79-.85,1.97-1.26,3.06-1.13l-.08.09c-.21-.97.15-1.96.73-2.64.59-.69,1.44-1.13,2.29-1.13l-.07.07c0-.99.55-1.85,1.23-2.37.68-.53,1.52-.75,2.27-.63l-.06.05c.02-.53.21-.99.44-1.39.23-.4.51-.74.82-1,.6-.54,1.3-.77,1.85-.8.07,0,.14,0,.2-.01.07,0,.13.01.19.01.12.01.24.01.34.04.21.06.39.08.52.15.13.05.23.1.3.13.07.03.1.05.1.05,0,0-.04,0-.11-.03-.08-.03-.18-.07-.31-.12-.13-.06-.31-.08-.52-.13-.1-.02-.22-.02-.34-.03-.06,0-.12-.01-.19-.01-.06,0-.13.01-.2.02-.54.05-1.22.27-1.8.81-.3.26-.57.59-.79.98-.22.39-.4.85-.42,1.34v.06s-.06,0-.06,0c-.71-.11-1.52.1-2.17.62-.65.5-1.17,1.33-1.17,2.27v.07s-.07,0-.07,0c-.81,0-1.62.42-2.18,1.09-.56.66-.9,1.6-.69,2.51l.02.11h-.11c-1.04-.13-2.17.26-2.92,1.07-.75.81-1.09,2.04-.81,3.17l.02.06-.06.03c-.93.46-1.92.95-2.59,1.8-.34.44-.54.98-.58,1.52-.04.54.12,1.09.49,1.45l.07.07-.07.06c-.88.68-1.77,1.39-2.18,2.37-.2.48-.25,1.01-.15,1.51.1.49.37.94.79,1.18l.09.06-.09.07c-.52.43-1.03.85-1.41,1.36-.38.5-.6,1.12-.57,1.71.02.59.35,1.16.89,1.35.51.2,1.15.1,1.43-.34l.04-.06.06.04c.83.63,1.95.67,2.73.26.8-.41,1.28-1.18,1.4-1.89v-.06s.06.03.06.03c.3.16.62.24.92.29.3.05.59.07.86.07.53,0,.99-.1,1.32-.25.33-.15.55-.36.63-.53.09-.17.1-.27.11-.27Z"/>
            <path class="cls-3" d="m108.97,58.21s-.09-.1-.2-.33c-.11-.23-.26-.58-.29-1.07-.03-.48.05-1.11.44-1.7.38-.58,1.07-1.12,1.96-1.25l-.05.06c-.18-.83-.04-1.82.49-2.68.26-.43.62-.82,1.06-1.13.44-.31.98-.47,1.48-.7.25-.11.5-.24.71-.42.21-.18.38-.41.49-.67.24-.52.32-1.13.62-1.69.61-1.1,1.95-1.84,3.3-1.64l-.09.09c-.18-1.24.22-2.61,1.13-3.59.95-1.02,2.37-1.5,3.68-1.34l-.09.09c-.16-1.59.73-3.13,2.02-3.79,1.3-.67,2.85-.5,3.91.22h-.09c.56-.55,1.23-.9,1.89-1.15.66-.24,1.32-.39,1.95-.45,1.25-.14,2.35,0,3.22.22.87.22,1.51.53,1.91.79.21.12.34.25.44.32.1.08.14.12.14.12,0,.01-.2-.16-.61-.4-.4-.25-1.05-.54-1.91-.75-.86-.2-1.95-.33-3.18-.18-.62.06-1.26.22-1.91.45-.65.24-1.3.6-1.84,1.14l-.04.04-.05-.03c-1.02-.69-2.52-.84-3.76-.2-1.23.63-2.09,2.12-1.93,3.64v.1s-.09-.01-.09-.01c-1.25-.15-2.62.32-3.54,1.29-.88.94-1.26,2.26-1.09,3.45l.02.11-.11-.02c-1.28-.2-2.57.51-3.14,1.55-.29.52-.37,1.13-.62,1.68-.12.27-.31.53-.54.72-.23.19-.49.33-.75.44-.52.23-1.04.38-1.46.68-.43.29-.78.67-1.03,1.08-.52.83-.65,1.78-.49,2.59v.06s-.05,0-.05,0c-.86.12-1.53.63-1.91,1.19-.39.57-.48,1.18-.46,1.65.02.48.15.84.26,1.06.11.23.18.34.18.34Z"/>
            <path class="cls-3" d="m160.84,59.68s-.11-.15-.02-.44c.05-.14.15-.31.32-.45.16-.15.4-.25.67-.34.26-.09.57-.16.85-.35.27-.19.49-.5.61-.87.13-.37.16-.79.14-1.24-.02-.45-.09-.92-.09-1.43-.01-1.03.43-2.07.69-3.21.13-.57.18-1.18.07-1.78-.11-.6-.42-1.2-.98-1.53-.55-.34-1.23-.44-1.9-.64-.33-.1-.67-.24-.97-.45-.3-.21-.53-.53-.69-.86-.32-.67-.4-1.42-.57-2.13-.08-.36-.19-.71-.38-1.03-.18-.32-.46-.56-.8-.7-.47-.18-.99-.15-1.5-.2-.26-.03-.52-.08-.76-.19-.24-.11-.45-.29-.6-.51-.3-.43-.41-.93-.57-1.39-.14-.46-.37-.88-.68-1.22-.61-.7-1.49-1.11-2.36-1.13-.87-.02-1.71.3-2.3.83l-.07.06-.04-.09c-.67-1.47-1.98-2.42-3.22-2.78-.63-.18-1.25-.22-1.81-.16-.56.06-1.07.21-1.49.41-.85.42-1.33,1.03-1.58,1.46-.14.21-.22.39-.27.51-.03.05-.05.1-.06.13-.01.03-.02.04-.03.04,0,0,0-.02.01-.05.01-.04.03-.08.05-.14.05-.12.12-.3.25-.52.25-.44.72-1.07,1.58-1.51.43-.22.94-.38,1.52-.44.57-.07,1.21-.04,1.86.14,1.28.36,2.62,1.32,3.32,2.83l-.11-.02c.62-.56,1.49-.9,2.4-.88.91.01,1.84.44,2.48,1.18.32.36.57.81.71,1.28.16.46.27.95.55,1.34.27.41.75.59,1.24.63.5.05,1.03.02,1.54.21.37.15.69.43.88.77.2.34.31.71.39,1.07.17.73.25,1.47.56,2.1.15.31.35.6.63.8.28.2.6.33.92.43.65.2,1.35.3,1.93.67.29.18.54.42.71.71.17.29.28.6.34.92.11.63.05,1.26-.08,1.84-.28,1.15-.71,2.18-.71,3.18,0,.5.06.97.08,1.42.02.45-.02.89-.15,1.28-.13.38-.36.71-.65.91-.29.2-.61.26-.87.35-.27.08-.5.17-.66.31-.16.13-.27.29-.32.42-.1.28,0,.43-.01.43Z"/>
            <path class="cls-3" d="m171.36,51.27s-.02-.03-.06-.1c-.04-.08-.09-.18-.15-.3-.13-.28-.32-.67-.56-1.18-.25-.51-.52-1.15-.91-1.84-.39-.68-.93-1.47-1.82-1.95-.44-.24-.95-.39-1.45-.62-.25-.11-.51-.25-.74-.43-.23-.18-.43-.43-.55-.71-.26-.56-.26-1.2-.47-1.78-.1-.29-.27-.56-.52-.74-.25-.19-.56-.3-.87-.4-.31-.1-.65-.2-.96-.37-.32-.16-.58-.44-.74-.77-.33-.66-.33-1.4-.46-2.1-.07-.35-.16-.7-.36-1-.19-.3-.51-.49-.86-.57-.71-.15-1.48.1-2.27-.02-.4-.07-.77-.27-1.04-.55-.28-.28-.48-.61-.68-.93-.19-.32-.38-.65-.6-.94-.22-.29-.48-.54-.8-.68-.65-.3-1.38-.14-2.05.02-.67.16-1.38.32-2.06.18-.68-.14-1.26-.48-1.79-.82-.54-.33-1.05-.69-1.6-.89-1.11-.4-2.25-.34-3.22-.1-.97.24-1.77.72-2.38,1.23-.61.51-1.01,1.09-1.32,1.56-.28.49-.47.88-.56,1.17-.05.13-.09.24-.13.31-.03.07-.05.11-.05.11,0,0,0-.04.03-.11.03-.08.06-.19.11-.32.09-.29.27-.69.54-1.19.3-.48.69-1.07,1.31-1.59.61-.52,1.42-1.02,2.41-1.27.98-.25,2.15-.32,3.3.09.57.21,1.09.56,1.62.89.54.33,1.1.66,1.75.79.64.14,1.32-.02,1.99-.18.34-.08.69-.16,1.06-.18.36-.03.75.01,1.1.17.35.16.63.43.86.73.23.3.41.63.61.95.19.32.39.64.65.9.26.26.59.44.95.51.74.12,1.51-.13,2.28.03.38.08.75.3.96.63.22.32.32.7.38,1.06.13.72.14,1.45.45,2.06.15.3.38.55.68.7.29.16.61.25.93.36.32.11.64.22.91.43.28.2.46.51.57.81.21.62.22,1.25.46,1.78.23.54.73.86,1.22,1.08.5.23,1.01.39,1.46.63.91.5,1.45,1.31,1.84,2,.39.71.66,1.35.89,1.86.23.51.41.91.53,1.19.06.13.1.23.13.31.03.07.04.11.04.11Z"/>
            <path class="cls-3" d="m165.59,45.6s.03,0,.1-.02c.07,0,.17,0,.29.06.24.12.5.46.54.96.02.25-.05.52-.12.81-.07.29-.16.6-.14.94.02.34.17.68.38,1,.21.33.48.65.7,1.04.22.38.33.9.14,1.37-.17.46-.51.85-.67,1.32-.17.47-.07,1,.15,1.49.21.5.51.98.72,1.53.11.27.18.57.17.88,0,.31-.08.62-.21.9-.26.57-.68,1.04-1.03,1.55-.36.5-.65,1.09-.57,1.72.07.63.42,1.2.66,1.83.12.32.2.65.2,1,0,.34-.1.68-.25.98-.31.6-.77,1.06-1.17,1.53-.41.47-.77.96-.95,1.54-.19.56-.29,1.16-.56,1.69-.13.26-.32.51-.55.69-.23.18-.51.28-.77.37-.26.09-.52.16-.75.27-.23.11-.44.26-.63.43-.37.34-.64.76-.89,1.16-.25.4-.48.8-.74,1.16-.51.72-1.22,1.18-1.89,1.39-.67.22-1.29.24-1.77.17-.49-.07-.85-.2-1.08-.32-.23-.12-.34-.2-.34-.2.01-.03.46.33,1.43.45.48.06,1.08.03,1.73-.19.65-.21,1.33-.66,1.82-1.37.25-.35.48-.75.73-1.16.25-.41.52-.83.9-1.19.19-.18.42-.33.66-.45.25-.12.51-.19.77-.28.26-.09.51-.18.72-.35.21-.16.38-.39.51-.64.25-.5.35-1.09.55-1.67.18-.59.57-1.12.97-1.59.41-.48.86-.94,1.15-1.5.14-.28.23-.59.24-.9,0-.32-.08-.63-.19-.94-.22-.61-.59-1.19-.66-1.87-.04-.33.02-.68.13-.98.12-.31.29-.58.47-.84.36-.52.77-.98,1.02-1.52.12-.27.19-.55.19-.83,0-.28-.06-.56-.16-.83-.2-.53-.5-1.01-.71-1.52-.22-.5-.33-1.08-.14-1.59.18-.5.52-.88.68-1.32.18-.43.09-.89-.12-1.26-.2-.38-.47-.7-.68-1.04-.21-.33-.37-.69-.39-1.05-.01-.36.08-.68.16-.96.07-.29.14-.55.13-.79-.03-.48-.27-.82-.49-.94-.23-.12-.37-.06-.37-.08Z"/>
            <path class="cls-5" d="m144.88,63.17c.15-.36.57-.54.93-.4,1.13.42,2.27.83,3.4,1.25l.38.14c-.16.6-.42,1.46-.75,1.99-.33.53-.85.96-1.47,1.04-.46.06-1.04-.11-1.43-.36-.69-.43-1.35-.91-1.5-1.71-.11-.57.22-1.41.45-1.94Z"/>
            <path class="cls-8" d="m126.42,63.12s-.33.1-.81.47c-.47.37-1.1,1.08-1.32,2.17-.12.54-.12,1.15.04,1.78.17.62.5,1.25.99,1.79.49.54,1.13.99,1.89,1.24.75.26,1.61.28,2.42.05.81-.23,1.53-.67,2.07-1.26.54-.59.87-1.31.99-2.03.23-1.45-.3-2.79-1.07-3.57-.39-.39-.84-.63-1.23-.8-.4-.17-.77-.25-1.07-.28-.3-.03-.54-.01-.7.02-.16.04-.23.07-.23.07,0,.02.33-.1.92-.02.29.04.65.13,1.03.31.38.17.81.41,1.17.79.72.76,1.22,2.05.98,3.43-.12.68-.43,1.37-.95,1.92-.51.56-1.2.98-1.97,1.2-.77.22-1.58.2-2.3-.04-.72-.24-1.34-.66-1.81-1.18-.48-.51-.8-1.11-.97-1.7-.16-.6-.17-1.19-.07-1.71.19-1.05.78-1.76,1.22-2.13.46-.38.77-.51.76-.53Z"/>
            <path class="cls-4" d="m143.51,56.13c.05.62-.44,1.17-1.08,1.24-.65.06-1.21-.39-1.26-1.01-.05-.62.44-1.17,1.08-1.24.65-.06,1.21.39,1.26,1.01Z"/>
            <path class="cls-4" d="m154.45,56.13c.05.62-.44,1.17-1.08,1.24-.65.06-1.21-.39-1.26-1.01-.05-.62.44-1.17,1.08-1.24.65-.06,1.21.39,1.26,1.01Z"/>
            <path class="cls-4" d="m155.25,51.51c-.11.18-1.01-.43-2.17-.31-1.16.11-1.92.89-2.07.74-.07-.07.03-.37.36-.73.33-.35.91-.72,1.63-.8.72-.07,1.36.17,1.75.45.39.28.55.56.49.64Z"/>
            <path class="cls-4" d="m144.2,52.46c-.16.18-1.15-.59-2.54-.58-1.39,0-2.4.76-2.55.58-.07-.08.08-.41.52-.76.43-.35,1.18-.69,2.04-.69.87,0,1.6.34,2.02.68.43.35.58.67.5.76Z"/>
            <path class="cls-4" d="m148.14,66.76s-.1.15-.37.28c-.27.13-.73.21-1.26.11-.53-.11-1.14-.37-1.66-.88-.26-.25-.48-.61-.57-1-.09-.4-.06-.82.03-1.22.1-.4.25-.77.43-1.11.09-.17.23-.39.49-.46.26-.06.46.04.61.1.6.24,1.17.47,1.69.68.96.4,1.54.67,1.52.72-.02.05-.63-.14-1.61-.47-.53-.19-1.1-.39-1.71-.61-.35-.14-.51-.12-.67.21-.16.32-.3.67-.39,1.04-.2.73-.04,1.46.42,1.91.45.46,1,.74,1.48.86.48.12.89.09,1.16.01.27-.08.4-.17.42-.14Z"/>
            <path class="cls-4" d="m170.8,28.89s-.45-.45-1.48-.86c-.51-.19-1.17-.36-1.95-.35-.77,0-1.66.2-2.48.72l-.12.07-.07-.12c-.52-.9-1.5-1.67-2.72-2-1.2-.33-2.67-.22-3.81.6l-.14.1-.1-.14c-1.02-1.4-2.71-2.49-4.64-2.81-1.48-.25-2.97.02-4.22.64-1.26.61-2.27,1.55-2.94,2.61l-.05.07h-.09c-1.65.07-3.16.49-4.38,1.09-1.23.58-2.19,1.32-2.91,1.99-1.44,1.37-1.94,2.45-1.99,2.41,0,0,.02-.07.09-.19.07-.12.16-.31.3-.54.29-.46.75-1.11,1.47-1.82.71-.7,1.68-1.48,2.93-2.1,1.24-.63,2.78-1.09,4.49-1.17l-.13.08c.69-1.11,1.75-2.1,3.06-2.75,1.31-.65,2.89-.94,4.44-.68,2.02.34,3.79,1.49,4.86,2.96l-.25-.04c1.26-.9,2.84-.99,4.11-.63,1.29.36,2.32,1.19,2.87,2.17l-.19-.05c.88-.53,1.82-.71,2.63-.7.81,0,1.49.2,2.01.42.52.23.88.49,1.11.67.22.2.33.31.32.32Z"/>
            <path class="cls-4" d="m134.04,26.99s-.44.27-1.35.33c-.88.05-2.32-.14-3.57-1.28-.61-.56-1.12-1.38-1.32-2.34-.21-.96-.15-2.07.3-3.09.45-1.03,1.35-1.93,2.49-2.39,1.13-.47,2.5-.54,3.73-.03l-.21.05c.49-.6,1.24-1.02,2.04-1.16.66-.13,1.36-.07,1.98.17.62.24,1.15.69,1.5,1.22.72,1.06.83,2.45.31,3.52l-.24-.22c.89-.53,1.98-.45,2.79-.06.84.39,1.43,1.15,1.65,1.94.45,1.61-.23,3.11-1.08,3.9-.86.82-1.79,1.11-2.39,1.24-.31.07-.55.09-.71.09-.16,0-.25,0-.25,0,0-.03.34-.04.94-.2.59-.16,1.47-.48,2.27-1.28.79-.76,1.39-2.19.95-3.67-.21-.73-.75-1.39-1.51-1.74-.75-.35-1.72-.41-2.48.06l-.5.3.25-.52c.46-.95.35-2.22-.3-3.17-.32-.48-.79-.86-1.34-1.08-.55-.21-1.18-.27-1.78-.15-.73.13-1.39.51-1.83,1.04l-.09.1-.13-.05c-1.13-.47-2.4-.41-3.46.02-1.07.42-1.9,1.24-2.33,2.19-.43.95-.5,2-.31,2.9.18.91.65,1.68,1.21,2.23,1.16,1.1,2.53,1.34,3.39,1.32.89-.01,1.35-.23,1.36-.19Z"/>
            <path class="cls-4" d="m108.25,41.09s-.05-.07-.11-.21c-.06-.14-.14-.35-.21-.63-.14-.56-.26-1.43-.06-2.49.2-1.05.76-2.31,1.9-3.28,1.12-.96,2.79-1.6,4.57-1.39l-.18.1c.69-1.44,1.99-2.74,3.65-3.45,1.23-.52,2.58-.64,3.81-.44,1.23.2,2.34.71,3.22,1.39h-.18c1.3-.7,2.67-.97,3.86-.93,1.2,0,2.23.29,3.02.62.8.33,1.37.71,1.73,1,.36.29.53.47.52.48-.04.06-.74-.69-2.32-1.3-.79-.29-1.79-.54-2.95-.52-1.15,0-2.46.27-3.7.94l-.1.05-.09-.07c-.84-.64-1.9-1.12-3.07-1.3-1.17-.18-2.44-.07-3.61.43-1.58.66-2.82,1.9-3.48,3.26l-.06.11-.13-.02c-1.67-.21-3.26.38-4.34,1.27-1.1.9-1.65,2.09-1.87,3.09-.23,1.02-.14,1.87-.04,2.42.11.56.23.85.2.86Z"/>
          </g>
        </g>
      </g>
      <g>
        <path class="cls-8" d="m103.33,86.59c-.84,0-1.39.18-2.16.52-1.49.64-3.13,1-4.86,1-7.12,0-13.95-4.22-13.95-12.94,0-5.2,5.33-10.49,10.58-11.36,2.64-.44,6.52.86,8.6,1.86.82.4,1.71.62,2.63.62h1.28l.09-28.7c0-1.95-1.74-3.54-3.33-3.54H17.13c-2.71,0-4.45,1.58-4.45,3.54v29.61l3.42-.18c.8,0,1.58-.14,2.32-.42,1.48-.55,3.03-1.5,4.73-1.5,7.29,0,12.38,4.12,12.09,10.82-.26,5.9-4.63,10.51-11.1,10.92-2.28.14-4.25-.42-6.16-1.24-.85-.36-1.85-.63-2.8-.63l-2.5.05v28.99c0,2.4,2.14,4.34,4.77,4.34h83.3c2.64,0,4.77-1.95,4.77-4.34v-27.44h-2.21Z"/>
        <g>
          <g>
            <g>
              <path class="cls-11" d="m47.95,81.97l-.42-34.81c-.39-8.66,4.33-16.1,12.99-16.24l.8.03c8.07.33,14.53,6.8,14.84,14.87.29,7.5.52,15.8.31,19.81-.45,8.3-8.81,9.25-8.81,9.25-.02,0-.05,5.05-.05,7.49l-2.64,5.27-2.25-1.23-14.78-4.44Z"/>
              <path class="cls-14" d="m67.66,74.48s-5.25.09-10.68-3.64c0,0,2.34,6.35,10.66,5.95l.02-2.3Z"/>
              <path class="cls-4" d="m72.55,52.59c0,.63-.54,1.14-1.19,1.15-.65,0-1.18-.49-1.18-1.12,0-.63.54-1.14,1.19-1.15.66,0,1.18.49,1.18,1.12Z"/>
              <path class="cls-4" d="m74.24,49.02c-.15.15-1.02-.55-2.3-.6-1.27-.07-2.24.55-2.37.39-.07-.07.1-.35.52-.63.41-.28,1.11-.54,1.91-.5.8.04,1.45.36,1.82.67.38.32.5.6.43.67Z"/>
              <path class="cls-4" d="m61.26,52.36c0,.63-.54,1.14-1.19,1.15-.65,0-1.18-.49-1.18-1.12,0-.63.54-1.14,1.19-1.15.66,0,1.18.49,1.18,1.12Z"/>
              <path class="cls-4" d="m61.72,48.8c-.15.15-1.03-.55-2.3-.6-1.27-.07-2.24.55-2.37.39-.06-.07.09-.34.52-.63.41-.28,1.11-.54,1.91-.5.8.04,1.45.36,1.82.67.38.32.5.6.43.67Z"/>
              <path class="cls-4" d="m65.89,58.79c0-.07.8-.18,2.09-.29.33-.02.64-.07.7-.29.09-.23-.04-.59-.18-.98-.27-.8-.56-1.64-.86-2.52-1.19-3.59-2.04-6.54-1.9-6.58.15-.05,1.23,2.82,2.42,6.41.29.89.56,1.73.82,2.54.11.38.3.8.12,1.29-.1.24-.34.41-.56.45-.21.06-.4.05-.56.05-1.3.02-2.1-.01-2.1-.08Z"/>
              <path class="cls-4" d="m62.29,44.82c-.19.32-1.41-.08-2.92-.17-1.51-.13-2.77.09-2.91-.26-.06-.16.21-.45.75-.69.54-.24,1.36-.42,2.26-.35.9.07,1.69.36,2.18.67.5.32.72.64.64.79Z"/>
              <path class="cls-4" d="m74.46,45.27c-.27.28-1.31-.05-2.56-.09-1.25-.08-2.31.13-2.55-.18-.1-.15.07-.44.54-.7.46-.26,1.23-.47,2.09-.42.86.05,1.6.33,2.02.64.43.31.57.61.45.75Z"/>
              <path class="cls-11" d="m47.95,52.94c-.14-.07-5.64-1.92-5.69,3.76-.05,5.69,5.67,4.57,5.68,4.4.01-.16.01-8.17.01-8.17Z"/>
              <path class="cls-14" d="m46.22,58.94s-.1.07-.27.14c-.16.07-.45.12-.74,0-.6-.23-1.1-1.18-1.11-2.21,0-.52.1-1.01.29-1.42.18-.41.45-.7.75-.75.3-.07.51.12.58.28.07.16.04.27.07.28.02.01.12-.09.08-.33-.02-.11-.09-.25-.22-.36-.14-.11-.34-.17-.55-.15-.44.03-.84.43-1.04.87-.23.45-.37,1-.36,1.58.03,1.15.6,2.22,1.42,2.47.4.11.73,0,.91-.14.18-.14.21-.27.19-.28Z"/>
              <path class="cls-4" d="m61.88,59.58c.2-.01.2,1.29,1.33,2.22,1.12.92,2.51.77,2.52.95.02.08-.31.25-.9.27-.58.02-1.42-.16-2.11-.72-.68-.57-.98-1.32-1.03-1.86-.05-.55.09-.87.18-.86Z"/>
            </g>
            <g>
              <path class="cls-4" d="m87.64,37.94c-.09-.34-.33-.61-.62-.79-.65-.39-1.4-.35-2.12-.37-1.8-.05-3.59-.53-5.19-1.37.56-.28,1.09-.62,1.54-1.06.93-.91,1.47-2.3,1.07-3.54-.08-.23-.21-.47-.44-.55-.37-.12-.7.24-.96.53-.86.94-1.64,1.33-2.91,1.19-.78-.09-1.54-.27-2.15-.66-.02-.03-.05-.05-.07-.08-.29-.31-.58-.6-.86-.89,0,0,0,0,0,0h0c-2.12-2.14-3.94-3.64-5.82-4.42-2.76-1.15-7.4-1.66-10.31-.93-2.9.73-5.53,3.05-5.97,6.01-1.61-1.39-4.05-1.41-6.03-.63l-.05-.02c-2.21.76-3.49,3.07-4.16,5.31-.04.12-.07.25-.1.37-.76,1.17-1.78,2.17-3,2.86-.21.12-.46.27-.49.52-.03.24.17.45.37.59.52.38,1.14.64,1.77.76-.21.53-.45,1.05-.75,1.54-.25.42-.55.92-.34,1.36.16.34.59.48.97.43.37-.05.71-.25,1.03-.45-.25.59-.5,1.17-.76,1.76.8.15,1.62.09,2.4-.13.44,2.11.75,6,1.28,7.43,1.51.04,1.88-.12,2.64.14.98.34.59,2.08,1.87,1.6.66-.24,1.68-2.71,1.91-3.37,1.5-4.39,2.03-9.11,1.56-13.73.92-.96,2.03-1.74,3.25-2.29l-.1.09c2.33-.78,4.97-1.55,7.17-.43,1.7.87,2.69,2.65,3.95,4.09,2.39,2.71,5.12,4.18,8.74,4.37.3,2.51.35,6.62.44,8.97l2.05-4.67v.02c.17-.27.3-.55.43-.82l.05-.08h0c.21-.45.41-.9.67-1.34,0,0,.01.01.02.02,1.26,1.13,3.15-.56,2.16-1.93-.2-.27-.43-.52-.7-.72.57.55,1.44.82,2.2.6.76-.23,1.36-.99,1.31-1.78-.04-.54-.42-1.03-.91-1.25,1.02.09,2.08-.12,2.98-.62.59-.33,1.17-.87.98-1.61Z"/>
              <path class="cls-3" d="m55.44,31.99s-.35.22-.84.75c-.49.54-1.04,1.47-1.31,2.75-.14.64-.23,1.35-.24,2.11-.01.77.04,1.59.09,2.45.05.87.1,1.78.03,2.73-.03.47-.1.96-.2,1.44-.11.47-.24.99-.6,1.39-.29.33-.77.47-1.18.38-.42-.08-.78-.3-1.05-.61-.53-.63-.65-1.43-.78-2.13l.17.02c-.29.62-.59,1.24-1.03,1.73-.43.49-1.03.82-1.63.86-.3.02-.6-.03-.86-.16-.26-.13-.45-.35-.58-.58-.12-.24-.18-.49-.17-.74.02-.25.12-.48.27-.64l.09.08c-.65.72-1.33,1.11-1.8,1.32-.24.11-.43.17-.56.21-.13.04-.2.05-.2.05,0,0,.06-.03.19-.08.12-.05.31-.12.54-.24.46-.23,1.12-.62,1.74-1.34l.09.08c-.28.29-.31.81-.07,1.24.12.21.29.4.52.51.23.11.5.16.78.14.55-.05,1.11-.35,1.51-.82.41-.47.71-1.07.99-1.7l.12-.27.05.29c.13.7.26,1.46.74,2.03.24.27.58.48.94.54.36.07.75-.04,1-.32.32-.35.45-.83.56-1.3.11-.47.17-.94.2-1.41.07-.93.02-1.84-.02-2.71-.04-.87-.09-1.69-.07-2.47.02-.78.12-1.5.26-2.14.29-1.29.87-2.24,1.39-2.77.52-.53.9-.7.9-.7Z"/>
              <path class="cls-3" d="m81.09,40.38s-.02.02-.07.06c-.06.04-.13.09-.21.15-.09.07-.21.15-.36.22-.14.08-.31.18-.51.26-.78.36-2.02.71-3.57.6-1.53-.1-3.37-.67-5-1.91-1.65-1.21-3.09-2.99-4.26-5.02-.59-1.01-1.08-2.05-1.61-3.01-.53-.96-1.12-1.85-1.83-2.55-.71-.71-1.53-1.24-2.38-1.48-.42-.13-.85-.16-1.26-.16-.41.02-.8.1-1.16.21-.72.23-1.3.62-1.75,1.03-.45.41-.75.84-.95,1.21-.39.76-.41,1.25-.44,1.24,0,0,0-.03,0-.09.01-.07.03-.15.04-.25.04-.22.14-.54.33-.94.2-.38.5-.83.95-1.25.45-.42,1.04-.83,1.78-1.08.37-.12.77-.21,1.2-.23.42,0,.87.02,1.31.16.89.25,1.74.79,2.46,1.51.74.72,1.34,1.62,1.87,2.59.54.97,1.02,2,1.61,3.01,1.16,2.02,2.58,3.77,4.2,4.98,1.6,1.23,3.39,1.8,4.91,1.92,1.52.12,2.75-.2,3.53-.53.78-.34,1.16-.64,1.17-.62Z"/>
              <path class="cls-3" d="m81.89,36.74s-.1.08-.3.2c-.2.12-.5.28-.89.44-.39.17-.86.32-1.4.44-.54.12-1.15.2-1.79.22-.64,0-1.25-.05-1.8-.14-.55-.1-1.03-.24-1.42-.39-.39-.15-.7-.29-.91-.4-.21-.11-.32-.18-.31-.19.02-.03.47.21,1.26.46.39.13.87.25,1.41.34.54.08,1.14.13,1.77.13.63-.02,1.22-.09,1.76-.2.53-.11,1.01-.25,1.39-.4.78-.29,1.22-.55,1.24-.52Z"/>
            </g>
          </g>
          <g>
            <g>
              <path class="cls-16" d="m101.56,107.12s-14.34-21.78-18.57-22.73l-3.78-1.08h0l-11.43-3.1s.08,4.41-6.28,4.55c-7.34.16-13.49-6.29-13.49-6.29,0,0-15.25,4.75-18.45,7.33-3.2,2.58,2.07,32.47,2.07,32.47h55.81l-.04-.33,14.17-10.83Z"/>
              <path class="cls-16" d="m29.4,85.78s-4.82,3.28-6.16,9.99c-1.34,6.71-4.13,22.49-4.13,22.49h23.33s-1.07-9.73-1.07-10.47-4.04-16.71-4.28-17.08c-.24-.37-7.68-4.94-7.68-4.94Z"/>
              <path class="cls-4" d="m32.96,86.16c-.06.11,1.67.98,3.34,2.62,1.69,1.63,2.61,3.33,2.71,3.27.09-.03-.7-1.86-2.44-3.55-1.73-1.7-3.58-2.44-3.61-2.35Z"/>
            </g>
            <path class="cls-4" d="m39.53,118.29s-.02-.29-.02-.81c0-.56,0-1.3.01-2.2.01-1.86.02-4.43-.02-7.27-.04-2.84-.11-5.41-.18-7.27-.03-.9-.05-1.64-.07-2.2-.01-.52-.01-.81,0-.81.02,0,.05.29.09.8.04.52.09,1.27.15,2.2.11,1.86.21,4.43.25,7.27.04,2.84,0,5.42-.05,7.28-.03.93-.06,1.68-.09,2.2-.03.52-.05.81-.07.81Z"/>
            <polygon class="cls-11" points="97.95 109.88 100.76 118.37 87.43 118.28 87.39 117.95 97.95 109.88"/>
            <path class="cls-4" d="m84.23,95.7c.07,0,.79,4.99,1.62,11.17.83,6.18,1.45,11.2,1.38,11.21s-.79-4.99-1.62-11.18c-.83-6.18-1.45-11.2-1.38-11.21Z"/>
          </g>
        </g>
      </g>
      <path class="cls-4" d="m81.52,34.06s.32,0,.95-.01c.63,0,1.57,0,2.81-.01,2.47,0,6.12-.01,10.82-.02,1.18,0,2.42,0,3.73,0,.66,0,1.32-.01,2.01,0,.69.02,1.4.24,2.02.61.62.39,1.15.95,1.45,1.66.16.35.24.73.27,1.12.02.39,0,.77,0,1.16,0,1.56,0,3.18,0,4.86-.01,6.72-.03,14.38-.05,22.87v.08s-.08,0-.08,0c-.53,0-1.06,0-1.6,0-.54-.03-1.08-.13-1.6-.31-.53-.17-1-.45-1.51-.65-.5-.21-1.02-.41-1.54-.59-1.05-.36-2.13-.66-3.25-.84-.56-.09-1.13-.15-1.7-.16-.57,0-1.14.02-1.7.17-2.27.47-4.39,1.7-6.17,3.33-.89.81-1.68,1.77-2.33,2.81-.65,1.04-1.16,2.2-1.41,3.42-.26,1.22-.18,2.51,0,3.77.05.32.09.63.16.95l.25.93c.07.32.2.61.32.91.13.3.22.61.38.89,1.14,2.34,3.13,4.29,5.56,5.43.6.31,1.24.53,1.87.77.65.18,1.3.38,1.98.49,1.34.24,2.73.36,4.11.26,1.38-.11,2.75-.45,4.03-1.03.65-.29,1.38-.48,2.1-.46.71,0,1.43,0,2.14,0h.11s0,.11,0,.11c0,6.04,0,12.25,0,18.62,0,1.59,0,3.19,0,4.81,0,.81,0,1.61,0,2.42v1.22c0,.4,0,.83-.09,1.24-.18.82-.61,1.58-1.22,2.17-.59.6-1.36,1.01-2.17,1.24-.41.1-.83.18-1.25.18-.42.01-.83,0-1.24,0-.83,0-1.66,0-2.49,0-13.32,0-27.17,0-41.37,0-13.22,0-26.12,0-38.59-.01-1.59-.05-3.16-.87-4.01-2.23-.43-.67-.65-1.46-.66-2.25,0-.77,0-1.53,0-2.3,0-3.06,0-6.09,0-9.08,0-5.99,0-11.86,0-17.58v-.11h.11c.68-.02,1.35-.03,2.03-.04.67-.04,1.37.03,2.03.2.66.15,1.29.44,1.9.68.62.24,1.24.45,1.88.62,1.27.33,2.58.46,3.87.33,1.29-.09,2.56-.39,3.75-.86,2.37-.93,4.4-2.66,5.59-4.84,1.2-2.17,1.63-4.7,1.32-7.09-.16-1.19-.51-2.35-1.08-3.38-.58-1.03-1.36-1.93-2.25-2.67-.89-.75-1.93-1.3-2.99-1.7-.53-.22-1.08-.36-1.63-.52-.27-.07-.56-.11-.83-.17-.28-.06-.55-.11-.84-.13l-.84-.09c-.28-.02-.56-.02-.84-.04-.56-.03-1.11-.03-1.64.09-1.08.22-2.06.73-3.07,1.14-.5.21-1.02.4-1.56.51-.53.12-1.09.14-1.62.15-1.07.06-2.12.11-3.16.17h-.09s0-.09,0-.09c0-9.58.01-18.25.02-25.86,0-.95,0-1.89,0-2.81,0-.46-.02-.91.03-1.37.06-.46.22-.89.45-1.28.47-.78,1.21-1.34,2.02-1.63.82-.32,1.69-.24,2.49-.25,3.26,0,6.24,0,8.92.01,5.36.01,9.52.02,12.35.02,1.41,0,2.49,0,3.21.01.72,0,1.09.01,1.09.01,0,0-.37,0-1.09.01-.73,0-1.8,0-3.21.01-2.83,0-6.99.01-12.35.02-2.68,0-5.66,0-8.92.01-.81.01-1.66-.06-2.45.25-.78.29-1.5.83-1.95,1.58-.22.37-.37.79-.43,1.23-.05.43-.02.9-.03,1.35,0,.92,0,1.85,0,2.81,0,7.61.01,16.28.02,25.86l-.09-.09c1.04-.06,2.1-.11,3.17-.17.54-.02,1.06-.04,1.58-.15.52-.1,1.03-.29,1.53-.5,1-.42,2-.92,3.1-1.16.55-.13,1.13-.13,1.69-.1.28.01.56.01.85.04l.85.09c.28.02.56.08.85.13.28.06.57.1.84.17.55.16,1.12.29,1.65.52,1.08.41,2.14.97,3.05,1.73.92.75,1.71,1.67,2.31,2.72.58,1.06.94,2.24,1.1,3.46.31,2.43-.13,4.99-1.34,7.21-1.22,2.22-3.28,3.99-5.7,4.94-1.21.48-2.49.79-3.81.88-1.31.13-2.65,0-3.94-.34-.65-.17-1.28-.38-1.9-.62-.62-.25-1.22-.52-1.87-.67-.65-.16-1.29-.23-1.97-.19-.67.01-1.35.03-2.03.04l.11-.11c0,5.72,0,11.59,0,17.58,0,3,0,6.03,0,9.08.06,1.51-.26,3.14.62,4.42.8,1.28,2.3,2.07,3.82,2.11,12.46,0,25.37,0,38.58,0,14.21,0,28.06,0,41.37,0,.83,0,1.66,0,2.49,0,.83,0,1.65.04,2.43-.18,1.55-.42,2.89-1.66,3.22-3.23.08-.39.09-.78.09-1.19v-1.22c0-.81,0-1.62,0-2.42,0-1.61,0-3.21,0-4.81,0-6.37,0-12.58,0-18.62l.11.11c-.72,0-1.43,0-2.14,0-.71-.02-1.38.16-2.02.44-1.3.58-2.7.93-4.1,1.04-1.41.1-2.8-.02-4.16-.27-.68-.11-1.34-.31-2.01-.5-.64-.24-1.29-.46-1.9-.78-2.47-1.17-4.5-3.15-5.65-5.53-.17-.29-.26-.61-.39-.91-.12-.31-.25-.61-.32-.93l-.25-.95c-.07-.32-.1-.64-.16-.96-.18-1.28-.25-2.59.01-3.84.26-1.25.78-2.43,1.44-3.49.66-1.06,1.46-2.02,2.36-2.85,1.8-1.65,3.95-2.9,6.26-3.37.57-.15,1.17-.18,1.74-.17.58,0,1.16.07,1.72.16,1.13.18,2.22.49,3.28.85.53.18,1.05.38,1.55.6.51.21.99.48,1.5.65.51.17,1.03.27,1.56.3.53.02,1.06,0,1.59,0l-.08.08c.03-8.49.06-16.16.09-22.87,0-1.68.01-3.3.02-4.86,0-.39.01-.78,0-1.15-.02-.37-.1-.74-.25-1.08-.29-.68-.8-1.23-1.4-1.61-.6-.37-1.29-.58-1.96-.6-.68-.02-1.35,0-2.01-.01-1.31,0-2.55,0-3.73,0-4.71,0-8.35-.02-10.82-.02-1.23,0-2.17,0-2.81-.01-.63,0-.95-.01-.95-.01Z"/>
      <g>
        <g>
          <path class="cls-8" d="m93.27,149.99c2.25-.14,4.2.42,6.08,1.24.84.36,1.83.63,2.76.63l2.46-.05v-28.99c0-2.4-2.11-4.34-4.71-4.34H17.65c-2.6,0-4.71,1.95-4.71,4.34v76.43c0,1.95,1.72,3.54,3.84,3.54h83.96c2.12,0,3.84-1.58,3.84-3.54v-27.62h-3.4c-.79,0-1.56.14-2.29.42-1.46.55-3.06.85-4.74.85-7.2,0-13-5.51-12.71-12.21.25-5.9,5.44-10.28,11.83-10.69Z"/>
          <path class="cls-4" d="m93.27,149.99s-.28.04-.82.1c-.27.02-.6.08-1,.16-.4.06-.85.19-1.37.33-1.02.31-2.26.78-3.57,1.64-.32.22-.67.44-.98.72-.16.13-.33.26-.5.41-.16.15-.32.31-.48.46l-.24.24-.22.26c-.15.18-.3.36-.46.54-.27.4-.58.78-.81,1.24-.27.43-.46.92-.68,1.42-.16.51-.36,1.03-.45,1.59-.22,1.11-.28,2.32-.09,3.55.18,1.23.55,2.5,1.21,3.69.65,1.19,1.54,2.31,2.64,3.27,2.19,1.93,5.27,3.2,8.62,3.2,1.67.02,3.38-.3,5.04-.94.43-.14.87-.24,1.32-.29.45-.06.91-.04,1.37-.04.91,0,1.84,0,2.77,0h.08s0,.08,0,.08c0,4.33,0,8.92,0,13.77,0,2.42,0,4.91,0,7.45,0,1.27,0,2.56,0,3.86,0,.65,0,1.3,0,1.96,0,.33,0,.66-.03,1-.04.34-.14.67-.28.98-.57,1.26-1.88,2.1-3.27,2.21-1.37.03-2.73.01-4.12.02-2.77,0-5.59,0-8.47,0-5.75,0-11.7,0-17.84,0-12.27,0-25.27,0-38.82,0-3.39,0-6.81,0-10.26,0-1.73,0-3.45.02-5.21-.02-.89-.09-1.76-.46-2.42-1.08-.66-.61-1.09-1.49-1.12-2.4,0-7.03,0-14.17,0-21.41,0-10.47,0-20.75,0-30.77,0-5.01,0-9.95,0-14.82,0-2.43,0-4.85,0-7.25,0-.6,0-1.2,0-1.79-.01-.59,0-1.22.2-1.8.37-1.17,1.26-2.13,2.34-2.67.54-.27,1.13-.44,1.73-.5.6-.05,1.18-.02,1.77-.03,1.17,0,2.33,0,3.49,0,2.32,0,4.61,0,6.88,0,4.54,0,9,0,13.36,0,8.71,0,17.04,0,24.91,0,7.87,0,15.28,0,22.18.01,3.45,0,6.77,0,9.95,0,1.61-.07,3.22.64,4.15,1.89.47.61.76,1.35.85,2.1.05.76.01,1.48.02,2.21-.01,11.58-.02,20.83-.03,27.22v.04s-.04,0-.04,0c-.97.01-1.88.05-2.73.04-.85-.05-1.62-.27-2.3-.54-1.33-.59-2.48-.95-3.42-1.14-.94-.19-1.67-.22-2.14-.22-.24,0-.42,0-.54,0-.12,0-.18,0-.18,0,0,0,.24-.03.72-.03.48,0,1.2.02,2.15.2.95.18,2.11.54,3.43,1.12.67.26,1.43.48,2.28.52.84,0,1.75-.03,2.72-.05l-.04.04c0-6.39-.02-15.64-.03-27.22-.01-.72.02-1.47-.02-2.19-.09-.72-.36-1.43-.82-2.02-.91-1.2-2.46-1.89-4.03-1.82-3.18,0-6.5,0-9.95,0-6.9,0-14.31,0-22.18.01-7.87,0-16.19,0-24.91,0-4.36,0-8.81,0-13.36,0-2.27,0-4.57,0-6.88,0-1.16,0-2.32,0-3.49,0-.58,0-1.18-.02-1.74.03-.57.06-1.13.22-1.65.48-1.03.51-1.88,1.42-2.22,2.53-.19.55-.2,1.13-.19,1.73,0,.6,0,1.19,0,1.79,0,2.4,0,4.81,0,7.25,0,4.87,0,9.81,0,14.82,0,10.02,0,20.29,0,30.77,0,7.23,0,14.37,0,21.4.03.85.43,1.67,1.05,2.24.62.58,1.44.93,2.28,1.02,1.72.04,3.47.01,5.19.02,3.45,0,6.87,0,10.26,0,13.55,0,26.55,0,38.82,0,6.14,0,12.09,0,17.84,0,2.87,0,5.7,0,8.47,0,1.38,0,2.77.02,4.11-.01,1.32-.1,2.57-.91,3.11-2.1.13-.3.22-.61.26-.93.03-.32.03-.65.03-.98,0-.66,0-1.31,0-1.96,0-1.3,0-2.59,0-3.86,0-2.54,0-5.03,0-7.45,0-4.85,0-9.44,0-13.77l.08.08c-.94,0-1.86,0-2.77,0-.46,0-.91-.01-1.35.04-.44.05-.88.15-1.29.28-1.66.64-3.4.96-5.09.93-3.38,0-6.49-1.3-8.7-3.25-1.11-.97-2-2.11-2.66-3.31-.66-1.2-1.03-2.49-1.21-3.73-.19-1.24-.13-2.46.1-3.58.09-.57.29-1.09.46-1.61.22-.5.42-.99.69-1.43.23-.46.55-.85.82-1.25.16-.18.31-.37.46-.54l.23-.26.25-.24c.16-.16.32-.31.48-.47.16-.15.34-.28.5-.41.32-.28.67-.5.99-.72,1.32-.86,2.58-1.33,3.6-1.63.52-.14.97-.26,1.37-.32.4-.07.73-.13,1-.15.54-.05.82-.07.82-.07Z"/>
        </g>
        <g>
          <path class="cls-4" d="m45.46,144.94c-1.15-3.39-2.28-6.8-2.83-10.34-.55-3.53-.49-7.23.72-10.6.18-.51,1.75-3.94,2.29-3.89.39.03-.57,3.23-.37,3.56,1.9,3.17,2.45,7.01,2.2,10.7-.25,3.69-.98,7.02-2.02,10.57"/>
          <path class="cls-11" d="m45.83,163.44l-.89-32.15c-.4-8.96,4.48-16.67,13.45-16.82l.83.03c8.35.35,15.04,7.04,15.37,15.39.3,7.77.54,16.36.32,20.51-.46,8.6-9.12,9.58-9.12,9.58-.02,0-.08,8.93-.07,11.46l-6.11,6.49.35-1.96-14.12-12.53Z"/>
          <path class="cls-14" d="m65.78,159.99s-5.43.09-11.06-3.77c0,0,2.43,6.58,11.04,6.16l.02-2.38Z"/>
          <path class="cls-4" d="m71.73,137.09c0,.65-.56,1.18-1.24,1.19-.68,0-1.22-.51-1.22-1.16,0-.65.56-1.18,1.23-1.19.68,0,1.23.51,1.22,1.16Z"/>
          <path class="cls-4" d="m72.6,133.63c-.16.15-1.06-.57-2.38-.62-1.32-.07-2.32.57-2.45.4-.07-.07.1-.36.53-.65.43-.29,1.15-.56,1.97-.52.82.04,1.5.37,1.89.7.39.33.52.62.44.69Z"/>
          <path class="cls-4" d="m59.98,137.09c0,.65-.56,1.18-1.24,1.19-.68,0-1.22-.51-1.22-1.16,0-.65.56-1.18,1.23-1.19.68,0,1.23.51,1.22,1.16Z"/>
          <path class="cls-4" d="m59.63,133.4c-.16.15-1.06-.57-2.38-.62-1.32-.07-2.32.57-2.45.4-.07-.07.1-.36.54-.65.43-.29,1.15-.56,1.97-.52.82.04,1.5.37,1.89.7.39.33.52.62.44.69Z"/>
          <path class="cls-4" d="m63.95,143.75c0-.08.82-.18,2.16-.3.34-.02.66-.07.73-.3.09-.24-.04-.61-.18-1.01-.28-.83-.58-1.7-.89-2.61-1.23-3.72-2.11-6.77-1.96-6.81.15-.05,1.27,2.92,2.51,6.64.3.92.58,1.79.85,2.62.11.39.31.83.12,1.33-.1.25-.36.42-.58.47-.22.06-.41.05-.58.06-1.34.02-2.17-.01-2.18-.09Z"/>
          <path class="cls-4" d="m60.23,129.28c-.19.33-1.46-.08-3.02-.18-1.56-.13-2.87.09-3.02-.26-.06-.17.21-.46.77-.71.56-.25,1.4-.43,2.34-.36.93.07,1.75.37,2.26.7.52.33.75.66.66.82Z"/>
          <path class="cls-4" d="m72.82,129.74c-.28.29-1.35-.05-2.65-.1-1.29-.09-2.4.14-2.64-.18-.11-.16.07-.45.56-.72.48-.27,1.28-.48,2.16-.44.89.05,1.65.34,2.1.66.45.32.59.63.47.78Z"/>
          <path class="cls-11" d="m45.38,137.69c-.14-.07-5.84-1.99-5.89,3.9-.05,5.89,5.87,4.73,5.88,4.56.01-.17.01-8.46.01-8.46Z"/>
          <path class="cls-14" d="m43.59,143.9s-.1.07-.28.15c-.17.08-.46.13-.77,0-.62-.23-1.13-1.23-1.15-2.29,0-.54.11-1.05.3-1.47.18-.43.47-.73.78-.78.31-.07.53.12.6.29.08.17.04.28.07.29.02.01.13-.1.08-.34-.02-.12-.09-.26-.23-.37-.14-.12-.35-.18-.57-.16-.45.03-.87.44-1.08.9-.24.46-.38,1.04-.37,1.64.03,1.19.62,2.3,1.47,2.56.41.11.76,0,.94-.15.18-.14.22-.27.2-.29Z"/>
          <path class="cls-4" d="m70.78,120.15c.95-.53-1.9-3.61-4.25-4.68-3.54-1.61-8.94-2.6-12.21-1.68-3.93,1.11-7.19,3.06-9.17,6.64-1.97,3.57-2.72,7.74-2.61,11.82.03,1.25.16,2.54.83,3.6.82,1.3,2.4,2.12,2.33,3.92-.03.66.16,1.32.61,1.8,1.08,1.15,2.4.07,3-1.01,1.3-2.31,1.44-5.06,1.56-7.7.08-1.88.16-3.8-.37-5.6-.29-.98-.75-1.91-.98-2.91-.23-1-.2-2.13.42-2.94.1-.13.27-.3.48-.48,1.67-1.46,4-1.9,6.09-1.16,3.32,1.17,8.98,2.93,10.46,1.81,2.13-1.62,2.64-2.67,2.64-2.67l1.17,1.24Z"/>
          <path class="cls-4" d="m59.8,144.57c.2-.01.21,1.34,1.37,2.29,1.16.96,2.6.8,2.61.99.02.08-.32.26-.93.28-.6.02-1.47-.16-2.18-.75-.71-.59-1.02-1.37-1.06-1.92-.05-.57.1-.9.19-.89Z"/>
        </g>
        <g class="cls-1">
          <path class="cls-2" d="m59.11,170.66c-.73-1.22-1.55-2.11-2.28-3.32-.06-.1-.41-.47-.37-.58.03-.07-.36.39-.49.59-.74,1.14-1.91,2.19-2.69,3.19l-9.89-8.99c2.72,3.88,5.81,7.5,9.14,10.59.25.23.59.4.93.37.37-.04.64-.35.88-.63.5-.61,1-1.21,1.51-1.82.12-.14.24-.29.42-.33.24-.06.48.1.68.26.51.39,1.01.78,1.52,1.17.21.16.54.32.72.12.15-.17.04-.43-.08-.63Z"/>
        </g>
        <g>
          <path class="cls-7" d="m44.09,161.84s-13.83-3.56-21.75,5.4c-2.96,3.35-4.34,7.81-4.03,12.27.21,3.06.51,7.47.78,11.53.47,7.16,2.04,24.84,5.83,29.06,3.79,4.22,13.97,2.17,17.54.76,3.57-1.4,9.11-1.01,11.85-3.6,2.74-2.59,6.84-4.19,11.14-5.91,4.29-1.71,2.58-3.99,2.58-3.99l-6.42-13.59-23.27,4.65s-.96-8.96.04-11.66c.99-2.7,2.67-6.21,3.22-10.33.54-4.12,2.51-14.6,2.51-14.6Z"/>
          <path class="cls-4" d="m38.6,198.31s-.63.27-1.59.8c-.48.26-1.03.62-1.61,1.06-.57.45-1.16.98-1.73,1.6-.56.62-1.03,1.27-1.41,1.88-.38.62-.68,1.2-.89,1.71-.43,1.01-.59,1.68-.63,1.67-.02,0,.01-.17.08-.48.03-.15.08-.34.15-.55.07-.21.14-.45.25-.71.19-.52.48-1.12.86-1.76.38-.63.86-1.29,1.42-1.93.57-.63,1.18-1.17,1.77-1.61.59-.44,1.16-.78,1.66-1.03.24-.14.48-.23.68-.32.2-.09.38-.16.53-.2.29-.1.46-.15.46-.13Z"/>
          <g class="cls-1">
            <path class="cls-2" d="m37.81,198.29c-4.63.82-8.61,4.57-9.69,9.14-.15.64-.17,1.48.41,1.79.43.23.99,0,1.31-.37.32-.37.46-.86.61-1.33,1.32-4.03,4.33-7.48,8.16-9.33l-.8.09Z"/>
          </g>
          <path class="cls-13" d="m39.81,160.63h2.55l2.91-4.25,11.16,9.13,3.68,5.47,1.79-5.39,3.89-1.93,1,2.95,3.25,1.49-4.07,10.18-3.27,3.96s-5.06,3.74-11.76-2.42l-6.71-6.15-4.41-13.04Z"/>
          <path class="cls-7" d="m39.81,160.63s13.35,20.18,18.75,18.27c5.4-1.91,10.77-11.34,10.77-11.34,0,0,11.74,3.72,15.4,7.69s9.77,27.28,9.77,27.28l-56.17-4.09s-8.37-12.54-8.37-13.5,2.47-23.29,2.47-23.29l7.38-1.02Z"/>
          <path class="cls-11" d="m61.94,194.3s7.56-2.82,10.92-2.47c3.36.34,16.46,10.69,16.46,10.69l-17.05-.1-1.48-1.35-3.8,4.1-5.05-10.87Z"/>
          <path class="cls-4" d="m64.81,211.47s-.26.18-.77.46l-.05.03-.02-.06c-.51-1.25-1.54-3.92-2.7-7.03-.81-2.18-1.54-4.16-2.05-5.59-.24-.69-.44-1.26-.6-1.7-.14-.4-.2-.63-.19-.64.02,0,.11.21.28.6.17.44.4,1,.67,1.68.55,1.42,1.3,3.39,2.12,5.57,1.16,3.11,2.14,5.8,2.57,7.08l-.07-.03c.52-.25.81-.38.82-.37Z"/>
          <path class="cls-4" d="m24.8,174.23s.2.07.53.25c.33.18.8.45,1.37.81,1.13.72,2.63,1.84,4.15,3.22.76.69,1.46,1.37,2.08,2.01.61.64,1.18,1.21,1.56,1.78.39.56.57,1.1.63,1.48.03.19.03.34.03.44,0,.1-.01.15-.02.15-.02,0-.01-.21-.09-.57-.08-.36-.28-.86-.68-1.39-.38-.54-.96-1.09-1.58-1.72-.63-.63-1.33-1.3-2.08-1.99-1.51-1.37-2.98-2.5-4.08-3.25-.55-.38-1.01-.67-1.32-.88-.32-.2-.49-.32-.48-.33Z"/>
          <path class="cls-4" d="m68.37,208.11s-.05-.09-.14-.26c-.1-.19-.22-.45-.39-.78-.34-.7-.82-1.69-1.42-2.94-1.21-2.54-2.92-6.11-4.92-10.3l.12.06c-3.05.61-6.39,1.28-9.91,1.99-4.92.98-9.51,1.89-13.37,2.65l-.1.02-.02-.1c-.74-3.62-1.35-6.64-1.78-8.76-.2-1.04-.37-1.87-.48-2.45-.05-.27-.09-.49-.12-.65-.03-.15-.04-.22-.03-.22,0,0,.03.07.06.22.04.16.09.37.15.64.13.58.31,1.4.54,2.44.45,2.12,1.09,5.13,1.87,8.75l-.12-.08c3.86-.78,8.44-1.7,13.36-2.69,3.51-.7,6.86-1.36,9.91-1.97l.09-.02.04.08c1.97,4.21,3.64,7.79,4.84,10.34.58,1.26,1.04,2.26,1.37,2.97.15.33.27.6.35.79.08.18.12.28.11.28Z"/>
          <path class="cls-4" d="m42.36,160.63s.08.04.21.15c.15.12.34.27.57.46.49.41,1.18,1.01,2.01,1.78.83.77,1.8,1.71,2.88,2.76,1.08,1.04,2.26,2.19,3.59,3.28.58.46,1.17.88,1.77,1.24l-.16.04c1.07-1.42,2.32-2.48,3.14-3.62l.08-.12.08.12c.94,1.36,1.72,2.5,2.29,3.33.26.38.46.7.63.94.14.22.21.34.2.34,0,0-.1-.1-.25-.31-.17-.23-.4-.53-.67-.91-.59-.82-1.39-1.94-2.36-3.28h.16c-.83,1.18-2.08,2.25-3.11,3.64l-.07.09-.09-.05c-.62-.36-1.21-.79-1.8-1.25-1.35-1.1-2.53-2.26-3.6-3.31-1.07-1.05-2.02-2.01-2.84-2.79-.81-.79-1.49-1.41-1.96-1.84-.22-.2-.4-.36-.54-.49-.12-.11-.18-.18-.18-.18Z"/>
          <path class="cls-4" d="m67.2,167.99s-.31.19-.85.46c-.55.27-1.33.64-2.25,1.07l-.11.05-.05-.11c-.23-.56-.54-1.16-.93-1.74-.2-.31-.42-.59-.65-.86l.2-.03c-.49,1.15-.93,2.15-1.25,2.86-.32.71-.53,1.13-.56,1.12-.03-.01.13-.45.41-1.18.28-.73.69-1.74,1.17-2.89l.07-.18.13.15c.23.27.46.56.67.87.4.59.71,1.21.94,1.79l-.15-.06c.93-.41,1.72-.75,2.28-.99s.9-.36.91-.34Z"/>
        </g>
      </g>
    </g>
  </g>
</svg>