<?xml version="1.0" encoding="UTF-8"?>
<svg xmlns="http://www.w3.org/2000/svg" xmlns:xlink="http://www.w3.org/1999/xlink" viewBox="0 0 183.19 208.89">
  <defs>
    <style>
      .cls-1 {
        mix-blend-mode: multiply;
      }

      .cls-1, .cls-2, .cls-3, .cls-4, .cls-5, .cls-6, .cls-7, .cls-8, .cls-9, .cls-10, .cls-11, .cls-12, .cls-13, .cls-14, .cls-15, .cls-16, .cls-17, .cls-18 {
        stroke-width: 0px;
      }

      .cls-1, .cls-15 {
        fill: #e3e3e3;
      }

      .cls-19 {
        fill: url(#Degradado_sin_nombre_10);
      }

      .cls-19, .cls-20 {
        stroke: #1a1a1a;
        stroke-linecap: round;
        stroke-miterlimit: 10;
      }

      .cls-2 {
        fill: url(#Degradado_sin_nombre_10-4);
      }

      .cls-3 {
        fill: url(#Degradado_sin_nombre_10-3);
      }

      .cls-20 {
        fill: url(#Degradado_sin_nombre_10-2);
      }

      .cls-21 {
        isolation: isolate;
      }

      .cls-4 {
        fill: #4e4e4e;
      }

      .cls-5 {
        fill: #5794c9;
      }

      .cls-6 {
        fill: #c9c9c9;
      }

      .cls-7 {
        fill: #ccc;
      }

      .cls-8 {
        fill: #b0b1b1;
      }

      .cls-9 {
        fill: #b9263d;
      }

      .cls-10 {
        fill: #333;
      }

      .cls-11 {
        fill: #969696;
      }

      .cls-12 {
        fill: #fdfeff;
      }

      .cls-13 {
        fill: #818181;
      }

      .cls-14 {
        fill: #fff;
      }

      .cls-16 {
        fill: #ed334d;
      }

      .cls-17 {
        fill: #e6e6e5;
      }

      .cls-18 {
        fill: #676767;
      }
    </style>
    <linearGradient id="Degradado_sin_nombre_10" data-name="Degradado sin nombre 10" x1="58.91" y1="-3.45" x2="11.99" y2="43.47" gradientUnits="userSpaceOnUse">
      <stop offset="0" stop-color="#fff"/>
      <stop offset="1" stop-color="#fff" stop-opacity="0"/>
    </linearGradient>
    <linearGradient id="Degradado_sin_nombre_10-2" data-name="Degradado sin nombre 10" x1="89.88" y1="-16.98" x2="32.36" y2="40.54" xlink:href="#Degradado_sin_nombre_10"/>
    <linearGradient id="Degradado_sin_nombre_10-3" data-name="Degradado sin nombre 10" x1="13.71" y1="22.97" x2="-92.05" y2="128.73" gradientTransform="translate(92.08 -43.36) rotate(12.94)" xlink:href="#Degradado_sin_nombre_10"/>
    <linearGradient id="Degradado_sin_nombre_10-4" data-name="Degradado sin nombre 10" x1="26.55" y1="35.8" x2="-79.22" y2="141.56" gradientTransform="translate(92.08 -43.36) rotate(12.94)" xlink:href="#Degradado_sin_nombre_10"/>
  </defs>
  <g class="cls-21">
    <g id="Layer_2" data-name="Layer 2">
      <g id="Layer_1-2" data-name="Layer 1">
        <circle class="cls-5" cx="91.59" cy="96.12" r="91.59" transform="translate(-41.14 92.92) rotate(-45)"/>
        <g>
          <line class="cls-19" x1="22.45" y1="37.65" x2="31.88" y2="18.94"/>
          <g>
            <g>
              <g>
                <path class="cls-18" d="m74.67,170.6h8.65v36.32h-2.41c-3.44,0-6.23-2.79-6.23-6.23v-30.09h0Z" transform="translate(254.7 83.89) rotate(81.88)"/>
                <path class="cls-13" d="m61.89,195.57c.93-3.15,3.61-5.63,7.07-6.13l27.39-3.91.72,5.02.51-.07-1.22-8.56-27.39,3.91c-4.73.67-8.01,5.05-7.34,9.78l.27-.04Z"/>
                <circle class="cls-10" cx="67.9" cy="199.67" r="7.46"/>
              </g>
              <g>
                <path class="cls-18" d="m121.37,170.6h2.41v36.32h-8.65v-30.09c0-3.44,2.79-6.23,6.23-6.23Z" transform="translate(323.21 97.16) rotate(98.12)"/>
                <path class="cls-13" d="m102.1,185.53l27.39,3.91c3.46.49,6.14,2.98,7.07,6.13l.27.04c.67-4.73-2.61-9.11-7.34-9.78l-27.39-3.91-1.22,8.56.51.07.72-5.02Z"/>
                <circle class="cls-10" cx="130.68" cy="199.67" r="7.46"/>
              </g>
              <rect class="cls-10" x="95.44" y="193.65" width="8.52" height="15.24" rx="2.6" ry="2.6"/>
              <path class="cls-18" d="m94.94,162.87h9.07v33.95c0,1.8-1.47,3.27-3.27,3.27h-2.53c-1.8,0-3.27-1.47-3.27-3.27v-33.95h0Z"/>
              <rect class="cls-4" x="94.94" y="162.87" width="9.07" height="10.94"/>
              <path class="cls-13" d="m98.19,180v19.88c.41.12.83.21,1.28.21.79,0,1.52-.22,2.16-.57v-19.51h-3.44Z"/>
              <rect class="cls-4" x="91.03" y="134.19" width="16.88" height="36.32"/>
              <rect class="cls-10" x="91.03" y="134.19" width="16.88" height="19.06"/>
              <rect class="cls-4" x="82.59" y="134.19" width="33.77" height="14.07"/>
            </g>
            <rect class="cls-10" x="82.59" y="134.19" width="33.77" height="7.93"/>
          </g>
          <g>
            <rect class="cls-18" x="95.4" y="84.57" width="78.15" height="12.8" rx="4.61" ry="4.61"/>
            <path class="cls-13" d="m173.41,89.66c-.6-2.91-3.18-5.1-6.26-5.1h-65.35c-3.09,0-5.66,2.19-6.26,5.1h77.88Z"/>
          </g>
          <g>
            <path class="cls-8" d="m122.58,128.66l-13.56-96.63s8.14-6.2,4.63-19.64C111.03,2.33,101.95-.11,94.48,1.16H30.26l14.99,127.5h77.33Z"/>
            <polygon class="cls-11" points="122.58 128.66 120.24 111.99 43.29 111.99 45.25 128.66 122.58 128.66"/>
            <polygon class="cls-11" points="115.57 79.09 114.3 70.02 38.39 70.02 39.46 79.09 115.57 79.09"/>
            <path class="cls-11" d="m110.15,40.1l-1.13-8.07s.1-.08.25-.22H33.86l.97,8.28h75.32Z"/>
            <path class="cls-6" d="m109.98,12.39c3.5,13.43-4.63,19.64-4.63,19.64l13.56,96.63h3.68l-13.56-96.63s8.14-6.2,4.63-19.64C111.23,3.12,103.33.33,96.27.94c5.94.54,11.71,3.77,13.71,11.45Z"/>
            <polygon class="cls-6" points="106.9 43.52 82.97 43.52 86.01 65.21 109.94 65.21 106.9 43.52"/>
            <polygon class="cls-6" points="78.27 55.7 76.57 43.52 62.47 43.52 64.18 55.7 78.27 55.7"/>
            <path class="cls-6" d="m114.19,14.89c-.13-.8-.31-1.63-.53-2.5C111.03,2.33,101.95-.11,94.48,1.16H30.26l1.61,13.73h82.32Z"/>
            <path class="cls-15" d="m103.73,3.39h-27.44c2.78,1.78,5.03,4.6,6.17,8.73h27.44c-1.15-4.13-3.4-6.94-6.17-8.73Z"/>
            <path class="cls-15" d="m56.21,128.66l-13.56-96.63s8.14-6.2,4.63-19.64C44.31,1,33.06-.63,25.25,1.85l18.91,126.81h12.05Z"/>
            <path class="cls-6" d="m48.17,127.36L29.94,5.1c.6-.06,1.2-.09,1.8-.09,3.48,0,9.6,1.09,11.51,8.43,2.71,10.39-2.94,15.12-3.18,15.31l-1.83,1.48.28,2.37,13.3,94.75h-3.65Z"/>
            <path class="cls-15" d="m71.22,3.39h-10.34c2.78,1.78,5.04,4.59,6.19,8.73h10.33c-1.15-4.13-3.4-6.94-6.17-8.73Z"/>
            <polygon class="cls-1" points="122.58 128.66 109.27 33.83 48.11 128.66 122.58 128.66"/>
          </g>
          <g>
            <path class="cls-8" d="m175.25,138.46c-.04-5.97-3.15-11.56-8.31-14.56-6.16-3.58-16.59-7.21-33.87-7.84-1.94-.07-4.3-.08-6.9,0h-46.15v22.69h95.23v-.29Z"/>
            <path class="cls-6" d="m169.66,125.93c-.84-.76-1.73-1.46-2.73-2.03-6.16-3.58-16.59-7.21-33.87-7.84-1.94-.07-4.3-.08-6.9,0h-46.15v9.87h89.64Z"/>
            <path class="cls-12" d="m121.8,118.48c2.6-.08,7.27-.07,9.21,0,17.28.63,27.7,4.26,33.87,7.84,4.54,2.64,5.19,7.28,5.85,12.43h4.52v-.29c-.04-5.97-3.15-11.56-8.31-14.56-6.16-3.58-16.59-7.21-33.87-7.84-1.94-.07-4.3-.08-6.9,0h-46.15v2.42h41.78Z"/>
            <path class="cls-15" d="m130.05,138.75c-.04-5.9-3.07-11.44-8.15-14.46-6.24-3.71-16.81-7.61-34.03-8.23-12.12-.44-40.51,1.32-43.26,15.37h-.02v7.32h85.47Z"/>
            <path class="cls-6" d="m48.75,134.59v-2.61c1.94-8.16,19.27-11.81,35.75-11.81,1.17,0,2.25.02,3.22.06,16.89.61,26.76,4.5,32.06,7.65,2.54,1.51,4.43,3.92,5.4,6.72H48.75Z"/>
          </g>
          <g>
            <rect class="cls-7" x="35.23" y="84.57" width="78.15" height="12.8" rx="4.61" ry="4.61"/>
            <path class="cls-17" d="m113.12,89.28c-.74-2.71-3.2-4.71-6.15-4.71H41.63c-2.95,0-5.4,2-6.15,4.71h77.64Z"/>
          </g>
          <path class="cls-20" d="m55.21,43.43S61.54,12.85,46.66.5"/>
          <g>
            <rect class="cls-9" x="3.3" y="38.71" width="65.34" height="28.75" transform="translate(12.8 -6.71) rotate(12.94)"/>
            <rect class="cls-16" x="3.88" y="36.16" width="65.34" height="28.75" transform="translate(12.25 -6.9) rotate(12.94)"/>
            <path class="cls-3" d="m33,34.97l-25.06-5.76-5.76,25.06c10.27-6.43,20.55-12.87,30.82-19.3Z"/>
            <polygon class="cls-2" points="47.8 38.37 43.16 37.31 8.7 58.89 13.34 59.95 47.8 38.37"/>
            <g>
              <path class="cls-14" d="m19.29,40.47l-5.67,12.43-1.65-.38.34-13.66,1.98.46-.61,9.45h.04s3.6-8.75,3.6-8.75l1.98.46Z"/>
              <path class="cls-14" d="m15.89,53.43l5.91-12.38,1.56.36-.09,13.71-1.87-.43.09-2.93-2.55-.58-1.2,2.68-1.87-.43Zm5.67-3.5l.17-4.94h-.04s-2,4.51-2,4.51l1.87.43Z"/>
              <path class="cls-14" d="m30.98,52.98l-.19.81c-.09.4-.26.77-.49,1.09-.24.33-.52.6-.85.82-.33.22-.7.37-1.1.45-.4.08-.81.08-1.22-.02-.35-.08-.7-.21-1.05-.39-.34-.18-.63-.43-.87-.74s-.41-.68-.51-1.11c-.1-.43-.08-.94.06-1.54l1.65-7.18c.1-.43.26-.81.49-1.14s.51-.6.84-.81.7-.34,1.11-.41c.41-.07.84-.05,1.29.06.88.2,1.53.65,1.95,1.35.21.34.34.72.4,1.14.06.42.04.86-.06,1.31l-.17.73-1.87-.43.14-.62c.08-.37.05-.71-.09-1.02-.15-.32-.4-.52-.75-.6-.46-.11-.81-.03-1.02.22-.22.25-.38.6-.48,1.04l-1.53,6.67c-.09.38-.08.71.03,1.01s.37.49.8.59c.12.03.26.04.41.03.15-.01.3-.05.44-.12.13-.07.25-.19.37-.34s.2-.36.26-.62l.15-.64,1.87.43Z"/>
              <path class="cls-14" d="m30.81,56.85l5.91-12.38,1.56.36-.09,13.71-1.87-.43.09-2.93-2.55-.58-1.2,2.68-1.87-.43Zm5.67-3.5l.17-4.94h-.04s-2,4.51-2,4.51l1.87.43Z"/>
              <path class="cls-14" d="m39.03,58.74l3-13.04,1.8.41,1.01,8.51h.04s1.81-7.85,1.81-7.85l1.87.43-3,13.04-1.76-.4-1.06-8.5h-.04s-1.8,7.83-1.8,7.83l-1.87-.43Z"/>
              <path class="cls-14" d="m54.03,58.28l-.19.81c-.09.4-.26.77-.49,1.09-.24.32-.52.6-.85.82-.33.22-.7.37-1.1.45-.4.08-.81.07-1.22-.02-.35-.08-.7-.21-1.05-.4s-.63-.43-.87-.74c-.24-.31-.41-.68-.51-1.11-.1-.43-.08-.94.05-1.54l1.65-7.18c.1-.43.26-.81.49-1.14.23-.33.51-.6.84-.81s.7-.34,1.11-.41c.41-.07.84-.05,1.29.05.88.2,1.53.65,1.95,1.35.21.34.34.72.4,1.14.06.42.04.86-.06,1.31l-.17.73-1.87-.43.14-.62c.08-.37.05-.71-.09-1.02-.15-.32-.4-.52-.75-.6-.46-.11-.81-.03-1.02.22-.22.25-.38.6-.48,1.04l-1.53,6.67c-.09.38-.08.71.03,1.01.11.29.37.49.8.59.12.03.26.04.41.03.15,0,.3-.05.44-.12.13-.07.25-.19.37-.34s.2-.36.26-.62l.15-.64,1.87.43Z"/>
              <path class="cls-14" d="m56.44,62.74l1.27-5.51-.83-8.12,1.98.46.31,5.53h.04s2.69-4.83,2.69-4.83l1.98.46-4.3,6.94-1.27,5.51-1.87-.43Z"/>
            </g>
          </g>
        </g>
      </g>
    </g>
  </g>
</svg>