<?xml version="1.0" encoding="UTF-8"?>
<svg id="Layer_2" data-name="Layer 2" xmlns="http://www.w3.org/2000/svg" viewBox="0 0 183.19 183.19">
  <defs>
    <style>
      .cls-1 {
        opacity: .2;
      }

      .cls-2 {
        opacity: .3;
      }

      .cls-3 {
        opacity: .6;
      }

      .cls-4, .cls-5, .cls-6, .cls-7, .cls-8, .cls-9, .cls-10, .cls-11, .cls-12, .cls-13, .cls-14, .cls-15 {
        stroke-width: 0px;
      }

      .cls-5 {
        fill: #455b64;
      }

      .cls-6 {
        fill: #263238;
      }

      .cls-7 {
        fill: #5794c9;
      }

      .cls-8 {
        fill: #e0e0e0;
      }

      .cls-9 {
        fill: #fbbd9d;
      }

      .cls-10 {
        fill: #f3725f;
      }

      .cls-11 {
        fill: #fff;
      }

      .cls-12 {
        fill: #ec996f;
      }

      .cls-13 {
        fill: #ebebeb;
      }

      .cls-14 {
        fill: #fafbfb;
      }

      .cls-15 {
        fill: #010101;
      }
    </style>
  </defs>
  <g id="Layer_1-2" data-name="Layer 1">
    <circle class="cls-7" cx="91.59" cy="91.59" r="91.59" transform="translate(-37.94 91.59) rotate(-45)"/>
    <g>
      <g>
        <path class="cls-8" d="m140.99,140.18c-1.44-.9-3.09-1.47-4.78-1.65-.78-.08-1.64-.06-2.26.42-.13.1-.26.25-.23.41.02.12.12.21.22.28,1.95,1.48,4.89,1.67,7.06.53"/>
        <path class="cls-8" d="m140.87,140.04c-1.08-.84-2.17-1.7-3.09-2.72-.92-1.02-1.66-2.24-1.94-3.58-.08-.41-.11-.87.15-1.2,2.46,1.92,4.4,4.41,4.87,7.5"/>
        <path class="cls-8" d="m140.97,140.16c-.19-1.35-.25-2.73.06-4.06.31-1.32,1.03-2.59,2.16-3.35.43.99.24,2.14-.06,3.18-.46,1.61-1.19,3.14-2.14,4.51"/>
        <path class="cls-8" d="m143.38,144.48c-1.47.18-2.74.95-3.84,1.94-1.09.99-1.87,2.33-2.19,3.77,1.44-.09,2.66-1.1,3.54-2.24.88-1.14,1.5-2.38,2.47-3.45"/>
        <path class="cls-8" d="m143.9,145.17c-1.18-2.91-.75-6.41,1.09-8.95.83,2.97.53,6.32-1.09,8.95"/>
        <path class="cls-8" d="m147.09,148.97c-1.33-.08-2.68.23-3.84.9-1.15.66-2.11,1.67-2.7,2.87-.08.16-.15.37-.04.51.09.13.28.14.43.13,1.29-.08,2.43-.86,3.37-1.74.94-.88,1.76-1.9,2.81-2.67"/>
        <path class="cls-8" d="m146.99,148.76c-.69-2.19-.73-4.59-.12-6.8.24-.88.64-1.8,1.45-2.21.07-.04.15-.07.22-.04.07.03.11.1.14.16.29.6.37,1.29.34,1.95-.03.67-.17,1.32-.31,1.98-.25,1.21-.39,2.51-1.05,3.55-.16.25-.3.51-.42.78-.13.26-.13.36-.24.57"/>
        <path class="cls-8" d="m155.43,150.02c-.63-2.38.04-5.26,1.54-7.21.11-.14.26-.3.44-.28.28.03.35.39.34.67-.11,2.43-.92,4.83-2.31,6.82"/>
        <path class="cls-8" d="m156.19,150.54c2.89.75,6.21.02,8.61-1.75-1.42-.72-3.1-.93-4.66-.57-1.56.36-2.98,1.05-3.95,2.32"/>
        <path class="cls-8" d="m156.84,148.96c1.62-2.64,4.72-4.36,7.81-4.52-.36,1.26-1.39,2.24-2.56,2.83-1.17.59-2.47.85-3.75,1.1-.5.1-1.18.2-1.51.6"/>
        <path class="cls-8" d="m155.59,141.27c.44-1.5.88-3.02,1-4.58.12-1.56-.1-3.19-.91-4.53-1.51,2.93-1.67,6.34-.13,9.26"/>
        <path class="cls-8" d="m160.69,138.7c1.77-3.21,5.38-5.78,9.03-6.14-1.41,3.51-5.25,6.22-9.03,6.14"/>
        <path class="cls-8" d="m159.57,139.33c2.64.4,4.88,2.09,7.35,3.11.53.22,1.1.39,1.66.32s1.12-.45,1.25-1.01c.11-.46-.1-.95-.44-1.29-.33-.34-.77-.55-1.21-.73-2.68-1.12-5.56-1.15-8.39-.47"/>
        <path class="cls-8" d="m158.05,141.18c.6.17.8.48,1.27.88,1.6,1.37,3.53,2.35,5.57,2.86.21.05.49.07.6-.12.09-.17-.02-.37-.14-.52-.86-1.07-2.08-1.81-3.36-2.28-1.29-.48-2.4-1.06-3.94-.93"/>
        <path class="cls-8" d="m156.32,130.01c2.14,2,5.17,3.03,8.09,2.75.13-.01.28-.03.37-.13.2-.22-.04-.56-.28-.75-2.38-1.85-5.26-2.62-8.18-1.87"/>
        <path class="cls-8" d="m158.37,129.26c2.83-2.13,6.72-2.77,10.09-1.66-1.27,1.25-3.03,1.93-4.81,2.11s-3.55-.01-5.28-.45"/>
        <path class="cls-8" d="m157.56,124.13c-.23-2.37-.08-4.25-.25-6.63-.01-.19-.05-.42-.23-.49-.25-.1-.45.21-.54.46-.71,2.2-.32,4.72,1.01,6.6"/>
        <path class="cls-8" d="m157.38,124.39c1.61-.99,2.81-2.29,3.93-3.82.78-1.06,1.43-2.33,1.25-3.64-1.09-.02-2.13.58-2.84,1.41-.71.83-1.13,1.86-1.45,2.91-.31,1.04-.54,2.12-.9,3.14"/>
        <path class="cls-8" d="m161.25,123.31c3.53-1.31,6.82-3.25,9.67-5.7-1.16-.47-2.48-.19-3.63.28-2.64,1.07-4.8,2.86-6.09,5.4"/>
        <path class="cls-8" d="m158.47,125.69c1.79.2,3.6.32,5.37.03,1.74-.29,3.39-.98,5.01-1.67.13-.06.28-.12.34-.26.06-.15,0-.32-.12-.43-.12-.11-.27-.16-.43-.2-1.77-.49-3.68-.26-5.42.32s-3.17,1.28-4.76,2.2"/>
        <path class="cls-8" d="m148.27,130.09c-1.22-2.46-1.14-5.33-.09-7.86.74,1.13.83,2.57.7,3.91-.14,1.34-.54,2.73-.57,4.08"/>
        <path class="cls-8" d="m143.41,127.63c-3.04-.06-6.08,1.24-8.15,3.47,1.52.24,3.08-.15,4.46-.83,1.38-.67,2.61-1.62,3.82-2.56"/>
        <path class="cls-8" d="m140.14,126.54c-1.49-.12-2.92-.3-4.35.13-1.43.44-2.73,1.43-3.32,2.81,1.39.16,2.8-.19,4.08-.77,1.28-.58,2.44-1.38,3.59-2.17"/>
        <path class="cls-8" d="m144.98,126.59c-1.34-.88-2.71-1.77-4.27-2.13-1.56-.36-3.36-.09-4.45,1.08,1.26.74,2.79.83,4.26.83,1.46,0,3.26-.02,4.64.47"/>
        <path class="cls-8" d="m144.99,126.66c-2.29-2.25-3.16-6.28-2.24-9.36,1.8,2.73,2.6,6.11,2.24,9.36"/>
        <path class="cls-8" d="m151.28,120.29c.43-1,.74-2.06,1.12-3.08.39-1.02.87-2.03,1.6-2.84.73-.81,1.74-1.41,2.83-1.47-.68,3.09-2.74,5.85-5.5,7.4"/>
        <path class="cls-8" d="m150.14,121.62c-.71-.98-1.54-2.32-2.51-3.05-.97-.73-2.23-1.18-3.41-.9,1.2,2.15,3.47,3.66,5.92,3.95"/>
        <path class="cls-8" d="m150.37,120.37c-.47-1.19-.94-2.39-1.13-3.66-.19-1.26-.07-2.61.57-3.72,1.26,2.37,1.66,4.92.62,7.4"/>
        <path class="cls-8" d="m151.29,113c.71-2.35,2.87-4.09,5.19-4.88.29-.1.6-.18.91-.14.31.05.61.26.67.56.08.4-.25.76-.56,1.03-1.81,1.55-3.94,2.73-6.22,3.43"/>
        <path class="cls-8" d="m151.32,111.08c.09-1.52.19-3.06.68-4.5.49-1.44,1.45-2.79,2.83-3.42.24,1.53-.44,3.06-1.26,4.38-.82,1.32-1.8,2.56-2.29,4.04"/>
        <path class="cls-8" d="m151.28,112.12c-.59-1.72-.65-3.89-1.68-5.39-.72-1.04-1.87-1.76-2.49-2.86-.41,1.03-.29,2.22.14,3.25.43,1.03,1.14,1.91,1.9,2.72.76.81,1.41,1.42,2.12,2.28"/>
        <path class="cls-8" d="m151.29,162.64s-.09-11.44-.09-25.56c0-14.12.03-25.56.08-25.56s.09,11.44.09,25.56c0,14.11-.03,25.56-.08,25.56Z"/>
        <path class="cls-8" d="m161.29,128.36s-.15.07-.43.16c-.31.1-.71.24-1.18.4-1,.34-2.37.83-3.86,1.44-1.47.63-2.86,1.15-3.66,1.83-.4.34-.62.7-.73.97-.11.27-.13.43-.15.43,0,0,0-.04,0-.12.01-.08.03-.19.08-.33.1-.28.32-.67.72-1.04.4-.36.95-.69,1.59-.99.63-.3,1.34-.61,2.08-.91,1.49-.61,2.88-1.09,3.89-1.4.5-.16.92-.27,1.2-.35.29-.07.45-.11.45-.1Z"/>
        <path class="cls-8" d="m164.57,120.31s-.04.05-.12.13c-.1.09-.22.21-.37.34-.34.31-.81.73-1.37,1.25-1.18,1.05-2.79,2.48-4.56,4.06-1.78,1.59-3.32,3.1-4.39,4.24-.53.57-.95,1.04-1.24,1.37-.13.15-.24.28-.33.38-.08.09-.12.13-.12.13,0,0,.03-.05.1-.15.07-.09.17-.23.31-.4.27-.34.68-.83,1.21-1.41,1.05-1.16,2.58-2.7,4.36-4.29,1.79-1.58,3.41-3,4.6-4.03.58-.5,1.06-.91,1.41-1.21.16-.13.28-.24.39-.32.09-.07.14-.11.14-.1Z"/>
        <path class="cls-8" d="m156.23,127.7s.33-.88.7-1.97c.37-1.09.55-2,.6-2,.04,0-.06.95-.44,2.05-.19.55-.39,1.03-.55,1.38-.16.34-.28.55-.3.54Z"/>
        <path class="cls-8" d="m151.3,134.63s-.11-.11-.27-.32c-.19-.24-.42-.54-.7-.9-.59-.76-1.41-1.82-2.32-2.97-.92-1.15-1.76-2.19-2.37-2.94-.29-.36-.53-.65-.72-.89-.17-.21-.26-.33-.25-.34,0,0,.11.1.3.3.18.2.44.49.76.86.63.73,1.49,1.75,2.41,2.91.92,1.15,1.72,2.22,2.29,3,.28.39.51.71.66.93.15.22.23.35.22.36Z"/>
        <path class="cls-8" d="m149.11,131.81s-.61-.67-.92-1.72c-.23-.74-.24-1.42-.21-1.73h.07c-.03.14-.06.21-.07.21-.01,0-.01-.08,0-.21h.07c.03.31.07.97.29,1.69.3,1.02.8,1.74.76,1.77Z"/>
        <path class="cls-8" d="m146.28,128.25s-.21-.21-.64-.37c-.43-.17-1.07-.2-1.78-.14-.71.05-1.34.18-1.79.29-.45.11-.73.2-.74.18,0-.02.26-.15.71-.29.45-.14,1.09-.29,1.81-.34.72-.06,1.39,0,1.84.2.45.2.61.48.6.48Z"/>
        <path class="cls-8" d="m145.61,127.39s-.37-.15-.98-.36c-.61-.21-1.47-.43-2.45-.5-.98-.07-1.87.01-2.5.13-.63.11-1.02.23-1.03.2,0-.01.09-.05.26-.11.17-.06.42-.14.74-.21.63-.15,1.54-.25,2.54-.18,1,.08,1.87.32,2.48.56.3.12.54.23.7.32.16.09.25.14.24.15Z"/>
        <path class="cls-8" d="m151.28,123.74s-.37-1.1-.72-2.49c-.35-1.39-.6-2.52-.56-2.53.04-.01.37,1.1.72,2.49.35,1.39.6,2.52.56,2.53Z"/>
        <path class="cls-8" d="m151.33,123.74s-.26-.73-.79-1.49c-.52-.78-1.19-1.17-1.17-1.21,0-.02.19.05.45.23.26.18.58.48.85.88.56.79.7,1.58.66,1.59Z"/>
        <path class="cls-8" d="m151.29,156.54s-.05-.28-.18-.76c-.13-.49-.37-1.18-.76-1.98-.79-1.62-2.23-3.66-4.06-5.72-.91-1.03-1.78-2.01-2.53-2.95-.75-.93-1.36-1.82-1.81-2.61-.45-.79-.74-1.46-.91-1.94-.08-.24-.15-.43-.18-.55-.04-.13-.05-.2-.05-.2.01,0,.1.26.29.73.19.47.5,1.13.95,1.9.46.77,1.08,1.65,1.83,2.57.75.93,1.63,1.9,2.54,2.93,1.83,2.06,3.27,4.13,4.04,5.77.39.82.61,1.52.72,2.02.05.25.09.44.1.57.02.13.02.2.02.2Z"/>
        <path class="cls-8" d="m160.33,146.33s-.17.1-.47.27c-.3.17-.73.43-1.23.81-.49.38-1.05.87-1.61,1.47-.57.6-1.15,1.29-1.75,2.04-1.19,1.49-2.3,2.82-2.97,3.87-.34.52-.58.96-.75,1.27-.16.31-.25.48-.26.48,0,0,.01-.05.04-.13.04-.09.08-.21.16-.37.14-.32.38-.77.7-1.31.65-1.08,1.75-2.42,2.94-3.91.6-.75,1.19-1.44,1.76-2.04.58-.6,1.14-1.09,1.65-1.46.51-.37.95-.62,1.27-.78.16-.08.29-.13.37-.16.09-.03.13-.05.13-.05Z"/>
        <path class="cls-8" d="m160.51,149.64s-.38.07-1,.15c-.62.08-1.48.18-2.37.47-.9.29-1.64.74-2.13,1.12-.49.38-.72.69-.74.67,0,0,.04-.09.15-.23.11-.14.28-.33.52-.53.48-.41,1.23-.88,2.15-1.18.92-.29,1.79-.38,2.41-.43.62-.05,1.01-.05,1.01-.03Z"/>
        <path class="cls-8" d="m154.55,151.68c-.05-.03.4-.72.75-1.65.33-.94.41-1.76.46-1.75.02,0,.02.21-.02.54-.04.33-.12.78-.29,1.27-.17.48-.4.88-.58,1.16-.18.28-.31.44-.32.43Z"/>
        <path class="cls-8" d="m163.26,137.44s-.05.03-.16.09c-.12.06-.28.13-.47.21-.21.09-.46.2-.74.35-.28.15-.61.3-.96.5-.17.1-.36.2-.55.31-.19.11-.38.24-.58.36-.4.24-.81.55-1.24.85-.84.64-1.73,1.4-2.58,2.27-.84.88-1.57,1.79-2.18,2.66-.29.44-.58.85-.81,1.26-.12.2-.24.4-.34.59-.1.19-.2.38-.29.56-.19.35-.33.69-.47.97-.14.29-.24.54-.32.75-.08.19-.15.35-.2.48-.05.11-.07.16-.08.16,0,0,.01-.06.05-.17.04-.13.1-.29.17-.49.07-.21.17-.47.3-.76.13-.29.26-.63.45-.99.09-.18.19-.37.28-.56.1-.2.22-.39.34-.6.23-.42.51-.84.8-1.28.61-.88,1.34-1.8,2.19-2.69.86-.88,1.76-1.64,2.61-2.28.44-.31.85-.6,1.25-.85.2-.12.39-.25.58-.36.19-.11.38-.21.55-.3.35-.2.68-.34.97-.48.29-.14.54-.25.75-.32.2-.08.36-.14.48-.19.11-.04.17-.06.17-.05Z"/>
        <path class="cls-8" d="m156.1,142.24s.07-.28.39-.59c.32-.31.9-.59,1.58-.61.68-.02,1.27.17,1.67.33.4.16.64.29.63.31,0,.02-.26-.07-.67-.2-.41-.12-.98-.29-1.62-.27-.64.02-1.19.27-1.51.53-.33.26-.44.51-.47.5Z"/>
        <path class="cls-8" d="m155.03,143.34s.36-.62.45-1.46c.11-.85-.15-1.51-.1-1.53.02,0,.11.15.19.43.08.28.13.68.08,1.12-.05.44-.2.82-.34,1.07-.14.25-.26.38-.28.37Z"/>
      </g>
      <path class="cls-8" d="m143.39,158.18c.25,4.37,1.56,8.82,3.59,13.32h8.82c1.93-4.45,3.16-8.89,3.38-13.32h-15.79Z"/>
      <path class="cls-14" d="m157.74,165.26s-2.9.08-6.48.08-6.48-.04-6.48-.08,2.9-.08,6.48-.08,6.48.04,6.48.08Z"/>
      <path class="cls-14" d="m157.55,166.84s-2.72.08-6.08.08-6.08-.04-6.08-.08,2.72-.08,6.08-.08,6.08.04,6.08.08Z"/>
      <path class="cls-14" d="m147.12,161.05s.08.91.08,2.03-.04,2.03-.08,2.03-.08-.91-.08-2.03.04-2.03.08-2.03Z"/>
      <path class="cls-14" d="m151.85,161.05s.08.94.08,2.1-.04,2.1-.08,2.1-.08-.94-.08-2.1.04-2.1.08-2.1Z"/>
      <path class="cls-14" d="m156.28,161.02s.08.96.08,2.14-.04,2.14-.08,2.14-.08-.96-.08-2.14.04-2.14.08-2.14Z"/>
      <path class="cls-14" d="m158.89,161.05s-3.4.08-7.6.08-7.6-.04-7.6-.08,3.4-.08,7.6-.08,7.6.04,7.6.08Z"/>
    </g>
    <g>
      <rect class="cls-8" x="19.25" y="121.87" width="7.25" height="43.53"/>
      <rect class="cls-8" x="30.91" y="121.87" width="7.25" height="43.53"/>
      <rect class="cls-8" x="42.56" y="121.87" width="7.25" height="43.53"/>
      <rect class="cls-8" x="54.22" y="121.87" width="7.25" height="43.53"/>
      <rect class="cls-8" x="65.88" y="121.87" width="7.25" height="43.53"/>
      <rect class="cls-8" x="77.54" y="121.87" width="7.25" height="43.53"/>
      <rect class="cls-8" x="89.2" y="121.87" width="7.25" height="43.53"/>
      <rect class="cls-8" x="14.84" y="126.79" width="80.58" height="2.33" rx="1.06" ry="1.06"/>
      <rect class="cls-8" x="14.84" y="160.16" width="80.58" height="2.33" rx="1.06" ry="1.06"/>
    </g>
    <g>
      <rect class="cls-8" x="126.06" y="15.46" width="40.43" height="66.93"/>
      <rect class="cls-13" x="124.72" y="15.46" width="40.43" height="66.93"/>
      <rect class="cls-14" x="126.44" y="16.81" width="36.99" height="64.22"/>
      <g>
        <rect class="cls-13" x="133.48" y="25.16" width="22.75" height="47.53"/>
        <path class="cls-8" d="m133.48,55.87c-.05-4.44,3.94-8.77,8.34-9.39,2.1-.3,4.32.12,6.28-.68,3.5-1.43,4.61-6.08,8.13-7.46l.16,34.35h-22.91v-16.82Z"/>
      </g>
    </g>
    <path class="cls-6" d="m165,171.94c0,.05-33.33.1-74.43.1s-74.43-.04-74.43-.1,33.32-.1,74.43-.1,74.43.04,74.43.1Z"/>
    <g>
      <path class="cls-10" d="m92.78,27.67l17.72-.75c3.22-.14,5.92,2.39,5.99,5.61l.63,27.38c.07,2.99-2.17,5.54-5.15,5.85h0c-1,.1-1.75.97-1.71,1.97l2.23,57.82c.15,3.94-2.91,7.27-6.85,7.44l-67.71,3.01c-1.06.05-1.96-.79-1.99-1.85l-3-100.37c-.03-1.02.75-1.89,1.77-1.96l58.07-4.14Z"/>
      <g class="cls-2">
        <path class="cls-4" d="m35.87,132.25l.06,1.9,72.89-6.7-1.39-100.4s-17.69,2.68-18.02,2.68-53.54,102.52-53.54,102.52Z"/>
      </g>
      <g>
        <polygon class="cls-13" points="83.55 22.28 104.7 20.99 106.89 125.05 32.44 132.6 21.47 29.09 83.55 22.28"/>
        <path class="cls-6" d="m83.55,22.28s-.37.05-1.1.13c-.73.08-1.81.2-3.22.36-2.83.31-7,.78-12.37,1.38-10.74,1.18-26.25,2.9-45.39,5.01l.06-.08c2.94,27.73,6.77,63.76,10.99,103.51l-.1-.08c5.32-.54,10.97-1.11,16.69-1.69,20.25-2.05,39.74-4.03,57.76-5.85l-.08.09c-.93-45.5-1.7-82.81-2.14-104.06l.05.04c-6.88.41-12.17.73-15.74.94-1.78.1-3.14.18-4.04.24-.91.05-1.37.07-1.37.07,0,0,.46-.04,1.37-.1.91-.06,2.26-.14,4.04-.26,3.57-.22,8.86-.55,15.74-.98h.05s0,.04,0,.04c.46,21.25,1.26,58.56,2.23,104.06v.08s-.08,0-.08,0c-18.03,1.83-37.51,3.81-57.76,5.86-5.72.58-11.37,1.15-16.69,1.69h-.09s-.01-.09-.01-.09c-4.2-39.75-8.01-75.78-10.94-103.52v-.07s.06,0,.06,0c19.14-2.09,34.66-3.78,45.4-4.95,5.37-.58,9.54-1.03,12.37-1.34,1.41-.15,2.49-.27,3.22-.34.73-.08,1.1-.11,1.1-.11Z"/>
      </g>
      <g>
        <polygon class="cls-11" points="17.77 25.63 27.85 130.36 105.82 123.01 94.58 18.36 17.77 25.63"/>
        <path class="cls-6" d="m17.77,25.63c.64-.06,30.25-2.89,76.8-7.34h.08s0,.07,0,.07c3.16,29.38,7.06,65.56,11.26,104.65v.1s-.09,0-.09,0c-.17.02-.36.03-.55.05-27.8,2.62-54.15,5.09-77.42,7.28h-.09s0-.08,0-.08c-5.92-62.01-9.92-103.97-9.99-104.74.07.76,4.15,42.72,10.17,104.72l-.09-.08c23.28-2.2,49.62-4.68,77.42-7.3.19-.02.38-.04.55-.05l-.09.11c-4.19-39.09-8.08-75.27-11.23-104.65l.09.07c-46.56,4.36-76.17,7.13-76.82,7.19Z"/>
      </g>
      <g>
        <path class="cls-8" d="m77.57,105.06c.01-6.34,5.18-11.48,11.52-11.47,6.34.01,11.48,5.18,11.47,11.52-.01,6.34-5.18,11.48-11.52,11.47-6.34-.01-11.48-5.18-11.47-11.52Zm22.77.05c.01-6.22-5.03-11.29-11.26-11.31-6.22-.01-11.29,5.03-11.31,11.26-.01,6.22,5.03,11.29,11.26,11.31,6.22.01,11.29-5.03,11.31-11.26Z"/>
        <path class="cls-8" d="m78.88,105.06c.01-5.53,4.52-10.01,10.05-10s10.01,4.52,10,10.05c-.01,5.53-4.52,10.01-10.05,10-5.53-.01-10.01-4.52-10-10.05Zm18.57.04c.01-4.71-3.81-8.55-8.53-8.57-4.71-.01-8.55,3.81-8.57,8.53-.01,4.71,3.81,8.55,8.53,8.57,4.71.01,8.55-3.81,8.57-8.53Z"/>
        <path class="cls-8" d="m81.35,105.21c0-1.17.27-2.29.79-3.33l1.32.67c-.42.83-.63,1.72-.64,2.66,0,3.27,2.65,5.94,5.92,5.95,1.1,0,2.17-.3,3.11-.87l.77,1.26c-1.17.71-2.51,1.09-3.88,1.09-4.09,0-7.41-3.34-7.4-7.43Z"/>
        <path class="cls-8" d="m85.34,98.65c1.05-.55,2.24-.84,3.44-.84,4.09,0,7.41,3.34,7.4,7.43,0,1.4-.4,2.76-1.14,3.93l-1.25-.79c.59-.94.91-2.03.91-3.15,0-3.27-2.65-5.94-5.92-5.95-.97,0-1.9.22-2.75.67l-.68-1.31Z"/>
      </g>
      <g>
        <path class="cls-6" d="m40.53,35.63c-.12-1.21.71-2.15,1.97-2.28.73-.07,1.35.13,1.78.57l-.65.72c-.28-.27-.6-.41-.98-.37-.65.07-1.06.57-.99,1.24.07.68.57,1.09,1.22,1.02.38-.04.67-.23.89-.56l.78.57c-.34.52-.9.85-1.63.92-1.26.13-2.27-.63-2.39-1.84Z"/>
        <path class="cls-6" d="m44.63,35.21c-.12-1.19.72-2.16,1.99-2.29,1.27-.13,2.29.65,2.41,1.83.12,1.19-.72,2.15-1.99,2.28-1.27.13-2.29-.65-2.41-1.83Zm3.27-.33c-.07-.68-.59-1.08-1.19-1.02-.6.06-1.02.56-.95,1.24.07.68.59,1.08,1.19,1.02.6-.06,1.02-.56.95-1.24Z"/>
        <path class="cls-6" d="m53.18,32.33l.41,3.96-.92.09-1.96-1.93.22,2.11-1.1.11-.41-3.96.92-.09,1.96,1.93-.22-2.11,1.1-.11Z"/>
        <path class="cls-6" d="m54.91,33.05l-1.22.12-.09-.89,3.55-.36.09.89-1.21.12.31,3.07-1.12.11-.31-3.07Z"/>
        <path class="cls-6" d="m59.6,34.61l-.61.06.11,1.05-1.12.11-.41-3.96,1.81-.19c1.08-.11,1.82.38,1.91,1.29.06.58-.18,1.04-.65,1.33l.98,1.16-1.2.12-.83-.98Zm-.2-2.03l-.62.06.12,1.16.62-.06c.46-.05.67-.29.64-.65-.04-.37-.29-.56-.76-.51Z"/>
        <path class="cls-6" d="m64.74,34.37l-1.68.17-.23.8-1.14.12,1.34-4.14,1.1-.11,2.16,3.78-1.17.12-.39-.74Zm-.41-.79l-.64-1.22-.38,1.32,1.02-.1Z"/>
        <path class="cls-6" d="m66.15,33.01c-.12-1.21.71-2.15,1.97-2.28.73-.07,1.35.13,1.78.57l-.65.72c-.28-.27-.6-.41-.98-.37-.65.07-1.06.57-.99,1.24.07.68.57,1.09,1.22,1.02.38-.04.67-.23.89-.56l.78.57c-.34.52-.9.85-1.63.92-1.26.13-2.27-.63-2.39-1.84Z"/>
        <path class="cls-6" d="m71.23,31.38l-1.22.12-.09-.89,3.55-.36.09.89-1.21.12.31,3.07-1.12.11-.31-3.07Z"/>
      </g>
      <path class="cls-6" d="m92.73,45.31c0,.05-14.71,1.49-32.86,3.2-18.16,1.71-32.88,3.06-32.88,3.01,0-.05,14.71-1.48,32.86-3.2,18.15-1.71,32.87-3.06,32.88-3.01Z"/>
      <path class="cls-6" d="m57.06,44.48c0,.05-6.79.74-15.16,1.53-8.38.79-15.18,1.39-15.18,1.34,0-.05,6.78-.74,15.17-1.53,8.38-.79,15.18-1.39,15.18-1.34Z"/>
      <path class="cls-6" d="m93.02,49.57c0,.05-14.71,1.49-32.86,3.2-18.16,1.71-32.88,3.06-32.88,3.01,0-.05,14.71-1.48,32.86-3.2,18.15-1.71,32.87-3.06,32.88-3.01Z"/>
      <path class="cls-6" d="m93.31,53.84c0,.05-14.71,1.49-32.86,3.2-18.16,1.71-32.88,3.06-32.88,3.01,0-.05,14.71-1.48,32.86-3.2,18.15-1.71,32.87-3.06,32.88-3.01Z"/>
      <path class="cls-6" d="m93.59,58.11c0,.05-14.71,1.49-32.86,3.2-18.16,1.71-32.88,3.06-32.88,3.01,0-.05,14.71-1.48,32.86-3.2,18.15-1.71,32.87-3.06,32.88-3.01Z"/>
      <path class="cls-6" d="m93.88,62.37c0,.05-14.71,1.49-32.86,3.2-18.16,1.71-32.88,3.06-32.88,3.01,0-.05,14.71-1.48,32.86-3.2,18.15-1.71,32.87-3.06,32.88-3.01Z"/>
      <path class="cls-6" d="m94.17,66.64c0,.05-14.71,1.49-32.86,3.2-18.16,1.71-32.88,3.06-32.88,3.01,0-.05,14.71-1.48,32.86-3.2,18.15-1.71,32.87-3.06,32.88-3.01Z"/>
      <path class="cls-6" d="m94.45,70.91c0,.05-14.52,1.47-32.43,3.16-17.92,1.69-32.45,3.02-32.45,2.97,0-.05,14.51-1.47,32.44-3.16,17.91-1.69,32.45-3.02,32.45-2.97Z"/>
      <path class="cls-6" d="m69.12,79.12c0,.05-8.76.89-19.58,1.86-10.82.97-19.59,1.72-19.6,1.67,0-.05,8.76-.88,19.58-1.86,10.82-.97,19.59-1.72,19.6-1.67Z"/>
      <path class="cls-15" d="m58.48,114.39c0,.05-5.33.55-11.92,1.11-6.59.56-11.93.97-11.93.92,0-.05,5.33-.55,11.92-1.11,6.58-.56,11.93-.97,11.93-.92Z"/>
      <path class="cls-15" d="m48.23,118.46c0,.05-2.99.35-6.68.66-3.7.31-6.7.53-6.7.47,0-.05,2.99-.35,6.69-.66,3.7-.31,6.7-.53,6.7-.47Z"/>
      <path class="cls-10" d="m47.41,88.43c0,.05-3.52.44-7.87.87-4.35.43-7.88.73-7.88.68s3.52-.44,7.87-.87c4.35-.43,7.88-.73,7.88-.68Z"/>
      <g class="cls-2">
        <polygon class="cls-4" points="26.24 112.64 33.4 111.25 37.4 105.22 26 108.97 26.24 112.64"/>
      </g>
      <g>
        <polygon class="cls-10" points="13.69 104.93 32.8 103.12 37.4 105.22 33.73 109.35 14.32 111.45 13.69 104.93"/>
        <g>
          <path class="cls-11" d="m22.27,106.13l.25,2.45-.57.06-.1-1-1.11.11.1,1-.57.06-.25-2.45.57-.06.1.97,1.11-.11-.1-.97.57-.06Z"/>
          <path class="cls-11" d="m24.82,107.55l-1.42.14c.08.23.29.35.58.32.2-.02.34-.09.45-.23l.32.29c-.16.22-.41.35-.75.38-.65.07-1.12-.3-1.17-.86-.06-.56.33-1.01.91-1.07.55-.06,1.02.27,1.08.88,0,.04,0,.1,0,.15Zm-1.46-.18l.93-.09c-.06-.23-.26-.37-.5-.35-.25.02-.41.19-.43.44Z"/>
          <path class="cls-11" d="m26.25,106.27l.05.5s-.08,0-.12,0c-.3.03-.48.21-.45.58l.09.89-.55.05-.19-1.88.52-.05.03.25c.11-.2.33-.31.62-.34Z"/>
          <path class="cls-11" d="m28.5,107.18l-1.42.14c.08.23.29.35.58.32.2-.02.34-.09.45-.23l.32.29c-.16.22-.41.35-.75.38-.65.07-1.12-.3-1.17-.86-.06-.56.33-1.01.91-1.07.55-.06,1.02.27,1.08.88,0,.04,0,.1,0,.15Zm-1.46-.18l.93-.09c-.06-.23-.26-.37-.5-.35-.25.03-.41.19-.43.44Z"/>
        </g>
      </g>
      <path class="cls-15" d="m71.64,87.96s.02,0,.07.02c.04.01.11.04.19.09.16.09.38.26.61.52.48.52,1.05,1.42,1.55,2.67.48,1.25.93,2.88.8,4.81-.04.48-.12.97-.26,1.47-.15.49-.34.98-.59,1.47-.48.97-1.16,1.93-2.04,2.76-.88.83-1.93,1.57-3.16,2.07-1.22.49-2.61.77-4.03.63-2.83-.25-5.73-2.12-7.08-5.06-.35-.72-.55-1.52-.64-2.34-.1-.82-.02-1.67.26-2.47.27-.79.74-1.57,1.47-2.06.36-.25.79-.4,1.23-.46.44-.05.89,0,1.31.15.84.29,1.56.91,2.02,1.68.47.77.7,1.66.8,2.55.19,1.79-.09,3.65-.79,5.36-.7,1.71-1.81,3.23-3.24,4.34-1.42,1.11-3.14,1.77-4.88,1.96-1.73.2-3.49-.08-5-.81-1.52-.74-2.74-1.93-3.56-3.31-.83-1.37-1.24-2.95-1.2-4.47.02-.76.14-1.51.43-2.2.28-.68.69-1.32,1.26-1.77.56-.46,1.3-.7,2-.59.7.1,1.31.49,1.76.98.44.5.76,1.1.88,1.73.13.63.11,1.26,0,1.86-.23,1.2-.75,2.24-1.31,3.17-.56.93-1.19,1.74-1.84,2.45-.65.7-1.31,1.3-1.96,1.81-.65.49-1.28.91-1.86,1.24-1.17.67-2.16,1.04-2.83,1.25-.67.21-1.04.29-1.04.29,0,0,.09-.03.26-.08.17-.06.44-.12.77-.24.67-.22,1.65-.6,2.8-1.28.58-.33,1.2-.75,1.85-1.25.64-.51,1.3-1.1,1.94-1.81.64-.7,1.26-1.51,1.81-2.44.55-.92,1.07-1.96,1.28-3.13.11-.58.12-1.2,0-1.81-.12-.6-.43-1.18-.85-1.66-.43-.47-1.02-.84-1.67-.93-.66-.1-1.35.13-1.88.56-.54.43-.94,1.04-1.21,1.71-.28.66-.39,1.4-.41,2.14-.03,1.48.37,3.03,1.19,4.37.81,1.34,2.01,2.52,3.49,3.23,1.48.72,3.2.99,4.9.79,1.7-.19,3.39-.84,4.78-1.93,1.4-1.09,2.49-2.58,3.18-4.26.69-1.68.96-3.51.77-5.27-.1-.87-.33-1.74-.77-2.48-.44-.74-1.13-1.32-1.92-1.6-.4-.14-.82-.2-1.23-.15-.41.05-.8.2-1.14.43-.69.46-1.14,1.2-1.4,1.97-.27.77-.35,1.6-.25,2.39.09.8.28,1.58.62,2.29,1.32,2.87,4.16,4.73,6.93,4.97,1.39.14,2.76-.14,3.96-.61,1.21-.49,2.25-1.21,3.12-2.03.87-.82,1.54-1.75,2.03-2.71.24-.48.43-.97.59-1.45.14-.48.22-.97.26-1.44.14-1.9-.3-3.53-.77-4.77-.48-1.25-1.04-2.15-1.51-2.67-.23-.26-.44-.43-.6-.53-.15-.1-.25-.12-.24-.13Z"/>
      <path class="cls-5" d="m77.53,36.42s-.01-.06-.02-.18c-.01-.12-.03-.3-.06-.52-.05-.47-.13-1.14-.23-2.02-.19-1.77-.47-4.34-.83-7.6l.06.05c-9.02.95-23.49,2.48-39.78,4.19h0s.09-.11.09-.11c.37,3.55.73,7.01,1.08,10.33l-.1-.08c11.35-1.17,21.29-2.19,28.39-2.92,3.55-.36,6.4-.65,8.36-.85.98-.1,1.73-.17,2.25-.22.25-.02.45-.04.59-.06.13-.01.2-.02.2-.02,0,0-.06.01-.19.03-.14.02-.33.04-.57.07-.51.06-1.26.14-2.23.25-1.96.21-4.79.52-8.34.9-7.12.75-17.07,1.81-28.45,3.01h-.09s0-.08,0-.08c-.35-3.33-.71-6.79-1.08-10.33v-.1s.09,0,.09,0h0c16.29-1.69,30.77-3.18,39.79-4.12h.06s0,.05,0,.05c.33,3.27.59,5.86.77,7.64.09.88.15,1.55.2,2.01.02.22.04.39.05.51.01.11.01.17.01.17Z"/>
    </g>
    <g>
      <g>
        <g>
          <g>
            <g>
              <g>
                <path class="cls-6" d="m122.09,54.21c.04-.22.17-.42.35-.56.41-.33.95-.35,1.46-.36.3-.61.51-1.27.6-1.94-.24,0-.48-.07-.69-.2-.04-.01-.08-.02-.11-.03-.49-.23-.54-.96-.23-1.4.31-.44.84-.66,1.35-.86-.37.02-.69.27-1.04.38-.35.11-.85-.01-.9-.38-.01-.11.02-.22.06-.33.07-.22.14-.44.21-.65.06-.18.13-.37.29-.46.11-.06.25-.06.38-.09.41-.11.63-.61,1.04-.73.3-.09.62.06.93.14.31.07.71.01.81-.29-.4-.24-.81-.5-1.05-.89-.24-.4-.26-.98.1-1.27.28-.23.68-.23,1.04-.21.41.02.91.11,1.02.5.56-.17,1.21.25,1.29.83.35-.04.7-.07,1.04-.11-.29-.31-.71-.5-.96-.85-.25-.35-.2-.97.21-1.06.15-.03.32.02.47-.04.1-.04.19-.14.3-.14.08,0,.16.04.23.09.73.48,1.47.96,2.2,1.44-.2-.46-.4-.92-.6-1.39-.18-.43-.33-1.01.06-1.28.37-.26.91.11.99.55.41-.12.87.24.87.66.29-.12.66-.02.85.23.19.25.19.63,0,.88.37,0,.74.12,1.05.31,0-.47.69-.77,1.02-.44.01-.22.03-.45.16-.63.13-.17.43-.24.57-.06-.06-.3.08-.63.34-.79.26-.16.62-.13.86.07.12-.15.24-.29.36-.44.37-.01.78.15.94.49.15.34-.1.83-.47.8.26,0,.2.41.05.63-.21.3-.43.59-.64.89.27-.25.71-.31,1.01-.09.23-.26.69-.26.91,0,.18-.38.87-.26.92.16.06-.17.3-.18.48-.16.26.03.54.07.73.25.19.18.19.57-.06.66.22-.13.51.12.51.38,0,.26-.18.48-.37.65-.19.17-.41.33-.53.55.2-.16.48-.16.74-.16.46.01.94.04,1.33.27.08-.18.33-.19.52-.15.6.12,1.16.43,1.59.86.2.21.38.52.25.77-.06.12-.18.19-.29.26-.47.29-.94.58-1.41.88.77.24,1.46.73,1.93,1.37.28.16.64.18.9.39.26.2.24.74-.09.74.2.16.28.46.17.7-.05.1-.13.18-.22.24-.04.06-.09.12-.16.18-.12.1-.24.16-.38.2-.15.19-.39.31-.63.29.26.24.51.49.67.8.21.4.26.93,0,1.3-.01.02-.03.04-.05.05-.04.16-.13.31-.27.39.05.11.08.22.05.34.47.18.82.62.88,1.12.06.49-.17,1.02-.57,1.3-.33.23-.93.19-.96-.21-.15.32-.47.55-.82.59.29.51,0,1.25-.54,1.43.58.48.37,1.59-.35,1.82.15.42-.1.94-.52,1.08-.42.15-.94-.1-1.08-.53-.16.31-.34.63-.64.8-.3.17-.76.09-.88-.23-.22.67-1.15.97-1.72.56,0,.38-.31.74-.69.77-.38.03-.76-.26-.81-.64-.65,0-1.3-.01-1.95-.02-.43,0-.87,0-1.29-.09-.54-.11-1.05-.34-1.49-.69-.14-.11-.28-.24-.45-.27-.2-.04-.4.03-.6.09-1.03.31-2.21.03-3-.71-.12-.12-.24-.24-.4-.32-.18-.08-.38-.08-.58-.08-.48,0-.96-.08-1.42-.2-.4-.11-.81-.29-1-.66-.19-.37.03-.93.44-.92.03-.26-.03-.56-.22-.74-.19-.19-.53-.22-.72-.03-.19.19-.09.59.18.62-.44.3-1.13-.12-1.14-.66-.01-.54.52-.98,1.06-.98-.11-.38-.12-.79-.03-1.18-.27.35-.84.41-1.18.13-.22.34-.56.63-.97.7-.4.06-.86-.15-.99-.54-.13-.39.21-.88.61-.83-.29-.46.15-1.16.68-1.11-.09-.52.24-1.08.73-1.27-.32.2-.8.01-.9-.35-.25.39-.85.3-1.25.06-.31-.18-.61-.45-.52-.92Z"/>
                <path class="cls-5" d="m122.09,54.21s-.02.05-.02.16c0,.1.02.28.15.45.13.17.35.33.65.45.15.05.32.09.51.09.18,0,.4-.08.51-.27h-.04c.09.32.55.58.93.36l-.02-.05c-.45.16-.84.7-.75,1.3l.04-.04c-.26-.03-.52.13-.67.36-.15.22-.21.55-.05.81l.04-.06c-.3-.04-.57.21-.65.49-.11.3.06.64.33.81.27.18.63.21.94.09.31-.12.57-.36.76-.65h-.07c.33.28.93.26,1.25-.13l-.09-.04c-.08.36-.09.79.03,1.2l.05-.06c-.26,0-.52.1-.73.27-.21.17-.37.42-.38.7-.02.29.15.57.38.72.23.16.57.22.84.04l.12-.09-.15-.02c-.15-.02-.24-.2-.22-.37.02-.17.19-.28.37-.27.18,0,.35.11.45.27.09.16.12.37.1.56l.06-.05c-.15,0-.3.07-.39.18-.1.11-.15.24-.17.39-.02.14,0,.29.05.42.06.13.15.24.26.33.22.18.48.29.75.36.27.08.54.13.82.17.55.12,1.19-.11,1.55.4.42.41.98.69,1.57.81.3.06.61.08.91.05.31-.02.62-.12.9-.2.14-.03.28-.02.4.04.12.07.24.17.36.27.25.19.53.35.83.46.6.25,1.26.27,1.9.27.64,0,1.3.01,1.96.02l-.07-.06c.06.38.43.71.85.7.43-.02.8-.4.79-.85l-.12.06c.56.42,1.57.17,1.83-.59h-.14c.06.18.24.31.42.35.18.04.38.02.55-.06.34-.18.53-.53.69-.84h-.14c.15.42.66.71,1.14.58.48-.14.78-.7.61-1.19l-.05.1c.36-.11.63-.46.71-.84.09-.38,0-.84-.33-1.11l-.03.14c.56-.19.91-.95.59-1.55l-.06.12c.35-.04.71-.28.88-.64l-.15-.03c0,.1.05.2.13.27.07.07.16.11.26.13.18.04.37.02.54-.05.35-.16.57-.47.7-.81.12-.35.11-.75-.06-1.09-.16-.34-.45-.62-.81-.75l.05.09c.03-.13,0-.28-.06-.4l-.03.11c.15-.09.27-.26.31-.44l-.02.04c.29-.33.31-.83.16-1.23-.15-.42-.47-.75-.79-1.03l-.06.14c.26.02.54-.1.71-.32l-.04.03c.21-.06.44-.19.58-.41l-.02.02c.16-.09.3-.3.31-.51.01-.21-.08-.43-.25-.57l-.05.15c.1,0,.21-.05.26-.13.06-.08.08-.18.08-.27,0-.18-.05-.37-.21-.49-.29-.22-.65-.24-.91-.39l.03.02c-.46-.63-1.17-1.15-1.98-1.4l.02.15c.2-.13.43-.26.65-.4l.49-.3c.16-.11.33-.18.49-.33.08-.07.14-.18.16-.3.02-.12-.01-.23-.05-.32-.08-.19-.22-.35-.37-.48-.29-.27-.62-.48-.99-.62-.18-.07-.37-.13-.56-.17-.1-.02-.21-.03-.31,0-.1.02-.23.08-.28.21l.12-.04c-.33-.19-.71-.24-1.07-.26-.18,0-.36-.02-.54-.01-.18,0-.39.04-.55.18l.13.1c.16-.31.54-.48.77-.83.11-.17.19-.41.07-.62-.05-.1-.13-.18-.23-.24-.1-.05-.24-.06-.35,0l.07.15c.11-.04.19-.14.22-.24.03-.1.03-.21,0-.31-.03-.1-.08-.19-.16-.26-.07-.07-.16-.12-.25-.15-.18-.07-.36-.09-.54-.11-.09,0-.19,0-.29.01-.1.02-.21.09-.26.2l.16.02c-.03-.26-.27-.41-.48-.45-.21-.04-.49.03-.6.26l.14-.02c-.27-.3-.77-.3-1.04,0h.11c-.35-.26-.83-.19-1.12.08l.12.11c.18-.25.36-.5.54-.75.09-.12.2-.27.23-.43.02-.08.03-.17,0-.27-.01-.05-.04-.1-.09-.14-.05-.04-.11-.05-.16-.05v.16c.23.02.43-.14.52-.32.1-.18.12-.41.02-.61-.19-.38-.63-.53-1-.52h-.04s-.02.03-.02.03c-.12.15-.24.29-.36.44h.11c-.27-.23-.66-.26-.95-.08-.29.18-.44.54-.37.87l.14-.07c-.09-.12-.25-.15-.38-.12-.13.02-.24.09-.32.2-.15.21-.16.45-.17.66l.13-.05c-.2-.2-.51-.2-.73-.1-.23.09-.43.32-.42.59l.12-.07c-.33-.21-.71-.32-1.09-.32l.06.12c.21-.29.2-.7-.01-.98-.22-.27-.61-.37-.93-.25l.1.07c-.01-.49-.51-.85-.97-.73l.09.06c-.04-.2-.15-.37-.3-.5-.15-.13-.34-.21-.55-.2-.21.02-.39.16-.47.35-.08.18-.07.38-.04.56.06.36.23.68.36.99.14.32.27.63.41.94l.1-.09c-.46-.3-.91-.6-1.36-.89-.22-.15-.45-.29-.67-.43-.12-.07-.2-.15-.36-.21-.08-.02-.18,0-.24.04-.06.03-.11.07-.16.09-.1.04-.22.02-.36.03-.14,0-.29.07-.39.19-.18.24-.17.54-.08.79.1.26.31.43.51.59.2.15.4.29.56.46l.04-.11c-.37.04-.71.07-1.04.11l.07.06c-.11-.66-.81-1.05-1.38-.88l.08.04c-.07-.26-.31-.4-.53-.46-.22-.07-.45-.08-.67-.09-.22,0-.45,0-.67.07-.22.07-.41.23-.5.44-.18.42-.05.9.22,1.23.27.33.62.54.96.75l-.02-.06c-.05.15-.2.24-.36.27-.17.03-.33,0-.49-.04-.16-.05-.33-.1-.51-.13-.17-.03-.37,0-.52.1-.3.18-.48.48-.75.61-.13.07-.29.05-.45.12-.17.07-.26.24-.31.38-.09.29-.18.58-.27.86-.04.14-.06.32.03.46.09.14.23.21.38.24.14.03.29.04.43,0,.14-.03.27-.09.39-.15.24-.11.47-.24.72-.25l-.02-.08c-.3.12-.6.24-.86.41-.26.17-.48.38-.6.64-.12.26-.13.55-.06.8.07.25.27.47.52.52h0c.28.16.5.2.71.2l-.03-.03c-.13.89-.37,1.48-.59,1.94h.02c-.38,0-.71.02-.98.11-.27.08-.47.21-.59.35-.13.13-.18.26-.21.34-.03.08-.03.13-.03.13.01,0,0-.19.26-.46.13-.13.32-.25.59-.33.26-.08.59-.1.97-.11h.01s0-.01,0-.01c.23-.46.48-1.05.61-1.95v-.03s-.03,0-.03,0c-.19,0-.41-.03-.67-.19h0s0,0,0,0c-.22-.05-.4-.24-.47-.47-.07-.24-.05-.51.06-.75.11-.24.33-.45.58-.61.25-.16.54-.28.84-.4l.24-.1-.26.02c-.27.02-.51.15-.75.26-.12.06-.24.11-.37.14-.13.03-.26.02-.39,0-.13-.03-.25-.1-.32-.21-.07-.11-.06-.25-.02-.38.09-.28.18-.56.27-.85.05-.14.13-.27.26-.32.13-.05.3-.04.46-.12.31-.15.49-.45.76-.61.27-.18.61-.06.94.04.17.05.36.08.54.05.18-.03.39-.13.45-.34v-.04s-.02-.02-.02-.02c-.33-.2-.68-.41-.93-.72-.25-.3-.36-.74-.2-1.11.08-.18.24-.32.43-.38.19-.07.41-.07.62-.07.22,0,.43.02.64.08.2.06.39.18.45.38l.02.06.06-.02c.49-.15,1.12.2,1.21.78v.06s.07,0,.07,0c.34-.03.67-.07,1.04-.1h.13s-.09-.11-.09-.11c-.17-.19-.38-.33-.58-.48-.19-.15-.38-.32-.46-.53-.08-.21-.08-.48.06-.66.07-.08.17-.13.29-.14.12,0,.26.02.41-.04.14-.07.22-.15.31-.12.09.03.21.12.32.19.22.14.44.29.67.43.45.29.9.59,1.36.89l.2.13-.09-.22c-.13-.31-.27-.63-.41-.94-.13-.32-.3-.63-.35-.96-.03-.16-.03-.34.03-.48.06-.14.2-.24.35-.26.31-.02.62.26.68.58l.02.08.08-.02c.35-.1.78.21.77.59v.11s.1-.04.1-.04c.25-.1.58-.02.75.2.17.22.18.56,0,.79l-.09.12h.15c.35.01.7.11,1.01.31l.12.08v-.15c-.02-.39.59-.67.88-.38l.12.13v-.18c.02-.21.04-.43.15-.58.1-.14.35-.2.45-.07l.22.29-.08-.36c-.06-.26.07-.56.3-.7.23-.14.56-.12.77.06l.06.05.05-.06c.12-.15.24-.29.36-.44l-.06.03c.34-.01.71.13.85.43.14.27-.08.73-.39.7v.16s.06.02.08.07c.02.05.01.12,0,.19-.03.14-.1.24-.2.37-.18.25-.36.5-.54.75l.12.11c.24-.22.64-.28.91-.08l.06.05.05-.06c.19-.22.6-.22.79,0l.08.1.05-.12c.13-.3.73-.2.76.13l.04.41.12-.39c.03-.1.22-.13.37-.11.17.02.34.04.49.1.15.06.27.16.31.3.04.14,0,.31-.13.35l.07.15c.11-.07.29.03.35.17.07.13.03.31-.07.46-.18.3-.57.46-.78.84l-.2.36.32-.26c.24-.19.63-.13.98-.12.35.02.7.07,1,.24l.09.05.03-.09c.04-.12.25-.14.41-.1.18.04.36.09.53.16.34.14.66.34.94.59.14.13.26.26.33.42.07.16.06.33-.07.44-.12.11-.31.2-.47.31l-.49.3c-.22.14-.44.27-.65.4l-.16.1.18.05c.77.24,1.45.74,1.89,1.34h.01s.01.02.01.02c.31.18.66.19.89.38.1.08.15.23.14.36,0,.14-.07.24-.18.24l-.26-.02.21.17c.13.1.2.27.19.43,0,.16-.1.29-.23.38h-.02s0,.02,0,.02c-.11.18-.3.28-.49.34h-.03s-.02.03-.02.03c-.13.18-.36.28-.56.26l-.25-.02.19.17c.31.28.61.59.74.97.14.37.11.8-.13,1.07v.02s-.02.02-.02.02c-.03.15-.12.28-.23.34l-.07.04.04.07c.05.1.06.2.04.29l-.02.07.07.03c.31.12.57.37.72.67.15.3.16.65.05.96-.11.3-.33.59-.6.71-.14.05-.3.07-.44.04-.14-.03-.25-.13-.26-.26l-.02-.32-.14.29c-.14.3-.46.51-.75.55h-.12s.06.12.06.12c.28.49-.03,1.17-.5,1.32l-.14.04.12.09c.27.22.35.62.28.95-.07.34-.3.63-.6.73l-.08.02.03.08c.14.39-.12.88-.51.99-.39.11-.83-.14-.95-.49l-.06-.17-.08.16c-.16.31-.34.63-.62.77-.27.14-.66.06-.75-.2l-.07-.22-.07.22c-.1.32-.39.55-.71.64-.31.1-.66.05-.89-.12l-.12-.09v.15c.01.35-.31.69-.65.7-.34.01-.66-.27-.7-.58v-.06s-.07,0-.07,0c-.66,0-1.31-.01-1.96-.02-.64,0-1.28-.03-1.85-.26-.29-.11-.56-.26-.8-.45-.12-.09-.23-.2-.38-.28-.15-.09-.34-.09-.49-.06-.31.08-.58.17-.88.2-.29.03-.59,0-.87-.05-.57-.11-1.1-.38-1.51-.77-.1-.1-.21-.21-.35-.28-.14-.08-.3-.1-.44-.1-.29,0-.56-.01-.84-.05-.27-.04-.54-.09-.8-.16-.26-.07-.51-.17-.71-.34-.2-.16-.32-.4-.27-.65.03-.24.21-.47.44-.47h.05s0-.05,0-.05c.03-.22,0-.44-.12-.64-.11-.19-.32-.33-.54-.33-.21-.01-.46.14-.48.37-.03.21.08.46.32.49l-.02-.1c-.21.15-.5.1-.71-.04-.21-.14-.36-.38-.34-.63.03-.51.54-.87,1-.88h.07s-.02-.06-.02-.06c-.11-.4-.11-.81-.03-1.15l.05-.21-.13.17c-.27.35-.83.37-1.11.13l-.04-.03-.03.04c-.18.27-.43.5-.72.62-.29.12-.62.08-.86-.08-.25-.15-.39-.45-.3-.71.07-.26.32-.47.57-.44h.08s-.04-.06-.04-.06c-.28-.47.18-1.11.65-1.06h.04s0-.04,0-.04c-.09-.57.29-1.08.71-1.24l-.02-.05c-.34.2-.78-.03-.86-.33v-.05s-.04.05-.04.05c-.11.17-.3.25-.48.26-.18,0-.35-.03-.49-.08-.29-.11-.51-.27-.64-.43-.13-.16-.16-.33-.16-.43,0-.11.02-.16.01-.16Z"/>
              </g>
              <path class="cls-9" d="m139.94,55.81c.22-3.47-2.52-6.45-6.1-6.55-3.37-.1-6.19,2.55-6.48,5.85-.26,2.89-.45,5.81-.37,6.86.25,3.17,2.21,4.28,3,4.6.18.07.67.14.86.15h0s.02.01.02.02l-.48,3.68c-.17,2.4-.7,10.58,1.75,10.77,2.45.19,6.25-7.9,6.47-10.31l1.32-15.08Z"/>
              <g>
                <path class="cls-6" d="m128.32,57.4c-.03.26.17.51.45.55.28.04.53-.15.57-.41.03-.26-.17-.51-.45-.55-.28-.04-.53.15-.57.41Z"/>
                <path class="cls-6" d="m128.16,55.92c.06.07.47-.18,1.02-.14.55.04.93.35,1,.28.03-.03-.02-.15-.19-.29-.16-.14-.45-.28-.79-.31-.34-.02-.64.08-.82.19-.18.11-.25.23-.22.26Z"/>
              </g>
              <g>
                <path class="cls-6" d="m133.47,57.81c-.03.26.17.51.45.55.28.04.53-.15.57-.41.03-.26-.17-.51-.45-.55-.28-.04-.53.15-.57.41Z"/>
                <path class="cls-6" d="m133.57,56.44c.06.07.47-.18,1.02-.14.55.04.93.35,1,.28.03-.03-.02-.15-.19-.29-.16-.14-.45-.28-.79-.31-.34-.02-.64.08-.82.19-.18.11-.25.23-.22.26Z"/>
              </g>
              <path class="cls-6" d="m131.23,60.3s-.33-.12-.88-.23c-.14-.03-.27-.06-.29-.16-.02-.1.05-.25.13-.4.16-.32.33-.66.5-1.02.7-1.45,1.22-2.65,1.16-2.68-.06-.03-.68,1.13-1.38,2.58-.17.36-.33.7-.49,1.03-.07.15-.17.32-.12.54.03.11.13.19.21.22.09.03.17.04.24.05.56.07.9.1.91.07Z"/>
              <path class="cls-12" d="m130.88,66.72s2.11.34,4.91-1.03c-.17.08-.98,3.19-5.04,2.02l.13-.99Z"/>
              <path class="cls-12" d="m131.36,61.63c.22-.24.58-.36.92-.29.24.04.47.18.6.38.13.2.14.48,0,.65-.17.19-.48.22-.74.12-.26-.09-.47-.28-.67-.47-.06-.05-.11-.11-.14-.17-.03-.07-.03-.15.02-.2"/>
              <path class="cls-6" d="m132.83,60.8c-.09-.01-.14.58-.69.95-.55.38-1.18.26-1.19.34-.01.04.13.13.4.15.26.03.66-.02.99-.25.33-.23.5-.56.54-.8.04-.24-.01-.39-.05-.39Z"/>
            </g>
            <path class="cls-6" d="m133.59,54.69c.04.15.6.12,1.24.25.64.11,1.15.34,1.25.22.04-.06-.04-.21-.23-.36-.2-.16-.52-.32-.9-.39-.38-.07-.75-.04-.99.04-.25.08-.37.18-.36.25Z"/>
            <path class="cls-6" d="m128.44,54.5c.09.13.48.03.93.06.46.01.84.15.94.03.04-.06,0-.19-.17-.32-.16-.13-.43-.25-.74-.26-.31-.01-.6.08-.76.19-.17.11-.24.24-.2.3Z"/>
          </g>
          <g>
            <path class="cls-6" d="m126.52,51.29c.03-.18.03-.36.08-.53.08-.27.28-.47.47-.66.67-.66,1.38-1.34,2.22-1.55.51-.13,1.05-.08,1.56-.21.32-.08.62-.22.94-.34,1.29-.48,2.66-.44,3.97-.21.74.12,1.47.31,2.13.69.73.42,1.34,1.07,1.91,1.74.85,1.01,1.64,2.12,2.13,3.43.37,1.01.56,2.16.31,3.24-.25,1.08-1.02,2.05-1.95,2.2-.11-.15-.22-.3-.33-.44l-.52-.66c.09.26,0,.24-.22.37-.22.12-.51.02-.62-.23-.19.21-.56-.05-.48-.34-.22.1-.47-.2-.38-.46-.25.07-.36-.33-.47-.6-.06-.15-.14-.28-.22-.42-.23-.44-.33-.97-.28-1.49-.29-.39-.32-.95-.34-1.47-.01-.32-.03-.65-.04-.97-.05-.08-.11-.16-.16-.24,0,.23-.19.42-.39.47-.19.05-.39,0-.58-.06-.19-.05-.38-.11-.57-.16-.12.02-.24.05-.37.07.08.31-.05.64-.18.93-.09.2-.2.42-.38.5-.18.08-.42-.11-.36-.32-.14.13-.36.06-.46-.11-.1-.17-.1-.4-.08-.6.06-.51.26-1,.58-1.36-.36.29-.72.57-1.08.85-.08.06-.16.13-.26.13.01.17-.16.3-.31.27-.14-.03-.25-.16-.35-.28-.22-.28-.44-.73-.2-1-.11-.03-.15-.23-.07-.32-.4.26-.8.51-1.21.77.12-.06.23.13.19.27-.04.14-.15.24-.26.32.09.16.12.36.09.55.22-.17.5.2.41.49-.09.29-.38.42-.64.42-.21,0-.46-.12-.48-.37-.25.03-.47-.33-.35-.6-.19.11-.32-.23-.31-.48.02-.43.12-.86.28-1.25-.02.03-.07.04-.09.02-.01-.01-.02-.03-.02-.05-.24.47-.48.94-.72,1.41-.2.4-.41.81-.46,1.27-.02.19-.06.44-.22.44-.04,0-.08-.02-.12-.04-.43-.26-.74-.74-.93-1.27-.06-.18-.11-.37-.11-.56,0-.4.2-.77.26-1.17Z"/>
            <path class="cls-9" d="m139.33,57.66c.06-.02,2.21-.51,2.01,1.65-.2,2.16-2.33,1.51-2.33,1.44,0-.06.32-3.09.32-3.09Z"/>
            <path class="cls-12" d="m139.75,60s.04.03.1.07c.06.03.16.06.28.03.24-.06.46-.41.51-.79.02-.2,0-.39-.05-.55-.05-.16-.14-.28-.26-.32-.11-.04-.2.02-.23.08-.03.06-.03.1-.04.1,0,0-.04-.04-.02-.13.01-.04.04-.09.1-.13.06-.04.13-.05.21-.04.17.03.3.19.36.37.07.18.1.39.07.61-.06.43-.32.82-.64.88-.16.03-.28-.03-.34-.09-.06-.06-.07-.11-.06-.11Z"/>
            <path class="cls-5" d="m131.51,50.8s-.1-.08-.12-.29c0-.1.02-.23.13-.32.1-.09.27-.14.42-.07l.09.04-.03-.09c-.05-.15,0-.36.15-.47.15-.11.4-.09.53.07l.08-.06s-.02-.04-.03-.06c-.02-.07,0-.14.05-.2.04-.06.11-.09.18-.1.07,0,.15,0,.22.03.07.02.14.08.24.07.1,0,.16-.08.21-.11.06-.04.12-.07.18-.09.12-.04.24-.05.35-.05.22.01.39.09.49.16.1.07.15.13.15.12,0,0-.03-.07-.13-.15-.1-.08-.27-.18-.51-.2-.12-.01-.25,0-.38.04-.07.02-.13.05-.2.09-.07.04-.12.09-.17.09-.06,0-.12-.04-.2-.07-.08-.03-.17-.05-.26-.04-.09.01-.19.05-.25.13-.06.08-.09.18-.07.28,0,.03.02.06.04.09l.08-.06c-.17-.19-.47-.21-.66-.08-.19.14-.25.39-.18.57l.06-.05c-.19-.08-.39-.01-.5.1-.12.11-.14.26-.13.37.01.11.06.19.1.23.04.04.07.06.07.06Z"/>
            <path class="cls-5" d="m129.05,51.22s-.11-.08-.16-.29c-.02-.1-.02-.24.05-.36.07-.12.22-.24.4-.24h.07s-.04-.06-.04-.06c-.1-.14-.19-.35-.12-.54.03-.09.11-.17.21-.2.1-.03.22-.02.28.06l.25.32-.17-.37c-.06-.13-.06-.29,0-.42.06-.14.2-.24.36-.26.11-.02.23,0,.32.06l.11.06-.04-.12c-.05-.17.13-.35.3-.36.18-.01.35.08.5.17l.09.06-.02-.1c-.03-.13.05-.26.15-.33.1-.08.23-.11.34-.12.24-.02.45.02.62.07.34.1.5.24.5.23,0,0-.03-.04-.11-.09-.08-.05-.2-.13-.37-.19-.17-.06-.39-.11-.64-.09-.13,0-.27.04-.39.13-.12.09-.21.24-.18.42l.07-.05c-.15-.1-.34-.21-.56-.19-.11,0-.22.06-.3.15-.08.08-.13.21-.09.34l.07-.06c-.11-.07-.25-.09-.38-.07-.19.02-.36.15-.43.31-.08.16-.08.35,0,.51l.08-.05c-.1-.12-.26-.13-.38-.09-.12.04-.23.14-.27.26-.08.24.03.46.14.62l.03-.06c-.21.02-.37.15-.45.29-.08.14-.07.3-.04.4.03.11.09.18.13.22.04.04.07.06.07.05Z"/>
            <path class="cls-5" d="m123.81,51.22s-.01-.13.15-.25c.08-.06.19-.1.33-.09.14.01.29.07.45.15l.05.02v-.06c-.01-.17.16-.34.37-.38.21-.03.45.06.68.17l.29.14-.24-.21c-.13-.12-.08-.37.07-.49.16-.12.4-.13.62-.09h.03s.19.04.19.04l-.15-.12c-.18-.15-.11-.49.09-.58.2-.11.46-.03.62.11l.19.17-.11-.23c-.15-.29-.08-.63.08-.85.16-.22.41-.31.6-.32.2,0,.36.05.45.1.1.05.14.09.15.09,0,0,0-.01-.03-.03-.02-.02-.05-.05-.1-.08-.09-.06-.25-.13-.47-.13-.21,0-.48.08-.66.33-.18.23-.26.6-.09.93l.07-.05c-.18-.17-.47-.26-.72-.13-.13.06-.21.2-.24.34-.03.14,0,.31.13.41l.04-.09h-.03c-.23-.05-.49-.05-.69.11-.1.08-.15.19-.17.31-.02.12.01.25.1.33l.05-.08c-.23-.11-.48-.21-.73-.17-.24.04-.44.24-.43.46l.05-.03c-.17-.07-.33-.13-.48-.14-.15-.01-.28.05-.36.11-.08.07-.12.15-.13.2,0,.05,0,.08,0,.08Z"/>
            <path class="cls-5" d="m126.96,46.51s.04.03.12.06c.09.03.22.04.38.05.16.01.36.02.54.13.09.05.16.14.17.25.02.11-.02.23-.12.28l.06.05c.03-.12.19-.19.34-.26.15-.07.31-.13.47-.16.17-.02.33.01.46.11.12.09.2.24.17.38l-.03.12.1-.07c.2-.15.45-.21.66-.21.21,0,.4.06.54.13.28.14.38.31.39.3,0,0-.02-.04-.07-.11-.06-.07-.15-.16-.29-.24-.14-.08-.33-.15-.56-.15-.22-.01-.49.05-.71.21l.07.05c.04-.18-.06-.36-.2-.47-.14-.12-.34-.16-.53-.13-.18.02-.35.09-.5.17-.08.04-.15.07-.22.12-.07.05-.14.11-.16.21l-.02.09.08-.04c.15-.07.2-.25.17-.37-.02-.14-.11-.25-.21-.31-.21-.12-.42-.11-.58-.12-.16,0-.29,0-.37-.03-.08-.02-.13-.03-.13-.03Z"/>
            <path class="cls-5" d="m131.94,45.06s.1,0,.25.06c.07.03.16.09.23.18.07.09.13.21.13.34v.05s.05-.01.05-.01c.13-.03.28.08.34.23.06.16.02.35-.03.54l-.05.19.13-.15s.01-.02.02-.02c.09-.09.22-.13.35-.11.12.01.23.08.31.17.15.18.18.41.15.59-.03.18-.1.32-.14.41-.05.09-.08.14-.07.15,0,0,.05-.04.11-.13.06-.09.14-.23.18-.42.04-.19.03-.45-.15-.66-.16-.22-.55-.3-.79-.07,0,.01-.02.02-.03.03l.09.04c.05-.19.09-.4.02-.59-.07-.19-.26-.32-.45-.28l.05.04c0-.16-.08-.29-.16-.38-.08-.09-.18-.15-.26-.18-.08-.03-.15-.03-.2-.03-.05,0-.07.01-.07.02Z"/>
            <path class="cls-5" d="m135.94,48.37s.05,0,.13-.02c.08-.03.2-.08.31-.18.11-.1.22-.26.26-.47.02-.1.02-.2.09-.26.06-.06.18-.1.27-.2.16-.22.11-.53-.07-.67v.07c.24-.18.38-.39.46-.54.08-.16.1-.26.09-.26-.01,0-.05.09-.14.23-.09.14-.24.34-.47.5l-.05.03.05.04c.14.11.18.37.05.54-.06.08-.17.11-.26.2-.1.1-.09.22-.11.31-.03.18-.13.33-.22.43-.2.21-.4.23-.39.25Z"/>
            <path class="cls-5" d="m137.12,49.34s.03.01.08.02c.05,0,.13.01.23,0,.2-.02.49-.1.75-.35h-.06c.11.17.31.3.55.34.12.02.24.02.37-.01.12-.04.25-.08.33-.22.03-.05.04-.1.05-.14.01-.03.04-.06.07-.09.06-.04.15-.06.23-.08.08-.01.18-.04.26-.08.08-.04.16-.13.16-.23l-.07.04c.2.1.42.11.59.06.18-.04.31-.13.41-.21.1-.09.15-.17.18-.24.03-.06.04-.1.03-.1-.01,0-.06.14-.25.3-.1.07-.23.15-.39.18-.16.04-.36.02-.54-.07l-.06-.03v.07c0,.06-.05.11-.12.15-.07.04-.14.05-.23.07-.09.02-.18.03-.27.1-.04.03-.08.08-.1.13-.02.05-.03.1-.05.13-.05.09-.17.14-.27.17-.11.03-.22.03-.33.01-.21-.04-.39-.15-.49-.3l-.03-.04-.03.03c-.24.23-.51.33-.7.36-.19.03-.31.02-.31.03Z"/>
            <path class="cls-5" d="m144.55,52.99s0-.01.01-.03c0-.02.02-.06.02-.1.01-.09.02-.22-.01-.39-.03-.17-.11-.36-.21-.57-.06-.1-.11-.22-.19-.33-.04-.05-.09-.11-.16-.15-.06-.04-.16-.06-.24-.02l.06.05c.04-.22-.05-.48-.25-.64-.21-.16-.52-.17-.76-.01l.08.05c.02-.14-.04-.28-.15-.38-.11-.1-.27-.13-.41-.09-.08.02-.15.07-.2.13l.09.04c.02-.09-.03-.18-.08-.24-.06-.06-.13-.1-.21-.11-.16-.02-.3.03-.43.07l.06.02c-.08-.17-.24-.28-.4-.33-.16-.06-.33-.07-.48-.04-.31.05-.55.19-.77.3l.05.05c.03-.05.03-.12,0-.17-.03-.05-.07-.08-.11-.1-.08-.04-.17-.07-.26-.06-.16.01-.29.05-.4.08-.1.04-.18.08-.23.11-.05.03-.07.05-.07.05,0,0,.11-.06.31-.13.1-.03.23-.06.39-.07.07,0,.15.02.22.06.07.04.13.11.09.18l-.06.1.11-.05c.22-.11.46-.24.75-.28.14-.02.29,0,.43.04.14.05.27.15.34.29l.02.04h.04c.13-.06.26-.1.38-.08.12.02.23.13.21.24l-.03.17.12-.13s.1-.08.16-.1c.11-.03.24-.01.32.07.08.07.13.19.12.3v.11s.08-.06.08-.06c.2-.13.47-.12.65,0,.18.13.26.36.22.55v.08s.06-.03.06-.03c.11-.05.23.04.3.14.08.1.13.21.19.31.11.2.19.39.23.55.08.32,0,.51.02.51Z"/>
            <path class="cls-5" d="m143.76,55.8s.02-.02.05-.06c.03-.04.08-.1.13-.19.05-.09.11-.2.11-.35,0-.07-.02-.15-.05-.23-.04-.08-.11-.15-.2-.18l.02.05c.1-.12.14-.31.06-.48-.08-.17-.28-.29-.49-.26l.04.07c.11-.12.11-.3.02-.43-.09-.14-.24-.21-.4-.23-.08-.01-.16,0-.22-.02-.06-.01-.1-.06-.12-.13-.03-.06-.05-.15-.11-.22-.05-.07-.14-.12-.22-.15-.18-.05-.36-.04-.52-.06-.16-.01-.32-.05-.41-.16-.04-.05-.07-.13-.12-.2-.05-.07-.11-.13-.18-.17-.15-.08-.32-.08-.46-.01l.05.07c.11-.15.07-.34-.01-.45-.09-.13-.23-.19-.35-.21-.25-.05-.47,0-.64.02-.17.04-.31.08-.39.12-.09.04-.13.06-.13.07,0,.01.19-.08.53-.14.17-.02.39-.05.62,0,.11.03.23.08.3.19.07.1.09.25.01.36l-.12.14.17-.08c.11-.05.26-.05.38.02.06.03.11.08.15.14.04.06.07.14.12.21.06.07.14.12.22.15.08.03.17.04.26.05.17.01.34,0,.5.05.07.02.13.06.17.11.05.05.06.12.1.2.03.07.1.16.19.18.09.02.16.01.23.02.14.02.27.08.33.18.07.1.06.25,0,.33l-.09.09.12-.02c.17-.03.34.07.4.21.07.14.04.3-.04.4l-.03.04.05.02c.15.05.22.22.22.35,0,.13-.04.25-.09.33-.09.17-.16.26-.15.26Z"/>
            <path class="cls-5" d="m144.06,61.09s.04,0,.1-.02c.06-.02.15-.07.24-.16.09-.09.18-.22.2-.4.02-.17-.01-.39-.15-.56v.05c.11-.13.23-.27.29-.46.03-.1.03-.21,0-.31-.03-.1-.1-.21-.21-.26v.09c.18-.09.28-.29.29-.49,0-.11-.02-.23-.07-.33-.05-.1-.15-.18-.24-.22-.09-.05-.13-.1-.12-.19,0-.09,0-.2-.04-.29-.06-.19-.21-.32-.33-.42-.12-.11-.24-.21-.34-.29-.21-.18-.42-.29-.57-.33-.08-.02-.14-.03-.18-.03-.04,0-.06,0-.06,0,0,0,.09,0,.23.06.14.05.33.17.54.35.1.09.22.19.34.3.12.11.25.22.3.39.03.08.04.17.03.26,0,.05,0,.11.04.17.04.05.08.08.13.11.18.08.27.27.26.46,0,.17-.09.34-.23.41l-.09.04.09.04c.16.08.21.3.16.46-.05.17-.17.31-.27.44l-.02.03.02.03c.13.15.17.34.15.5-.02.16-.09.29-.17.37-.16.17-.31.2-.3.21Z"/>
            <path class="cls-5" d="m135.89,52.49s.12-.01.3-.09c.09-.04.19-.1.28-.2.08-.1.15-.25.13-.42,0-.04-.02-.07-.03-.11l-.03.07c.14-.06.23-.18.27-.3.04-.12,0-.24-.04-.32-.09-.16-.22-.19-.22-.18,0,.01.09.06.16.21.03.07.05.17.01.27-.03.1-.11.19-.22.24l-.04.02.02.05s.02.05.02.08c.02.13-.03.25-.1.34-.07.09-.16.15-.24.2-.16.09-.27.14-.27.15Z"/>
            <path class="cls-5" d="m133.71,51.24s-.09-.13-.04-.36c.03-.11.11-.24.26-.29.14-.05.34-.02.46.11l.06.06.02-.08c.03-.1.07-.2.14-.28.06-.08.16-.15.26-.15.16,0,.32.15.27.28l.09.03c.04-.2.17-.37.31-.46.14-.1.3-.13.43-.12.26.01.4.12.4.11,0,0-.03-.03-.09-.07-.06-.04-.17-.08-.31-.1-.14-.01-.32.01-.48.12-.16.1-.31.28-.36.51l.09.03c.04-.1,0-.22-.07-.29-.07-.07-.17-.12-.28-.12-.14,0-.26.1-.33.19-.08.1-.12.21-.15.31l.08-.02c-.16-.17-.39-.19-.56-.12-.17.07-.26.22-.28.35-.02.13,0,.23.03.29.03.06.06.09.06.08Z"/>
          </g>
        </g>
        <g>
          <polygon class="cls-9" points="114.3 162.75 113.06 168.86 108.98 169.24 107.26 167.22 108.83 159.92 114.3 162.75"/>
          <g>
            <path class="cls-10" d="m106.44,166.54v.48s-7.83,3.02-7.96,4.55l15.35.38-.09-5.36c-2.31,1.05-4.7,1.12-7.3-.05Z"/>
            <g class="cls-3">
              <path class="cls-11" d="m112.15,168.26c.3.09.49.45.42.76-.08.31-.42.53-.72.44-.3-.09-.55-.51-.44-.81.11-.3.52-.53.79-.37"/>
            </g>
            <path class="cls-6" d="m113.83,171.95l-.02-1.29-14.7.11s-.83.43-.75,1.26l15.48-.08Z"/>
            <path class="cls-6" d="m106.37,167.06c0,.08.37.12.74.39.37.25.55.6.62.57.07-.01-.03-.49-.48-.79-.44-.31-.9-.23-.88-.16Z"/>
            <path class="cls-6" d="m104.75,167.72c-.02.08.3.22.55.56.26.33.31.69.39.69.07.01.13-.44-.18-.86-.31-.42-.75-.46-.75-.39Z"/>
            <path class="cls-6" d="m103.79,169.71c.07.02.18-.37,0-.81-.18-.44-.53-.61-.56-.55-.04.06.18.3.32.66.15.36.17.69.24.7Z"/>
          </g>
        </g>
        <g>
          <path class="cls-9" d="m138.05,161.31c.06.2,0,7.82,0,7.82l-2.29,1.42-2.99-1.88-.63-7.36h5.92Z"/>
          <path class="cls-10" d="m132.55,168.01s4.08,3.03,6.05.41l.52,1.27,2.32,9.06c.15.59-.11,1.23-.65,1.45-.42.17-.87.07-1.19-.24-1.68-1.67-7.82-7.85-7.76-8.69l.02-2.22c0-.46.28-.87.69-1.04h0Z"/>
          <path class="cls-6" d="m140.58,180.26l-8.75-9.76v.49c-.04.53.17.79.42,1.07.8.92,2.7,3.56,7.35,8.22.27.27.78.03.98-.02h0Z"/>
          <g class="cls-3">
            <path class="cls-11" d="m133.12,169.05c.27.2.37.63.19.93-.18.3-.6.4-.88.2-.28-.19-.4-.71-.2-.98.21-.27.71-.36.93-.11"/>
          </g>
          <path class="cls-6" d="m138.06,175.26c.06.03.31-.57.96-.9.64-.35,1.25-.19,1.26-.26,0-.03-.13-.12-.39-.15-.25-.04-.62,0-.98.19-.36.19-.61.47-.73.71-.13.24-.14.41-.12.41Z"/>
          <path class="cls-6" d="m138.85,176.79c.05.05.4-.32.97-.5.56-.19,1.05-.08,1.07-.15.03-.06-.5-.3-1.14-.09-.64.2-.96.71-.9.74Z"/>
          <path class="cls-6" d="m136.6,173.3c.05.05.59-.52,1.44-.87.85-.36,1.62-.33,1.62-.4.02-.06-.8-.22-1.71.17-.92.38-1.41,1.07-1.36,1.11Z"/>
          <path class="cls-6" d="m136.41,170.54c.03.07.63-.2,1.42-.23.79-.04,1.41.16,1.43.09.03-.06-.6-.39-1.45-.34-.85.04-1.44.43-1.41.48Z"/>
          <path class="cls-6" d="m138.28,170.29s.01-.16-.06-.43c-.07-.27-.22-.66-.52-1.05-.15-.19-.32-.43-.65-.52-.16-.05-.38.03-.48.2-.1.17-.11.36-.08.54.14.71.85,1.29,1.64,1.24.79-.06,1.4-.66,1.6-1.34.04-.17.05-.38-.07-.55-.12-.18-.35-.21-.5-.15-.31.11-.48.35-.64.52-.31.38-.49.76-.58,1.02-.09.26-.11.42-.1.42.04.02.17-.61.8-1.32.16-.17.34-.38.57-.44.11-.03.21,0,.27.08.06.08.06.23.02.37-.17.56-.73,1.1-1.4,1.14-.66.05-1.29-.46-1.4-1.03-.03-.14-.02-.28.04-.38.06-.09.16-.14.26-.12.23.05.41.26.56.43.6.74.67,1.39.71,1.37Z"/>
        </g>
        <g>
          <path class="cls-6" d="m142.36,98.42s1.6,2.95,2.86,7.71c1.26,4.76,2.68,7.15,2.16,15.92-.26,4.48-3.97,16.63-4.82,20.91-.7,3.52-2.9,20.06-4.01,24.43h-6.38l-.65-48.96s-10.13,28.57-11.43,31.87c-1.3,3.3-5.79,16.39-5.79,16.39l-7.93-2.11s4.84-23.42,6.05-29.25c1.21-5.83,4.48-22.28,5.87-27.24,1.39-4.95,2.71-10.18,2.71-10.18l21.36.51Z"/>
          <path class="cls-5" d="m141.58,107.09s.01.09.07.24c.05.15.15.37.29.62.28.5.78,1.14,1.48,1.65.7.51,1.45.77,1.99.87.27.05.5.07.65.06.15,0,.24,0,.24-.02,0-.03-.34-.04-.87-.17-.53-.13-1.24-.4-1.92-.89-.68-.49-1.17-1.09-1.47-1.57-.3-.47-.43-.8-.46-.79Z"/>
          <path class="cls-5" d="m117.64,110.65s.08.04.23.07c.15.04.38.06.66.07.28,0,.61-.02.98-.1.36-.08.75-.22,1.13-.43.76-.42,1.32-1.01,1.66-1.46.35-.46.51-.78.49-.79-.02-.02-.22.27-.59.7-.37.42-.92.98-1.65,1.38-.73.41-1.49.55-2.03.56-.54.02-.88-.04-.89,0Z"/>
          <path class="cls-5" d="m131.43,107.88s-.04.14-.07.39c-.03.26-.07.63-.11,1.09-.08.92-.14,2.19-.13,3.6.01,1.41.1,2.68.19,3.6.05.46.09.83.13,1.08.04.25.06.4.08.39.01,0,0-.14,0-.4-.02-.3-.04-.66-.07-1.09-.06-.92-.12-2.19-.13-3.59-.01-1.4.03-2.67.07-3.59.02-.43.04-.79.05-1.09.01-.26.01-.4,0-.4Z"/>
        </g>
        <path class="cls-5" d="m139.95,70.14l5.77,2.75-.8,10.53s-.68.8-1.79,6.44c-1.11,5.64,2.59,16.62,2.59,16.62l-27.17.68s3.19-22.77,3.56-25.78l1.36-11.51,5.46-.3h1.58l1.36,9.81,6.84-9.52,1.25.28Z"/>
        <path class="cls-6" d="m114.84,90.56s.08-.23.08-.62c0-.39-.06-.93-.25-1.49-.2-.56-.49-1.01-.73-1.3-.25-.29-.44-.43-.45-.41-.04.04.64.69,1.02,1.78.39,1.08.28,2.05.33,2.05Z"/>
        <path class="cls-5" d="m103.81,87.95l9.68-.08,3.66-10.81h0s.44-1.1,1.91-3.81c1.94-3.57,4.4-3.38,4.4-3.38l2.97,4.62-3.15,7.08s-3.02,13.34-6.52,13.93c-5.81.97-16.2-3.04-16.2-3.04l3.24-4.5Z"/>
        <g class="cls-1">
          <path class="cls-4" d="m120.8,91.26c0-.37-.1-.84.22-1,.26-.13.56-.03.82.06,8.02,2.84,12.66-.46,20.68,2.39l1.63,8.24c-3.56.03-5.18-.8-8.68-1.92-3.57-1.14-7.14-2.28-10.64-3.64-.97-.37-1.94-.77-2.75-1.44-.81-.67-1.25-1.6-1.28-2.68Z"/>
        </g>
        <path class="cls-6" d="m122.75,77.64s-.07.21-.19.55c-.11.33-.24.8-.34,1.34-.19,1.06-.23,1.95-.28,1.95-.05,0-.1-.89.09-1.98.09-.54.25-1.02.4-1.35.15-.33.3-.51.31-.5Z"/>
      </g>
      <g>
        <g>
          <path class="cls-10" d="m172.08,88.26h2.3c1.22,0,2.21.99,2.21,2.21v.45c0,1.22-.99,2.21-2.21,2.21h-2.3v-4.87h0Z" transform="translate(2.39 -4.45) rotate(1.47)"/>
          <path class="cls-10" d="m75.05,86.11l19.81-2,74.44,1.92c.72.02,1.3.62,1.28,1.35l-.18,6.99c-.02.72-.62,1.3-1.35,1.28l-74.73-1.92-19.38-3.98.09-3.63Z"/>
          <path class="cls-6" d="m75.02,87.13l-1.82-.05-1.55.52c-.13.1-.1.22,0,.35l1.56.51,1.78.05.04-1.38Z"/>
          <rect class="cls-6" x="94.74" y="84.13" width="1.55" height="9.61" transform="translate(2.32 -2.43) rotate(1.47)"/>
          <g>
            <path class="cls-10" d="m170.84,86.45h0c-.02.94-.81,1.69-1.76,1.67l-37.16-.96c-.94-.02-1.69-.81-1.67-1.76h0c.02-.94.81-1.69,1.76-1.67l37.16.96c.95.02,1.69.81,1.67,1.76Z"/>
            <path class="cls-6" d="m170.84,86.45s.04-.32-.21-.82c-.13-.24-.36-.53-.73-.71-.18-.09-.39-.16-.63-.18-.23-.02-.49-.01-.76-.02-2.16-.05-5.27-.12-9.12-.2-3.85-.09-8.43-.2-13.52-.33-2.54-.06-5.21-.13-7.98-.2-1.38-.04-2.79-.07-4.22-.11-.36,0-.72-.02-1.08-.03-.36,0-.73-.05-1.05.04-.67.17-1.18.82-1.19,1.52-.03.7.45,1.37,1.11,1.58.32.11.69.08,1.05.1.36,0,.72.02,1.08.03,1.43.04,2.84.07,4.22.11,2.77.07,5.44.14,7.98.21,5.09.14,9.67.26,13.52.37,3.84.11,6.95.2,9.11.27.27,0,.52.02.76.02.23,0,.45-.06.64-.15.38-.17.62-.44.76-.67.28-.49.23-.82.25-.81,0,0,0,.07-.01.22-.02.14-.07.36-.21.61-.14.25-.39.53-.77.71-.19.09-.41.15-.66.16-.24,0-.49,0-.76,0-2.16-.05-5.27-.12-9.12-.2-3.85-.09-8.43-.2-13.52-.33-2.54-.06-5.22-.13-7.98-.2-1.38-.04-2.79-.07-4.22-.11-.36,0-.72-.02-1.08-.03h-.54c-.19-.02-.38-.04-.56-.11-.74-.23-1.27-.98-1.24-1.77.01-.78.59-1.5,1.33-1.7.18-.05.38-.06.57-.06h.54c.36.02.72.03,1.08.04,1.43.04,2.84.07,4.22.11,2.77.07,5.44.14,7.98.21,5.09.14,9.67.26,13.52.37,3.84.11,6.96.2,9.11.27.27.01.52.01.76.03.24.02.46.09.65.19.38.2.61.49.73.74.13.26.17.48.18.62,0,.15,0,.22,0,.22Z"/>
          </g>
          <polygon class="cls-6" points="170.6 86.89 172.5 87.86 172.36 93.39 170.4 94.49 170.6 86.89"/>
        </g>
        <g>
          <g>
            <path class="cls-5" d="m148.09,90.78l-4.22-6.5h0s-.38-.58-.38-.58h0s-.57-.88-.57-.88l2.48-10.09s2.12.97,3.28,2.59c1.17,1.63,2.58,4.6,2.58,4.6,0,0,4.13,9.44,4.8,10.85.68,1.41,1.77,4.02,0,5.48-1.77,1.46-13.64,1.51-13.64,1.51l-.8-5.96,6.46-1.02Z"/>
            <path class="cls-6" d="m142.89,81.76s-.06-.44-.1-1.15c-.04-.71,0-1.7.27-2.76.27-1.05.71-1.95,1.08-2.55.38-.61.67-.95.64-.97,0,0-.09.07-.22.22-.14.15-.32.38-.52.68-.41.6-.87,1.5-1.15,2.57-.27,1.08-.3,2.09-.23,2.81.04.36.08.65.13.84.05.2.08.3.09.3Z"/>
          </g>
          <g>
            <path class="cls-9" d="m140.26,92.9s-.29-.74-1.07-1.41c-.78-.68-2.48-1.2-2.7-1.84-.22-.65-.87-.14-.72.66.1.51,1.15,1.86,1.15,1.86,0,0-1.24.31-2.07-.16-.83-.48-3.72-1.33-4.03-.93-.35.46.41.61.73.79.25.14,2.17,1.09,2.17,1.09,0,0-3.83-.13-4.31.05-.52.2.01.66.25.67.15,0,.81.59,1.27,1.02.32.29.73.46,1.16.47h.89s-2.7.3-2.7.3c0,0-.47.43.18.65.29.1,7.77.78,8.41.75,1.44-.05,3.45-.15,3.45-.15l-.35-4.05-1.72.23Z"/>
            <path class="cls-12" d="m129.61,93.73s.78.37,1.82.55c1.04.19,1.9.16,1.9.11,0-.05-.84-.1-1.87-.29-1.02-.18-1.83-.43-1.85-.38Z"/>
          </g>
        </g>
        <g>
          <g class="cls-2">
            <path class="cls-4" d="m101.38,89.03c.74-.16,1.45.31,2.05.75.38.28.75.56,1.09.89.93.93,1.42,2.21,2.21,3.27l-4.41-.67-.94-4.24Z"/>
          </g>
          <g>
            <path class="cls-9" d="m108.12,94.12l-1.93-.4s-1.73-2.76-2.64-3.1l-.51-.23s-.67-1.46-1.58-1.28c-.54-.35-1.02-.21-1.08.33,0,0-.27-1.23-1.27-.72-1,.51,1.39,4.75,1.39,4.75,0,0,.84,2.18,1.88,1.45,0,0,1.04.24,1.74-.15,0,0,.65.91,2.17.22l1.83-.87Z"/>
            <path class="cls-12" d="m103.94,94.27s-.03.07-.01.21c.02.13.1.32.27.5.17.17.44.32.76.36.32.04.66-.01,1.01-.11.68-.19,1.26-.48,1.65-.72.39-.25.6-.44.59-.46-.03-.05-.95.65-2.29,1.01-.33.09-.65.15-.94.12-.29-.02-.53-.14-.69-.28-.34-.3-.31-.62-.34-.61Z"/>
            <path class="cls-12" d="m102.09,93.3s-.53-.86-1.03-2c-.5-1.14-.73-2.12-.78-2.11-.02,0,0,.26.1.66.09.4.26.95.52,1.52.25.58.54,1.07.77,1.41.23.34.4.53.42.52Z"/>
            <path class="cls-12" d="m103.2,93.2s-.44-.89-.92-2.02c-.48-1.12-.76-2.08-.81-2.06-.04,0,.17.99.65,2.13.48,1.14,1.04,1.98,1.08,1.95Z"/>
            <path class="cls-12" d="m101.72,94.19s0,.35.31.61c.31.26.66.24.66.2,0-.05-.28-.11-.55-.33-.27-.22-.37-.49-.42-.48Z"/>
            <path class="cls-12" d="m104.4,92.6s-.27-.49-.62-1.07c-.36-.58-.62-1.07-.67-1.05-.04.02.16.55.52,1.14.36.59.74,1.01.77.98Z"/>
          </g>
        </g>
      </g>
    </g>
  </g>
</svg>