<?xml version="1.0" encoding="UTF-8"?>
<svg id="Layer_2" data-name="Layer 2" xmlns="http://www.w3.org/2000/svg" viewBox="0 0 281.02 222.87">
  <defs>
    <style>
      .cls-1 {
        opacity: .3;
      }

      .cls-2, .cls-3, .cls-4, .cls-5, .cls-6, .cls-7, .cls-8, .cls-9, .cls-10, .cls-11, .cls-12, .cls-13, .cls-14, .cls-15 {
        stroke-width: 0px;
      }

      .cls-3 {
        fill: #455b64;
      }

      .cls-4 {
        fill: #263238;
      }

      .cls-5 {
        fill: #278744;
      }

      .cls-6 {
        fill: #5794c9;
      }

      .cls-7 {
        fill: #231f20;
      }

      .cls-8 {
        fill: #e0e0e0;
      }

      .cls-9 {
        fill: #fbbd9d;
      }

      .cls-10 {
        fill: #f3725f;
      }

      .cls-11 {
        fill: #fff;
      }

      .cls-12 {
        fill: #ec996f;
      }

      .cls-13 {
        fill: #fafbfb;
      }

      .cls-14 {
        fill: #f5f5f5;
      }

      .cls-15 {
        fill: #04703c;
      }
    </style>
  </defs>
  <g id="Layer_1-2" data-name="Layer 1">
    <circle class="cls-6" cx="104.42" cy="104.42" r="104.42" transform="translate(-43.25 104.42) rotate(-45)"/>
    <path class="cls-4" d="m198.35,212.15c0,.08-42.93.14-95.88.14s-95.89-.06-95.89-.14,42.92-.14,95.89-.14,95.88.06,95.88.14Z"/>
    <g>
      <g>
        <rect class="cls-8" x="82.78" y="165.08" width="3.8" height="20"/>
        <path class="cls-4" d="m86.58,185.08s-.01-.15-.02-.41c0-.29-.01-.67-.02-1.15,0-1.02-.02-2.45-.04-4.23-.02-3.59-.04-8.57-.06-14.2l.14.14c-1.22,0-2.5,0-3.8,0,.29-.29.08-.08.14-.14h0v.78c0,.26,0,.52,0,.78,0,.52,0,1.03,0,1.54,0,1.02,0,2.01,0,2.98,0,1.94,0,3.78-.01,5.5-.02,3.41-.04,6.3-.05,8.42l-.08-.08c1.18.02,2.11.03,2.78.04.31,0,.56.01.75.02.17,0,.26.01.27.02,0,0-.08.01-.24.02-.19,0-.43.01-.73.02-.68.01-1.63.03-2.83.04h-.08s0-.08,0-.08c-.01-2.12-.03-5.01-.05-8.42,0-1.71,0-3.56-.01-5.5,0-.97,0-1.97,0-2.98,0-.51,0-1.02,0-1.54,0-.26,0-.52,0-.78v-.39s0-.2,0-.2v-.17h0v-.02c.06-.07-.15.14.15-.15,1.3,0,2.58,0,3.8,0h.14s0,.14,0,.14c-.03,5.68-.05,10.69-.06,14.31-.02,1.76-.03,3.19-.04,4.2,0,.47-.01.84-.02,1.12,0,.25-.01.38-.02.38Z"/>
      </g>
      <path class="cls-4" d="m93.47,162.06h-17.76c-2.63,0-4.77-2.13-4.77-4.77h27.29c0,2.63-2.13,4.77-4.77,4.77Z"/>
      <path class="cls-10" d="m109.14,158.22h-30.96v-6.62h30.96c1.83,0,3.31,1.48,3.31,3.31h0c0,1.83-1.48,3.31-3.31,3.31Z"/>
      <path class="cls-10" d="m54.12,104.05c-1.77.24-3.03,1.85-2.83,3.62l4.47,40.61c.64,5.66,5.42,9.94,11.12,9.94h11.81c1.83,0,3.32-1.48,3.32-3.32h0c0-1.83-1.48-3.32-3.32-3.32h-10.02c-2.85,0-5.26-2.11-5.64-4.94l-5.2-39.77c-.24-1.81-1.9-3.08-3.7-2.83h0Z"/>
      <path class="cls-10" d="m91.74,151.93l-33.65.47-3.29-48.38,28.17-.18c2.81,0,5.09,2.3,5.09,5.14l3.68,42.95Z"/>
      <g class="cls-1">
        <path class="cls-2" d="m54.12,104.05c-1.77.24-3.03,1.85-2.83,3.62l4.47,40.61c.64,5.66,5.42,9.94,11.12,9.94h11.81c1.83,0,3.32-1.48,3.32-3.32h0c0-1.83-1.48-3.32-3.32-3.32h-10.75c-2.85,0-4.85-2.02-5.23-4.85l-4.88-39.86c-.24-1.81-1.9-3.08-3.7-2.83h0Z"/>
      </g>
      <rect class="cls-4" x="81.01" y="162.06" width="7.36" height="3.83"/>
      <g>
        <rect class="cls-8" x="81.01" y="183.96" width="7.26" height="17.52" rx="2.2" ry="2.2"/>
        <path class="cls-4" d="m86.06,201.48s.16-.01.46-.08c.29-.07.72-.24,1.11-.66.19-.21.36-.48.46-.81.11-.33.1-.7.09-1.11,0-.83-.01-1.76-.02-2.8,0-2.08-.02-4.54-.03-7.28,0-.68,0-1.39,0-2.1,0-.36.02-.72-.08-1.04-.09-.33-.27-.64-.51-.89-.24-.25-.55-.44-.89-.54-.34-.11-.7-.08-1.1-.08-.77,0-1.55,0-2.34,0-.74,0-1.45.42-1.8,1.06-.17.32-.26.67-.26,1.03,0,.38,0,.75,0,1.13,0,1.49,0,2.93,0,4.3-.01,2.73-.02,5.2-.03,7.28-.03.53.02.99.24,1.39.21.39.53.7.88.88.35.19.72.26,1.07.25.35,0,.67,0,.96.01.56.01,1,.02,1.33.03.3,0,.46.02.46.03s-.16.02-.46.03c-.33,0-.78.02-1.33.03-.29,0-.61,0-.96.01-.36.01-.76-.05-1.14-.24-.38-.19-.73-.51-.97-.94-.12-.21-.2-.45-.24-.71-.05-.26-.03-.52-.04-.77,0-2.08-.02-4.54-.03-7.28,0-1.37,0-2.81,0-4.3,0-.37,0-.75,0-1.13,0-.4.1-.81.29-1.17.39-.72,1.2-1.21,2.05-1.21.79,0,1.57,0,2.34,0,.37,0,.78-.02,1.18.1.39.11.74.33,1.02.61.27.29.48.63.58,1.01.11.38.08.77.08,1.12,0,.72,0,1.42,0,2.1-.01,2.73-.02,5.2-.03,7.28,0,1.03-.02,1.97-.02,2.8,0,.4,0,.81-.12,1.16-.12.34-.31.63-.51.84-.42.43-.88.58-1.18.64-.31.05-.47.02-.47.02Z"/>
      </g>
      <g>
        <path class="cls-8" d="m105.81,200.4h-43.19c-1.27,0-2.31.42-3.11,1.25-1.6,1.67-1.5,4.42-1.5,4.53l1.97-.08c-.02-.56.11-2.22.96-3.1.42-.43.97-.64,1.68-.64h11.33v5.02h1.97v-5.02h29.89c1.26,0,2.29,1.03,2.29,2.29v1.48h1.97v-1.48c0-2.35-1.91-4.26-4.26-4.26Z"/>
        <path class="cls-4" d="m105.81,200.4s.18-.01.54.02c.35.03.89.14,1.51.46.61.33,1.31.9,1.79,1.82.24.45.41.99.47,1.58.04.59.02,1.21.03,1.87v.07s-.07,0-.07,0c-.61,0-1.27,0-1.97,0h-.07s0-.08,0-.08c-.05-.96.22-2.14-.58-2.96-.36-.4-.89-.67-1.46-.72-.58-.02-1.2,0-1.82,0-2.5,0-5.25.01-8.21.02-5.92,0-12.69.01-20.04.02l.14-.14c0,1.58,0,3.29,0,5.02v.14s-.14,0-.14,0c-.61,0-1.29,0-1.97,0h-.14s0-.14,0-.14c0-1.59,0-3.29,0-5.02l.14.14c-2.05,0-4.23,0-6.43,0-1.71,0-3.41,0-5.08,0-.4.02-.79.13-1.11.35-.32.22-.56.55-.73.9-.34.72-.48,1.55-.47,2.33v.14s-.14,0-.14,0c-.66.03-1.31.05-1.97.08h-.15s0-.14,0-.14c-.01-.94.12-1.86.42-2.74.3-.87.8-1.69,1.52-2.27.71-.58,1.63-.88,2.52-.92.89-.02,1.74,0,2.6,0,3.42,0,6.69,0,9.79.01,6.2.01,11.73.02,16.34.03,4.6.02,8.28.03,10.83.04,1.26.01,2.24.02,2.91.02.32,0,.57,0,.75.01.17,0,.26.01.26.01,0,0-.09,0-.26.01-.18,0-.43,0-.75.01-.67,0-1.65.01-2.91.02-2.55,0-6.23.02-10.83.04-4.61,0-10.13.02-16.34.03-3.1,0-6.38,0-9.79.01-.85,0-1.72,0-2.58,0-.85.04-1.69.31-2.36.86-.67.54-1.14,1.31-1.43,2.14-.29.83-.42,1.74-.4,2.63l-.15-.14c.65-.03,1.31-.06,1.97-.08l-.14.15c0-.84.13-1.68.5-2.47.19-.39.45-.76.82-1.01.37-.26.82-.38,1.25-.4,1.68,0,3.38,0,5.1,0,2.2,0,4.38,0,6.43,0h.14v.14c0,1.73,0,3.43,0,5.02l-.14-.14c.68,0,1.35,0,1.97,0l-.14.14c0-1.73,0-3.44,0-5.02v-.14s.14,0,.14,0c7.35,0,14.12.02,20.04.02,2.96,0,5.71.01,8.21.02.63,0,1.23,0,1.84.01.62.05,1.19.35,1.57.78.39.43.6,1,.61,1.54,0,.53,0,1.04,0,1.53l-.08-.08c.69,0,1.36,0,1.97,0l-.07.07c0-.65.02-1.28-.01-1.86-.05-.57-.21-1.1-.44-1.54-.46-.9-1.14-1.47-1.73-1.8-.61-.32-1.13-.45-1.48-.49-.35-.04-.53-.05-.53-.06Z"/>
      </g>
      <path class="cls-4" d="m78.73,209.73c0,2.13-1.72,3.85-3.85,3.85s-3.85-1.72-3.85-3.85,1.72-3.85,3.85-3.85,3.85,1.72,3.85,3.85Z"/>
      <path class="cls-4" d="m62.85,208.78c0,2.13-1.72,3.85-3.85,3.85s-3.85-1.72-3.85-3.85,1.72-3.85,3.85-3.85,3.85,1.72,3.85,3.85Z"/>
      <path class="cls-4" d="m112.49,208.92c0,2.13-1.72,3.85-3.85,3.85s-3.85-1.72-3.85-3.85,1.72-3.85,3.85-3.85,3.85,1.72,3.85,3.85Z"/>
      <path class="cls-4" d="m109.97,151.6c0,.08-9.49.18-21.19.22-11.71.04-21.19.01-21.2-.07,0-.08,9.49-.18,21.19-.22,11.7-.04,21.19-.01,21.19.07Z"/>
      <path class="cls-4" d="m62.75,146.1c-.08,0-1.25-8.76-2.61-19.59-1.36-10.83-2.4-19.61-2.32-19.62.08,0,1.25,8.76,2.61,19.59,1.36,10.83,2.4,19.61,2.32,19.62Z"/>
      <path class="cls-4" d="m57.47,103.96s.1-.04.3-.08c.2-.03.49-.08.88-.09.76-.02,1.89.02,3.2.49.64.24,1.33.65,1.86,1.27.55.61,1,1.35,1.43,2.14.83,1.6,1.75,3.34,2.77,5.15,2.04,3.61,3.95,6.85,5.25,9.24.66,1.19,1.16,2.17,1.5,2.85.15.32.28.58.38.79.08.18.12.28.12.28s-.07-.08-.17-.26c-.11-.2-.26-.45-.43-.76-.39-.7-.93-1.65-1.58-2.8-1.34-2.36-3.28-5.58-5.32-9.2-1.02-1.81-1.94-3.57-2.76-5.16-.42-.79-.85-1.52-1.37-2.11-.51-.61-1.13-.99-1.76-1.24-1.25-.48-2.37-.55-3.12-.57-.76,0-1.17.08-1.17.06Z"/>
      <path class="cls-4" d="m51.52,106.06c.07.04-2.48,4.49-5.69,9.93-3.21,5.44-5.87,9.82-5.94,9.78-.07-.04,2.48-4.48,5.69-9.93,3.21-5.44,5.87-9.82,5.94-9.78Z"/>
      <g>
        <rect class="cls-13" x="35.45" y="125.77" width="46.14" height="13.61"/>
        <path class="cls-4" d="m80.09,138.13s0-.07,0-.2c0-.14,0-.32,0-.57,0-.51-.01-1.24-.02-2.18-.01-1.91-.03-4.67-.05-8.17l.09.09c-9.84.01-25.68.03-43.52.06.06-.06-.15.14.14-.14h0v1.42c0,.47,0,.95,0,1.42,0,.94,0,1.87,0,2.8,0,1.85,0,3.68,0,5.47l-.14-.14c12.4.03,23.26.05,31.03.06,3.88.02,7,.03,9.15.04,1.07,0,1.89.01,2.47.02.27,0,.49,0,.64,0,.15,0,.22,0,.22,0,0,0-.07,0-.21,0-.15,0-.36,0-.63,0-.57,0-1.39.01-2.44.02-2.15,0-5.25.02-9.12.04-7.8.02-18.69.04-31.13.06h-.14s0-.14,0-.14c0-1.79,0-3.62,0-5.47,0-.93,0-1.86,0-2.8,0-.47,0-.94,0-1.42v-.71s0-.36,0-.36v-.33h0v-.02h0c.29-.29.08-.08.15-.15,17.84.02,33.68.04,43.52.06h.09s0,.09,0,.09c-.02,3.52-.04,6.3-.05,8.22,0,.94-.02,1.66-.02,2.16,0,.23,0,.42,0,.55,0,.12,0,.18,0,.18Z"/>
        <g>
          <path class="cls-7" d="m48.99,128.89l-1.46,7.13h-.9l-1.45-7.13h1.08l.81,4.97h.02l.82-4.97h1.08Z"/>
          <path class="cls-7" d="m48.77,136.02l1.59-7.13h.85l1.59,7.13h-1.02l-.3-1.53h-1.39l-.3,1.53h-1.02Zm2.52-2.49l-.5-2.58h-.02l-.5,2.58h1.02Z"/>
          <path class="cls-7" d="m56.54,133.99v.44c0,.22-.04.43-.12.62-.08.2-.2.37-.35.53-.15.15-.32.28-.51.37-.2.09-.41.13-.64.13-.19,0-.39-.03-.59-.08s-.38-.15-.54-.28c-.16-.13-.29-.31-.39-.52-.1-.21-.16-.48-.16-.8v-3.92c0-.23.04-.45.12-.65s.19-.37.34-.52c.15-.15.32-.26.52-.35s.43-.13.68-.13c.48,0,.87.16,1.17.47.15.15.26.34.35.55.08.21.12.44.12.69v.4h-1.02v-.34c0-.2-.06-.37-.17-.52s-.27-.22-.46-.22c-.25,0-.42.08-.51.23-.08.16-.12.36-.12.6v3.64c0,.21.04.38.13.52s.25.21.49.21c.07,0,.14-.01.21-.03s.15-.06.22-.12c.06-.05.11-.13.15-.22s.06-.21.06-.35v-.35h1.02Z"/>
          <path class="cls-7" d="m56.91,136.02l1.59-7.13h.85l1.59,7.13h-1.02l-.3-1.53h-1.39l-.3,1.53h-1.02Zm2.52-2.49l-.5-2.58h-.02l-.5,2.58h1.02Z"/>
          <path class="cls-7" d="m61.41,136.02v-7.13h.98l1.54,4.29h.02v-4.29h1.02v7.13h-.96l-1.56-4.28h-.02v4.28h-1.02Z"/>
          <path class="cls-7" d="m69.13,133.99v.44c0,.22-.04.43-.12.62-.08.2-.2.37-.35.53-.15.15-.32.28-.52.37-.2.09-.41.13-.64.13-.19,0-.39-.03-.59-.08-.2-.05-.38-.15-.54-.28s-.29-.31-.4-.52c-.1-.21-.15-.48-.15-.8v-3.92c0-.23.04-.45.12-.65.08-.2.19-.37.34-.52s.32-.26.53-.35.43-.13.68-.13c.48,0,.87.16,1.17.47.15.15.26.34.35.55.08.21.12.44.12.69v.4h-1.02v-.34c0-.2-.06-.37-.17-.52s-.27-.22-.46-.22c-.25,0-.42.08-.51.23-.08.16-.12.36-.12.6v3.64c0,.21.04.38.13.52s.25.21.49.21c.07,0,.14-.01.21-.03s.15-.06.21-.12c.06-.05.11-.13.15-.22s.06-.21.06-.35v-.35h1.02Z"/>
          <path class="cls-7" d="m70.91,136.02v-3.01l-1.4-4.11h1.08l.82,2.83h.02l.82-2.83h1.08l-1.4,4.11v3.01h-1.02Z"/>
        </g>
      </g>
    </g>
    <g>
      <g>
        <path class="cls-8" d="m55.56,43.73l-.56-11.78c-.05-.96-.8-1.74-1.76-1.81h0c-1.01-.08-1.91.66-2.04,1.67l-1.49,11.81c-.11.89.58,1.68,1.48,1.69h2.87c.86,0,1.54-.71,1.5-1.56Z"/>
        <path class="cls-8" d="m50.22,23.47c.52-1.5,2.16-2.29,3.66-1.76,1.5.52,2.29,2.16,1.76,3.66-.52,1.5-2.16,2.29-3.66,1.76-1.5-.52-2.29-2.16-1.76-3.66Z"/>
      </g>
      <g>
        <path class="cls-14" d="m24.73,58.62l-6.86-5.81c-.56-.48-1.39-.46-1.93.04h0c-.57.53-.63,1.41-.13,2l5.81,6.97c.44.53,1.24.55,1.71.05l1.5-1.6c.45-.48.4-1.23-.1-1.65Z"/>
        <path class="cls-14" d="m10.65,51.06c-.56-1.07-.15-2.4.92-2.96,1.07-.56,2.4-.15,2.96.92s.15,2.4-.92,2.96c-1.07.56-2.4.15-2.96-.92Z"/>
      </g>
      <path class="cls-8" d="m18.91,31.22l10.55,17.87c.86,1.46,2.68,2.05,4.24,1.37h0c1.64-.71,2.43-2.59,1.8-4.27l-7.38-19.6c-.56-1.48-2.29-2.14-3.7-1.41l-4.47,2.35c-1.33.7-1.81,2.38-1.04,3.67Z"/>
      <path class="cls-8" d="m43.87,58.37c.42,2.76-1.49,5.34-4.25,5.75-2.76.42-5.34-1.49-5.75-4.25-.42-2.76,1.49-5.34,4.25-5.75,2.76-.42,5.34,1.49,5.75,4.25Z"/>
    </g>
    <g>
      <g>
        <path class="cls-3" d="m134.64,44.45c-.03.08-1.22-.29-2.65-.83-1.43-.54-2.56-1.05-2.53-1.14.03-.08,1.22.29,2.65.83,1.43.54,2.56,1.05,2.53,1.14Z"/>
        <path class="cls-9" d="m127.55,55.64c-.58-.06-2.05.68-3.29,2.16-.02.02-.04.04-.06.06-.88.99-1.43-2.06-1.49-3.18-.04-.73-.79-1.23-1.52-1.02l-3.87,1.49-1.1-.04c-.57.17-.91.71-.81,1.27l1.38,6.04-.07,1.62,7.43,1.54.4-4.04c.14-.46.33-1,.58-1.62.22-.55.54-1.07.94-1.52.42-.47.99-1.06,1.45-1.39.04-.02.09-.06.13-.07.09-.04.17-.1.23-.17.41-.38.25-1.09-.32-1.15Z"/>
        <path class="cls-15" d="m125.92,38.62s-4.43-.55-11.1-5.85c-6.67-5.3-10.27-12.84-11.02-12.73-.74.11-4.15-1.1-9.09,13-4.94,14.1-2.2,17.01-.96,16.87,1.23-.14,9.41-3.27,14.71-3.17,5.3.1,12.3,2.2,12.3,2.2l5.17-10.32Z"/>
        <path class="cls-4" d="m135.84,45.12l-1.22,2.96-.55,1.32c-.75,1.82-2.79,2.73-4.64,2.08l-9.62-2.37,4.26-12.89,9.77,4.08c1.88.78,2.77,2.93,1.99,4.81Z"/>
        <path class="cls-4" d="m132.06,49.49l-3.22,5.71-1.47-.48-10.05,7.51-2.5-5.43s5.85-2.24,7-4.24c1.15-2-.06-2.52-.06-2.52l2.83-2.96,7.47,2.41Z"/>
        <path class="cls-4" d="m95.23,33.24c-2.62,7.63-3.38,14.29-1.7,14.86,1.68.58,5.16-5.15,7.78-12.78,2.62-7.63,3.38-14.29,1.7-14.86-1.68-.58-5.16,5.15-7.78,12.78Z"/>
        <polygon class="cls-3" points="137.03 49.11 134.43 48.56 135.71 45.44 137.71 46.44 137.03 49.11"/>
        <path class="cls-3" d="m134.04,46.29c-.03.09-1.33-.29-2.92-.83-1.58-.54-2.84-1.05-2.81-1.14.03-.08,1.33.29,2.92.83,1.58.54,2.84,1.05,2.81,1.14Z"/>
        <path class="cls-3" d="m133.23,48.24s-.32,0-.81-.1c-.25-.05-.54-.12-.86-.2-.32-.08-.66-.22-1.02-.34-1.44-.51-2.55-1.04-2.53-1.12.03-.09,1.21.3,2.63.81.36.12.69.26,1,.36.31.09.59.18.83.26.47.16.76.28.75.32Z"/>
        <path class="cls-13" d="m101.82,30.97s-4-1.99-5.58,3.31c-1.58,5.3,2.47,5.76,2.47,5.76,1.39-2.67,2.44-5.69,3.11-9.07Z"/>
        <path class="cls-4" d="m105.26,24.51s0,.35-.06.99c-.06.63-.14,1.56-.28,2.69-.11.56-.23,1.18-.35,1.83-.06.33-.13.67-.2,1.02-.03.18-.07.35-.11.53-.04.18-.1.36-.15.54-.21.73-.42,1.49-.65,2.28-.06.2-.11.4-.17.6-.06.2-.14.4-.21.6-.15.4-.3.8-.45,1.21-.15.41-.3.81-.45,1.21-.08.2-.14.4-.23.59-.09.19-.18.38-.26.56-.35.74-.69,1.46-1.01,2.14-.08.17-.16.34-.24.5-.09.16-.18.32-.27.47-.18.31-.35.61-.52.9-.34.58-.65,1.12-.94,1.62-.64.94-1.18,1.69-1.55,2.21-.37.52-.59.8-.61.78-.02-.01.16-.32.5-.85.35-.55.85-1.32,1.46-2.27.28-.5.58-1.04.9-1.62.16-.29.33-.59.5-.9.09-.15.17-.31.26-.47.08-.16.16-.33.24-.5.31-.68.65-1.4.99-2.14.09-.19.17-.37.26-.56.09-.19.15-.39.23-.58.15-.4.3-.8.45-1.2.15-.41.3-.81.45-1.2.07-.2.16-.39.21-.59.06-.2.12-.4.17-.59.23-.78.45-1.54.66-2.26.05-.18.11-.36.15-.53.04-.18.07-.36.11-.53.07-.35.15-.69.21-1.01.14-.65.27-1.26.39-1.82.16-1.11.29-2.02.38-2.66.1-.63.16-.98.18-.98Z"/>
        <path class="cls-9" d="m119.96,52.45c-.41.15-.65.6-.52,1.04.23.84.61,2.15.9,2.95.09.26.2.52.38.72.18.2.46.33.71.25.27-.08.44-.37.48-.66.04-.29-.03-.58-.1-.86-.19-.78-.54-1.95-.83-2.9-.14-.45-.6-.68-1.02-.53h0Z"/>
        <path class="cls-9" d="m118.71,53.87c-.41.15-.65.6-.52,1.04.23.84.61,2.15.9,2.95.09.26.2.52.38.72.18.2.46.33.71.25.27-.08.44-.37.48-.66.04-.29-.03-.58-.1-.86-.19-.78-.54-1.95-.83-2.9-.14-.45-.6-.68-1.02-.53h0Z"/>
        <path class="cls-9" d="m117.55,54.75c-.37.12-.58.52-.47.9.21.72.55,1.86.82,2.56.09.22.18.45.35.63.16.17.42.29.65.22.24-.07.4-.32.44-.57.04-.25-.03-.5-.09-.75-.18-.68-.49-1.69-.76-2.52-.13-.39-.54-.59-.93-.47h0Z"/>
        <path class="cls-9" d="m116.08,54.97c-.38.13-.58.52-.47.9.21.73.56,1.87.83,2.57.09.22.18.45.35.63.17.18.42.29.65.22.24-.07.4-.32.44-.57.04-.25-.03-.51-.09-.75-.18-.68-.49-1.7-.77-2.53-.13-.39-.55-.6-.93-.47h0Z"/>
        <path class="cls-12" d="m120.64,57.18c-.08.03-.38-.64-.66-1.48-.29-.85-.45-1.55-.37-1.58.08-.03.38.64.66,1.48.29.85.45,1.55.37,1.58Z"/>
        <path class="cls-12" d="m119.31,58.35c-.08.02-.39-.74-.7-1.71-.31-.97-.49-1.77-.41-1.8.08-.03.39.74.7,1.71.31.97.49,1.77.41,1.8Z"/>
        <path class="cls-12" d="m118,58.42c-.08.03-.43-.61-.72-1.48-.29-.86-.4-1.59-.32-1.61.08-.02.32.67.6,1.52.28.85.51,1.54.44,1.57Z"/>
      </g>
      <g>
        <path class="cls-4" d="m164.22,38.26c-2.11-3.57-5.93-5.89-9.93-6.99-1.68-.46-2.82-.33-4.56-.14-1.73.2-3.37.86-4.58,2.12-1.44,1.5-2.71,3.22-3.25,5.22-.55,2.06-1.1,4.13-1.26,6.25-.16,2.12.09,4.33,1.06,6.22l5.2,1.74c2.94.55,5.91,1.1,8.89.87,2.98-.23,6.01-1.36,7.93-3.64,2.67-3.17,2.61-8.09.5-11.66Z"/>
        <path class="cls-4" d="m167.03,53.92c.05-1.23-.4-2.51-1.35-3.28-.95-.78-2.42-.93-3.42-.22l-.99.87c-1.4.36-2.46,1.73-2.51,3.18-.06,1.45.84,2.87,2.15,3.49,1.3.63,2.93.46,4.13-.36,1.19-.82,1.93-2.23,2-3.68Z"/>
        <path class="cls-3" d="m165.42,57.36s.39-.31.45-1.02c.06-.69-.3-1.66-.86-2.59-.57-.93-1.3-1.62-1.88-2.04-.57-.43-.99-.62-.97-.66,0-.03.45.1,1.07.51.62.39,1.41,1.09,2,2.06.3.48.52.98.66,1.45.15.47.21.92.15,1.3-.06.38-.22.66-.37.81-.15.15-.26.2-.27.19Z"/>
        <path class="cls-3" d="m162.6,58.54c-.09-.02.52-1.58.3-3.56-.19-1.99-1.11-3.39-1.03-3.43.02-.02.29.3.59.9.3.59.6,1.48.71,2.5.11,1.02,0,1.95-.18,2.59-.17.65-.36,1.01-.39,1Z"/>
        <g>
          <path class="cls-9" d="m145.14,63.84c.32-1.87,1.04-5.88,1.04-5.87,0,0-4.28-1.14-4.64-6.91-.18-2.87.41-7.49,1.02-11.25.54-3.39,4.14-7.56,8.33-6.94l1.89.07,6.69,3.92c1.02.21,1.71,1.16,1.59,2.2l-3.67,24.22-10.37,20.3-2.34-14.4.46-5.33Z"/>
          <g>
            <path class="cls-4" d="m144.49,43.95c-.05.38.23.74.63.8.4.06.76-.2.81-.58.05-.38-.23-.74-.63-.8-.4-.06-.76.2-.82.58Z"/>
            <path class="cls-4" d="m143.63,42.11c.08.1.67-.25,1.46-.17.78.07,1.32.53,1.41.44.05-.04-.03-.22-.26-.43-.23-.21-.63-.42-1.12-.47-.49-.04-.92.1-1.17.26-.26.16-.36.33-.32.37Z"/>
            <path class="cls-4" d="m147.61,48.75s-.47-.18-1.25-.35c-.2-.04-.38-.1-.4-.24-.03-.15.07-.36.19-.58.24-.47.48-.95.74-1.47,1.03-2.09,1.8-3.82,1.72-3.86-.08-.04-.99,1.62-2.02,3.71-.25.52-.49,1.01-.72,1.48-.1.22-.25.47-.18.78.04.15.18.28.3.32.12.05.24.06.34.08.79.12,1.28.17,1.29.13Z"/>
            <path class="cls-12" d="m146.17,57.97s3.8.62,7.8-1.29c0,0-2.41,3.74-8.04,2.66l.24-1.37Z"/>
            <path class="cls-4" d="m144.24,39.35c.12.19.68.06,1.33.11.65.03,1.19.24,1.33.06.06-.08,0-.27-.23-.46-.22-.19-.6-.37-1.05-.4-.45-.03-.85.09-1.09.26-.25.16-.34.34-.29.43Z"/>
            <path class="cls-4" d="m153.45,44.52c-.04.38-.4.67-.8.64-.4-.03-.7-.37-.66-.75.04-.38.4-.67.8-.64.4.03.7.37.66.76Z"/>
            <path class="cls-4" d="m154,42.77c-.1.08-.6-.4-1.38-.5-.78-.11-1.41.21-1.48.1-.04-.05.08-.21.35-.35.27-.15.71-.27,1.2-.2.49.07.87.3,1.08.52.22.22.27.4.22.43Z"/>
            <path class="cls-4" d="m153.88,40.09c-.16.16-.67-.1-1.32-.19-.64-.12-1.21-.04-1.31-.24-.04-.1.07-.26.33-.4.26-.14.67-.22,1.11-.15.44.07.81.29,1.01.5.2.21.25.41.18.48Z"/>
          </g>
        </g>
        <path class="cls-4" d="m159.85,47.01l-1.13.86c-3.6-4.67-10.29-16.02-9.92-15.35,0,0,3.07-.75,6.12.26,3.05,1.01,8.75,3.48,8.1,7.16-.65,3.68-3.16,7.06-3.16,7.06Z"/>
        <path class="cls-3" d="m162.18,50.63s.03-.32.1-.9c.07-.57.11-1.41.04-2.45-.12-2.06-.88-4.89-2.56-7.57-1.69-2.68-3.81-4.66-5.39-5.99-.79-.67-1.46-1.18-1.92-1.54-.46-.35-.72-.55-.7-.57,0,0,.08.03.21.11.13.08.32.2.56.37.48.33,1.16.82,1.98,1.48,1.62,1.3,3.78,3.28,5.49,6,1.71,2.71,2.45,5.61,2.52,7.7.05,1.05-.03,1.89-.13,2.47-.04.29-.1.51-.13.66-.04.15-.06.23-.07.22Z"/>
        <path class="cls-3" d="m154.21,31.77s.08.03.21.11c.14.08.33.2.58.36.5.32,1.21.8,2.04,1.45.84.65,1.8,1.46,2.81,2.44.99.98,2.08,2.1,2.94,3.49.43.69.76,1.43.98,2.17.21.74.3,1.49.31,2.2,0,1.42-.28,2.67-.57,3.69-.3,1.02-.61,1.82-.84,2.37-.11.27-.2.48-.27.63-.06.14-.1.21-.11.21-.02,0,.09-.32.28-.87.19-.56.48-1.36.75-2.38.27-1.01.53-2.25.51-3.63-.01-.69-.1-1.41-.31-2.13-.21-.72-.54-1.43-.96-2.1-.84-1.36-1.91-2.47-2.89-3.46-.99-.98-1.93-1.81-2.75-2.47-.82-.67-1.51-1.17-1.98-1.52-.48-.35-.75-.53-.74-.55Z"/>
        <path class="cls-3" d="m159.92,47.12s-.17-.19-.43-.56c-.28-.42-.65-.95-1.08-1.59-.91-1.34-2.14-3.21-3.49-5.28-1.35-2.07-2.56-3.96-3.43-5.33-.41-.66-.75-1.2-1.01-1.63-.23-.39-.36-.61-.34-.62.02-.01.17.19.43.56.28.42.65.95,1.08,1.58.91,1.34,2.14,3.21,3.49,5.29,1.35,2.07,2.56,3.96,3.43,5.33.41.65.75,1.2,1.01,1.63.23.39.36.61.34.62Z"/>
        <g>
          <path class="cls-9" d="m158.78,48.51c.04-.42.63-1.37,1.05-1.4,1.13-.07,3.13.22,2.88,3.05-.35,3.88-4.17,2.73-4.16,2.61,0-.09.09-2.81.23-4.27Z"/>
          <path class="cls-12" d="m159.61,51.32s.06.05.17.12c.11.06.29.11.5.06.42-.11.83-.73.91-1.43.04-.35,0-.69-.1-.98-.09-.29-.26-.51-.46-.56-.2-.07-.36.04-.42.15-.06.1-.04.18-.07.19-.01,0-.08-.07-.03-.23.02-.08.08-.16.17-.23.1-.07.24-.09.38-.07.3.05.54.35.65.66.13.32.18.71.14,1.1-.1.78-.56,1.47-1.14,1.58-.28.05-.5-.06-.61-.16-.11-.11-.12-.19-.11-.2Z"/>
        </g>
      </g>
      <g>
        <path class="cls-9" d="m167.88,191.98c-.08.61-1.58,17.66-1.58,17.66h-7.81l-1.37-17.59,10.76-.07Z"/>
        <g>
          <path class="cls-6" d="m158.46,207.1s5.48,3.89,8.14.52l.69,1.63,3.12,11.63c.2.75-.15,1.58-.88,1.87-.56.22-1.17.1-1.6-.31-2.26-2.15-10.52-10.08-10.44-11.16l.03-2.86c0-.59.37-1.12.92-1.34h0Z"/>
          <path class="cls-4" d="m169.27,222.83l-11.77-12.54v.62c-.06.68.24.94.56,1.38.95,1.28,3.59,4.16,9.83,10.15.36.35.88.49,1.37.38h0Z"/>
          <path class="cls-11" d="m159.23,208.44c.37.25.49.81.25,1.19-.24.38-.8.51-1.18.26-.37-.25-.54-.91-.26-1.26.28-.35.95-.47,1.26-.14"/>
          <path class="cls-4" d="m165.88,216.41c.08.04.41-.73,1.29-1.15.86-.44,1.68-.24,1.69-.33.01-.04-.17-.15-.52-.2-.34-.05-.84,0-1.32.24-.48.24-.82.61-.99.91-.17.3-.19.52-.16.53Z"/>
          <path class="cls-4" d="m166.93,218.38c.07.06.54-.42,1.3-.64.76-.24,1.41-.1,1.44-.19.04-.08-.67-.38-1.53-.12-.87.26-1.28.91-1.21.95Z"/>
          <path class="cls-4" d="m163.91,213.89c.07.07.79-.67,1.94-1.12,1.15-.47,2.18-.42,2.18-.52.02-.08-1.07-.28-2.3.22-1.24.48-1.89,1.38-1.82,1.42Z"/>
          <path class="cls-4" d="m163.65,210.35c.04.09.85-.26,1.91-.3,1.06-.06,1.9.21,1.93.12.04-.07-.81-.5-1.94-.44-1.14.05-1.94.55-1.89.62Z"/>
          <path class="cls-4" d="m166.17,210.02s.01-.2-.08-.55c-.1-.34-.3-.84-.7-1.35-.21-.24-.43-.55-.87-.67-.22-.06-.51.03-.65.26-.14.22-.14.47-.11.7.19.92,1.14,1.66,2.2,1.6,1.06-.08,1.89-.85,2.15-1.72.05-.22.07-.49-.09-.71-.16-.23-.47-.27-.67-.19-.42.14-.64.44-.86.67-.42.49-.65.97-.78,1.31-.12.34-.15.54-.13.54.06.03.23-.78,1.08-1.7.22-.22.46-.48.76-.57.15-.04.29,0,.37.1.08.11.08.29.03.47-.23.71-.99,1.41-1.88,1.47-.89.06-1.73-.59-1.89-1.33-.04-.18-.02-.37.05-.49.07-.12.21-.18.35-.15.3.06.55.33.75.55.81.95.9,1.78.96,1.76Z"/>
        </g>
      </g>
      <g>
        <polygon class="cls-9" points="124.98 186.43 126.33 208.19 135.79 208.12 137.39 185.51 124.98 186.43"/>
        <path class="cls-6" d="m126.16,205.57v.63s-10.69,4.24-10.81,6.26l21.18-.02-.3-7.05c-3.15,1.46-6.44,1.63-10.07.18Z"/>
        <path class="cls-11" d="m134.09,207.64c.41.11.69.57.6.99-.09.41-.56.71-.97.6-.41-.1-.77-.65-.63-1.05.14-.4.71-.71,1.08-.51"/>
        <path class="cls-4" d="m136.53,212.44l-.07-1.69-20.27.64s-.94.41-.84,1.08l21.18-.02Z"/>
        <path class="cls-4" d="m126.08,206.25c0,.1.52.15,1.03.48.52.32.78.77.88.73.1-.02-.06-.64-.68-1.03-.62-.4-1.24-.27-1.22-.18Z"/>
        <path class="cls-4" d="m123.86,207.18c-.02.1.42.28.78.71.36.43.45.9.56.89.1.02.17-.59-.28-1.12-.44-.54-1.05-.58-1.05-.48Z"/>
        <path class="cls-4" d="m122.6,209.84c.09.02.24-.49-.03-1.06-.26-.57-.75-.79-.79-.7-.06.09.26.39.47.86.22.46.25.9.36.91Z"/>
      </g>
      <g>
        <path class="cls-4" d="m137.38,119.08c-.28.81-11.5,38.81-11.5,38.81l-1.93,45.09,13.96.81,5-45.02,12.75-28.16-5.6-22.9h-11.41l-1.27,11.37Z"/>
        <path class="cls-4" d="m147.32,107.7c.2.54,7.35,26.33,7.35,26.33l.99,38.44v31.8h12.72l5.93-70.14s1.05-12.73-.74-17.04c-1.79-4.31-9.04-11.81-9.04-11.81l-17.21,2.41Z"/>
        <path class="cls-3" d="m148.34,110.34s.12.32.29.9c.18.63.43,1.46.72,2.46.64,2.12,1.49,4.97,2.44,8.11.94,3.17,1.71,6.07,2.15,8.2.23,1.06.38,1.93.47,2.53.09.6.13.93.11.94-.02,0-.1-.32-.22-.92-.12-.59-.3-1.45-.56-2.5-.49-2.11-1.29-4.99-2.23-8.16-.94-3.17-1.8-6.04-2.36-8.14-.28-1.05-.5-1.9-.63-2.49-.13-.59-.2-.92-.18-.93Z"/>
        <path class="cls-3" d="m152.74,110.34s-.44.06-.8.57c-.17.25-.26.62-.11.97.14.35.51.67.94.7.43.02.83-.27,1-.61.19-.34.12-.72-.02-.98-.3-.54-.76-.6-.74-.64,0-.02.11-.03.29.03.18.06.43.21.62.51.19.28.3.76.08,1.2-.2.43-.68.79-1.26.77-.57-.03-1.01-.45-1.18-.89-.18-.46-.02-.92.19-1.19.22-.28.48-.41.67-.45.19-.04.29-.02.29,0Z"/>
        <path class="cls-3" d="m164.03,128.86s0,.07.01.19c0,.14,0,.33.01.57,0,.52,0,1.25.02,2.18.01,1.9,0,4.64-.06,8.03-.1,6.78-.4,16.15-.8,26.49-.4,10.35-.73,19.71-.89,26.49-.08,3.39-.13,6.13-.15,8.03-.02.93-.03,1.67-.04,2.18,0,.24-.01.42-.02.57,0,.13-.01.19-.02.19s0-.07-.01-.19c0-.14,0-.33-.01-.57,0-.52,0-1.25-.02-2.18-.01-1.9,0-4.64.06-8.03.1-6.78.4-16.15.8-26.5.4-10.34.73-19.71.89-26.49.08-3.39.13-6.13.15-8.03.02-.93.03-1.67.04-2.18,0-.24.01-.43.02-.57,0-.13.01-.19.02-.19Z"/>
        <path class="cls-3" d="m144.4,124.23s-.02.07-.06.2c-.05.14-.12.33-.22.57-.2.51-.49,1.25-.86,2.18-.76,1.91-1.85,4.64-3.2,8.01-1.33,3.39-2.9,7.44-4.37,12.02-1.47,4.57-2.91,9.7-3.52,15.21-.29,2.76-.42,5.47-.59,8.09-.14,2.62-.28,5.14-.41,7.55-.25,4.81-.47,9.14-.66,12.78-.2,3.64-.39,6.58-.54,8.61-.08,1-.14,1.79-.19,2.34-.02.26-.04.46-.06.61-.01.14-.02.21-.03.21,0,0,0-.07,0-.21,0-.15.02-.35.03-.61.03-.55.08-1.34.14-2.34.12-2.03.28-4.98.45-8.61.17-3.64.37-7.97.6-12.78.13-2.41.26-4.93.39-7.55.17-2.62.29-5.33.58-8.1.61-5.55,2.07-10.68,3.55-15.26,1.49-4.58,3.08-8.63,4.44-12.01,1.36-3.38,2.5-6.1,3.29-7.98.39-.93.69-1.65.91-2.16.1-.24.18-.42.24-.56.06-.13.09-.19.09-.19Z"/>
      </g>
      <path class="cls-15" d="m163.59,62.33s7.57,1.41,9.23,2.8c1.63,1.35,16.82,21.15,17.13,25.14.32,3.99-1.53,5.46-2.58,6.4s-19.16,13.24-19.16,13.24l-5.57-9.24,15.65-9.35-7.55-12.92-7.15-16.07Z"/>
      <path class="cls-15" d="m183.35,87.78c.02.09-1.5.08-3.01,1.04-1.52.93-2.17,2.3-2.25,2.25-.03-.01.08-.37.41-.87.33-.5.9-1.13,1.68-1.62.78-.49,1.6-.73,2.19-.8.6-.08.97-.02.97,0Z"/>
      <g>
        <path class="cls-11" d="m145.25,63.28l2.01,18.21,10.24-20.53,6.6,6.71s4.06,23.98,4.11,24.15c.06.17-2.78,13.72-2.78,13.72l-18.76,3.63-5.73-1.46-.91-21.32-.4-16.33,5.61-6.76Z"/>
        <path class="cls-5" d="m142.82,64.06l-4.87,1.13c-.65.15-1.25.46-1.76.89-4.16,3.56-13.15,11.09-13.15,11.09l1.65-13.36-8.63-.83s-2.6,16.84-2.33,21.27c.31,5.14,4.93,6.41,11.64,3.64,7.44-3.06,12.01-5.92,12.01-5.92l5.44-17.92Z"/>
        <path class="cls-15" d="m169.99,78.45l-.89,15.97.89,3.11s8.4,15.86,9.77,26.37l-10.4,1.68s-2.84-13.55-4.83-20.27c-2-6.72-7.88-9.56-9.87-16.49-2-6.93-1.26-11.77-1.26-12.19s4.1-15.65,4.1-15.65l.73-3.18,3.68,3.5,9.45,3.15-1.37,14.02Z"/>
        <g class="cls-1">
          <path class="cls-2" d="m174.95,108.13s-3.58,2.73-5.39,3.67c-.11.06-.25.12-.42.18-.77.29-1.64-.04-2.03-.76-.22-.4-.45-.83-.6-1.15-.38-.82-.8-1.81-1.17-2.67l1.17-.29,1.7,2.81,4.89-3.35.93-.64.92,2.21Z"/>
        </g>
        <path class="cls-15" d="m145.34,61.49l-2.27,2.38-5.45,1.91s-1.33,16.09-.61,19.5c.7,3.29,2.03,7.29,2.14,12.02.11,4.73-5.29,29.72-5.29,29.72l6.53,2.48s3.33-28.93,2.68-35.24c-.65-6.3,1.04-19.03,1.04-19.03l1.24-13.75Z"/>
        <path class="cls-4" d="m157.71,92.16s-.09-.08-.24-.26c-.15-.18-.34-.46-.56-.86-.41-.79-.79-2.05-.84-3.64-.06-1.59.12-3.46.38-5.53.28-2.07.72-4.33,1.38-6.64,1.21-4.35,2.95-8.1,4.45-10.76l.09.16c-.86-.03-1.63-.05-2.31-.07h-.16s.1-.14.1-.14c.64-.85,1.14-1.54,1.52-2.04.17-.22.3-.39.41-.53.1-.12.15-.18.15-.17,0,0-.03.07-.12.2-.1.15-.22.33-.38.56-.36.51-.84,1.21-1.45,2.09l-.07-.14c.68,0,1.45.02,2.31.03h.18s-.09.16-.09.16c-1.45,2.67-3.16,6.41-4.36,10.74-.66,2.3-1.1,4.55-1.4,6.6-.28,2.06-.48,3.92-.44,5.49.03,1.57.36,2.81.74,3.59.38.79.72,1.15.7,1.17Z"/>
        <path class="cls-4" d="m164.1,77.41c.01.08-1.18.36-2.68.51-1.5.15-2.72.11-2.72.04,0-.08,1.21-.17,2.69-.32,1.49-.15,2.69-.3,2.7-.22Z"/>
        <path class="cls-4" d="m170.73,73.71s-.03.29-.12.81c-.07.52-.17,1.27-.26,2.21-.18,1.87-.36,4.46-.53,7.32-.17,2.84-.33,5.4-.44,7.33-.06.94-.12,1.7-.17,2.22-.05.52-.09.81-.11.81-.02,0-.02-.29,0-.82.02-.58.05-1.33.08-2.23.07-1.88.19-4.47.36-7.34.18-2.86.39-5.46.62-7.33.11-.93.24-1.69.35-2.2.12-.51.21-.79.23-.79Z"/>
        <path class="cls-4" d="m182.83,91.83c-.03.08-1.05-.25-2.36-.34-1.3-.1-2.36.07-2.38-.02-.02-.07,1.05-.38,2.4-.27,1.35.1,2.37.56,2.33.63Z"/>
        <path class="cls-4" d="m123.09,76.84c.07.03-.27.96-.76,2.07-.49,1.11-.95,1.98-1.03,1.95-.07-.03.27-.96.76-2.07.49-1.11.95-1.98,1.03-1.95Z"/>
        <path class="cls-4" d="m136.68,71.51c.08,0,.2,3.14.28,7.01.07,3.87.07,7.02,0,7.02-.08,0-.2-3.14-.28-7.01-.07-3.87-.07-7.01,0-7.02Z"/>
        <path class="cls-4" d="m143.14,84.69s-.04-.29-.07-.81c-.02-.58-.05-1.32-.08-2.21-.06-1.87-.11-4.45-.16-7.3-.04-2.85-.07-5.43-.07-7.3,0-.89,0-1.64.01-2.21,0-.52.02-.81.04-.81.02,0,.04.29.07.81.02.58.05,1.32.08,2.21.06,1.87.11,4.45.16,7.29.04,2.85.07,5.43.07,7.29,0,.89,0,1.64-.01,2.21,0,.52-.02.81-.04.81Z"/>
        <path class="cls-4" d="m184.18,98.97s-.1.09-.3.24c-.22.16-.52.37-.89.64-.8.56-1.93,1.35-3.33,2.33-2.87,1.98-6.84,4.73-11.37,7.86l-.12.09-.08-.13c-.81-1.34-1.64-2.72-2.49-4.14-1.07-1.77-2.1-3.5-3.07-5.11l-.07-.12.12-.07c4.5-2.67,8.42-4.98,11.23-6.65,1.38-.81,2.5-1.46,3.29-1.92.37-.21.66-.38.89-.5.2-.11.31-.17.32-.16,0,0-.1.08-.29.2-.22.14-.5.32-.86.54-.78.48-1.88,1.15-3.25,1.99-2.8,1.69-6.7,4.04-11.18,6.74l.05-.19c.97,1.61,2.01,3.33,3.08,5.11.85,1.42,1.69,2.8,2.49,4.14l-.2-.04c4.55-3.1,8.55-5.81,11.43-7.77,1.42-.95,2.56-1.72,3.38-2.26.38-.25.69-.45.92-.6.21-.13.32-.2.33-.19Z"/>
        <g class="cls-1">
          <path class="cls-2" d="m156.94,90.96c-.27-2.37.13-4.76.64-7.09,1.43-6.47,3.8-12.73,7-18.54-.7-.48-1.7-.26-2.36.27s-1.05,1.32-1.41,2.09c-2.42,5.22-4.02,10.84-4.57,16.57-.13,1.33-.19,2.19-.08,3.35.11,1.16.11,2.38.83,3.3"/>
        </g>
        <g class="cls-1">
          <path class="cls-2" d="m136.66,72.67c-1.72,3-1.49,6.6.15,9.64,0-3.34,0-6.24-.2-9.59"/>
        </g>
      </g>
      <path class="cls-12" d="m150.07,50.47c-.04-.19-.14-.4-.32-.48-.11-.05-.24-.06-.36-.05-.72.01-1.44.11-2.13.3l-.04.11c.04.31.09.62.19.91.1.29.26.58.51.77.45.36,1.15.34,1.61,0,.46-.35.67-.99.54-1.55Z"/>
      <path class="cls-4" d="m147.93,52.16s.37.1.9-.05c.26-.08.55-.24.75-.53.2-.28.3-.69.2-1.07-.05-.19-.15-.36-.28-.43-.13-.07-.31-.05-.5,0-.34.06-.68.13-1,.19-.57.1-.93.14-.94.1,0-.04.33-.15.89-.3.32-.08.65-.16.99-.25.18-.04.43-.1.68.02.25.13.37.38.43.61.12.48-.01.97-.26,1.3-.25.34-.61.51-.91.58-.62.12-.97-.12-.95-.15Z"/>
      <path class="cls-13" d="m160.02,52.72c-.15-.39-.63-.73-1.04-.63h.01c-.24.02-.48.17-.61.38-.23.35-.18.86.1,1.17.29.31.79.39,1.15.17.36-.21.54-.7.39-1.09Z"/>
      <path class="cls-9" d="m162.88,101.22l-6.41-5.68-5.42.47s.19.89.93,1.03c.75.14,3.45.19,3.45.19l1.27,1.26-3.23-.33-4.11,2.43s-.09.75.98.56c1.07-.19,3.13-1.03,3.13-1.03l2.39.14-2.61.37-3.38,2.38s.7.79,1.77.47,2.38-.84,2.38-.84l2.94-.28-2.94.75-2.19,2.71s.68.51,1.42,0c.73-.51,1.25-.98,1.25-.98l3.27-.14s3.61,2.61,4.86,2.89c1.25.28,3.87-.48,3.87-.48l-3.63-5.88Z"/>
    </g>
    <g>
      <g>
        <rect class="cls-13" x="181.52" y="132.12" width="99.39" height="55.58"/>
        <path class="cls-4" d="m280.91,187.7s0-.34-.01-1c0-.66,0-1.63-.01-2.9,0-2.55-.02-6.3-.03-11.11-.01-9.62-.03-23.5-.06-40.57l.11.11c-26.51,0-61.35.02-99.39.03h0l.14-.14c0,19.65,0,38.45,0,55.58l-.13-.13c29.09.03,53.92.05,71.48.07,8.79.02,15.76.03,20.54.04,2.39,0,4.23.01,5.47.02.62,0,1.09,0,1.41,0,.32,0,.48,0,.48,0,0,0-.16,0-.47,0-.32,0-.79,0-1.4,0-1.24,0-3.07,0-5.45.02-4.77,0-11.73.02-20.51.04-17.59.02-42.45.04-71.57.07h-.13s0-.13,0-.13c0-17.13,0-35.92,0-55.58v-.14h.15c38.04.01,72.87.02,99.39.03h.11s0,.11,0,.11c-.02,17.09-.04,31-.06,40.63-.01,4.8-.02,8.54-.03,11.08,0,1.26,0,2.23-.01,2.88,0,.65-.01.98-.01.98Z"/>
      </g>
      <rect class="cls-3" x="193.67" y="145.37" width="14.05" height="14.05"/>
      <path class="cls-10" d="m227.02,147.34c0,.08-3.28.14-7.32.14s-7.32-.06-7.32-.14,3.28-.14,7.32-.14,7.32.06,7.32.14Z"/>
      <path class="cls-4" d="m273.81,152.39c0,.08-13.76.14-30.72.14s-30.72-.06-30.72-.14,13.75-.14,30.72-.14,30.72.06,30.72.14Z"/>
      <path class="cls-4" d="m253.14,158.06c0,.08-9.04.14-20.18.14s-20.19-.06-20.19-.14,9.04-.14,20.19-.14,20.18.06,20.18.14Z"/>
      <rect class="cls-15" x="191.79" y="167.31" width="80.92" height="13.02" rx="5.71" ry="5.71"/>
      <g>
        <path class="cls-11" d="m219.77,174.73h-1.67l-.32.77h-.85l1.6-3.59h.82l1.6,3.59h-.87l-.32-.77Zm-.26-.63l-.57-1.37-.57,1.37h1.14Z"/>
        <path class="cls-11" d="m224.45,173.21c0,.8-.6,1.3-1.56,1.3h-.72v.99h-.83v-3.59h1.55c.96,0,1.56.5,1.56,1.3Zm-.84,0c0-.39-.26-.63-.76-.63h-.68v1.25h.68c.51,0,.76-.23.76-.62Z"/>
        <path class="cls-11" d="m228.15,173.21c0,.8-.6,1.3-1.56,1.3h-.72v.99h-.83v-3.59h1.55c.96,0,1.56.5,1.56,1.3Zm-.84,0c0-.39-.26-.63-.76-.63h-.68v1.25h.68c.51,0,.76-.23.76-.62Z"/>
        <path class="cls-11" d="m228.74,171.91h.83v2.91h1.8v.68h-2.63v-3.59Z"/>
        <path class="cls-11" d="m233.19,174.23v1.27h-.83v-1.28l-1.39-2.31h.88l.96,1.59.96-1.59h.82l-1.39,2.32Z"/>
        <path class="cls-11" d="m239.68,171.91v3.59h-.68l-1.79-2.18v2.18h-.82v-3.59h.69l1.78,2.18v-2.18h.82Z"/>
        <path class="cls-11" d="m240.3,173.71c0-1.07.83-1.86,1.96-1.86s1.96.78,1.96,1.86-.84,1.86-1.96,1.86-1.96-.79-1.96-1.86Zm3.09,0c0-.68-.48-1.15-1.12-1.15s-1.12.47-1.12,1.15.48,1.15,1.12,1.15,1.12-.47,1.12-1.15Z"/>
        <path class="cls-11" d="m250.16,171.91l-1.17,3.59h-.89l-.79-2.43-.82,2.43h-.89l-1.18-3.59h.86l.81,2.52.85-2.52h.77l.82,2.54.84-2.54h.79Z"/>
      </g>
    </g>
    <g>
      <g>
        <rect class="cls-13" x="177.96" y="15.78" width="80.71" height="45.13"/>
        <path class="cls-4" d="m258.67,60.92s0-.28-.01-.81c0-.54,0-1.33-.01-2.36,0-2.07-.02-5.12-.03-9.02-.01-7.81-.03-19.08-.06-32.93l.11.11c-21.53,0-49.82.02-80.71.03h0l.14-.14c0,15.96,0,31.22,0,45.13l-.13-.13c23.62.03,43.78.05,58.04.07,7.14.02,12.8.03,16.68.04,1.94,0,3.43.01,4.45.02.5,0,.89,0,1.15,0,.26,0,.4,0,.4,0,0,0-.13,0-.38,0-.26,0-.64,0-1.13,0-1.01,0-2.49,0-4.42.02-3.88,0-9.52.02-16.65.04-14.28.02-34.48.04-58.13.07h-.13s0-.13,0-.13c0-13.91,0-29.17,0-45.13v-.14s.14,0,.14,0h0c30.89.01,59.17.02,80.71.03h.11s0,.11,0,.11c-.02,13.88-.04,25.17-.06,33-.01,3.9-.02,6.93-.03,9,0,1.02,0,1.81-.01,2.34,0,.53-.01.79-.01.79Z"/>
      </g>
      <rect class="cls-3" x="187.82" y="26.54" width="11.41" height="11.41"/>
      <path class="cls-10" d="m214.9,28.14c0,.08-2.66.14-5.95.14s-5.95-.06-5.95-.14,2.66-.14,5.95-.14,5.95.06,5.95.14Z"/>
      <path class="cls-4" d="m252.9,32.25c0,.08-11.17.14-24.95.14s-24.95-.06-24.95-.14,11.17-.14,24.95-.14,24.95.06,24.95.14Z"/>
      <path class="cls-4" d="m236.12,36.85c0,.08-7.34.14-16.39.14s-16.39-.06-16.39-.14,7.34-.14,16.39-.14,16.39.06,16.39.14Z"/>
      <path class="cls-15" d="m246.72,54.93h-55.13c-2.92,0-5.29-2.37-5.29-5.29h0c0-2.92,2.37-5.29,5.29-5.29h55.13c2.92,0,5.29,2.37,5.29,5.29h0c0,2.92-2.37,5.29-5.29,5.29Z"/>
      <g>
        <path class="cls-11" d="m209.02,50.39h-1.35l-.26.62h-.69l1.3-2.91h.67l1.3,2.91h-.71l-.26-.62Zm-.21-.51l-.46-1.12-.46,1.12h.92Z"/>
        <path class="cls-11" d="m212.82,49.15c0,.65-.49,1.05-1.27,1.05h-.59v.8h-.67v-2.91h1.26c.78,0,1.27.4,1.27,1.06Zm-.68,0c0-.32-.21-.51-.62-.51h-.55v1.01h.55c.41,0,.62-.19.62-.5Z"/>
        <path class="cls-11" d="m215.82,49.15c0,.65-.49,1.05-1.27,1.05h-.59v.8h-.67v-2.91h1.26c.78,0,1.27.4,1.27,1.06Zm-.68,0c0-.32-.21-.51-.62-.51h-.55v1.01h.55c.41,0,.62-.19.62-.5Z"/>
        <path class="cls-11" d="m216.3,48.1h.67v2.36h1.46v.55h-2.14v-2.91Z"/>
        <path class="cls-11" d="m219.92,49.98v1.03h-.67v-1.04l-1.13-1.87h.72l.78,1.29.78-1.29h.66l-1.13,1.88Z"/>
        <path class="cls-11" d="m225.18,48.1v2.91h-.55l-1.45-1.77v1.77h-.67v-2.91h.56l1.45,1.77v-1.77h.67Z"/>
        <path class="cls-11" d="m225.69,49.55c0-.87.67-1.51,1.59-1.51s1.59.64,1.59,1.51-.68,1.51-1.59,1.51-1.59-.64-1.59-1.51Zm2.51,0c0-.55-.39-.93-.91-.93s-.91.38-.91.93.39.93.91.93.91-.38.91-.93Z"/>
        <path class="cls-11" d="m233.7,48.1l-.95,2.91h-.72l-.64-1.97-.66,1.97h-.72l-.96-2.91h.7l.66,2.05.69-2.05h.62l.67,2.06.68-2.06h.64Z"/>
      </g>
    </g>
    <g>
      <path class="cls-7" d="m59.07,59.77v12.2c0,1.09-.34,2-1.03,2.74-.34.36-.75.64-1.22.85-.47.21-1.02.31-1.65.31-.73,0-1.34-.16-1.83-.48-.49-.32-.87-.64-1.15-.95l1.79-1.44c.16.16.36.3.57.42.22.11.44.17.68.17.13,0,.29-.03.47-.08s.35-.15.52-.3c.16-.13.3-.33.4-.57.1-.25.16-.57.16-.98v-11.88h2.29Z"/>
      <path class="cls-7" d="m60.75,68.17c0-.46.03-.89.09-1.28s.17-.73.34-1.03c.27-.49.65-.89,1.15-1.19.5-.3,1.11-.45,1.83-.45s1.33.15,1.83.45c.5.3.89.69,1.15,1.19.16.3.28.64.34,1.03.06.39.09.81.09,1.28v3.74c0,.46-.03.89-.09,1.28-.06.39-.17.73-.34,1.03-.27.49-.65.89-1.15,1.19-.5.3-1.11.45-1.83.45s-1.33-.15-1.83-.45c-.5-.3-.89-.69-1.15-1.19-.16-.3-.28-.64-.34-1.03-.06-.39-.09-.81-.09-1.28v-3.74Zm2.29,4.1c0,.43.1.76.3.98.2.22.48.33.82.33s.62-.11.82-.33c.2-.22.3-.54.3-.98v-4.46c0-.43-.1-.76-.3-.98-.2-.22-.48-.33-.82-.33s-.62.11-.82.33c-.2.22-.3.54-.3.98v4.46Z"/>
      <path class="cls-7" d="m69.24,62.05v-2.29h2.29v2.29h-2.29Zm0,13.68v-11.37h2.29v11.37h-2.29Z"/>
      <path class="cls-7" d="m73.41,75.73v-11.37h2.29v1.1h.04c.24-.36.53-.65.86-.89.34-.23.77-.35,1.29-.35.28,0,.57.05.85.15.28.1.54.26.76.48s.4.51.54.86c.13.35.2.78.2,1.29v8.72h-2.29v-7.87c0-.42-.1-.75-.29-.99-.19-.24-.47-.36-.83-.36-.43,0-.73.13-.9.4-.16.27-.25.66-.25,1.17v7.64h-2.29Z"/>
      <path class="cls-7" d="m86.3,64.36v-3.45h2.29v3.45h1.41v1.79h-1.41v6.3c0,.27.03.48.08.63s.14.26.26.34c.12.07.26.12.44.13.17.01.38.02.64.02v2.15h-.94c-.52,0-.96-.08-1.31-.25-.35-.16-.63-.37-.84-.63-.21-.25-.36-.54-.46-.86-.1-.32-.15-.63-.15-.93v-6.91h-1.14v-1.79h1.14Z"/>
      <path class="cls-7" d="m90.88,75.73v-15.96h2.29v5.69h.04c.24-.36.53-.65.86-.89.34-.23.77-.35,1.29-.35.28,0,.57.05.85.15.28.1.54.26.76.48s.4.51.54.86c.13.35.2.78.2,1.29v8.72h-2.29v-7.87c0-.42-.1-.75-.29-.99-.19-.24-.47-.36-.83-.36-.43,0-.73.13-.9.4-.16.27-.25.66-.25,1.17v7.64h-2.29Z"/>
      <path class="cls-7" d="m106.21,70.91h-4.53v1.55c0,.36.1.64.3.83.2.19.48.29.82.29.43,0,.72-.13.86-.38.14-.25.23-.51.26-.76h2.29c0,1-.31,1.81-.92,2.42-.3.31-.66.56-1.08.74s-.89.27-1.41.27c-.72,0-1.33-.15-1.83-.45-.5-.3-.89-.69-1.15-1.19-.16-.3-.28-.64-.34-1.03-.06-.39-.09-.81-.09-1.28v-3.74c0-.46.03-.89.09-1.28s.17-.73.34-1.03c.27-.49.65-.89,1.15-1.19.5-.3,1.11-.45,1.83-.45.52,0,1,.09,1.42.27.43.18.79.43,1.09.74.6.67.9,1.52.9,2.53v3.14Zm-4.53-1.79h2.24v-1.3c0-.43-.1-.76-.3-.98-.2-.22-.48-.33-.82-.33s-.62.11-.82.33c-.2.22-.3.54-.3.98v1.3Z"/>
    </g>
    <g>
      <path class="cls-7" d="m29.19,92.5v.99c0,.49-.09.96-.28,1.4s-.44.83-.77,1.18c-.33.34-.71.62-1.16.82s-.92.3-1.42.3c-.43,0-.87-.06-1.32-.18-.45-.12-.85-.33-1.21-.63-.36-.3-.65-.68-.89-1.15-.23-.47-.35-1.07-.35-1.8v-8.79c0-.52.09-1.01.27-1.46.18-.45.43-.84.76-1.17.33-.33.72-.59,1.18-.77.46-.19.96-.28,1.51-.28,1.08,0,1.95.35,2.62,1.05.33.34.59.75.77,1.22s.28.98.28,1.54v.9h-2.29v-.76c0-.45-.13-.84-.38-1.17-.25-.33-.6-.49-1.03-.49-.57,0-.95.18-1.13.53-.19.35-.28.8-.28,1.33v8.16c0,.46.1.85.3,1.17.2.31.56.47,1.09.47.15,0,.31-.03.48-.08.17-.05.33-.14.48-.26.13-.12.25-.28.34-.49s.13-.47.13-.78v-.78h2.29Z"/>
      <path class="cls-7" d="m30.92,83.38v-2.29h2.29v2.29h-2.29Zm0,13.68v-11.37h2.29v11.37h-2.29Z"/>
      <path class="cls-7" d="m42.06,85.68l-2.96,11.37h-2.02l-2.96-11.37h2.42l1.52,7.26h.05l1.52-7.26h2.42Z"/>
      <path class="cls-7" d="m42.98,83.38v-2.29h2.29v2.29h-2.29Zm0,13.68v-11.37h2.29v11.37h-2.29Z"/>
      <path class="cls-7" d="m47.01,81.09h2.29v12.76c0,.43.08.73.24.89s.45.26.89.3v2.15c-.52,0-.99-.04-1.41-.12s-.78-.24-1.08-.48c-.3-.22-.53-.54-.68-.95-.16-.41-.24-.95-.24-1.63v-12.91Z"/>
      <path class="cls-7" d="m63.02,85.68h-2.29v-.52c0-.52-.12-.98-.37-1.36-.25-.38-.66-.57-1.24-.57-.31,0-.57.06-.76.18-.19.12-.35.27-.47.45-.12.19-.2.42-.25.66-.04.25-.07.5-.07.77,0,.31.01.58.03.78s.08.4.17.56c.09.16.22.31.39.43.17.12.41.24.71.36l1.75.69c.51.19.92.42,1.23.68.31.26.56.56.74.91.16.36.28.77.34,1.22.06.46.09.98.09,1.56,0,.67-.07,1.3-.2,1.87s-.35,1.06-.65,1.47c-.31.42-.72.75-1.23.99-.51.24-1.13.36-1.86.36-.55,0-1.07-.1-1.55-.29-.48-.19-.89-.46-1.23-.81-.34-.34-.62-.74-.82-1.2-.2-.46-.3-.95-.3-1.49v-.85h2.29v.72c0,.42.12.8.37,1.13.25.34.66.5,1.24.5.39,0,.69-.06.91-.17.22-.11.39-.27.51-.48.12-.21.19-.46.21-.75s.03-.62.03-.98c0-.42-.01-.76-.04-1.03-.03-.27-.09-.49-.18-.65-.1-.16-.24-.3-.42-.4-.17-.1-.4-.22-.68-.34l-1.64-.67c-.99-.4-1.65-.94-1.98-1.6-.34-.66-.5-1.5-.5-2.5,0-.6.08-1.17.25-1.7.16-.54.41-1,.74-1.39.31-.39.71-.7,1.2-.93s1.07-.35,1.74-.35c.57,0,1.09.1,1.56.31s.88.49,1.22.83c.69.72,1.03,1.54,1.03,2.47v1.12Z"/>
      <path class="cls-7" d="m71.2,92.23h-4.53v1.55c0,.36.1.64.3.83.2.19.48.29.82.29.43,0,.72-.13.86-.38.14-.25.23-.51.26-.76h2.29c0,1-.31,1.81-.92,2.42-.3.31-.66.56-1.08.74s-.89.27-1.41.27c-.72,0-1.33-.15-1.83-.45-.5-.3-.89-.69-1.15-1.19-.16-.3-.28-.64-.34-1.03-.06-.39-.09-.81-.09-1.28v-3.74c0-.46.03-.89.09-1.28s.17-.73.34-1.03c.27-.49.65-.89,1.15-1.19.5-.3,1.11-.45,1.83-.45.52,0,1,.09,1.42.27.43.18.79.43,1.09.74.6.67.9,1.52.9,2.53v3.14Zm-4.53-1.79h2.24v-1.3c0-.43-.1-.76-.3-.98-.2-.22-.48-.33-.82-.33s-.62.11-.82.33c-.2.22-.3.54-.3.98v1.3Z"/>
      <path class="cls-7" d="m72.89,97.05v-11.37h2.29v1.21c.46-.42.92-.75,1.37-.99.45-.24,1-.36,1.66-.36v2.42c-.22-.09-.46-.13-.69-.13s-.5.04-.77.12c-.28.08-.53.22-.75.42-.24.19-.43.45-.58.76s-.22.7-.22,1.17v6.75h-2.29Z"/>
      <path class="cls-7" d="m86.49,85.68l-2.96,11.37h-2.02l-2.96-11.37h2.42l1.52,7.26h.04l1.53-7.26h2.42Z"/>
      <path class="cls-7" d="m87.41,83.38v-2.29h2.29v2.29h-2.29Zm0,13.68v-11.37h2.29v11.37h-2.29Z"/>
      <path class="cls-7" d="m94,93.78c0,.36.1.64.3.83.2.19.47.29.82.29.43,0,.72-.13.86-.38.14-.25.23-.51.26-.76h2.29c0,1-.31,1.81-.92,2.42-.3.31-.66.56-1.08.74s-.89.27-1.41.27c-.72,0-1.33-.15-1.83-.45-.5-.3-.89-.69-1.15-1.19-.16-.3-.28-.64-.34-1.03-.06-.39-.09-.81-.09-1.28v-3.74c0-.46.03-.89.09-1.28s.17-.73.34-1.03c.27-.49.65-.89,1.15-1.19.5-.3,1.11-.45,1.83-.45.52,0,1,.09,1.42.27.43.18.79.43,1.09.74.6.67.9,1.55.9,2.62h-2.29c0-.46-.1-.8-.3-1.02-.2-.22-.48-.33-.82-.33s-.62.11-.82.33c-.2.22-.3.54-.3.98v4.64Z"/>
      <path class="cls-7" d="m106.49,92.23h-4.53v1.55c0,.36.1.64.3.83.2.19.48.29.82.29.43,0,.72-.13.86-.38.14-.25.23-.51.26-.76h2.29c0,1-.31,1.81-.92,2.42-.3.31-.66.56-1.08.74s-.89.27-1.41.27c-.72,0-1.33-.15-1.83-.45-.5-.3-.89-.69-1.15-1.19-.16-.3-.28-.64-.34-1.03-.06-.39-.09-.81-.09-1.28v-3.74c0-.46.03-.89.09-1.28s.17-.73.34-1.03c.27-.49.65-.89,1.15-1.19.5-.3,1.11-.45,1.83-.45.52,0,1,.09,1.42.27.43.18.79.43,1.09.74.6.67.9,1.52.9,2.53v3.14Zm-4.53-1.79h2.24v-1.3c0-.43-.1-.76-.3-.98-.2-.22-.48-.33-.82-.33s-.62.11-.82.33c-.2.22-.3.54-.3.98v1.3Z"/>
    </g>
  </g>
</svg>