<?xml version="1.0" encoding="UTF-8"?>
<svg id="Layer_2" data-name="Layer 2" xmlns="http://www.w3.org/2000/svg" viewBox="0 0 231.02 246.54">
  <defs>
    <style>
      .cls-1 {
        opacity: .3;
      }

      .cls-2, .cls-3, .cls-4, .cls-5, .cls-6, .cls-7, .cls-8, .cls-9, .cls-10, .cls-11, .cls-12, .cls-13, .cls-14, .cls-15 {
        stroke-width: 0px;
      }

      .cls-3 {
        fill: #455b64;
      }

      .cls-4 {
        fill: #263238;
      }

      .cls-5 {
        fill: #278744;
      }

      .cls-6 {
        fill: #702879;
      }

      .cls-7 {
        fill: #5794c9;
      }

      .cls-8 {
        fill: #231f20;
      }

      .cls-9 {
        fill: #e0e0e0;
      }

      .cls-10 {
        fill: #fbbd9d;
      }

      .cls-11 {
        fill: #f3725f;
      }

      .cls-12 {
        fill: #fff;
      }

      .cls-13 {
        fill: #ec996f;
      }

      .cls-14 {
        fill: #fafbfb;
      }

      .cls-15 {
        fill: #04703c;
      }
    </style>
  </defs>
  <g id="Layer_1-2" data-name="Layer 1">
    <circle class="cls-7" cx="115.51" cy="115.51" r="115.51" transform="translate(-47.85 115.51) rotate(-45)"/>
    <path class="cls-4" d="m219.42,234.68c0,.09-47.49.16-106.07.16s-106.08-.07-106.08-.16,47.48-.16,106.08-.16,106.07.07,106.07.16Z"/>
    <g>
      <g>
        <rect class="cls-9" x="91.58" y="182.62" width="4.2" height="22.12"/>
        <path class="cls-4" d="m95.78,204.74s-.01-.16-.02-.46c0-.32-.01-.74-.02-1.27-.01-1.13-.03-2.72-.05-4.68-.02-3.98-.04-9.48-.07-15.71l.16.16c-1.35,0-2.76,0-4.2,0,.32-.32.09-.08.16-.15h0v.86c0,.29,0,.58,0,.86,0,.57,0,1.14,0,1.7,0,1.12,0,2.22,0,3.3,0,2.15-.01,4.19-.01,6.08-.02,3.77-.04,6.97-.05,9.31l-.09-.09c1.3.02,2.34.04,3.08.05.34,0,.61.02.83.02.19,0,.29.01.3.02,0,0-.08.01-.26.02-.21,0-.47.01-.81.02-.75.01-1.8.03-3.13.05h-.09s0-.09,0-.09c-.01-2.34-.03-5.54-.05-9.31,0-1.9,0-3.94-.01-6.08,0-1.07,0-2.18,0-3.3,0-.56,0-1.13,0-1.7,0-.29,0-.57,0-.86v-.43s0-.22,0-.22v-.19h0v-.02c.07-.07-.16.15.16-.17,1.44,0,2.85,0,4.2,0h.16s0,.16,0,.16c-.03,6.28-.05,11.82-.07,15.83-.02,1.95-.03,3.52-.05,4.64,0,.52-.02.93-.02,1.24,0,.28-.01.42-.02.42Z"/>
      </g>
      <path class="cls-4" d="m103.4,179.27h-19.64c-2.91,0-5.27-2.36-5.27-5.27h30.19c0,2.91-2.36,5.27-5.27,5.27Z"/>
      <path class="cls-11" d="m120.73,175.03h-34.25v-7.33h34.25c2.02,0,3.66,1.64,3.66,3.66h0c0,2.02-1.64,3.66-3.66,3.66Z"/>
      <path class="cls-11" d="m59.87,115.11c-1.96.26-3.35,2.04-3.13,4l4.94,44.93c.7,6.26,6,11,12.3,11h13.06c2.03,0,3.67-1.64,3.67-3.67h0c0-2.03-1.64-3.67-3.67-3.67h-11.09c-3.15,0-5.82-2.34-6.24-5.46l-5.75-43.99c-.26-2-2.1-3.41-4.1-3.14h0Z"/>
      <path class="cls-11" d="m101.48,168.07l-37.23.52-3.63-53.52,31.16-.2c3.11,0,5.63,2.54,5.63,5.68l4.07,47.51Z"/>
      <g class="cls-1">
        <path class="cls-2" d="m59.87,115.11c-1.96.26-3.35,2.04-3.13,4l4.94,44.93c.7,6.26,6,11,12.3,11h13.06c2.03,0,3.67-1.64,3.67-3.67h0c0-2.03-1.64-3.67-3.67-3.67h-11.89c-3.15,0-5.37-2.23-5.79-5.36l-5.4-44.1c-.26-2-2.1-3.41-4.1-3.14h0Z"/>
      </g>
      <rect class="cls-4" x="89.61" y="179.27" width="8.14" height="4.23"/>
      <g>
        <rect class="cls-9" x="89.61" y="203.5" width="8.03" height="19.39" rx="2.43" ry="2.43"/>
        <path class="cls-4" d="m95.2,222.89s.18-.01.5-.09c.32-.08.8-.26,1.22-.73.21-.23.4-.53.51-.89.12-.36.11-.77.1-1.23,0-.92-.01-1.95-.02-3.09,0-2.3-.02-5.03-.03-8.05,0-.76,0-1.53,0-2.33,0-.4.02-.79-.09-1.15-.1-.37-.3-.7-.56-.98-.27-.27-.61-.48-.99-.59-.37-.12-.78-.09-1.21-.09-.85,0-1.71,0-2.59,0-.82,0-1.61.47-1.99,1.17-.19.35-.29.74-.29,1.14,0,.42,0,.83,0,1.25,0,1.65,0,3.24,0,4.75-.01,3.02-.02,5.75-.03,8.05-.03.58.02,1.09.27,1.54.23.44.59.77.98.98.39.21.8.28,1.18.28.39,0,.74,0,1.07.01.62.01,1.11.02,1.48.03.34.01.51.02.51.03s-.18.02-.51.03c-.37,0-.86.02-1.48.03-.32,0-.68,0-1.07.01-.39.02-.84-.05-1.27-.27-.42-.21-.81-.57-1.07-1.04-.13-.24-.22-.5-.27-.78-.05-.28-.04-.57-.04-.85,0-2.3-.02-5.03-.03-8.05,0-1.52,0-3.11,0-4.75,0-.41,0-.83,0-1.25,0-.44.11-.9.32-1.29.43-.8,1.33-1.34,2.27-1.34.87,0,1.74,0,2.59,0,.41,0,.87-.03,1.3.11.43.13.82.37,1.12.68.3.32.53.7.64,1.12.12.42.09.85.09,1.23,0,.79,0,1.57,0,2.33-.01,3.02-.02,5.75-.03,8.05,0,1.14-.02,2.18-.02,3.09,0,.45,0,.9-.14,1.28-.13.38-.34.69-.57.93-.46.48-.97.64-1.3.71-.34.06-.52.02-.52.02Z"/>
      </g>
      <g>
        <path class="cls-9" d="m117.05,221.69h-47.78c-1.4,0-2.56.47-3.44,1.39-1.77,1.85-1.66,4.89-1.66,5.02l2.17-.09c-.02-.62.12-2.45,1.06-3.42.46-.48,1.07-.71,1.86-.71h12.53v5.55h2.18v-5.55h33.06c1.4,0,2.54,1.14,2.54,2.54v1.64h2.18v-1.64c0-2.6-2.11-4.71-4.71-4.71Z"/>
        <path class="cls-4" d="m117.05,221.69s.2-.02.6.02c.39.04.98.16,1.67.51.67.37,1.45,1,1.98,2.01.26.5.46,1.09.52,1.75.05.66.02,1.33.03,2.06v.08s-.08,0-.08,0c-.68,0-1.41,0-2.18,0h-.08s0-.09,0-.09c-.06-1.06.25-2.36-.64-3.27-.4-.44-.98-.75-1.61-.79-.64-.02-1.33,0-2.01,0-2.77,0-5.81.01-9.08.02-6.55,0-14.04.02-22.17.03l.15-.15c0,1.75,0,3.63,0,5.55v.16s-.16,0-.16,0c-.68,0-1.43,0-2.18,0h-.16s0-.16,0-.16c0-1.76,0-3.64,0-5.55l.16.16c-2.27,0-4.68,0-7.12,0-1.89,0-3.77,0-5.62,0-.44.02-.87.14-1.23.39-.36.24-.62.6-.81,1-.38.79-.53,1.71-.52,2.58v.16s-.15,0-.15,0c-.73.03-1.45.06-2.17.09h-.16s0-.15,0-.15c-.01-1.04.13-2.06.47-3.03.33-.96.88-1.87,1.68-2.51.79-.65,1.8-.97,2.78-1.01.98-.02,1.92,0,2.87,0,3.78,0,7.4,0,10.83.01,6.86.01,12.97.03,18.07.04,5.09.02,9.16.04,11.98.05,1.39.01,2.48.02,3.22.03.36,0,.63.01.83.01.19,0,.28.01.28.01,0,0-.1,0-.28.01-.2,0-.48,0-.83.01-.75,0-1.83.02-3.22.03-2.82.01-6.89.03-11.98.05-5.1,0-11.21.02-18.07.04-3.43,0-7.06,0-10.83.01-.94,0-1.91,0-2.86.01-.94.04-1.87.35-2.61.95-.74.6-1.26,1.45-1.58,2.37-.32.92-.46,1.93-.45,2.91l-.16-.15c.72-.03,1.44-.06,2.17-.09l-.15.16c0-.93.15-1.86.55-2.73.21-.43.5-.84.91-1.12.41-.28.91-.42,1.39-.44,1.86,0,3.74,0,5.64,0,2.44,0,4.85,0,7.12,0h.16v.16c0,1.91,0,3.8,0,5.55l-.16-.16c.75,0,1.5,0,2.18,0l-.16.16c0-1.92,0-3.8,0-5.55v-.15s.15,0,.15,0c8.13,0,15.62.02,22.17.03,3.27,0,6.31.01,9.08.02.7,0,1.36,0,2.03.02.68.05,1.31.39,1.74.87.43.48.67,1.1.67,1.71,0,.58,0,1.15,0,1.7l-.09-.09c.77,0,1.5,0,2.18,0l-.08.08c0-.72.03-1.42-.01-2.05-.05-.63-.23-1.21-.48-1.7-.5-.99-1.26-1.62-1.91-1.99-.67-.36-1.25-.49-1.63-.54-.39-.05-.59-.05-.59-.06Z"/>
      </g>
      <path class="cls-4" d="m87.09,232c0,2.35-1.91,4.26-4.26,4.26s-4.26-1.91-4.26-4.26,1.91-4.26,4.26-4.26,4.26,1.91,4.26,4.26Z"/>
      <path class="cls-4" d="m69.53,230.96c0,2.35-1.91,4.26-4.26,4.26s-4.26-1.91-4.26-4.26,1.91-4.26,4.26-4.26,4.26,1.91,4.26,4.26Z"/>
      <path class="cls-4" d="m124.44,231.12c0,2.35-1.91,4.26-4.26,4.26s-4.26-1.91-4.26-4.26,1.91-4.26,4.26-4.26,4.26,1.91,4.26,4.26Z"/>
      <path class="cls-4" d="m121.65,167.71c0,.09-10.5.2-23.44.25-12.95.05-23.45.02-23.45-.07,0-.09,10.49-.2,23.45-.25,12.95-.05,23.44-.02,23.44.07Z"/>
      <path class="cls-4" d="m69.42,161.62c-.09.01-1.38-9.69-2.89-21.67-1.51-11.98-2.66-21.7-2.57-21.71.09-.01,1.38,9.69,2.89,21.67,1.51,11.98,2.66,21.7,2.57,21.71Z"/>
      <path class="cls-4" d="m63.58,115s.11-.04.33-.09c.22-.04.55-.09.97-.1.84-.02,2.09.02,3.54.54.71.26,1.47.72,2.06,1.4.61.67,1.11,1.49,1.58,2.37.92,1.77,1.94,3.69,3.07,5.69,2.25,4,4.37,7.58,5.81,10.22.72,1.32,1.28,2.4,1.66,3.15.17.35.31.64.42.87.09.2.14.31.13.31s-.07-.09-.19-.28c-.13-.22-.28-.5-.48-.84-.44-.77-1.03-1.82-1.75-3.1-1.48-2.62-3.63-6.17-5.89-10.18-1.13-2-2.15-3.94-3.05-5.71-.46-.87-.94-1.68-1.52-2.33-.56-.67-1.26-1.09-1.94-1.37-1.39-.53-2.62-.61-3.45-.63-.84,0-1.29.09-1.3.06Z"/>
      <path class="cls-4" d="m56.99,117.33c.08.04-2.74,4.96-6.3,10.98-3.55,6.02-6.5,10.86-6.57,10.82-.08-.04,2.74-4.96,6.3-10.98,3.55-6.02,6.49-10.86,6.57-10.82Z"/>
      <g>
        <rect class="cls-14" x="39.21" y="139.13" width="51.04" height="15.05"/>
        <path class="cls-4" d="m88.6,152.81s0-.08,0-.22c0-.15,0-.36,0-.63,0-.56-.01-1.37-.02-2.41-.01-2.11-.03-5.17-.05-9.03l.1.1c-10.88.01-28.41.04-48.14.06.07-.07-.16.16.16-.16h0v1.57c0,.52,0,1.05,0,1.57,0,1.04,0,2.07,0,3.1,0,2.05,0,4.07,0,6.05l-.16-.16c13.72.03,25.73.05,34.33.07,4.3.02,7.74.03,10.12.04,1.18,0,2.1.02,2.73.02.3,0,.54,0,.71.01.16,0,.25.01.25.01,0,0-.07,0-.23.01-.17,0-.4,0-.69.01-.63,0-1.53.01-2.7.02-2.38.01-5.81.03-10.09.04-8.63.02-20.68.04-34.44.07h-.16s0-.16,0-.16c0-1.98,0-4,0-6.05,0-1.03,0-2.06,0-3.1,0-.52,0-1.04,0-1.57v-.79s0-.39,0-.39v-.37h0v-.02h0c.32-.32.09-.09.16-.16,19.73.03,37.26.05,48.14.06h.1s0,.1,0,.1c-.02,3.89-.04,6.97-.05,9.09-.01,1.03-.02,1.84-.02,2.39,0,.26,0,.46-.01.61,0,.14,0,.2,0,.2Z"/>
        <g>
          <path class="cls-8" d="m54.19,142.59l-1.62,7.88h-1l-1.61-7.88h1.2l.9,5.5h.02l.91-5.5h1.2Z"/>
          <path class="cls-8" d="m53.95,150.47l1.76-7.88h.94l1.76,7.88h-1.13l-.33-1.69h-1.54l-.33,1.69h-1.13Zm2.79-2.76l-.55-2.86h-.02l-.55,2.86h1.13Z"/>
          <path class="cls-8" d="m62.55,148.22v.49c0,.24-.05.47-.14.69-.09.22-.22.41-.38.58-.16.17-.35.31-.57.41-.22.1-.45.15-.7.15-.21,0-.43-.03-.65-.09s-.42-.16-.6-.31c-.18-.15-.32-.34-.44-.57-.11-.23-.17-.53-.17-.89v-4.34c0-.26.04-.5.13-.72s.21-.41.38-.58c.16-.16.36-.29.58-.38s.47-.14.75-.14c.53,0,.96.17,1.29.52.16.17.29.37.38.6.09.23.14.49.14.76v.44h-1.13v-.38c0-.22-.06-.41-.19-.58s-.3-.24-.51-.24c-.28,0-.47.09-.56.26-.09.17-.14.39-.14.66v4.03c0,.23.05.42.15.58s.28.23.54.23c.07,0,.15-.01.24-.04s.17-.07.24-.13c.07-.06.12-.14.17-.24s.07-.23.07-.39v-.39h1.13Z"/>
          <path class="cls-8" d="m62.96,150.47l1.76-7.88h.94l1.76,7.88h-1.13l-.33-1.69h-1.54l-.33,1.69h-1.13Zm2.79-2.76l-.55-2.86h-.02l-.55,2.86h1.13Z"/>
          <path class="cls-8" d="m67.93,150.47v-7.88h1.08l1.7,4.75h.02v-4.75h1.13v7.88h-1.06l-1.73-4.74h-.02v4.74h-1.13Z"/>
          <path class="cls-8" d="m76.48,148.22v.49c0,.24-.05.47-.14.69-.09.22-.22.41-.38.58-.16.17-.35.31-.57.41-.22.1-.45.15-.7.15-.21,0-.43-.03-.65-.09-.22-.06-.42-.16-.6-.31s-.32-.34-.44-.57c-.11-.23-.17-.53-.17-.89v-4.34c0-.26.04-.5.13-.72.09-.22.21-.41.38-.58s.36-.29.58-.38.47-.14.75-.14c.53,0,.96.17,1.3.52.16.17.29.37.38.6.09.23.14.49.14.76v.44h-1.13v-.38c0-.22-.06-.41-.19-.58s-.29-.24-.51-.24c-.28,0-.47.09-.56.26-.09.17-.14.39-.14.66v4.03c0,.23.05.42.15.58s.28.23.54.23c.07,0,.15-.01.24-.04s.17-.07.24-.13c.07-.06.12-.14.17-.24s.07-.23.07-.39v-.39h1.13Z"/>
          <path class="cls-8" d="m78.45,150.47v-3.33l-1.55-4.55h1.2l.91,3.13h.02l.91-3.13h1.2l-1.55,4.55v3.33h-1.13Z"/>
        </g>
      </g>
    </g>
    <g>
      <g>
        <path class="cls-3" d="m148.95,49.17c-.04.09-1.35-.32-2.93-.92-1.58-.6-2.84-1.17-2.8-1.26.04-.09,1.35.32,2.93.92,1.58.6,2.84,1.17,2.8,1.26Z"/>
        <path class="cls-10" d="m141.1,61.55c-.64-.07-2.27.75-3.64,2.39-.02.03-.05.05-.07.07-.97,1.1-1.58-2.27-1.65-3.52-.04-.81-.87-1.36-1.68-1.12l-4.28,1.65-1.21-.04c-.63.18-1.01.79-.89,1.41l1.52,6.68-.08,1.79,8.22,1.7.44-4.46c.16-.51.37-1.11.64-1.79.24-.61.59-1.19,1.04-1.68.46-.52,1.09-1.18,1.61-1.53.05-.03.1-.06.14-.08.1-.05.18-.11.25-.19.45-.42.27-1.2-.35-1.27Z"/>
        <path class="cls-15" d="m139.3,42.72s-4.91-.61-12.28-6.48c-7.37-5.87-11.37-14.2-12.19-14.08-.82.12-4.6-1.22-10.06,14.38-5.46,15.6-2.43,18.82-1.06,18.66,1.37-.16,10.41-3.62,16.27-3.51,5.86.11,13.6,2.43,13.6,2.43l5.72-11.41Z"/>
        <path class="cls-4" d="m150.27,49.91l-1.35,3.27-.6,1.47c-.83,2.01-3.08,3.02-5.13,2.3l-10.64-2.62,4.71-14.26,10.81,4.51c2.07.87,3.06,3.25,2.2,5.32Z"/>
        <path class="cls-4" d="m146.08,54.74l-3.56,6.32-1.63-.53-11.12,8.3-2.76-6.01s6.47-2.47,7.74-4.69c1.27-2.22-.07-2.79-.07-2.79l3.13-3.28,8.27,2.67Z"/>
        <path class="cls-4" d="m105.35,36.77c-2.9,8.44-3.74,15.81-1.88,16.44,1.86.64,5.71-5.69,8.6-14.14,2.89-8.44,3.74-15.81,1.88-16.44-1.86-.64-5.71,5.69-8.6,14.14Z"/>
        <polygon class="cls-3" points="151.58 54.33 148.71 53.72 150.13 50.27 152.34 51.37 151.58 54.33"/>
        <path class="cls-3" d="m148.27,51.21c-.03.09-1.48-.32-3.23-.92-1.75-.6-3.14-1.16-3.11-1.26.03-.09,1.48.32,3.23.92,1.75.6,3.14,1.16,3.11,1.26Z"/>
        <path class="cls-3" d="m147.38,53.36s-.35,0-.89-.11c-.27-.06-.59-.13-.95-.22-.36-.09-.73-.24-1.13-.38-1.59-.56-2.83-1.15-2.8-1.24.04-.1,1.33.34,2.91.9.4.14.77.29,1.11.4.35.1.66.2.92.29.52.17.84.31.83.36Z"/>
        <path class="cls-14" d="m112.64,34.26s-4.42-2.2-6.17,3.66c-1.75,5.86,2.73,6.37,2.73,6.37,1.54-2.96,2.7-6.29,3.45-10.03Z"/>
        <path class="cls-4" d="m116.44,27.12s0,.39-.06,1.09c-.07.7-.16,1.72-.31,2.97-.12.62-.25,1.3-.39,2.03-.07.36-.15.74-.22,1.13-.04.19-.08.39-.12.59-.04.2-.11.4-.16.6-.23.8-.47,1.65-.71,2.52-.06.22-.13.44-.19.66-.06.22-.16.44-.23.66-.16.44-.33.89-.5,1.34-.17.45-.34.9-.5,1.34-.09.22-.16.44-.26.65-.1.21-.2.42-.29.62-.39.82-.76,1.62-1.12,2.37-.09.19-.17.38-.27.56-.1.18-.2.35-.3.52-.2.34-.39.68-.58,1-.37.64-.72,1.24-1.04,1.79-.71,1.04-1.31,1.87-1.72,2.44-.41.57-.65.88-.67.87-.02-.01.18-.35.56-.94.39-.61.94-1.46,1.62-2.51.3-.55.64-1.15.99-1.8.18-.32.36-.66.56-1,.1-.17.19-.35.29-.52.09-.18.17-.37.26-.56.35-.75.71-1.55,1.09-2.37.1-.21.19-.41.29-.62.1-.21.17-.43.25-.65.16-.44.33-.88.5-1.33.17-.45.33-.89.5-1.33.08-.22.17-.43.23-.65.06-.22.13-.44.19-.66.25-.87.5-1.7.73-2.5.06-.2.12-.39.17-.59.04-.2.08-.39.12-.59.08-.38.16-.76.24-1.12.15-.72.3-1.39.43-2.01.18-1.23.32-2.23.42-2.95.11-.7.18-1.08.2-1.08Z"/>
        <path class="cls-10" d="m132.7,58.02c-.46.16-.71.67-.58,1.15.26.92.67,2.38,1,3.26.1.29.22.58.42.8.2.22.51.36.79.28.3-.09.49-.41.54-.73.04-.32-.03-.64-.11-.96-.21-.86-.59-2.16-.92-3.21-.15-.49-.66-.76-1.13-.59h0Z"/>
        <path class="cls-10" d="m131.33,59.59c-.46.16-.71.67-.58,1.15.26.92.67,2.38,1,3.26.1.29.22.58.42.8.2.22.51.36.79.28.3-.09.49-.41.54-.73.04-.32-.03-.64-.11-.96-.21-.86-.59-2.16-.92-3.21-.15-.49-.66-.76-1.13-.59h0Z"/>
        <path class="cls-10" d="m130.04,60.56c-.41.14-.64.58-.52,1,.23.8.61,2.06.91,2.83.1.25.2.5.38.69.18.19.46.32.72.24.27-.08.44-.35.48-.63.04-.28-.03-.56-.1-.83-.19-.75-.54-1.87-.84-2.78-.14-.43-.6-.66-1.03-.52h0Z"/>
        <path class="cls-10" d="m128.41,60.81c-.42.14-.65.58-.52,1,.23.81.62,2.07.91,2.84.1.25.2.5.38.7.18.19.46.32.72.24.27-.08.44-.35.48-.63.04-.28-.03-.56-.1-.83-.2-.75-.54-1.88-.85-2.8-.14-.43-.6-.66-1.03-.52h0Z"/>
        <path class="cls-13" d="m133.45,63.26c-.09.03-.42-.7-.73-1.64-.32-.94-.5-1.72-.41-1.75.09-.03.42.7.73,1.64.32.94.5,1.72.41,1.75Z"/>
        <path class="cls-13" d="m131.98,64.54c-.09.03-.44-.82-.78-1.89-.34-1.07-.54-1.96-.46-1.99.09-.03.43.81.78,1.89.34,1.07.54,1.96.46,1.99Z"/>
        <path class="cls-13" d="m130.53,64.63c-.08.04-.48-.68-.8-1.63-.32-.95-.44-1.76-.35-1.78.09-.02.35.74.67,1.68.31.94.57,1.7.48,1.74Z"/>
      </g>
      <g>
        <path class="cls-6" d="m181.66,42.33c-2.34-3.95-6.56-6.51-10.98-7.73-1.86-.51-3.12-.37-5.04-.15-1.92.22-3.73.95-5.07,2.34-1.59,1.65-3,3.56-3.59,5.78-.61,2.28-1.22,4.57-1.4,6.92-.18,2.35.09,4.79,1.18,6.88l5.75,1.93c3.25.61,6.54,1.22,9.83.96,3.29-.26,6.64-1.5,8.77-4.03,2.96-3.51,2.89-8.95.55-12.9Z"/>
        <path class="cls-6" d="m184.77,59.64c.06-1.36-.44-2.77-1.49-3.63-1.05-.86-2.68-1.03-3.78-.25l-1.1.97c-1.55.4-2.72,1.91-2.78,3.51-.06,1.6.93,3.17,2.38,3.86,1.44.69,3.25.51,4.57-.39,1.32-.9,2.14-2.47,2.21-4.07Z"/>
        <path class="cls-3" d="m182.99,63.45s.43-.34.5-1.13c.07-.76-.33-1.84-.95-2.86-.63-1.03-1.44-1.79-2.08-2.26-.64-.48-1.09-.69-1.07-.73.01-.03.5.11,1.19.56.69.43,1.56,1.2,2.21,2.28.33.53.57,1.08.73,1.6.16.52.24,1.02.17,1.44-.06.42-.25.73-.41.9-.16.17-.29.22-.3.21Z"/>
        <path class="cls-3" d="m179.87,64.76c-.1-.02.58-1.75.33-3.94-.21-2.2-1.23-3.75-1.14-3.79.03-.02.32.34.65,1,.33.66.67,1.64.79,2.76.12,1.13-.01,2.15-.2,2.86-.19.71-.4,1.12-.43,1.11Z"/>
        <g>
          <path class="cls-10" d="m160.56,70.62c.36-2.07,1.15-6.5,1.15-6.49,0,0-4.74-1.27-5.13-7.65-.19-3.17.46-8.28,1.13-12.44.6-3.75,4.58-8.37,9.21-7.68l2.09.07,7.4,4.33c1.13.23,1.89,1.29,1.76,2.43l-4.06,26.79-11.47,22.45-2.59-15.93.51-5.9Z"/>
          <g>
            <path class="cls-4" d="m159.84,48.61c-.06.42.26.82.7.89.44.07.84-.22.9-.65.06-.42-.26-.82-.7-.89-.44-.07-.85.22-.9.65Z"/>
            <path class="cls-4" d="m158.88,46.59c.09.11.74-.28,1.61-.19.87.07,1.46.58,1.56.48.05-.04-.03-.24-.29-.47-.25-.23-.7-.47-1.24-.52-.54-.05-1.01.11-1.29.28-.29.18-.4.36-.35.41Z"/>
            <path class="cls-4" d="m163.29,53.93s-.52-.19-1.38-.39c-.22-.04-.42-.11-.45-.26-.04-.17.08-.39.21-.64.26-.52.53-1.06.82-1.62,1.14-2.31,1.99-4.22,1.9-4.27-.09-.05-1.09,1.79-2.24,4.11-.28.57-.54,1.11-.79,1.64-.11.24-.28.52-.2.86.04.17.19.31.33.36.14.06.26.07.37.09.87.13,1.42.19,1.43.14Z"/>
            <path class="cls-13" d="m161.7,64.13s4.2.68,8.63-1.43c0,0-2.66,4.14-8.89,2.94l.26-1.51Z"/>
            <path class="cls-4" d="m159.56,43.53c.13.21.75.07,1.47.12.72.03,1.31.26,1.47.07.07-.09,0-.3-.25-.51-.24-.21-.67-.41-1.16-.44-.5-.03-.94.1-1.21.28-.27.18-.38.37-.32.48Z"/>
            <path class="cls-4" d="m169.75,49.25c-.04.43-.44.74-.88.71-.44-.04-.77-.41-.73-.83.04-.43.44-.74.88-.71.45.04.77.41.73.84Z"/>
            <path class="cls-4" d="m170.36,47.31c-.11.09-.66-.44-1.52-.55-.86-.13-1.55.23-1.63.11-.04-.05.09-.23.39-.39.3-.16.79-.3,1.33-.22.54.08.96.33,1.2.57.24.24.3.44.25.48Z"/>
            <path class="cls-4" d="m170.23,44.35c-.18.18-.75-.11-1.46-.21-.71-.13-1.34-.05-1.45-.27-.05-.11.07-.29.36-.44.29-.15.74-.24,1.23-.16.49.08.89.32,1.11.55.23.24.28.45.2.54Z"/>
          </g>
        </g>
        <path class="cls-6" d="m176.84,52.01l-1.25.95c-3.98-5.17-11.38-17.73-10.98-16.98,0,0,3.39-.83,6.77.29,3.37,1.12,9.68,3.85,8.96,7.93-.72,4.07-3.5,7.81-3.5,7.81Z"/>
        <path class="cls-3" d="m179.41,56.01s.04-.36.11-.99c.07-.64.12-1.57.05-2.71-.13-2.28-.97-5.41-2.83-8.37-1.87-2.96-4.21-5.15-5.96-6.63-.88-.74-1.61-1.31-2.12-1.7-.51-.39-.79-.61-.78-.63,0,0,.08.04.23.13.14.09.35.22.62.41.53.36,1.29.91,2.19,1.63,1.79,1.44,4.18,3.63,6.07,6.63,1.89,3,2.71,6.2,2.79,8.51.05,1.16-.03,2.1-.14,2.73-.04.32-.11.56-.15.73-.04.17-.06.25-.07.25Z"/>
        <path class="cls-3" d="m170.59,35.15s.09.03.24.12c.15.09.37.22.64.4.55.35,1.33.89,2.26,1.61.93.72,1.99,1.62,3.1,2.7,1.1,1.09,2.3,2.32,3.25,3.86.48.77.85,1.58,1.09,2.4.24.82.34,1.65.34,2.43,0,1.57-.31,2.95-.63,4.08-.33,1.13-.68,2.01-.92,2.62-.12.3-.22.54-.3.69-.07.16-.11.24-.12.23-.02,0,.1-.35.31-.97.21-.62.53-1.51.83-2.63.3-1.12.59-2.49.56-4.02-.01-.76-.12-1.56-.35-2.36-.24-.79-.6-1.58-1.06-2.33-.93-1.5-2.11-2.73-3.19-3.82-1.09-1.09-2.14-2-3.04-2.73-.9-.74-1.67-1.29-2.2-1.68-.53-.38-.83-.59-.81-.61Z"/>
        <path class="cls-3" d="m176.9,52.12s-.18-.21-.47-.62c-.32-.46-.72-1.05-1.2-1.75-1-1.49-2.37-3.55-3.86-5.84-1.49-2.29-2.83-4.38-3.79-5.89-.45-.72-.83-1.33-1.12-1.8-.26-.43-.39-.67-.38-.68.02-.01.18.21.47.62.31.46.72,1.05,1.2,1.75,1,1.49,2.37,3.55,3.86,5.85,1.49,2.29,2.83,4.38,3.79,5.89.45.72.83,1.33,1.12,1.8.26.43.39.67.38.68Z"/>
        <g>
          <path class="cls-10" d="m175.64,53.66c.05-.47.69-1.52,1.16-1.55,1.25-.07,3.47.24,3.18,3.38-.39,4.29-4.61,3.01-4.61,2.89,0-.1.1-3.11.26-4.72Z"/>
          <path class="cls-13" d="m176.57,56.78s.07.06.19.13c.12.07.33.13.56.06.47-.13.91-.81,1-1.58.05-.39,0-.77-.11-1.09-.1-.33-.29-.56-.51-.62-.22-.07-.4.05-.46.16-.07.11-.05.2-.07.21-.01,0-.09-.08-.04-.25.03-.08.08-.18.19-.25.11-.07.27-.1.42-.07.33.05.6.38.72.74.14.35.2.78.15,1.22-.11.86-.62,1.63-1.26,1.75-.31.05-.55-.06-.67-.18-.12-.12-.14-.22-.12-.22Z"/>
        </g>
      </g>
      <g>
        <path class="cls-10" d="m185.71,212.37c-.09.68-1.75,19.54-1.75,19.54h-8.64l-1.51-19.46,11.91-.08Z"/>
        <g>
          <path class="cls-7" d="m175.3,229.1s6.07,4.31,9,.58l.77,1.81,3.45,12.87c.22.83-.17,1.75-.97,2.07-.62.24-1.3.11-1.77-.34-2.5-2.37-11.63-11.15-11.54-12.34l.04-3.16c0-.66.41-1.24,1.02-1.48h0Z"/>
          <path class="cls-4" d="m187.25,246.5l-13.02-13.87v.69c-.06.75.26,1.04.62,1.52,1.05,1.42,3.97,4.6,10.88,11.23.4.39.97.55,1.52.42h0Z"/>
          <path class="cls-12" d="m176.14,230.58c.41.28.55.9.28,1.32-.26.42-.89.56-1.3.29-.41-.27-.6-1.01-.29-1.4.31-.39,1.05-.52,1.39-.15"/>
          <path class="cls-4" d="m183.5,239.4c.09.04.46-.81,1.42-1.27.95-.49,1.85-.27,1.87-.37.01-.04-.19-.17-.57-.22-.38-.05-.93,0-1.46.26-.53.26-.91.67-1.09,1-.19.34-.21.58-.17.59Z"/>
          <path class="cls-4" d="m184.67,241.58c.08.07.6-.46,1.44-.71.84-.26,1.56-.11,1.59-.21.05-.08-.74-.43-1.69-.13-.96.28-1.42,1.01-1.34,1.05Z"/>
          <path class="cls-4" d="m181.33,236.61c.08.08.87-.74,2.15-1.24,1.27-.52,2.41-.46,2.41-.57.03-.09-1.19-.31-2.55.24-1.37.53-2.1,1.53-2.02,1.57Z"/>
          <path class="cls-4" d="m181.04,232.7c.04.1.94-.28,2.11-.33,1.17-.06,2.1.23,2.13.13.04-.08-.89-.55-2.15-.49-1.26.05-2.15.61-2.1.69Z"/>
          <path class="cls-4" d="m183.82,232.33s.02-.23-.09-.61c-.11-.38-.33-.93-.78-1.5-.23-.27-.48-.61-.97-.74-.24-.06-.57.04-.72.29-.15.24-.16.52-.12.77.21,1.01,1.26,1.83,2.43,1.76,1.17-.09,2.09-.94,2.38-1.9.06-.25.07-.54-.1-.78-.17-.25-.52-.3-.74-.22-.46.16-.71.49-.95.75-.47.55-.72,1.08-.86,1.45-.14.37-.16.59-.14.6.06.03.26-.86,1.19-1.88.24-.24.51-.53.85-.63.16-.05.32,0,.4.12.09.12.09.33.04.52-.25.79-1.09,1.57-2.08,1.62-.99.07-1.91-.65-2.09-1.47-.04-.2-.02-.4.06-.54.08-.13.23-.2.39-.16.34.07.61.36.83.61.89,1.05,1,1.97,1.06,1.94Z"/>
        </g>
      </g>
      <g>
        <polygon class="cls-10" points="138.26 206.23 139.75 230.31 150.21 230.23 151.98 205.22 138.26 206.23"/>
        <path class="cls-7" d="m139.56,227.4v.7s-11.82,4.69-11.96,6.93l23.43-.02-.33-7.79c-3.48,1.62-7.13,1.8-11.14.2Z"/>
        <path class="cls-12" d="m148.33,229.7c.45.12.77.63.66,1.09-.1.46-.62.78-1.08.67-.46-.12-.85-.72-.7-1.16.16-.44.78-.79,1.2-.57"/>
        <path class="cls-4" d="m151.03,235l-.08-1.87-22.42.71s-1.04.45-.92,1.19l23.43-.02Z"/>
        <path class="cls-4" d="m139.47,228.17c0,.11.58.17,1.14.53.57.35.86.85.97.8.11-.02-.07-.71-.76-1.14-.69-.44-1.38-.3-1.35-.2Z"/>
        <path class="cls-4" d="m137.02,229.18c-.03.11.47.3.86.79.4.47.5.99.62.99.11.02.19-.65-.31-1.24-.49-.6-1.16-.64-1.16-.53Z"/>
        <path class="cls-4" d="m135.62,232.13c.1.02.26-.55-.03-1.17-.29-.63-.83-.87-.88-.78-.06.09.28.43.52.95.25.51.28.99.39,1.01Z"/>
      </g>
      <g>
        <path class="cls-4" d="m151.98,131.72c-.31.9-12.72,42.94-12.72,42.94l-2.13,49.88,15.45.89,5.53-49.8,14.11-31.15-6.2-25.34h-12.62l-1.41,12.58Z"/>
        <path class="cls-4" d="m162.97,119.15c.22.6,8.13,29.13,8.13,29.13l1.1,42.52v35.18h14.07l6.56-77.59s1.16-14.08-.82-18.85c-1.98-4.77-10-13.07-10-13.07l-19.04,2.67Z"/>
        <path class="cls-3" d="m164.1,122.06s.13.35.32.99c.2.7.47,1.61.8,2.73.71,2.35,1.65,5.49,2.7,8.97,1.04,3.51,1.89,6.72,2.38,9.07.25,1.17.42,2.13.52,2.8.1.66.14,1.03.12,1.04-.02,0-.11-.36-.24-1.01-.13-.66-.34-1.6-.62-2.77-.55-2.33-1.43-5.52-2.47-9.03-1.04-3.51-1.99-6.68-2.61-9-.31-1.16-.55-2.1-.7-2.76-.15-.65-.22-1.02-.2-1.02Z"/>
        <path class="cls-3" d="m168.96,122.06c.02.05-.49.07-.88.63-.18.27-.29.68-.12,1.08.16.39.57.74,1.04.77.48.02.92-.3,1.11-.67.21-.38.14-.79-.02-1.08-.34-.6-.85-.66-.82-.71,0-.02.12-.03.32.04.2.07.48.23.69.56.21.31.34.84.09,1.33-.22.47-.75.88-1.39.86-.64-.04-1.12-.49-1.3-.98-.2-.51-.03-1.02.21-1.31.24-.31.54-.45.74-.5.21-.05.32-.02.32,0Z"/>
        <path class="cls-3" d="m181.46,142.55s.01.07.02.21c0,.16,0,.37.01.63,0,.57.01,1.38.02,2.42.01,2.1,0,5.14-.07,8.89-.11,7.5-.45,17.87-.89,29.31-.44,11.45-.81,21.81-.98,29.31-.09,3.75-.15,6.79-.17,8.88-.02,1.03-.03,1.84-.04,2.42,0,.26-.01.47-.02.63,0,.14-.01.21-.02.21s-.01-.07-.02-.21c0-.16,0-.37-.01-.63,0-.57-.01-1.38-.02-2.42-.01-2.1,0-5.14.07-8.89.11-7.5.45-17.87.89-29.31.44-11.44.81-21.8.98-29.3.09-3.75.15-6.79.17-8.88.02-1.03.03-1.84.04-2.42,0-.26.01-.47.02-.63,0-.14.01-.21.02-.21Z"/>
        <path class="cls-3" d="m159.74,137.42s-.02.08-.07.22c-.06.16-.14.37-.24.63-.22.57-.54,1.38-.95,2.42-.84,2.11-2.05,5.13-3.54,8.86-1.47,3.75-3.2,8.23-4.84,13.29-1.62,5.06-3.22,10.73-3.89,16.82-.32,3.05-.46,6.05-.65,8.94-.16,2.89-.31,5.69-.45,8.35-.27,5.32-.52,10.11-.73,14.14-.22,4.02-.43,7.28-.6,9.53-.09,1.11-.16,1.98-.21,2.59-.03.28-.05.5-.06.67-.02.15-.03.23-.03.23,0,0,0-.08,0-.23,0-.17.02-.39.03-.67.04-.61.09-1.48.15-2.59.13-2.25.31-5.51.5-9.53.19-4.03.41-8.82.66-14.14.14-2.66.28-5.45.43-8.35.18-2.9.32-5.89.64-8.96.68-6.14,2.29-11.82,3.93-16.88,1.65-5.07,3.41-9.54,4.91-13.28,1.51-3.74,2.77-6.75,3.64-8.83.43-1.03.77-1.83,1-2.39.11-.26.2-.47.27-.62.06-.14.1-.21.1-.21Z"/>
      </g>
      <path class="cls-15" d="m180.97,68.95s8.37,1.56,10.21,3.1c1.8,1.5,18.61,23.4,18.95,27.82.35,4.42-1.69,6.04-2.85,7.08s-21.2,14.65-21.2,14.65l-6.16-10.23,17.31-10.34-8.36-14.3-7.91-17.78Z"/>
      <path class="cls-15" d="m202.83,97.11c.02.1-1.66.09-3.32,1.15-1.69,1.03-2.41,2.55-2.49,2.49-.03-.01.09-.41.46-.97.36-.55,1-1.25,1.86-1.79.87-.54,1.77-.81,2.43-.89.66-.09,1.07-.03,1.07.01Z"/>
      <g>
        <path class="cls-12" d="m160.68,70.01l2.22,20.14,11.33-22.71,7.3,7.42s4.49,26.52,4.55,26.71c.06.19-3.07,15.17-3.07,15.17l-20.76,4.01-6.33-1.61-1-23.59-.44-18.07,6.2-7.48Z"/>
        <path class="cls-5" d="m157.99,70.86l-5.39,1.25c-.72.17-1.39.5-1.95.98-4.6,3.94-14.55,12.27-14.55,12.27l1.83-14.78-9.55-.91s-2.87,18.63-2.58,23.53c.35,5.69,5.45,7.09,12.88,4.03,8.23-3.39,13.28-6.55,13.28-6.55l6.02-19.82Z"/>
        <path class="cls-15" d="m188.05,86.78l-.98,17.66.99,3.44s9.3,17.55,10.81,29.17l-11.5,1.86s-3.14-14.99-5.35-22.43c-2.21-7.44-8.72-10.57-10.92-18.24-2.21-7.67-1.39-13.01-1.39-13.48s4.53-17.31,4.53-17.31l.81-3.52,4.07,3.87,10.46,3.49-1.52,15.51Z"/>
        <g class="cls-1">
          <path class="cls-2" d="m193.54,119.62s-3.96,3.02-5.96,4.06c-.12.06-.28.13-.46.2-.85.32-1.81-.05-2.25-.85-.24-.45-.5-.92-.66-1.28-.43-.91-.88-2.01-1.29-2.96l1.29-.32,1.88,3.11,5.41-3.71,1.03-.71,1.02,2.45Z"/>
        </g>
        <path class="cls-15" d="m160.78,68.02l-2.52,2.63-6.03,2.12s-1.48,17.8-.67,21.57c.77,3.64,2.24,8.07,2.37,13.3.12,5.23-5.85,32.88-5.85,32.88l7.22,2.74s3.69-32.01,2.96-38.98c-.72-6.97,1.15-21.05,1.15-21.05l1.37-15.21Z"/>
        <path class="cls-4" d="m174.46,101.95s-.1-.09-.27-.29c-.16-.2-.38-.51-.62-.95-.46-.87-.87-2.27-.93-4.02-.07-1.76.13-3.83.42-6.12.31-2.29.8-4.79,1.53-7.35,1.34-4.81,3.26-8.96,4.92-11.91l.1.18c-.95-.03-1.8-.06-2.56-.08h-.18s.11-.15.11-.15c.7-.95,1.27-1.7,1.68-2.26.18-.24.33-.43.46-.59.11-.13.16-.2.17-.19,0,0-.04.08-.13.22-.11.17-.25.37-.42.62-.39.57-.93,1.34-1.61,2.31l-.07-.15c.76.01,1.61.02,2.56.04h.2s-.09.18-.09.18c-1.61,2.96-3.49,7.1-4.82,11.88-.73,2.55-1.22,5.03-1.55,7.3-.31,2.27-.53,4.34-.49,6.07.03,1.73.4,3.11.82,3.98.42.87.8,1.27.77,1.29Z"/>
        <path class="cls-4" d="m181.53,85.63c.02.08-1.3.4-2.96.56-1.66.17-3.01.13-3.01.04,0-.09,1.34-.19,2.98-.36,1.64-.16,2.98-.34,2.99-.25Z"/>
        <path class="cls-4" d="m188.87,81.54s-.03.32-.13.89c-.08.57-.18,1.41-.28,2.44-.2,2.07-.4,4.93-.59,8.1-.19,3.14-.36,5.98-.49,8.11-.07,1.04-.13,1.88-.19,2.46-.06.58-.1.9-.12.9-.02,0-.02-.32,0-.91.02-.64.05-1.47.08-2.46.08-2.08.21-4.95.4-8.12.19-3.17.43-6.04.69-8.1.13-1.03.27-1.87.38-2.44.13-.57.23-.88.25-.87Z"/>
        <path class="cls-4" d="m202.26,101.58c-.03.09-1.16-.27-2.61-.38-1.44-.11-2.62.08-2.63-.02-.02-.08,1.16-.42,2.66-.3,1.5.11,2.62.62,2.58.69Z"/>
        <path class="cls-4" d="m136.17,85c.08.04-.3,1.06-.85,2.29-.55,1.23-1.06,2.19-1.14,2.16-.08-.04.3-1.06.85-2.29.55-1.23,1.06-2.19,1.14-2.16Z"/>
        <path class="cls-4" d="m151.2,79.11c.09,0,.23,3.47.31,7.76.08,4.29.08,7.76-.01,7.76-.09,0-.23-3.47-.31-7.76-.08-4.28-.08-7.76.01-7.76Z"/>
        <path class="cls-4" d="m158.35,93.69s-.05-.32-.08-.89c-.02-.64-.05-1.46-.09-2.44-.06-2.06-.12-4.92-.17-8.07-.05-3.15-.08-6.01-.08-8.07,0-.99,0-1.81.01-2.45,0-.58.03-.9.05-.9.02,0,.05.32.08.9.02.64.05,1.46.09,2.45.06,2.06.12,4.92.17,8.07.05,3.15.08,6,.08,8.07,0,.99,0,1.81-.01,2.45-.01.58-.03.9-.05.9Z"/>
        <path class="cls-4" d="m203.75,109.48s-.11.1-.33.26c-.25.18-.57.41-.98.71-.89.62-2.14,1.5-3.68,2.58-3.17,2.19-7.57,5.23-12.58,8.69l-.14.09-.09-.14c-.89-1.48-1.81-3.01-2.76-4.57-1.18-1.96-2.32-3.87-3.4-5.65l-.08-.13.13-.08c4.98-2.95,9.31-5.51,12.42-7.36,1.53-.89,2.76-1.61,3.64-2.12.41-.23.74-.42.98-.56.22-.12.34-.18.35-.18,0,0-.11.08-.32.22-.24.15-.56.35-.96.6-.86.53-2.08,1.27-3.59,2.2-3.1,1.87-7.41,4.46-12.37,7.45l.05-.21c1.08,1.78,2.22,3.69,3.41,5.65.94,1.57,1.86,3.1,2.75,4.58l-.22-.05c5.04-3.43,9.46-6.43,12.65-8.6,1.57-1.05,2.84-1.9,3.74-2.5.42-.28.76-.5,1.01-.66.23-.15.36-.22.36-.21Z"/>
        <g class="cls-1">
          <path class="cls-2" d="m173.61,100.63c-.3-2.62.14-5.27.71-7.84,1.58-7.16,4.2-14.09,7.74-20.5-.78-.53-1.88-.29-2.61.3s-1.17,1.46-1.56,2.31c-2.68,5.77-4.45,12-5.06,18.33-.14,1.48-.21,2.42-.09,3.71.12,1.28.12,2.63.92,3.65"/>
        </g>
        <g class="cls-1">
          <path class="cls-2" d="m151.18,80.39c-1.91,3.32-1.65,7.3.17,10.66,0-3.7,0-6.9-.22-10.61"/>
        </g>
      </g>
      <path class="cls-13" d="m166.01,55.83c-.05-.22-.15-.44-.35-.53-.12-.06-.26-.06-.4-.06-.8.01-1.59.13-2.36.34l-.04.12c.05.34.1.68.21,1.01.11.33.29.64.56.85.5.4,1.28.38,1.79,0,.51-.39.74-1.09.6-1.72Z"/>
      <path class="cls-4" d="m163.65,57.7c.01-.05.41.11.99-.06.29-.09.61-.27.83-.59.22-.31.33-.76.22-1.19-.05-.21-.16-.4-.31-.47-.14-.08-.35-.05-.55-.01-.38.07-.75.14-1.11.21-.63.11-1.03.16-1.04.11,0-.04.37-.17.99-.33.36-.09.72-.18,1.09-.28.2-.04.47-.11.75.02.27.14.41.42.47.67.14.53-.01,1.07-.29,1.44-.28.38-.68.57-1.01.64-.69.13-1.07-.14-1.05-.16Z"/>
      <path class="cls-14" d="m177.02,58.32c-.16-.43-.7-.8-1.15-.69h.01c-.27.03-.53.19-.68.42-.25.39-.2.95.11,1.29.32.34.87.43,1.28.19.4-.24.59-.77.43-1.21Z"/>
      <path class="cls-10" d="m180.19,111.97l-7.09-6.29-5.99.52s.21.98,1.03,1.14c.83.15,3.82.21,3.82.21l1.4,1.39-3.57-.36-4.54,2.68s-.1.83,1.08.62c1.19-.21,3.46-1.14,3.46-1.14l2.64.15-2.88.41-3.73,2.63s.77.88,1.96.52,2.63-.93,2.63-.93l3.25-.31-3.25.83-2.43,3s.76.57,1.57,0c.81-.57,1.38-1.08,1.38-1.08l3.62-.15s3.99,2.89,5.38,3.2c1.39.31,4.28-.53,4.28-.53l-4.02-6.5Z"/>
    </g>
    <g>
      <path class="cls-8" d="m60.98,60.28v14.96c0,1.34-.42,2.46-1.26,3.35-.42.44-.92.79-1.5,1.04-.58.26-1.25.39-2.02.39-.9,0-1.65-.2-2.24-.59-.6-.39-1.07-.78-1.42-1.17l2.2-1.76c.2.2.44.37.7.51.26.14.54.21.84.21.17,0,.36-.03.58-.1s.43-.19.63-.37c.2-.16.37-.4.49-.7.13-.3.19-.7.19-1.2v-14.57h2.8Z"/>
      <path class="cls-8" d="m63.04,70.59c0-.57.04-1.09.11-1.57s.21-.9.41-1.27c.33-.6.8-1.09,1.42-1.46.61-.37,1.36-.55,2.24-.55s1.63.18,2.24.55c.61.37,1.09.85,1.42,1.46.2.37.34.79.41,1.27.07.48.11,1,.11,1.57v4.59c0,.57-.04,1.09-.11,1.57-.07.48-.21.9-.41,1.27-.33.6-.8,1.09-1.42,1.46-.61.37-1.36.55-2.24.55s-1.63-.18-2.24-.55c-.61-.37-1.09-.85-1.42-1.46-.2-.37-.34-.79-.41-1.27-.07-.48-.11-1-.11-1.57v-4.59Zm2.8,5.03c0,.53.12.93.37,1.2.25.27.58.4,1,.4s.76-.13,1-.4c.25-.27.37-.66.37-1.2v-5.47c0-.53-.12-.93-.37-1.2-.25-.26-.58-.4-1-.4s-.76.13-1,.4c-.25.27-.37.66-.37,1.2v5.47Z"/>
      <path class="cls-8" d="m73.46,63.08v-2.8h2.8v2.8h-2.8Zm0,16.77v-13.94h2.8v13.94h-2.8Z"/>
      <path class="cls-8" d="m78.57,79.86v-13.94h2.8v1.35h.05c.29-.44.65-.8,1.06-1.09.41-.28.94-.43,1.58-.43.35,0,.7.06,1.05.18.35.12.66.32.93.59s.5.63.66,1.06c.16.43.25.96.25,1.58v10.7h-2.8v-9.65c0-.51-.12-.92-.36-1.21-.24-.29-.58-.44-1.02-.44-.53,0-.9.17-1.1.5-.2.33-.3.81-.3,1.43v9.38h-2.8Z"/>
      <path class="cls-8" d="m94.38,65.91v-4.23h2.8v4.23h1.73v2.2h-1.73v7.73c0,.33.03.59.1.77s.17.32.32.41c.15.09.32.15.54.17.21.02.47.03.78.03v2.64h-1.16c-.64,0-1.18-.1-1.61-.3-.43-.2-.78-.46-1.03-.77-.26-.31-.45-.66-.56-1.06-.12-.39-.18-.77-.18-1.14v-8.47h-1.4v-2.2h1.4Z"/>
      <path class="cls-8" d="m99.99,79.86v-19.58h2.8v6.98h.05c.29-.44.65-.8,1.06-1.09.41-.28.94-.43,1.58-.43.35,0,.7.06,1.05.18.35.12.66.32.93.59s.5.63.66,1.06c.16.43.25.96.25,1.58v10.7h-2.8v-9.65c0-.51-.12-.92-.36-1.21-.24-.29-.58-.44-1.02-.44-.53,0-.9.17-1.1.5-.2.33-.3.81-.3,1.43v9.38h-2.8Z"/>
      <path class="cls-8" d="m118.8,73.94h-5.55v1.9c0,.44.12.78.37,1.02.25.24.58.36,1,.36.53,0,.88-.16,1.06-.47.17-.31.28-.62.32-.93h2.8c0,1.23-.38,2.22-1.13,2.97-.37.39-.81.69-1.32.91s-1.09.33-1.73.33c-.88,0-1.63-.18-2.24-.55-.61-.37-1.09-.85-1.42-1.46-.2-.37-.34-.79-.41-1.27-.07-.48-.11-1-.11-1.57v-4.59c0-.57.04-1.09.11-1.57s.21-.9.41-1.27c.33-.6.8-1.09,1.42-1.46.61-.37,1.36-.55,2.24-.55.64,0,1.22.11,1.75.33.52.22.97.52,1.33.91.73.83,1.1,1.86,1.1,3.11v3.85Zm-5.55-2.2h2.75v-1.59c0-.53-.12-.93-.37-1.2-.25-.26-.58-.4-1-.4s-.76.13-1,.4c-.25.27-.37.66-.37,1.2v1.59Z"/>
    </g>
    <g>
      <path class="cls-8" d="m24.34,100.42v1.21c0,.6-.11,1.18-.34,1.72s-.55,1.02-.95,1.44c-.4.42-.88.76-1.42,1s-1.12.37-1.75.37c-.53,0-1.07-.07-1.62-.22-.55-.15-1.05-.4-1.48-.77-.44-.37-.8-.84-1.09-1.42-.28-.58-.43-1.31-.43-2.21v-10.78c0-.64.11-1.24.33-1.79.22-.55.53-1.03.93-1.43.4-.4.88-.72,1.44-.95.56-.23,1.18-.34,1.86-.34,1.32,0,2.39.43,3.22,1.29.4.42.72.92.95,1.5s.34,1.21.34,1.88v1.1h-2.81v-.94c0-.55-.16-1.03-.47-1.43-.31-.4-.73-.6-1.27-.6-.7,0-1.16.22-1.39.65-.23.43-.34.98-.34,1.64v10.01c0,.57.12,1.04.37,1.43.25.39.69.58,1.33.58.18,0,.38-.03.59-.1.21-.06.41-.17.59-.32.16-.15.3-.35.41-.6s.16-.58.16-.96v-.96h2.81Z"/>
      <path class="cls-8" d="m26.46,89.23v-2.8h2.8v2.8h-2.8Zm0,16.77v-13.94h2.8v13.94h-2.8Z"/>
      <path class="cls-8" d="m40.12,92.06l-3.63,13.94h-2.47l-3.63-13.94h2.97l1.87,8.91h.06l1.87-8.91h2.97Z"/>
      <path class="cls-8" d="m41.25,89.23v-2.8h2.8v2.8h-2.8Zm0,16.77v-13.94h2.8v13.94h-2.8Z"/>
      <path class="cls-8" d="m46.2,86.43h2.8v15.64c0,.53.1.89.29,1.09s.55.32,1.09.37v2.64c-.64,0-1.22-.05-1.73-.15s-.95-.3-1.32-.59c-.37-.27-.65-.66-.84-1.17-.19-.5-.29-1.17-.29-1.99v-15.84Z"/>
      <path class="cls-8" d="m65.83,92.06h-2.8v-.63c0-.64-.15-1.2-.45-1.66-.3-.47-.81-.7-1.53-.7-.39,0-.7.07-.94.22-.24.15-.43.33-.58.55-.15.24-.25.51-.3.81-.05.3-.08.62-.08.95,0,.39.01.71.04.96s.1.48.21.69c.11.2.27.38.48.52.21.15.5.29.87.44l2.14.85c.62.24,1.13.52,1.51.84.39.32.69.69.91,1.11.2.44.34.94.41,1.5.07.56.11,1.2.11,1.91,0,.82-.08,1.59-.25,2.3s-.43,1.31-.8,1.8c-.39.51-.89.92-1.51,1.21-.62.29-1.38.44-2.28.44-.68,0-1.31-.12-1.9-.36-.59-.24-1.09-.57-1.51-.99-.42-.42-.76-.91-1-1.47-.25-.56-.37-1.17-.37-1.83v-1.05h2.8v.88c0,.51.15.98.45,1.39.3.41.81.62,1.53.62.48,0,.85-.07,1.11-.21.27-.14.47-.33.62-.59.15-.26.23-.56.26-.92s.04-.76.04-1.2c0-.51-.02-.94-.05-1.26-.04-.33-.11-.6-.22-.8-.13-.2-.3-.37-.51-.5-.21-.13-.49-.26-.84-.41l-2.01-.82c-1.21-.49-2.02-1.15-2.43-1.97-.41-.82-.62-1.84-.62-3.07,0-.73.1-1.43.3-2.09.2-.66.5-1.23.91-1.7.39-.48.88-.86,1.47-1.14s1.31-.43,2.13-.43c.7,0,1.33.13,1.91.39s1.08.6,1.5,1.02c.84.88,1.26,1.89,1.26,3.02v1.37Z"/>
      <path class="cls-8" d="m75.86,100.09h-5.55v1.9c0,.44.12.78.37,1.02.25.24.58.36,1,.36.53,0,.88-.16,1.06-.47.17-.31.28-.62.32-.93h2.8c0,1.23-.38,2.22-1.13,2.97-.37.39-.81.69-1.32.91s-1.09.33-1.73.33c-.88,0-1.63-.18-2.24-.55-.61-.37-1.09-.85-1.42-1.46-.2-.37-.34-.79-.41-1.27-.07-.48-.11-1-.11-1.57v-4.59c0-.57.04-1.09.11-1.57s.21-.9.41-1.27c.33-.6.8-1.09,1.42-1.46.61-.37,1.36-.55,2.24-.55.64,0,1.22.11,1.75.33.52.22.97.52,1.33.91.73.83,1.1,1.86,1.1,3.11v3.85Zm-5.55-2.2h2.75v-1.59c0-.53-.12-.93-.37-1.2-.25-.26-.58-.4-1-.4s-.76.13-1,.4c-.25.27-.37.66-.37,1.2v1.59Z"/>
      <path class="cls-8" d="m77.93,106.01v-13.94h2.8v1.49c.57-.51,1.13-.92,1.68-1.21.55-.29,1.23-.44,2.03-.44v2.97c-.27-.11-.56-.17-.85-.17s-.61.05-.95.15c-.34.1-.65.27-.92.51-.29.24-.53.55-.72.93s-.27.86-.27,1.43v8.28h-2.8Z"/>
      <path class="cls-8" d="m94.62,92.06l-3.63,13.94h-2.47l-3.63-13.94h2.97l1.87,8.91h.05l1.87-8.91h2.97Z"/>
      <path class="cls-8" d="m95.74,89.23v-2.8h2.8v2.8h-2.8Zm0,16.77v-13.94h2.8v13.94h-2.8Z"/>
      <path class="cls-8" d="m103.83,101.99c0,.44.12.78.37,1.02.25.24.58.36,1,.36.53,0,.88-.16,1.06-.47.17-.31.28-.62.32-.93h2.81c0,1.23-.38,2.22-1.13,2.97-.37.39-.81.69-1.32.91s-1.09.33-1.73.33c-.88,0-1.63-.18-2.24-.55-.61-.37-1.09-.85-1.42-1.46-.2-.37-.34-.79-.41-1.27-.07-.48-.11-1-.11-1.57v-4.59c0-.57.04-1.09.11-1.57s.21-.9.41-1.27c.33-.6.8-1.09,1.42-1.46.61-.37,1.36-.55,2.24-.55.64,0,1.22.11,1.74.33.52.22.97.52,1.33.91.73.83,1.1,1.9,1.1,3.22h-2.81c0-.57-.12-.99-.37-1.25-.25-.26-.58-.4-1-.4s-.76.13-1,.4c-.25.27-.37.66-.37,1.2v5.69Z"/>
      <path class="cls-8" d="m119.14,100.09h-5.55v1.9c0,.44.12.78.37,1.02.25.24.58.36,1,.36.53,0,.88-.16,1.06-.47.17-.31.28-.62.32-.93h2.8c0,1.23-.38,2.22-1.13,2.97-.37.39-.81.69-1.32.91s-1.09.33-1.73.33c-.88,0-1.63-.18-2.24-.55-.61-.37-1.09-.85-1.42-1.46-.2-.37-.34-.79-.41-1.27-.07-.48-.11-1-.11-1.57v-4.59c0-.57.04-1.09.11-1.57s.21-.9.41-1.27c.33-.6.8-1.09,1.42-1.46.61-.37,1.36-.55,2.24-.55.64,0,1.22.11,1.75.33.52.22.97.52,1.33.91.73.83,1.1,1.86,1.1,3.11v3.85Zm-5.55-2.2h2.75v-1.59c0-.53-.12-.93-.37-1.2-.25-.26-.58-.4-1-.4s-.76.13-1,.4c-.25.27-.37.66-.37,1.2v1.59Z"/>
    </g>
  </g>
</svg>