<?xml version="1.0" encoding="UTF-8"?>
<svg id="Layer_2" data-name="Layer 2" xmlns="http://www.w3.org/2000/svg" viewBox="0 0 218.16 183.19">
  <defs>
    <style>
      .cls-1 {
        opacity: .2;
      }

      .cls-1, .cls-2 {
        fill: #fff;
      }

      .cls-1, .cls-2, .cls-3, .cls-4, .cls-5, .cls-6, .cls-7, .cls-8, .cls-9, .cls-10, .cls-11, .cls-12, .cls-13 {
        stroke-width: 0px;
      }

      .cls-2 {
        opacity: .3;
      }

      .cls-3 {
        fill: #fabca7;
      }

      .cls-4 {
        fill: #455b64;
      }

      .cls-5 {
        fill: #263238;
      }

      .cls-6 {
        fill: #5794c9;
      }

      .cls-7 {
        fill: #e0e0e0;
      }

      .cls-8 {
        fill: #b16669;
      }

      .cls-9 {
        fill: #ab6cad;
      }

      .cls-10 {
        fill: #9a4b4e;
      }

      .cls-11 {
        fill: #f0997a;
      }

      .cls-12 {
        fill: #ebebeb;
      }

      .cls-13 {
        fill: #f5f5f5;
      }
    </style>
  </defs>
  <g id="Layer_1-2" data-name="Layer 1">
    <circle class="cls-6" cx="108.48" cy="91.59" r="91.59" transform="translate(-32.99 103.54) rotate(-45)"/>
    <g id="Hands">
      <g>
        <g>
          <path class="cls-4" d="m163.82,39.22l-6.25-10.93,23.46-13.62s.01,0,.02-.01l.03-.02h0c3.93-2.25,9.35-1.91,15.34,1.54,12.01,6.93,21.75,23.8,21.75,37.67,0,6.95-2.44,11.83-6.39,14.09h0s-23.65,13.73-23.65,13.73l-6.42-11.23c-9.21-7.1-16.45-19.74-17.87-31.23Z"/>
          <path class="cls-5" d="m172.8,29.9c12.01,6.93,21.75,23.8,21.75,37.67,0,13.87-9.74,19.49-21.75,12.56-12.01-6.93-21.75-23.8-21.75-37.67,0-13.87,9.74-19.49,21.75-12.56Z"/>
          <g>
            <path class="cls-5" d="m198.11,65.58c0,2.16,1.13,3.25,2.54,2.44s2.54-3.21,2.54-5.37-1.13-3.25-2.54-2.44c-1.4.81-2.54,3.21-2.54,5.37Z"/>
            <path class="cls-5" d="m208.3,60.42c0,2.16,1.13,3.25,2.54,2.44s2.54-3.21,2.54-5.37-1.13-3.25-2.54-2.44c-1.4.81-2.54,3.21-2.54,5.37Z"/>
            <path class="cls-9" d="m198.93,65.81c0,2.16,1.13,3.25,2.54,2.44,1.4-.81,2.54-3.21,2.54-5.37s-1.13-3.25-2.54-2.44c-1.4.81-2.54,3.21-2.54,5.37Z"/>
            <path class="cls-9" d="m209.12,60.64c0,2.16,1.13,3.25,2.54,2.44s2.54-3.21,2.54-5.37-1.13-3.25-2.54-2.44c-1.4.81-2.54,3.21-2.54,5.37Z"/>
          </g>
        </g>
        <path class="cls-7" d="m159.22,38.82c11.38,6.57,20.61,22.55,20.61,35.69s-9.23,18.47-20.61,11.9c-11.38-6.57-20.61-22.55-20.61-35.69,0-13.14,9.23-18.47,20.61-11.9Z"/>
      </g>
      <g>
        <g>
          <path class="cls-3" d="m38.79,104.09c13.76-6.76,29.57-16.2,35.82-19.67,7.61-4.22,16.37-11.62,21-12.6l10.85,19.46,40.52,11.03-61.47,31.5-3.57,2.5c-7.69,5.4-13.66,10.16-21.63,16.55l-21.52-48.77Z"/>
          <path class="cls-11" d="m88.36,111.91c6.87,2.89,11.46-.13,11.46-.13,0,0-2.45,10.03-9.78,17.65-2.01,2.09-1.16,2.29,1.12,1.49l22.15-11.35,4.62-21.01-11.47-7.27c-.15.97-1.66,2.66-1.66,2.66-.99,6.54-3.42,12.96-3.42,12.96,0,0-5.32,6.13-13.02,5.01Z"/>
        </g>
        <g>
          <g>
            <path class="cls-8" d="m179.64,81.03s-17.74,9.22-21.05,14.45c-3.31,5.23-11.37,23.97-15.38,27.98s-13.15,12.27-17.88,15.29c-4.95,3.16-6.9,3.79-11.21,2.77-2.44,1.23-8.55,2.79-10.47-.43-2.97,2.19-9.51,1.98-11.08-.99-2.45,1.39-9.78.22-10.62-3.8l3.57-2.5c4.25-4.05,9.61-9.18,11.63-12.74,4.64-7.64,8.43-21.4,9.31-29.79l-10.85-19.45c-.28.06-.57.14-.87.25-.14.05-.29.1-.43.16-3.81,1.45-9.52,5.79-15.16,9.44,2.18-2.98,5.03-6.92,8.08-10.84,7.4-9.53,9.38-10.04,21.93-13.62,15.5-4.43,21.17-7.49,24.65-8.95,6.02-2.52,22.08-14.57,22.08-14.57l23.77,47.35Z"/>
            <ellipse class="cls-8" cx="168.84" cy="56.62" rx="15.11" ry="26.7" transform="translate(-8.69 70.63) rotate(-23.05)"/>
          </g>
          <g>
            <path class="cls-10" d="m110.24,118.2c-6.59,11.75-16.23,19.77-21.93,20.4-4.26.47-6.36-2.29-6.36-2.29.84,4.02,8.18,5.2,10.62,3.8,3.18-.69,12.87-10.02,17.67-21.91Z"/>
            <path class="cls-10" d="m120.32,120.54c-3.81,6.81-13.23,16.41-18.6,19.13-3.13,1.59-7.28,1.75-9.15.44,1.57,2.97,8.12,3.17,11.09.99,7.63-5.73,12.93-12.68,16.67-20.56Z"/>
            <path class="cls-10" d="m130.6,123.15c-4.74,6.53-12.02,13.6-17.4,16.55-5.37,2.95-8.51,1.99-9.56,1.39,1.92,3.22,8.02,1.65,10.46.43,1.88-.9,12.75-10.24,16.49-18.37Z"/>
          </g>
        </g>
        <ellipse class="cls-11" cx="48.78" cy="128.84" rx="15.11" ry="26.7" transform="translate(-46.55 29.39) rotate(-23.05)"/>
        <g id="Fingers">
          <path class="cls-3" d="m130.13,136.86c-3.05-1.6-4.33-4.73-2.23-7.96,2.1-3.23,5.94-3.01,8.49-1.58-1.88-3.16-1.65-6.09.45-8.49,2.1-2.4,6.54-2.54,9.17-.63-2.93-3.58-3.68-6.21-2.03-9.51,1.65-3.31,6.19-4.03,9.32-1.95,3.95,2.62,4.58,5.18,3.08,8.41-1.5,3.23-4.73,5.71-8.34,4.28,1.58,3.01.98,5.56-.75,7.59s-5.29,4.61-8.52,2.57c.6,2.32-.1,4.25-1.6,5.98s-4.02,2.87-7.04,1.29Z"/>
          <path class="cls-11" d="m164.11,109.13c-2.43.08-7.51-1.43-11.01-3.11,0,0,3.82-7.66,4.48-8.81.65-1.15,1.53-2.79,3.33-4.27l6.23,3.6-3.02,12.59Z"/>
          <path class="cls-3" d="m169.55,102.93c-.63,5.22-3.05,6.65-7.01,6.09-1.79-.26-5.47-2.82-5.41-7.37.04-3.36,3.58-6.61,7.12-6.12,3.41.47,5.9,2.44,5.3,7.4Z"/>
          <g>
            <g>
              <path class="cls-1" d="m148.55,116.82c.66-2.85,3.16-6.09,5.55-7.01,3.51,3.06-.57,9.71-5.55,7.01Z"/>
              <path class="cls-2" d="m154.52,110.23c-.12-.15-.26-.29-.41-.42-2.4.92-4.9,4.15-5.55,7.01.15.08.31.16.46.22.86-2.65,3.59-5.96,5.51-6.81Z"/>
            </g>
            <g>
              <path class="cls-1" d="m161.89,105.97c-.41-2.9.76-6.82,2.67-8.53,4.38,1.6,2.95,9.27-2.67,8.53Z"/>
              <path class="cls-2" d="m165.1,97.68c-.17-.09-.34-.18-.54-.25-1.91,1.72-3.08,5.63-2.67,8.53.17.02.34.04.51.04-.14-2.78,1.22-6.85,2.7-8.33Z"/>
            </g>
            <g>
              <path class="cls-1" d="m139.17,126.67c.95-2.58,3.7-5.18,6.09-5.6,3.02,3.55-1.62,9.08-6.09,5.6Z"/>
              <path class="cls-2" d="m145.61,121.55c-.1-.16-.22-.32-.35-.48-2.39.42-5.14,3.02-6.09,5.6.14.11.28.21.41.3,1.12-2.34,4.1-4.97,6.02-5.42Z"/>
            </g>
            <g>
              <path class="cls-1" d="m131.09,135.26c.63-2.25,2.78-4.64,4.78-5.16,2.8,2.8-.76,7.8-4.78,5.16Z"/>
              <path class="cls-2" d="m136.19,130.48c-.1-.13-.2-.26-.33-.38-2,.52-4.15,2.91-4.78,5.16.12.08.25.16.37.22.79-2.06,3.13-4.49,4.73-5Z"/>
            </g>
          </g>
          <path class="cls-11" d="m152.86,106.47c-3.1-1.74-7.3-.95-8.88,2.21-1.65,3.31-.9,5.94,2.03,9.51-2.63-1.91-7.06-1.77-9.17.63-2.1,2.4-2.33,5.33-.45,8.49-2.55-1.43-6.39-1.65-8.49,1.58-1.6,2.46-1.24,4.86.37,6.58-.74-1.32-1.24-4.64,1.52-6.82,2.77-2.18,6.28.36,7.31-.88,1.03-1.24-1.13-5.35,1.39-8.08s6.59-.05,7.98-.98c1.39-.93-1.75-4.58-1.08-7.62.67-3.03,3.8-5.4,7.46-4.62Z"/>
        </g>
        <g id="Thumb">
          <path class="cls-3" d="m146.58,85.63c-.57-1.63-2.73-2.43-7.66-6.65-4.77-4.09-8.55-8.15-13.5-8.88-2.34-.35-8.64.07-15.18.55-5.61.41-12.5.72-14.63,1.17,2.55,6.67,6.79,13.25,10.85,19.46,4.77,0,13.44-2.03,17.98-5.31,5.61,3,6.89,4.65,12.53,5.31,7.15.84,10.26-3.78,9.61-5.65Z"/>
          <g>
            <path class="cls-3" d="m135.87,81.8s5.28,3.31,7.1,3.84c2.64.77,3.61,0,3.61,0,0,0,.19-1.21-3.55-3.77-3.74-2.57-4.41-3.14-4.41-3.14,0,0-1.41.26-2.75,3.08Z"/>
            <path class="cls-1" d="m135.87,81.8s5.28,3.31,7.1,3.84c2.64.77,3.61,0,3.61,0,0,0,.19-1.21-3.55-3.77-3.74-2.57-4.41-3.14-4.41-3.14,0,0-1.41.26-2.75,3.08Z"/>
            <path class="cls-1" d="m136.82,82.38c2.05-1.23,3-2.03,3.43-2.46-1.32-.94-1.62-1.2-1.62-1.2,0,0-1.41.26-2.75,3.08,0,0,.38.23.95.58Z"/>
          </g>
          <path class="cls-11" d="m137.35,91.31c-.12,0-.25-.02-.38-.03-5.64-.66-6.93-2.31-12.54-5.31-4.54,3.28-13.21,5.31-17.98,5.31-.19,1.81-.52,3.86-.96,6.05l-2.12,3.22c1.2-4.47,1.86-8.96,1.29-9.71-.57-.75-2.57-1.82-3.94-4.49,1.45,1.04,2.75,2.15,4.38,2.83.11.05.21.08.32.12,1.33.49,3.68.66,5.7.39,6.79-.92,10.96-3.7,12.18-4.56-.77-1.07-1.09-2.32-1.27-3.67,1.6,2.79,3.25,3.78,4.73,4.85,3.75,2.72,8.64,4.69,10.57,5.01Z"/>
        </g>
      </g>
      <g>
        <path class="cls-13" d="m191.69,67.67c0,6.58-2.32,11.2-6.06,13.36l-11.89,6.87h0c3.76-2.14,6.09-6.77,6.09-13.37,0-13.14-9.22-29.13-20.6-35.69-5.62-3.24-10.72-3.59-14.43-1.52h0s11.71-6.76,11.71-6.76c0,0,0,0,.02-.01h.02c1.55-.9,3.35-1.36,5.33-1.36,2.77,0,5.9.9,9.2,2.81,11.38,6.57,20.61,22.55,20.61,35.69Z"/>
        <path class="cls-12" d="m191.69,67.67c0,6.58-2.32,11.2-6.06,13.36l-11.89,6.87h0c3.76-2.14,6.09-6.77,6.09-13.37,0-2.07-.23-4.21-.66-6.37l11.86-6.85c.43,2.16.66,4.3.66,6.37Z"/>
      </g>
      <g>
        <g>
          <path class="cls-7" d="m43.66,106.23c11.38,6.57,20.61,22.55,20.61,35.69s-9.23,18.47-20.61,11.9c-11.38-6.57-20.61-22.55-20.61-35.69,0-13.14,9.23-18.47,20.61-11.9Z"/>
          <g>
            <path class="cls-13" d="m76.12,135.08c0,6.58-2.32,11.2-6.06,13.36l-11.89,6.87h0c3.76-2.14,6.09-6.77,6.09-13.37,0-13.14-9.22-29.13-20.6-35.69-5.62-3.24-10.72-3.59-14.43-1.52h0s11.71-6.76,11.71-6.76c0,0,0,0,.02-.01h.02c1.55-.9,3.35-1.36,5.33-1.36,2.77,0,5.9.9,9.2,2.81,11.38,6.57,20.61,22.55,20.61,35.69Z"/>
            <path class="cls-12" d="m76.12,135.08c0,6.58-2.32,11.2-6.06,13.36l-11.89,6.87h0c3.76-2.14,6.09-6.77,6.09-13.37,0-2.07-.23-4.21-.66-6.37l11.86-6.85c.43,2.16.66,4.3.66,6.37Z"/>
          </g>
        </g>
        <g>
          <path class="cls-4" d="m12.77,126.96l-6.25-10.93,23.46-13.62s.01,0,.02-.01l.03-.02h0c3.93-2.25,9.35-1.91,15.34,1.54,12.01,6.93,21.75,23.8,21.75,37.67,0,6.95-2.44,11.83-6.39,14.09h0s-23.65,13.73-23.65,13.73l-6.42-11.23c-9.21-7.1-16.45-19.74-17.87-31.23Z"/>
          <path class="cls-5" d="m21.75,117.64c12.01,6.93,21.75,23.8,21.75,37.67,0,13.87-9.74,19.49-21.75,12.56C9.74,160.93,0,144.07,0,130.2c0-13.87,9.74-19.49,21.75-12.56Z"/>
          <g>
            <path class="cls-5" d="m47.05,153.33c0,2.16,1.13,3.25,2.54,2.44,1.4-.81,2.54-3.21,2.54-5.37s-1.13-3.25-2.54-2.44c-1.4.81-2.54,3.21-2.54,5.37Z"/>
            <path class="cls-5" d="m57.24,148.16c0,2.16,1.13,3.25,2.54,2.44s2.54-3.21,2.54-5.37-1.13-3.25-2.54-2.44c-1.4.81-2.54,3.21-2.54,5.37Z"/>
            <path class="cls-9" d="m47.88,153.55c0,2.16,1.13,3.25,2.54,2.44,1.4-.81,2.54-3.21,2.54-5.37s-1.13-3.25-2.54-2.44c-1.4.81-2.54,3.21-2.54,5.37Z"/>
            <path class="cls-9" d="m58.06,148.39c0,2.16,1.13,3.25,2.54,2.44,1.4-.81,2.54-3.21,2.54-5.37s-1.13-3.25-2.54-2.44c-1.4.81-2.54,3.21-2.54,5.37Z"/>
          </g>
        </g>
      </g>
    </g>
  </g>
</svg>